<?xml version="1.0" encoding="utf-8"?>
<!-- Generator: Adobe Illustrator 27.5.0, SVG Export Plug-In . SVG Version: 6.00 Build 0)  -->
<svg version="1.1" id="layer" xmlns="http://www.w3.org/2000/svg" xmlns:xlink="http://www.w3.org/1999/xlink" x="0px" y="0px"
	 viewBox="0 0 450 450" style="enable-background:new 0 0 450 450;" xml:space="preserve">
<!-- <rect style="fill:#FFFFFF;" width="450" height="450"/>
<ellipse style="fill:#F2F2F2;" cx="262.071" cy="398.006" rx="133.755" ry="23.873"/>
<ellipse style="fill:#E0E0E0;" cx="263.687" cy="396.006" rx="102.487" ry="16.974"/> -->
<g>
	<g>
		<path style="fill:#DDB973;" d="M315.742,133.62c-21.756-48.642-197.878,25.885-197.878,25.885
			c22.785,5.703,67.198,17.701,53.662,65.477c-22.19,78.32-40.144,178.344,7.586,178.344h125.202
			c28.104,0,72.762-55.52-12.132-179.789C253.401,166.767,299.906,134.899,315.742,133.62z"/>
		<path style="fill:#ECCF8D;" d="M291.188,368.889c-5.961-1.449-11.538-15.19-12.122-36.513c-0.271-9.902-0.533-28.051,2.775-29.941
			c9.201-5.258,14.696-12.148,10.465-23.77c-7.974-24.126-14.125-35.385-33.357-62.715c-24.866-35.336-77.458-35.467-78.752-7.225
			c-2.195,47.902-69.258,187.092,18.691,194.6l55.404,0.007c23.861,0,45.088-5.178,54.372-29.586
			C310.645,366.541,297.13,370.333,291.188,368.889z M226.179,257.155c-14.989,2.941-38.055-4.242-41.55-14.432
			c-2.804-8.176-1.519-16.296-1.716-24.762c-0.142-6.103-2.68-13.838,4.054-17.749c11.976-6.949,32.414-3.561,44.909-0.438
			c18.601,4.649,11.842,36.038,6.384,49.229C236.42,253.449,231.885,256.035,226.179,257.155z"/>
		<path style="fill:#DDB973;" d="M303.017,384.466c-14.002,14.194-42.826-19.748-40.681-71.495
			c1.06-25.577-27.764-48.306-54.359-48.252c-26.594,0.054-46.174,21.768-45.417,47.394c1.751,59.284-4.431,63.611-6.344,57.261
			c-4.434,8.542,9.42,30.377,10.693,31.164c3.477,1.812,7.52,2.788,12.204,2.788h104.746
			C286.079,400.232,312.242,395.217,303.017,384.466z"/>
		<g>
			<path style="fill:#F9EBCD;" d="M127.569,160.092c43.109,3.773,41.423,36.767,48.7,35.02c7.408-1.778-20.763-30.043-23.853-33.949
				c-4.822-6.095,14.168-5.487,21.874,21.246c4.237,14.696,15.654,12.764-4.817-20.952c-20.127-33.151,3.12-14.16,6.984,4.576
				c3.029,14.687,8.556,28.313,13.246,25.287c7.466-4.817-17.822-45.758-28.529-50.949c-16.036-7.774,21.958-16.749,27.807,29.756
				c2.442,19.415,10.336,24.469,7.466,10.597c-8.67-41.905-21.193-39.898-18.624-54.187c2.865-15.936,21.313,17.522,22.719,49.852
				c0.722,16.617,12.114,14.068,3.444-7.126c-11.652-28.483-8.774-44.493-1.437-48.828c14.72-8.697,4.174,37.409,11.72,58.602
				c5.135,14.421,10.569,11.346,6.422-8.349c-4.495-21.354-8.805-32.286-2.087-49.611c3.051-7.867,10.469,25.805,8.67,39.657
				c-4.105,31.597,9.27,40.322,4.335,0.723c-2.218-17.797,0.791-36.526,5.057-37.329c6.249-1.177,4.275,5.551,1.485,28.099
				c-3.853,31.148,11.279,46.077,10.316,35.48c-0.963-10.597-11.078-44.313,2.408-69.841s4.817,5.298,2.408,23.602
				c-2.408,18.303,0,48.648,4.335,49.13c4.335,0.482-3.372-27.937,0-43.832c3.372-15.895,7.691-37.521,12.55-41.383
				c4.86-3.862,5.87,8.683,0.454,22.92c-10.597,27.856-13.005,62.295-5.073,60.727c5.311-1.05,0.738-13.684,2.183-26.208
				c1.445-12.523,8.562-35.329,15.895-46.4s3.938,5.336-0.963,16.377c-7.711,17.369-14.843,43.437-9.633,44.313
				c4.544,0.764,3.372-13.968,6.743-23.602c3.372-9.633,9.688-36.306,16.377-36.125c12.609,0.341-15.358,32.935-12.042,34.198
				c5.195,1.978,9.29-23.791,35.059-24.272l-69.257-52.794l-114.154,53.946L127.569,160.092z"/>
			<g>
				<path style="fill:#CEAC67;" d="M202.511,118.868c-3.79,2.239-6.372,7.635-6.339,16.286c0.299-7.728,2.806-12.61,6.376-14.719
					c5.506-3.253,7.476,1.164,8.181,9.076C210.156,120.663,208.332,115.429,202.511,118.868z"/>
				<path style="fill:#CEAC67;" d="M200.525,174.233c-1.391-31.99-19.645-65.096-22.479-49.328c-0.108,0.6-0.179,1.161-0.235,1.707
					c0.005-0.026,0.007-0.05,0.012-0.076c2.865-15.936,21.313,17.522,22.719,49.852c0.561,12.912,7.559,14.245,6.587,4.259
					C206.913,188.033,201.035,185.963,200.525,174.233z"/>
				<path style="fill:#CEAC67;" d="M189.801,189.007c-4.641,2.994-10.109-10.489-13.106-25.021
					c-1.529-7.413-6.123-14.858-9.815-19.036c-1.148-1.175-2.244-2.178-3.267-2.981c-1.34-0.814-2.086-0.473-1.744,1.423
					c2.321-0.714,12.188,11.007,14.587,22.642c3.029,14.687,8.556,28.313,13.246,25.287c1.108-0.715,1.48-2.24,1.3-4.311
					C190.818,187.905,190.438,188.597,189.801,189.007z"/>
				<path style="fill:#CEAC67;" d="M189.087,168.037c-4.947-39.329-33.1-38.552-31.279-32.695
					c3.794-3.842,26.733-0.514,31.173,34.785c2.175,17.295,8.67,23.18,8.036,14.457
					C196.365,189.626,191.013,183.356,189.087,168.037z"/>
				<path style="fill:#CEAC67;" d="M176.508,192.76c-7.2,1.728-5.532-30.918-48.187-34.652l7.708-29.773l-0.271,0.128l-8.188,31.629
					c43.109,3.773,41.423,36.767,48.7,35.02c1.214-0.291,1.459-1.304,1.029-2.793C177.102,192.516,176.856,192.676,176.508,192.76z"
					/>
				<path style="fill:#CEAC67;" d="M174.55,180.19c-7.235-25.096-24.504-26.919-22.182-21.889
					c3.165-1.648,15.939,3.358,21.922,24.108c0.416,1.443,0.903,2.72,1.42,3.828c0.482,0.785,0.89,1.521,1.211,2.197
					c2.312,3.545,4.695,3.758,4.34-0.465C180.32,190.443,176.595,187.281,174.55,180.19z"/>
				<path style="fill:#CEAC67;" d="M218.397,119.504c-3.401,8.77-3.936,15.888-3.062,23.575c-0.598-7.086,0.102-13.835,3.268-22.001
					c1.853-4.779,5.315,5.774,7.347,17.898C223.995,126.269,220.32,114.545,218.397,119.504z"/>
				<path style="fill:#CEAC67;" d="M296.151,117.385c0.916,0.025,1.596,0.237,2.111,0.578c-0.302-1.28-1.257-2.063-3.133-2.113
					c-6.619-0.179-12.868,26.213-16.204,35.745c-3.336,9.532-2.176,24.109-6.672,23.353c-0.357-0.06-0.649-0.25-0.893-0.538
					c0.21,1.572,0.741,2.545,1.671,2.701c4.544,0.764,3.372-13.968,6.743-23.602C283.146,143.876,289.462,117.204,296.151,117.385z"
					/>
				<path style="fill:#CEAC67;" d="M214.108,176.854c-1.506-4.229-2.277-9.467-2.678-15.054c0.359,6.403,1.136,12.456,2.839,17.238
					c4.54,12.75,9.308,11.813,7.488-2.185C222.802,188.604,218.354,188.779,214.108,176.854z"/>
				<path style="fill:#CEAC67;" d="M267.733,162.822c1.445-12.523,8.562-35.329,15.895-46.4c1.558-2.353,2.628-3.455,3.306-3.641
					c-0.072-2.294-1.27-2.301-4.196,2.116c-7.256,10.955-14.298,33.521-15.728,45.912c-1.43,12.391,3.096,24.893-2.16,25.932
					c-1.46,0.289-2.564-0.659-3.33-2.564c0.727,3.405,2.059,5.243,4.03,4.853C270.862,187.98,266.288,175.345,267.733,162.822z"/>
				<path style="fill:#CEAC67;" d="M317.072,125.713c-23.12,0.951-28.158,22.741-32.865,24.019c-0.434,1.03-0.516,1.692-0.098,1.851
					c5.196,1.978,9.29-23.791,35.059-24.273L317.072,125.713z"/>
				<path style="fill:#CEAC67;" d="M240.252,125.397c-0.337-2.548-1.505-3.341-3.983-2.875c-4.222,0.795-7.199,19.327-5.004,36.936
					c3.539,28.398-2.434,31.666-4.447,19.419c1.634,14.864,8.565,12.868,4.79-17.421c-2.218-17.796,0.791-36.526,5.057-37.329
					C238.527,123.778,239.654,124.136,240.252,125.397z"/>
				<path style="fill:#CEAC67;" d="M257.618,146.766c3.372-15.895,7.691-37.521,12.55-41.383c1.146-0.91,2.074-0.9,2.758-0.179
					c-0.649-1.937-1.852-2.545-3.507-1.229c-4.809,3.821-9.082,25.22-12.418,40.948c-3.336,15.728,4.289,43.847,0,43.37
					c-0.902-0.1-1.718-1.518-2.424-3.845c0.834,3.683,1.866,6.02,3.041,6.15C261.953,191.08,254.246,162.661,257.618,146.766z"/>
				<path style="fill:#CEAC67;" d="M257.597,108.167c-0.213-3.032-2.079-1.661-7.268,8.16c-13.345,25.259-3.336,58.621-2.383,69.106
					c0.664,7.307-6.401,2.336-9.458-11.772c2.796,15.889,10.682,21.791,9.978,14.047c-0.963-10.597-11.078-44.313,2.408-69.841
					C254.627,110.764,256.663,108.028,257.597,108.167z"/>
			</g>
		</g>
		<path style="fill:#C19348;" d="M262.198,376.259c-0.998-16.09-0.612-41.697-2.166-57.714c-2.387-24.605-7.579-26.666-18.75-37.883
			c-10.544-9.647-19.343-15.971-33.306-15.943c-13.881,0.028-25.842,5.965-34.007,15.271c-3.552,14.185-9.021,27.879-8.92,42.507
			c0.335,48.428,4.541,84.211-10.65,63.343c6.607,17.316,20.028,17.485,24.712,17.485h104.435
			C266.824,403.008,262.976,388.801,262.198,376.259z"/>
		<g>
			<g>
				<path style="fill:#510309;" d="M171.717,406.157h76.615l5.958-2.823l3.253-89c1.01-25.579-22.973-47.016-49.568-46.962
					c-26.594,0.054-44.726,22.113-43.451,47.718C167.626,377.39,171.717,406.157,171.717,406.157z"/>
				<path style="fill:#7F4A1E;" d="M171.717,406.157l6.213,0.606l70.402-0.606l3.4-91.4c0.951-25.579-18.551-47.439-43.613-47.385
					c-25.061,0.054-43.96,21.996-42.305,47.568L171.717,406.157z"/>
				<path style="fill:#510309;" d="M177.93,406.763l64.191-0.606l2.644-91.385c0.616-21.29-15.761-39.385-36.536-39.341
					c-20.774,0.045-36.651,18.208-35.45,39.494L177.93,406.763z"/>
				<g>
					<path style="fill:#87491B;" d="M181.21,290.232c-5.108,6.763-7.917,15.396-7.407,24.628l0.098,1.781l8.499-0.018
						L181.21,290.232z"/>
					<path style="fill:#7C4018;" d="M190.928,281.393c-3.116,1.905-5.913,4.296-8.299,7.074l1.222,28.153l8.26-0.018
						L190.928,281.393z"/>
					<path style="fill:#87491B;" d="M200.955,277.317c-3.016,0.688-5.885,1.77-8.544,3.217l1.149,36.065l8.26-0.018L200.955,277.317
						z"/>
					<path style="fill:#6D350F;" d="M210.855,276.571c-0.843-0.062-1.691-0.104-2.548-0.102c-1.993,0.004-3.942,0.195-5.842,0.536
						l0.804,39.574l8.017-0.017L210.855,276.571z"/>
					<path style="fill:#7F4A1E;" d="M220.771,278.876c-2.67-1.053-5.473-1.815-8.396-2.164l0.361,39.846l8.017-0.017
						L220.771,278.876z"/>
					<path style="fill:#7C4018;" d="M231.341,285.379c-2.7-2.411-5.748-4.412-9.057-5.902l-0.081,37.061l8.746-0.019
						L231.341,285.379z"/>
					<path style="fill:#87491B;" d="M239.895,296.667c-1.826-3.673-4.215-7.011-7.071-9.865l-0.425,29.714l7.047-0.015
						L239.895,296.667z"/>
					<path style="fill:#6D350F;" d="M241.301,299.849l-0.406,16.65l2.917-0.006l0.05-1.782
						C244.007,309.483,243.086,304.456,241.301,299.849z"/>
					<polygon style="fill:#6D350F;" points="243.533,326.51 243.77,318.003 173.986,318.152 174.455,326.657 					"/>
					<polygon style="fill:#87491B;" points="186.681,406.68 186.041,397.271 178.356,397.287 178.796,406.755 					"/>
					<polygon style="fill:#7C4018;" points="195.151,406.6 194.819,397.253 187.351,397.268 187.736,406.67 					"/>
					<polygon style="fill:#6D350F;" points="212.082,406.44 212.158,397.216 204.909,397.232 205.161,406.506 					"/>
					<polygon style="fill:#7C4018;" points="229.837,406.273 229.935,397.179 222.028,397.196 221.886,406.348 					"/>
					<polygon style="fill:#87491B;" points="237.582,406.199 237.617,397.163 231.246,397.177 230.866,406.263 					"/>
					<polygon style="fill:#6D350F;" points="241.313,406.157 241.564,397.155 238.927,397.161 238.708,406.157 					"/>
					<polygon style="fill:#7F4A1E;" points="220.691,406.359 220.717,397.199 213.468,397.214 213.483,406.427 					"/>
					<polygon style="fill:#87491B;" points="204.091,406.516 203.598,397.234 196.13,397.25 196.304,406.589 					"/>
					<polygon style="fill:#6D350F;" points="241.599,395.916 241.804,388.564 177.882,388.698 178.288,396.048 					"/>
					<polygon style="fill:#87491B;" points="182.92,328.114 174.537,328.132 177.812,387.43 185.596,387.414 					"/>
					<polygon style="fill:#7C4018;" points="192.497,328.094 184.35,328.111 186.923,387.411 194.488,387.396 					"/>
					<polygon style="fill:#87491B;" points="202.074,328.073 193.926,328.091 195.816,387.393 203.381,387.377 					"/>
					<polygon style="fill:#7C4018;" points="230.805,328.012 222.179,328.031 222.049,387.338 230.059,387.321 					"/>
					<polygon style="fill:#87491B;" points="239.185,327.995 232.235,328.009 231.387,387.318 237.84,387.305 					"/>
					<polygon style="fill:#6D350F;" points="240.615,327.992 239.168,387.302 241.839,387.296 243.491,327.986 					"/>
					<polygon style="fill:#7F4A1E;" points="220.749,328.034 212.841,328.051 213.379,387.356 220.722,387.341 					"/>
					<polygon style="fill:#6D350F;" points="211.411,328.054 203.503,328.07 204.708,387.374 212.051,387.359 					"/>
				</g>
			</g>
			<path style="opacity:0.4;fill:#2D0107;" d="M240.934,364.008c0,3.647-2.737,6.604-6.112,6.604c-3.376,0-6.112-2.957-6.112-6.604
				c0-3.647,2.737-6.604,6.112-6.604C238.197,357.404,240.934,360.361,240.934,364.008z"/>
			<ellipse style="fill:#D38700;" cx="234.353" cy="363.047" rx="5.669" ry="6.125"/>
			<path style="fill:#ED960A;" d="M238.94,361.083c0,1.923-2.012,3.483-4.493,3.483c-2.482,0-4.493-1.559-4.493-3.483
				c0-1.924,2.012-3.483,4.493-3.483C236.928,357.6,238.94,359.159,238.94,361.083z"/>
			<path style="fill:#FFB64D;" d="M237.377,359.605c0,0.966-1.429,1.749-3.191,1.749s-3.191-0.783-3.191-1.749
				c0-0.966,1.429-1.749,3.191-1.749S237.377,358.639,237.377,359.605z"/>
			<path style="fill:#B26E00;" d="M234.353,367.024c-2.004,0-3.767-1.066-4.867-2.689c0.373,2.551,2.401,4.507,4.867,4.507
				c2.466,0,4.494-1.956,4.867-4.507C238.12,365.958,236.357,367.024,234.353,367.024z"/>
		</g>
		<path style="fill:#C19348;" d="M289.221,225.434c-4.078-5.969-24.371-38.693-5.111-73.851
			c-29.135,51.001,6.587,92.598,24.288,126.917c3.527,6.837,7.765,14.149,0.511,18.26c-1.897,1.075-13.857,1.229-24.439,6.405
			c-5.503,2.692,2.961,53.421,6.812,59.538c3.855,6.122,36.94-3.149,36.439,1.562c-2.079,19.579-10.708,36.337-40.639,39.061h17.234
			C332.419,403.326,374.114,349.704,289.221,225.434z"/>
		<path style="fill:#F7DCA6;" d="M269.006,251.914c4.74,15.549,4.108,29.593-1.411,31.368c-5.519,1.775-13.835-9.391-18.575-24.94
			c-4.74-15.549-4.108-29.593,1.411-31.368C255.95,225.198,264.266,236.365,269.006,251.914z"/>
		<path style="fill:#F7DCA6;" d="M277.894,281.741c0.589,8.191-1.29,15.01-4.197,15.23c-2.907,0.221-5.742-6.241-6.331-14.431
			c-0.589-8.191,1.29-15.01,4.197-15.23C274.47,267.089,277.305,273.55,277.894,281.741z"/>
		<path style="opacity:0.5;fill:#422C00;" d="M278.424,193.436c-8.169-37.848,24.546-58.785,37.318-59.817
			c-21.756-48.642-197.877,25.885-197.877,25.885c10.628,2.66,25.961,6.692,37.925,15.084
			C252.446,131.418,253.828,180.445,278.424,193.436z"/>
		<g>
			<g>
				<g>
					<g>
						<g>
							<g>
								<g>
									<path style="fill:#935B00;" d="M292.832,125.268l-18.133-9.3c0,0,0-34.567-0.335-35.574
										c-0.336-1.007,37.252,17.116,37.252,17.116L292.832,125.268z"/>
									<path style="fill:#935B00;" d="M181.24,144.362l6.311-27.282c0,0-34.568,0-35.574-0.336
										c-1.007-0.336,17.116,37.252,17.116,37.252L181.24,144.362z"/>
									<path style="fill:#FCC216;" d="M326.718,63.949c-47.656,16.78-88.6-32.218-162.433,12.081c0,0-82.559-44.3-114.777,1.342
										c-11.384,16.128-22.15,36.245,12.082,47.656c34.232,11.411,32.889,49.67,91.956,33.561
										c5.235-1.428,10.419-2.975,15.548-4.592c2.872-4.414,4.93-10.861,1.957-19.239c4.199,4.339,8.109,10.233,10.95,14.997
										c40.306-13.731,76.274-29.857,102.361-26.438c4.478-8.685,9.484-24.124-1.859-37.282
										c8.974,7.118,15.356,22.202,10.331,39.233c1.49,0.509,2.947,1.087,4.353,1.775c31.547,15.438,68.464,20.808,79.874-4.027
										C388.47,98.181,374.374,47.168,326.718,63.949z"/>
									<path style="fill:#FEB612;" d="M86.088,79.631c-10.094,9.346,9.347,10.468,22.432,17.384
										c17.686,9.348,42.182-15.099,55.765-20.985C164.285,76.03,123.287,51.592,86.088,79.631z"/>
									<path style="fill:#FEB612;" d="M337.252,83.933c29.394,15.86-4.132-22.238-10.533-19.984
										c-10.044,3.536-19.791,4.14-29.611,3.326C310.621,72.66,325.521,77.603,337.252,83.933z"/>
									<path style="fill:#F4A200;" d="M136.673,80.22c-4.187,0.88-8.804-6.176-10.715-6.742
										c3.806,9.093-1.317,10.062-3.461,11.291c-1.585,0.908-9.915-0.647-13.419-10.934c-1.342,7.719,6.845,12.408,5.034,13.424
										c-3.522,1.975-23.828,8.39-30.247-2.192c3.133,9.253,15.992,10.999,23.588,13.399
										c19.075,6.027,43.641-16.726,57.223-22.612c0,0-8.501-1.632-15.633,0.75c-0.244,0.082-3.101-1.646-4.687-2.597
										C144.25,77.284,139.018,79.726,136.673,80.22z"/>
									<path style="fill:#F4A200;" d="M340.887,85.773c0.118-5.432-2.79-11.357-7.654-15.374
										c-3.809,9.688-10.233-2.181-36.126-3.124C310.621,72.66,328.368,80.125,340.887,85.773z"/>
									<path style="fill:#FEB612;" d="M238.118,120.666c-51.126,17.263-53.649,2.814-64.94,4.531
										c-7.324,1.113-11.104,16.131-19.297,21.982c-15.273,10.907-41.77,13.119-48.16,1.174
										c-25.674-47.992-46.09-26.446-59.067-34.232c-10.609-6.366-5.462-15.578-6.074-21.38
										c-4.854,12.126-2.876,24.325,21.009,32.287c34.232,11.411,32.889,49.67,91.956,33.561
										c5.235-1.428,10.419-2.975,15.548-4.592c2.872-4.414,4.93-10.861,1.957-19.239c4.199,4.339,8.109,10.233,10.95,14.997
										c40.306-13.731,76.274-29.857,102.361-26.438c3.439-6.67,11.966-26.562-1.859-37.282
										C283.09,101.536,263.96,111.94,238.118,120.666z"/>
									<path style="fill:#FEB612;" d="M347.526,123.687c-38.93-2.014-47.976-35.369-65.024-37.652
										c13.677,14.39,13.662,27.945,10.331,39.233c0,0,3.635,2.482,5.041,3.17c31.547,15.438,67.776,19.412,79.186-5.423
										c2.928-6.373,4.163-14.471,3.596-22.704C378.073,120.559,362.844,124.479,347.526,123.687z"/>
									<path style="fill:#FFD773;" d="M57.408,99.172c2.911,1.109,5.9,1.749,8.331,1.78c5.565,0.07,7.79,1.237,12.848,2.794
										c4.338,1.335,9.478-1.362,12.995,0.206c2.683,1.196,4.228,6.45,7.513,8.181c2.375,1.251,6.369,0.702,9.13,2.052
										c7.027,3.436,8.978,10.283,17.626,5.638c4.496-2.415,5.939-7.855,11.75-8.839c5.212-0.882,9.002,3.283,14.012,3.065
										c7.353-0.32,8.85-8.213,15.227-10.764c6.67-2.669,14.769-0.73,21.655-0.19c8.296,0.65,13.174-5.042,20.977-5.439
										c10.353-0.528,14.677,4.201,24.913-0.864c6.716-3.323,13.576-3.208,20.494-6.689c4.594-2.312,11.41-3.343,13.737-8.509
										c3.508-7.785-4.679-13.438-11.082-15.496c-11.555-3.712-26.758-3.252-38.743-1.485c-3.722,0.549-2.621,1.468-7.338,0.746
										c-9.214-1.411-14.257,1.541-22.178,6.355c-6.669,4.053-15.158,8.069-21.156,12.543c-2.438,1.819-3.247,5.462-5.143,6.864
										c-4.545,3.362-11.653,1.633-16.777,4.12c-6.086,2.953-10.205,9.338-16.014,12.865c-16.15,9.806-67.093-9.5-48.325-31.581
										c2.136-2.514,21.556-13.296,21.308-15.301c-0.565-4.581-23.437-0.825-27.001,0.23
										c-8.846,2.622-39.427,21.083-26.876,32.891C51.43,96.354,54.376,98.017,57.408,99.172z"/>
									<path style="fill:#FFD773;" d="M353.919,79.01c2.859,3.785,4.797,7.713,1.156,11.674
										c-4.941,5.373-33.124-7.754-39.833-10.185c-5.46-1.978-28.324-13.593-33.724-7.325c-6.84,7.952,24.096,9.235,25.756,9.794
										c2.82,0.949,4.635,4.339,7.683,5.503c2.847,1.087,5.98-0.287,9.076,1.104c6.611,2.969,7.64,7.367,15.605,8.239
										c8.762,0.96,6.676,0.815,14.069,5.873c8.208,5.615,16.106,2.705,19.234-6.475c3.591-10.538-2.264-22.151-10.889-28.315
										c-2.739-1.957-9.478-7.689-13.022-4.409C344.301,68.861,349.982,73.799,353.919,79.01z"/>
								</g>
								<path style="fill:#FFE8B6;" d="M74.351,78.315c-0.19,2.73-0.175,4.865,0.439,8.139c0.586,3.122,4.665,6.536,0.816,8.394
									c-5.13,2.477-15.288-4.558-16.779-9.298C55.179,73.955,65.154,63.71,91.69,60.794
									C108.127,58.988,74.876,70.769,74.351,78.315z"/>
								<path style="fill:#FFE8B6;" d="M192.229,84.388c-0.23,0.021-0.467,0.053-0.714,0.097
									c-7.183,1.304-11.357,9.238-18.892,10.544c0.258-1.265,1.155-2.214,2.131-3.219c1.078-1.11,3.863-0.649,5.186-1.764
									c1.088-0.917,0.553-2.452,1.391-3.3c5.761-5.825,10.558-11.423,18.191-14.21c16.702-6.1,37.773-6.507,55.271-3.071
									c15.859,3.114,2.549,12.885-7.346,14.538c-6.493,1.084-13.84,2.146-20.43,1.743c-5.629-0.344-11.177-2.881-16.883-2.606
									c-3.382,0.164-5.971,3.327-8.97,3.478C197.646,86.795,196.007,84.049,192.229,84.388z"/>
							</g>
							<path style="fill:#D38700;" d="M94.042,94.358c4.542,1.878,9.628,2.913,13.41,4.108
								c19.075,6.027,43.641-16.726,57.224-22.612c0,0-7.768-0.525-33.745,15.628C116.687,100.339,94.239,93.93,94.042,94.358z"/>
							<path style="fill:#D38700;" d="M340.887,85.773c0.027-1.254-0.107-2.534-0.389-3.811
								c-5.251,1.803-20.309-8.324-43.391-14.688C310.621,72.66,328.368,80.125,340.887,85.773z"/>
						</g>
					</g>
				</g>
				<path style="fill:#FFFCF5;" d="M256.059,74.522c-0.987,4.352-15.534,4.154-26.371,2.168c-10.509-1.927-33.215,0.903-31.79,0.181
					c12.732-6.449,27.427-6.322,38.112-6.322C246.694,70.548,256.412,72.963,256.059,74.522z"/>
				<path style="fill:#FFFCF5;" d="M71.461,77.412c-2.348,6.864,1.988,12.282,0.542,12.282c-1.446,0-8.851-4.877-7.225-11.379
					c2.66-10.638,22.759-16.075,23.12-14.45C88.211,65.277,74.649,68.093,71.461,77.412z"/>
				<path style="fill:#FFFCF5;" d="M354.191,69.87c-3.966-0.436,4.685,6.657,6.629,12.058c3.251,9.031-0.542,14.811-5.599,15.353
					C374.548,99.629,369.445,71.547,354.191,69.87z"/>
			</g>
			<path style="fill:#D38700;" d="M238.052,127.882c-25.662,7.566-43.376,15.481-54.037,19.424c0,0-5.988-7.74-12.964-12.548
				c0,0-2.37,9.627-10.987,15.761c-9.254,6.588-46.881,16.649-59.003,1.022c-23.33-30.076-41.795-27.369-54.837-35.046
				c-5.821-3.427-7.467-10.512-7.467-10.512c0.334,2.396,1.436,14.164,21.745,20.172c34.601,10.236,31.592,50.396,92.986,33.054
				c5.222-1.475,11.082-3.295,16.211-4.912c2.872-4.414,4.325-11.16,1.352-19.538c4.199,4.339,7.948,10.915,10.789,15.678
				c40.563-12.141,77.457-27.902,102.881-25.896c2.867-5.561,9.998-19.88,2.949-32.501
				C295.594,114.884,274.709,117.075,238.052,127.882z"/>
			<path style="fill:#D38700;" d="M349.742,137.439c-18.548,1.753-35.561-2.223-53.418-12.916
				c-0.056-6.041,2.045-21.615-8.655-32.483c7.056,10.731,6.251,24.017,3.437,33.554c0,0,5.486,3.285,6.878,4
				c32.913,16.913,67.665,18.257,79.076-6.578C371.658,132.502,365.013,135.996,349.742,137.439z"/>
			<path style="fill:#935B00;" d="M300.199,130.707c0,0,3.955,2.442,6.361,2.924c0.926-3.668,1.286-11.033,0.254-15.217
				C306.191,122.403,302.071,128.031,300.199,130.707z"/>
		</g>
		<path style="fill:#DDB973;" d="M247.523,201.513c0.321,4.496-0.856,8.177-2.641,8.128c-1.792-0.049-3.458-3.834-3.708-8.36
			c-0.245-4.424,0.961-7.875,2.684-7.798C245.574,193.561,247.209,197.117,247.523,201.513z"/>
		<path style="fill:#DDB973;" d="M256.981,212.487c-1.582-0.055-2.665,2.355-2.411,5.426c0.258,3.119,1.792,5.712,3.417,5.749
			c1.619,0.036,2.679-2.482,2.378-5.582C260.069,215.027,258.558,212.542,256.981,212.487z"/>
		<path style="fill:#DDB973;" d="M232.111,234.618c-4.403-0.065-7.981,6.777-7.953,15.605c0.029,9.206,3.935,16.885,8.679,16.79
			c4.696-0.094,8.154-7.781,7.781-16.821C240.259,241.516,236.473,234.683,232.111,234.618z"/>
		<path style="fill:#C19348;" d="M267.085,201.6c-1.204-0.025-1.92,1.877-1.592,4.273c0.331,2.425,1.601,4.423,2.829,4.437
			c1.225,0.014,1.924-1.952,1.568-4.366C269.539,203.56,268.286,201.626,267.085,201.6z"/>
		<path style="fill:#ECCF8D;" d="M262.434,248.966c-2.325,0.022-3.846,4.135-3.377,9.294c0.48,5.281,2.849,9.594,5.269,9.52
			c2.407-0.073,3.872-4.461,3.296-9.689C267.06,252.982,264.747,248.944,262.434,248.966z"/>
		<path style="fill:#C19348;" d="M263.679,364.922c-2.365,0.579-3.667,6.119-2.872,12.544c0.819,6.623,3.53,11.577,6.017,10.882
			c2.469-0.69,3.674-6.666,2.732-13.17C268.642,368.866,266.028,364.347,263.679,364.922z"/>
		<path style="fill:#C19348;" d="M296.14,256.421c-1.487,0.732-1.541,4.606-0.071,8.76c1.515,4.283,4.044,7.178,5.596,6.352
			c1.541-0.82,1.465-4.97-0.115-9.156C300.018,258.315,297.617,255.695,296.14,256.421z"/>
		<path style="fill:#DDB973;" d="M178.075,231.123c-1.65-0.161-3.735,3.104-4.673,7.41c-0.967,4.439-0.342,8.232,1.413,8.347
			c1.742,0.114,3.863-3.454,4.724-7.844C180.374,234.775,179.714,231.283,178.075,231.123z"/>
		<path style="fill:#C19348;" d="M158.028,338.313c-1.553,0.073-2.748,2.554-2.65,5.653c0.102,3.229,1.556,5.83,3.226,5.684
			c1.651-0.144,2.79-2.914,2.57-6.069C160.962,340.55,159.564,338.24,158.028,338.313z"/>
		<path style="fill:#ECCF8D;" d="M217.18,190.541c-3.717-0.197-6.819,2.842-6.904,6.865c-0.087,4.109,2.995,7.623,6.856,7.767
			c3.83,0.144,6.863-3.091,6.805-7.147C223.881,194.055,220.867,190.737,217.18,190.541z"/>
		<path style="fill:#DDB973;" d="M181.258,248.086c-3.374-0.028-6.603,4.393-7.195,10.142c-0.625,6.065,1.907,11.126,5.635,10.995
			c3.672-0.129,6.836-5.252,7.103-11.152C187.054,252.472,184.586,248.115,181.258,248.086z"/>
		<path style="fill:#F7DCA6;" d="M238.743,254.139c-2.506,0.564-4.213,5.069-3.771,10.254c0.462,5.417,3.065,9.397,5.765,8.673
			c2.667-0.715,4.252-5.719,3.595-10.972C243.702,257.062,241.222,253.581,238.743,254.139z"/>
		<path style="fill:#DDB973;" d="M266.078,328.183c0.653,9.357,3.82,17.338,6.952,16.945c3.069-0.385,4.51-8.654,3.377-17.651
			c-1.032-8.199-3.893-14.287-6.511-14.233C267.234,313.298,265.484,319.683,266.078,328.183z"/>
		<path style="opacity:0.2;fill:#F7DCA6;" d="M170.681,390.147c5.353-16.271,13.41-31.563,24.773-44.575
			c11.603-13.287,26.105-24.22,42.627-30.61c4.45-1.721,8.994-3.2,13.616-4.361c-1.172-23.746-19.885-43.282-43.577-43.23
			c-25.061,0.054-43.96,21.996-42.305,47.568L170.681,390.147z"/>
		<g>
			<g>
				<g>
					<g>
						<path style="fill:#510309;" d="M186.973,203.619c10.498-3.224,20.437-6.196,46.537-2.054
							c11.017,2.495,1.265,46.549-0.619,49.003c-3.448,4.492-41.071,1.754-46.663-5.559
							C185.574,244.154,182.757,204.914,186.973,203.619z"/>
						<path style="fill:#510309;" d="M226.289,206.316c-9.926-2.134-30.005-3.754-36.784,1.491
							c-2.208,1.708-0.238,30.758,0.706,32.671c1.777,3.598,26.782,5.547,34.286,4.414
							C225.543,244.733,230.711,207.266,226.289,206.316z"/>
						<path style="fill:#BFDFD0;" d="M224.102,208.055c-9.111-2.027-26.331-3.362-32.708,1.497
							c-2.081,1.586-0.215,28.78,0.675,30.568c1.674,3.361,28.187,4.472,30.964,3.517
							C223.931,243.329,228.145,208.955,224.102,208.055z"/>
						<path style="fill:#510309;" d="M206.198,205c0,0-4.482,31.721-1.179,38.549c4.719,2.1,8.159,0.969,8.159,0.969
							s1.165-31.978-1.149-39.819C209.484,204.546,206.198,205,206.198,205z"/>
					</g>
					<path style="fill:#510309;" d="M188.812,219.896c0.201,2.15,0.349,4.305,0.678,6.449c0.061,0.395,0.064,0.786,0.042,1.172
						c23.717,1.187,30.4,1.548,36.357,0.755c0.06-0.374,0.169-0.762,0.337-1.162c0.843-2.012,1.359-4.083,1.77-6.181
						C218.577,220.192,197.549,218.748,188.812,219.896z"/>
				</g>
				<path style="fill:#7C4018;" d="M233.51,201.566c-25.726-5.333-36.815-2.023-47.253,1.225c-4.193,1.304-0.93,41.641-0.029,42.219
					c2.86,1.835,39.999,8.537,43.402,4.062C231.489,246.627,238.048,202.506,233.51,201.566z M227.857,220.469
					c-3.794-0.292-10.037-0.735-16.633-1.046c0.159-8.478-0.159-11.2-1.204-15.052c6.056,0.238,12.072,1.042,16.27,1.945
					C228.075,206.699,228.296,213.038,227.857,220.469z M189.505,207.806c2.86-2.213,8.094-3.194,13.927-3.44
					c-0.308,2.832-0.886,8.473-1.34,14.737c-5.326-0.107-10.229-0.037-13.563,0.367
					C188.409,213.535,188.623,208.488,189.505,207.806z M190.211,240.477c-0.411-0.832-1.016-6.801-1.386-13.42
					c4.948,0.239,9.168,0.445,12.77,0.613c-0.282,6.864-0.207,13.265,0.722,16.441C196.127,243.288,190.982,242.038,190.211,240.477
					z M210.386,244.91c0.245-6.863,0.448-12.371,0.597-16.844c8.697,0.303,12.113,0.132,16.313-0.622
					c-0.888,8.954-2.304,17.373-2.798,17.447C221.611,245.327,216.133,245.305,210.386,244.91z"/>
			</g>
			<path style="fill:#87491B;" d="M226.414,203.587c0.157-0.009,0.185,1.065,0.108,2.831c-0.075-0.042-0.15-0.085-0.232-0.103
				c-0.17-0.036-0.361-0.072-0.536-0.108C226.028,204.586,226.265,203.596,226.414,203.587z M223.963,227.035
				c0.245-0.015,0.746-2.76,1.264-6.763c-0.361-0.026-0.727-0.052-1.11-0.08C223.789,224.267,223.715,227.051,223.963,227.035z
				 M206.613,239.977c-0.158,3.215-0.038,5.753,0.264,5.732c0.302-0.02,0.682-2.591,0.851-5.806
				c0.174-3.288,0.063-5.993-0.252-5.973C207.163,233.951,206.774,236.689,206.613,239.977z M222.273,220.065
				c-0.22-0.015-0.45-0.03-0.676-0.045c-0.267,1.081-0.549,2.917-0.741,4.978c-0.11,1.176-0.175,2.259-0.198,3.16
				c0.341-0.013,0.673-0.028,0.994-0.045c0.151-0.912,0.294-2.006,0.41-3.19C222.258,222.916,222.327,221.137,222.273,220.065z
				 M216.131,201.412c-0.09,1.243-0.138,2.384-0.154,3.371c0.365,0.035,0.729,0.07,1.089,0.109c0.14-1.029,0.27-2.24,0.37-3.554
				c0.059-0.777,0.1-1.513,0.131-2.213c-0.411-0.036-0.819-0.072-1.22-0.102C216.266,199.773,216.192,200.572,216.131,201.412z
				 M208.056,219.611c-0.167,3.324-0.029,5.949,0.307,5.928c0.336-0.021,0.751-2.68,0.932-6.003
				c0.185-3.397,0.055-6.189-0.294-6.168C208.652,213.389,208.227,216.215,208.056,219.611z M207.236,205.472
				c-0.243,5.319-0.152,9.486,0.195,9.465c0.348-0.021,0.837-4.222,1.101-9.54c0.126-2.528,0.177-4.854,0.162-6.637
				c-0.333,0.004-0.658,0.012-0.984,0.021C207.524,200.58,207.352,202.927,207.236,205.472z M212.876,245.057
				c-0.139-0.007-0.275-0.012-0.415-0.02c0.021,0.623,0.068,0.97,0.142,0.965C212.676,245.997,212.769,245.656,212.876,245.057z
				 M223.3,201.732c-0.135,1.428-0.239,2.765-0.313,3.96c0.387,0.065,0.756,0.132,1.125,0.199c0.168-1.265,0.335-2.699,0.486-4.232
				c0.056-0.569,0.106-1.124,0.153-1.668c-0.425-0.064-0.84-0.122-1.257-0.18C223.427,200.433,223.362,201.076,223.3,201.732z
				 M209.724,239.28c0.32-0.021,0.727-2.442,0.913-5.463c0.19-3.085,0.078-5.616-0.254-5.595c-0.332,0.021-0.748,2.587-0.926,5.671
				C209.283,236.914,209.404,239.301,209.724,239.28z M216.809,248.236c0.166-0.011,0.418-1.178,0.685-3.034
				c-0.283-0.003-0.555-0.003-0.845-0.009C216.591,247.074,216.641,248.247,216.809,248.236z M229.05,204.158
				c-0.41,3.632-0.454,6.5-0.107,6.48c0.347-0.021,0.965-2.922,1.39-6.554c0.13-1.117,0.223-2.158,0.285-3.09
				c-0.37-0.07-0.735-0.138-1.099-0.205C229.352,201.791,229.189,202.933,229.05,204.158z M232.153,219.244
				c0.337-0.021,0.965-2.762,1.412-6.19c0.457-3.504,0.551-6.386,0.2-6.365c-0.35,0.021-1.001,2.936-1.444,6.44
				C231.887,216.557,231.816,219.265,232.153,219.244z M228.872,222.14c-0.567,4.766-0.75,8.505-0.425,8.484
				c0.325-0.021,1.05-3.794,1.635-8.56c0.604-4.919,0.83-9.008,0.486-8.987C230.224,213.098,229.457,217.22,228.872,222.14z
				 M186.373,225.888c0.34-0.021,0.523-5.114,0.404-11.615c-0.092-5.046-0.339-9.489-0.61-11.427
				c-0.208,0.096-0.399,0.284-0.57,0.57c-0.156,2.17-0.203,6.306-0.099,10.933C185.643,220.851,186.032,225.91,186.373,225.888z
				 M220.676,205.337c0.371,0.053,0.727,0.108,1.087,0.163c0.076-2.039-0.006-3.445-0.251-3.431
				C221.275,202.083,220.956,203.408,220.676,205.337z M211.299,219.426c0.023,0.035,0.044,0.084,0.07,0.082
				c0.021-0.001,0.044-0.049,0.066-0.075C211.39,219.43,211.345,219.428,211.299,219.426z M213.303,228.138
				c0.393,0.011,0.776,0.02,1.145,0.029c0.216-3.492,0.35-6.53,0.378-8.559c-0.226-0.012-0.45-0.025-0.678-0.037
				C213.888,221.594,213.586,224.637,213.303,228.138z M216.667,228.203c0.094,0.001,0.181,0.001,0.274,0.001
				c0.336-0.889,0.812-4.27,1.159-8.408c-0.4-0.024-0.809-0.048-1.218-0.072c-0.002,0.019-0.003,0.036-0.005,0.055
				C216.549,223.934,216.476,227.314,216.667,228.203z M211.226,219.239c0.052-2.877,0.047-5.081-0.024-6.895
				c-0.007,0.104-0.015,0.202-0.021,0.307C210.992,215.846,211.022,218.452,211.226,219.239z M197.224,243.278
				c-0.249-0.05-0.492-0.101-0.731-0.153c-0.123,1.097-0.22,2.646-0.268,4.416c0.366,0.07,0.736,0.14,1.114,0.21
				C197.351,245.977,197.309,244.408,197.224,243.278z M194.958,242.765c-0.344-0.088-0.671-0.18-0.985-0.272
				c0.071,2.451,0.204,4.189,0.369,4.677c0.059,0.012,0.119,0.024,0.178,0.036C194.691,246.791,194.849,245.137,194.958,242.765z
				 M199.548,243.7c-0.386-0.063-0.765-0.129-1.136-0.196c-0.033,2.046,0.069,3.758,0.251,4.488c0.132,0.024,0.269,0.047,0.402,0.07
				C199.285,247.41,199.476,245.74,199.548,243.7z M187.273,234.304c-0.331,0.021-0.549,2.511-0.49,5.504
				c0.058,2.932,0.363,5.248,0.682,5.227c0.318-0.021,0.54-2.372,0.493-5.304C187.91,236.738,187.603,234.283,187.273,234.304z
				 M191.442,241.783c-0.299,0.02-0.53,2.07-0.549,4.64c0.361,0.084,0.743,0.17,1.136,0.257
				C192.01,243.957,191.754,241.762,191.442,241.783z M203.578,248.765c0.11-2.786-0.055-5.068-0.371-5.047
				c-0.308,0.021-0.636,2.225-0.744,4.914c0.369,0.059,0.74,0.117,1.113,0.174C203.576,248.793,203.577,248.78,203.578,248.765z
				 M231.762,227.858c-0.327,0.021-1.205,4.787-1.933,10.441c-0.701,5.442-1.003,9.689-0.697,9.669
				c0.306-0.021,1.119-4.302,1.842-9.744C231.724,232.569,232.089,227.837,231.762,227.858z M211.248,245.584
				c0.014-0.212,0.024-0.411,0.036-0.619c-0.3-0.019-0.597-0.034-0.898-0.055c0.048-1.349,0.094-2.632,0.139-3.879
				c-0.156,1.301-0.301,2.897-0.409,4.629c-0.094,1.502-0.146,2.882-0.16,4.029c0.305,0.037,0.608,0.072,0.912,0.107
				C211.01,248.608,211.143,247.163,211.248,245.584z M225.041,250.478c0.301-1.457,0.655-3.744,0.963-6.357
				c0.544-4.606,0.738-8.434,0.418-8.413c-0.038,0.002-0.083,0.063-0.131,0.172c-0.489,3.507-0.985,6.361-1.359,7.86
				c-0.018,0.153-0.036,0.304-0.054,0.458c-0.298,2.614-0.474,4.89-0.509,6.328C224.601,250.512,224.821,250.495,225.041,250.478z
				 M190.254,207.063c0.001,0.085,0.002,0.166,0.003,0.251c0.401-0.251,0.834-0.484,1.3-0.699c-0.01-1.954-0.051-3.789-0.116-5.37
				c-0.381,0.105-0.759,0.212-1.134,0.319C190.26,203.196,190.24,205.075,190.254,207.063z M220.86,245.171
				c-0.362,0.012-0.732,0.021-1.118,0.028c-0.191,2.021-0.325,3.853-0.397,5.313c0.287,0.013,0.579,0.028,0.858,0.037
				C220.421,249.075,220.65,247.218,220.86,245.171z M193.711,221.862c0.215-0.013,0.411-1.101,0.533-2.757
				c-0.355,0.01-0.704,0.02-1.046,0.033C193.306,220.796,193.494,221.875,193.711,221.862z M200.637,201.777
				c-0.164,0.009-0.337,1.085-0.492,2.826c0.281-0.028,0.558-0.059,0.844-0.082C200.92,202.812,200.8,201.768,200.637,201.777z
				 M204.39,236.247c0.324-0.021,0.864-6.517,1.223-14.916c0.38-8.886,0.413-16.461,0.054-16.44
				c-0.359,0.021-0.944,7.629-1.288,16.516C204.053,229.807,204.065,236.269,204.39,236.247z M188.986,227.065
				c0.358,0.017,0.688,0.033,1.038,0.05c-0.129-2.472-0.338-4.146-0.563-4.132C189.241,222.997,189.067,224.642,188.986,227.065z
				 M200.084,223.979c0.216-0.013,0.458-1.945,0.647-4.898c-0.353-0.005-0.704-0.01-1.052-0.013
				C199.72,222.051,199.866,223.993,200.084,223.979z M197.413,222.945c-0.289,0.018-0.557,1.951-0.66,4.495
				c0.398,0.019,0.793,0.038,1.178,0.056C197.917,224.893,197.708,222.927,197.413,222.945z M189.63,239.756
				c0.09-0.006,0.172-0.295,0.244-0.794c-0.313-2.027-0.662-5.755-0.93-9.945c-0.009,0.833-0.009,1.715,0.002,2.628
				C189,236.202,189.306,239.778,189.63,239.756z M196.144,205.192c0.428-0.087,0.856-0.173,1.304-0.246
				c0.018-1.836,0.013-3.563-0.01-5.101c-0.389,0.073-0.773,0.148-1.152,0.226C196.222,201.621,196.173,203.357,196.144,205.192z
				 M201.7,240.367c0.2-1.436,0.38-3.862,0.472-6.651c0.151-4.607,0.004-8.431-0.333-8.41c-0.162,0.01-0.335,0.913-0.485,2.352
				c0.078,0.004,0.164,0.008,0.242,0.011C201.398,232.446,201.383,236.97,201.7,240.367z M194.581,226.736
				c-0.068,0.004-0.135,0.218-0.198,0.59c0.131,0.006,0.266,0.013,0.395,0.019C194.718,226.954,194.652,226.732,194.581,226.736z"/>
		</g>
		<path style="opacity:0.2;fill:#F7DCA6;" d="M199.378,222.267c10.243-7.465,22.611-14.715,35.347-18.476
			c-0.251-1.309-0.646-2.108-1.215-2.226c-25.726-5.333-36.815-2.023-47.253,1.225c-2.859,0.889-2.251,19.915-1.29,32.121
			C189.372,230.294,194.182,226.053,199.378,222.267z"/>
		<g>
			<g>
				<g>
					<g>
						<path style="fill:#510309;" d="M326.542,308.29c-8.151-3.72-16.464-7.432-40.623-4.448
							c-6.307,0.779,3.811,55.322,5.931,57.931c3.798,4.675,38.648-4.963,39.63-10.009
							C331.667,350.804,329.647,309.707,326.542,308.29z"/>
						<path style="fill:#7C4018;" d="M326.994,307.493c-8.066-3.761-17.329-7.937-41.075-3.651
							c-4.754,0.858,5.959,53.943,8.05,56.552c3.748,4.676,36.024-6.124,37.511-8.629
							C338.32,340.238,330.068,308.927,326.994,307.493z"/>
						<path style="fill:#510309;" d="M293.632,309.78c9.175-2.038,25.854-2.923,31.39,2.625c1.746,1.75,6.999,18.104,2.065,33.105
							c-1.027,3.875-21.356,9.256-28.44,9.082C297.625,354.568,289.291,310.744,293.632,309.78z"/>
						<path style="fill:#BFDFD0;" d="M295.905,311.857c8.289-2.013,22.593-2.856,27.854,2.277c1.666,1.625,5.19,12.498,1.925,31.198
							c-0.985,3.643-23.059,8.282-25.746,7.583C299.057,352.685,292.02,312.801,295.905,311.857z"/>
						<path style="fill:#510309;" d="M311.709,309.029c0,0,6.246,33.688,4.124,41.365c-3.773,2.911-6.837,2.133-6.837,2.133
							s-3.685-35.461-2.292-44.038C308.893,308.418,311.709,309.029,311.709,309.029z"/>
					</g>
					<path style="fill:#510309;" d="M328.022,324.403c0.023,2.172,0.574,2.424,0.503,4.605c-0.013,0.403,0.031,3.023,0.078,3.412
						c-18.94,2.651-26.988,3.393-32.72,2.907c-0.09-0.433-0.23-0.878-0.427-1.334c-0.998-2.304-1.685-4.707-2.27-7.153
						C302.121,325.675,321.337,323.418,328.022,324.403z"/>
				</g>
				<path style="fill:#7C4018;" d="M326.994,307.493c-8.066-3.761-17.329-7.937-41.075-3.651c-4.754,0.858,5.959,53.943,8.05,56.552
					c3.748,4.676,36.024-6.124,37.511-8.629C338.32,340.238,330.068,308.927,326.994,307.493z M328.641,324.585
					c-2.132-0.733-6.902-0.773-12.416-0.485c-0.873-6.635-1.797-12.603-2.277-15.618c4.698,0.481,8.817,1.661,11.074,3.923
					C325.922,313.307,327.753,318.1,328.641,324.585z M293.632,309.78c4.013-0.892,9.463-1.562,14.787-1.571
					c-0.589,4.171-0.641,7.127,0.199,16.435c-5.935,0.517-11.731,1.2-15.349,1.654C292.196,317.599,291.873,310.171,293.632,309.78z
					 M298.647,354.592c-0.482-0.012-2.585-9.743-4.223-20.135c4.214,0.606,7.358,0.567,15.113-0.358
					c0.498,4.906,1.129,10.949,1.908,18.479C306.449,353.839,301.485,354.662,298.647,354.592z M327.087,345.51
					c-0.428,1.617-4.223,3.495-9.01,5.124c0.473-3.49,0.013-10.282-0.767-17.53c3.307-0.441,7.199-0.972,11.836-1.598
					C329.178,335.979,328.632,340.811,327.087,345.51z"/>
			</g>
			<g>
				<path style="fill:#87491B;" d="M328.478,324.542c-0.294-0.092-0.634-0.172-1.012-0.241c0.292,3.521,0.665,6.395,0.934,7.305
					c0.093-0.013,0.179-0.024,0.272-0.037C328.789,330.64,328.718,327.896,328.478,324.542z"/>
				<path style="fill:#87491B;" d="M318.017,330.627c0.251-0.038,0.208-2.838-0.077-6.605c-0.348,0.014-0.703,0.031-1.058,0.048
					C317.29,327.879,317.763,330.666,318.017,330.627z"/>
				<path style="fill:#87491B;" d="M307.545,354.095c0.342,3.146,0.87,5.611,1.181,5.529c0.311-0.082,0.292-2.669-0.043-5.802
					c-0.021-0.199-0.045-0.386-0.068-0.58c-0.379,0.083-0.757,0.166-1.13,0.243C307.504,353.688,307.522,353.886,307.545,354.095z"
					/>
				<path style="fill:#87491B;" d="M319.699,331.78c-0.082,0.013-0.126,0.386-0.139,1.021c0.154-0.021,0.301-0.04,0.457-0.061
					C319.892,332.12,319.781,331.767,319.699,331.78z"/>
				<path style="fill:#87491B;" d="M319.384,305.159c0.144,1.646,0.307,3.169,0.471,4.456c0.315,0.096,0.623,0.197,0.922,0.305
					c-0.056-1.362-0.162-3.018-0.317-4.812c-0.012-0.137-0.024-0.27-0.036-0.405c-0.363-0.13-0.734-0.256-1.111-0.38
					C319.336,304.598,319.36,304.877,319.384,305.159z"/>
				<path style="fill:#87491B;" d="M327.094,317.241c0.445,1.509,0.876,3.309,1.227,5.313c-0.35-4.073-0.806-7.23-1.06-7.207
					C327.142,315.359,327.089,316.071,327.094,317.241z"/>
				<path style="fill:#87491B;" d="M313.159,304.784c0.324,3.415,0.838,6.145,1.148,6.124c0.007,0,0.011-0.02,0.018-0.023
					c-0.143-0.919-0.272-1.742-0.377-2.402c0.196,0.02,0.384,0.049,0.578,0.071c-0.022-1.053-0.097-2.369-0.233-3.82
					c-0.058-0.619-0.124-1.205-0.192-1.77c-0.36-0.071-0.727-0.138-1.101-0.201C313.041,303.4,313.091,304.073,313.159,304.784z"/>
				<path style="fill:#87491B;" d="M324.116,328.742c0.175-0.026,0.174-1.905,0.029-4.762c-0.282-0.012-0.568-0.021-0.865-0.028
					C323.62,326.87,323.939,328.769,324.116,328.742z"/>
				<path style="fill:#87491B;" d="M322.109,326.806c-0.091-1.053-0.203-2.026-0.322-2.871c-0.293,0-0.6,0.005-0.904,0.009
					c0.028,0.883,0.087,1.907,0.184,3.008c0.247,2.825,0.637,5.11,0.921,5.522c0.057-0.008,0.111-0.015,0.169-0.023
					C322.365,331.978,322.353,329.635,322.109,326.806z"/>
				<path style="fill:#87491B;" d="M286.093,317.662c-0.453-3.466-0.942-6.625-1.371-8.952c-0.003,4.936,1.028,13.002,2.419,21.334
					C287.322,328.954,286.902,323.854,286.093,317.662z"/>
				<path style="fill:#87491B;" d="M324.537,307.362c0.203,2.503,0.512,4.601,0.772,5.421c0.071,0.108,0.144,0.232,0.22,0.372
					c0.274-0.07,0.292-2.658,0.037-5.853c-0.013-0.168-0.029-0.326-0.044-0.49c-0.349-0.16-0.703-0.319-1.06-0.477
					C324.485,306.67,324.509,307.01,324.537,307.362z"/>
				<path style="fill:#87491B;" d="M328.69,315.359c0.24,3.126,0.652,5.617,0.922,5.585c0.27-0.032,0.298-2.564,0.063-5.677
					c-0.112-1.481-0.264-2.818-0.421-3.828c-0.215-0.561-0.427-1.07-0.634-1.525C328.477,310.673,328.495,312.821,328.69,315.359z"
					/>
				<path style="fill:#87491B;" d="M302.156,354.742c-0.014-0.124-0.029-0.244-0.044-0.366c-0.42,0.049-0.828,0.093-1.215,0.126
					c0.02,0.175,0.039,0.348,0.06,0.525c0.3,2.556,0.651,4.8,0.959,6.253c0.25-0.032,0.496-0.061,0.752-0.098
					C302.635,359.665,302.457,357.343,302.156,354.742z"/>
				<path style="fill:#87491B;" d="M322.279,306.842c-0.154,0.009-0.173,1.432-0.081,3.668c0.283,0.134,0.569,0.266,0.831,0.414
					C322.725,308.432,322.444,306.833,322.279,306.842z"/>
				<path style="fill:#87491B;" d="M317.922,305.443c-0.223,0.011-0.282,1.508-0.177,3.628c0.348,0.074,0.695,0.149,1.03,0.234
					C318.496,307.045,318.155,305.431,317.922,305.443z"/>
				<path style="fill:#87491B;" d="M314.384,340.915c-0.302,0.058-0.178,3.861,0.274,8.444c0.446,4.528,1.043,8.097,1.337,8.02
					c0.293-0.077,0.179-3.756-0.259-8.266C315.293,344.549,314.686,340.857,314.384,340.915z"/>
				<path style="fill:#87491B;" d="M316.244,334.595c-0.789-8.34-1.691-15.207-1.998-15.174c-0.308,0.033,0.106,6.982,0.911,15.358
					c0.788,8.198,1.652,14.664,1.945,14.596C317.395,349.307,317.017,342.759,316.244,334.595z"/>
				<path style="fill:#87491B;" d="M321.442,351.176c0.111-0.027,0.154-0.718,0.137-1.862c-0.188,0.079-0.386,0.157-0.581,0.235
					C321.178,350.599,321.335,351.202,321.442,351.176z"/>
				<path style="fill:#87491B;" d="M312.058,330.883c-0.311,0.047-0.299,2.725,0.026,5.957c0.322,3.205,0.828,5.735,1.132,5.674
					c0.304-0.06,0.296-2.677-0.019-5.869C312.878,333.427,312.368,330.837,312.058,330.883z"/>
				<path style="fill:#87491B;" d="M304.015,308.362c0.088-0.006,0.175-0.014,0.263-0.019c-0.069-0.249-0.128-0.389-0.173-0.386
					C304.059,307.96,304.031,308.106,304.015,308.362z"/>
				<path style="fill:#87491B;" d="M290.595,345.828c-0.448-3.459-1.113-6.235-1.481-6.173c-0.074,0.013-0.125,0.165-0.164,0.386
					c0.669,3.437,1.35,6.697,1.995,9.572C290.894,348.553,290.779,347.25,290.595,345.828z"/>
				<path style="fill:#87491B;" d="M290.089,326.859c-0.371,0.046-0.123,4.373,0.546,9.601c0.66,5.159,1.48,9.233,1.839,9.163
					c0.358-0.07,0.128-4.239-0.52-9.374C291.297,331.046,290.459,326.813,290.089,326.859z"/>
				<path style="fill:#87491B;" d="M294.95,309.31c0.008,0.066,0.016,0.129,0.023,0.194c0.415-0.081,0.847-0.158,1.285-0.233
					c-0.001-0.013-0.003-0.025-0.004-0.038c-0.289-2.482-0.6-4.799-0.895-6.743c-0.363,0.037-0.723,0.073-1.095,0.114
					C294.426,304.545,294.658,306.846,294.95,309.31z"/>
				<path style="fill:#87491B;" d="M288.971,310.117c0.749,5.951,1.648,10.68,2.018,10.642c0.369-0.037,0.08-4.804-0.655-10.725
					c-0.316-2.548-0.664-4.898-0.989-6.764c-0.355,0.055-0.707,0.108-1.069,0.168C288.419,305.297,288.656,307.611,288.971,310.117z
					"/>
				<path style="fill:#87491B;" d="M328.929,345.612c-0.159-2.003-0.345-3.841-0.527-5.298c-0.173,0.941-0.387,1.884-0.63,2.825
					c0.053,0.851,0.117,1.754,0.192,2.691c0.274,3.394,0.619,6.264,0.89,7.577c0.146-0.069,0.277-0.134,0.413-0.201
					C329.31,351.777,329.191,348.915,328.929,345.612z"/>
				<path style="fill:#87491B;" d="M294.762,347.71c-0.352,0.072-0.296,2.862,0.123,6.205c0.415,3.314,1.029,5.908,1.373,5.822
					c0.343-0.086,0.293-2.809-0.114-6.108C295.733,350.299,295.113,347.638,294.762,347.71z"/>
				<path style="fill:#87491B;" d="M332.335,349.158c0.256-0.063,0.134-4.521-0.278-10.029c-0.418-5.588-0.974-10.144-1.239-10.103
					c-0.265,0.041-0.131,4.682,0.296,10.292C331.534,344.847,332.079,349.221,332.335,349.158z"/>
				<path style="fill:#87491B;" d="M324.624,347.824c-0.301,0.176-0.623,0.352-0.968,0.527c0.266,2.873,0.559,5.335,0.807,6.88
					c0.193-0.073,0.38-0.145,0.568-0.218C325.005,353.356,324.863,350.777,324.624,347.824z"/>
				<path style="fill:#87491B;" d="M301.356,327.221c0.126-0.016,0.167-0.708,0.135-1.88c-0.231,0.025-0.46,0.05-0.687,0.074
					C301.034,326.572,301.23,327.238,301.356,327.221z"/>
				<path style="fill:#87491B;" d="M298.49,326.306c-0.348,0.044-0.301,2.895,0.103,6.341c0.092,0.782,0.194,1.52,0.301,2.203
					c0.38,0.009,0.77,0.012,1.171,0.009c-0.054-0.739-0.13-1.549-0.228-2.397C299.441,329.031,298.837,326.263,298.49,326.306z"/>
				<path style="fill:#87491B;" d="M298.843,304.931c-0.193,0.008-0.191,1.546-0.037,3.946c0.31-0.042,0.629-0.078,0.945-0.117
					C299.372,306.414,299.034,304.922,298.843,304.931z"/>
				<path style="fill:#87491B;" d="M303.31,328.49c-0.267,0.036-0.205,2.655,0.11,6.226c0.367-0.026,0.75-0.057,1.145-0.091
					C304.092,331.043,303.578,328.453,303.31,328.49z"/>
				<path style="fill:#87491B;" d="M296.065,330.545c-0.192,0.027-0.173,1.63,0.008,4.119c0.332,0.035,0.663,0.065,0.994,0.091
					C296.639,332.165,296.263,330.517,296.065,330.545z"/>
				<path style="fill:#87491B;" d="M305.643,308.278c0.401-0.017,0.801-0.032,1.202-0.042c-0.248-2.374-0.532-4.534-0.799-6.164
					c-0.292-0.01-0.591-0.017-0.89-0.023C305.229,303.691,305.395,305.876,305.643,308.278z"/>
				<path style="fill:#87491B;" d="M311.383,343.424c-0.362-3.546-0.902-6.402-1.204-6.35c-0.125,0.022-0.186,0.562-0.191,1.419
					c0.31,3.008,0.66,6.383,1.052,10.168c0.173,0.782,0.335,1.25,0.456,1.223C311.791,349.817,311.742,346.938,311.383,343.424z"/>
				<path style="fill:#87491B;" d="M311.5,315.267c-0.37-3.765-0.923-6.829-1.232-6.81c-0.31,0.018-0.253,3.125,0.124,6.907
					c0.374,3.746,0.92,6.729,1.223,6.694C311.917,322.023,311.867,318.997,311.5,315.267z"/>
				<path style="fill:#87491B;" d="M307.37,334.347c-0.19-2.576-0.488-5.875-0.867-9.511c-0.4,0.038-0.793,0.076-1.189,0.115
					c0.397,3.641,0.801,6.933,1.159,9.491C306.764,334.412,307.064,334.38,307.37,334.347z"/>
				<path style="fill:#87491B;" d="M308.473,316.11c-0.324,0.029-0.303,2.817,0.046,6.201c0.345,3.355,0.881,6.018,1.199,5.974
					c0.317-0.044,0.3-2.766-0.039-6.107C309.337,318.81,308.796,316.081,308.473,316.11z"/>
			</g>
		</g>
		<path style="opacity:0.3;fill:#510309;" d="M326.994,307.493c-2.943-1.372-6.049-2.798-9.956-3.85
			c1.997,15.128-7.727,44.761-24.376,52.997c0.558,2.031,1.018,3.391,1.308,3.753c3.748,4.676,36.024-6.124,37.511-8.629
			C338.32,340.238,330.068,308.927,326.994,307.493z"/>
	</g>
	<path style="fill:#FEB612;" d="M190.036,119.446c-4.23,0.304-7.751-0.666-7.865-2.168c-0.114-1.501,3.223-2.965,7.452-3.269
		c4.23-0.304,7.751,0.666,7.865,2.168C197.602,117.678,194.265,119.142,190.036,119.446z"/>
	<path style="fill:#FEB612;" d="M332.961,106.19c0.73-1.404-0.98-3.419-3.861-4.511c-2.926-1.108-5.927-0.84-6.659,0.611
		c-0.729,1.446,1.088,3.486,4.016,4.548C329.34,107.884,332.234,107.589,332.961,106.19z"/>
	<path style="fill:#FEB612;" d="M59.738,108.644c0.431-1.499-1.922-3.265-5.328-3.951c-3.487-0.703-6.713-0.006-7.129,1.563
		c-0.414,1.561,2.126,3.344,5.597,3.975C56.27,110.848,59.309,110.135,59.738,108.644z"/>
	<path style="fill:#FEB612;" d="M118.455,133.568c0.297-1.588-2.302-3.177-5.882-3.55c-3.664-0.382-6.922,0.654-7.196,2.314
		c-0.273,1.65,2.521,3.238,6.162,3.548C115.097,136.182,118.16,135.147,118.455,133.568z"/>
	<path style="fill:#FEB612;" d="M274.359,102.623c-0.974-1.682-5.512-1.438-10.257,0.611c-4.892,2.113-8.08,5.301-6.99,7.052
		c1.082,1.738,5.932,1.321,10.706-0.86C272.451,107.311,275.327,104.294,274.359,102.623z"/>
	<path style="fill:#FEB612;" d="M146.317,138.488c-0.647-2.24-5.525-3.096-11.146-1.826c-5.931,1.341-10.27,4.479-9.4,6.906
		c0.857,2.391,6.393,3.002,12.094,1.473C143.277,143.59,146.955,140.698,146.317,138.488z"/>
	<path style="fill:#FEB612;" d="M343.38,121.456c0.289-2.552-3.408-5.642-8.452-6.924c-5.27-1.339-9.882-0.184-10.083,2.603
		c-0.199,2.755,4.009,5.892,9.187,6.993C338.994,125.183,343.095,123.98,343.38,121.456z"/>
	<path style="fill:#FEB612;" d="M228.297,102.403c-9.2,1.824-16.72,5.97-15.936,9.028c0.768,2.996,9.153,3.386,17.936,1.131
		c8.004-2.055,13.684-5.659,13.302-8.249C243.209,101.679,236.654,100.745,228.297,102.403z"/>
</g>
</svg>
