<?xml version="1.0" encoding="utf-8"?>
<!-- Generator: Adobe Illustrator 27.5.0, SVG Export Plug-In . SVG Version: 6.00 Build 0)  -->
<svg version="1.1" id="Capa_1" xmlns="http://www.w3.org/2000/svg" xmlns:xlink="http://www.w3.org/1999/xlink" x="0px" y="0px"
	 viewBox="0 0 1975 2280" style="enable-background:new 0 0 1975 2280;" xml:space="preserve">
<g>
	<g>
		<path style="fill:#B6BBCC;" d="M1730.026,277.858L1730.026,277.858c-0.411-3.073-0.821-6.096-1.227-9.058
			c-0.417-3.04-0.828-5.991-1.234-8.885c-1.039-7.405-2.033-14.296-2.923-20.341c-0.956-6.493-1.785-11.979-2.441-16.269v-0.001
			l11.182-17.522l-9.448-6.737c0,0-51.956,0.318-115.108,17.233l0,0l-0.024,0.006c-8.599,2.304-17.409,4.925-26.32,7.884
			l-1.179,0.396c-4.289,1.438-8.599,2.947-12.923,4.551l-0.206,0.075c-4.336,1.611-8.684,3.323-13.032,5.112
			c-0.673,0.277-1.343,0.567-2.016,0.849c-3.622,1.514-7.241,3.097-10.855,4.741c-0.833,0.379-1.665,0.748-2.497,1.135
			c-4.136,1.919-8.262,3.919-12.364,6.018c-0.637,0.326-1.268,0.675-1.904,1.006c-3.457,1.796-6.893,3.667-10.31,5.599
			c-1.077,0.609-2.152,1.218-3.225,1.84c-3.985,2.312-7.947,4.687-11.855,7.195l-0.043,0.026l-0.294,0.45l-0.036,0.054
			c-0.469,0.72-1.508,2.312-2.977,4.563c-0.996,1.525-2.154,3.301-3.58,5.485c-3.779,5.791-9.056,13.881-15.559,23.855l-0.708,1.087
			c-2.465,3.78-5.073,7.779-7.876,12.079c-1.794,2.752-3.652,5.604-5.578,8.556l-0.856,1.315c-1.186,1.818-2.42,3.713-3.652,5.603
			c-1.222,1.876-2.464,3.783-3.732,5.727c-0.46,0.706-0.93,1.426-1.396,2.142c-3.449,5.292-7.032,10.793-10.782,16.549
			c-1.816,2.789-3.65,5.605-5.532,8.494l-0.525,0.806c-4.259,6.54-8.698,13.355-13.267,20.375c-1.264,1.94-2.547,3.912-3.833,5.887
			c-4.042,6.21-8.177,12.561-12.424,19.087c-1.108,1.704-2.234,3.433-3.356,5.157c-1.784,2.742-3.569,5.485-5.385,8.277
			c-0.691,1.061-1.393,2.14-2.088,3.21c-1.985,3.051-3.983,6.122-6.003,9.228c-1.133,1.742-2.281,3.507-3.425,5.265
			c-1.908,2.933-3.816,5.867-5.752,8.844c-1.273,1.958-2.568,3.949-3.854,5.926c-1.494,2.298-2.984,4.591-4.493,6.911
			c-1.634,2.514-3.287,5.055-4.937,7.594c-1.617,2.488-3.227,4.964-4.859,7.475c-0.616,0.948-1.239,1.906-1.858,2.858
			c-36.013,55.413-75.43,116.154-113.611,175.174c-0.497,0.768-0.994,1.536-1.491,2.304c-2.292,3.542-4.574,7.071-6.855,10.599
			c-1.108,1.715-2.218,3.431-3.324,5.141c-2.317,3.585-4.625,7.156-6.929,10.719c-0.79,1.223-1.583,2.45-2.372,3.671
			c-2.875,4.449-5.737,8.881-8.586,13.292l-0.615,0.953c-2.711,4.199-5.404,8.37-8.087,12.527c-0.612,0.949-1.225,1.897-1.835,2.843
			c-2.487,3.855-4.957,7.683-7.415,11.495c-0.691,1.072-1.383,2.145-2.071,3.213c-2.353,3.649-4.688,7.272-7.011,10.877
			c-0.773,1.2-1.546,2.4-2.317,3.595c-2.129,3.306-4.241,6.585-6.344,9.85c-1.039,1.615-2.075,3.224-3.108,4.828
			c-2.082,3.235-4.151,6.451-6.203,9.64c-0.79,1.229-1.578,2.453-2.364,3.675c-2.108,3.278-4.196,6.528-6.269,9.753
			c-0.886,1.379-1.767,2.75-2.646,4.119c-1.924,2.996-3.832,5.967-5.722,8.912c-1.008,1.569-2.005,3.124-3.002,4.679
			c-1.845,2.877-3.68,5.738-5.491,8.563c-0.803,1.253-1.598,2.493-2.394,3.736c-1.902,2.968-3.788,5.913-5.647,8.817
			c-0.859,1.342-1.704,2.664-2.554,3.992c-1.784,2.788-3.556,5.559-5.297,8.283c-0.787,1.233-1.56,2.442-2.339,3.661
			c-1.731,2.71-3.45,5.402-5.135,8.043c-0.823,1.289-1.625,2.548-2.436,3.819c-1.596,2.504-3.184,4.995-4.735,7.431
			c-0.896,1.408-1.765,2.773-2.646,4.158c-1.405,2.209-2.81,4.416-4.174,6.562c-0.948,1.493-1.863,2.935-2.791,4.397
			c-1.287,2.029-2.58,4.065-3.828,6.034c-0.902,1.423-1.765,2.787-2.645,4.176c-1.197,1.892-2.403,3.796-3.559,5.625
			c-0.918,1.452-1.789,2.835-2.681,4.247c-1.065,1.688-2.146,3.401-3.173,5.032c-0.763,1.211-1.48,2.354-2.221,3.532
			c-1.135,1.804-2.284,3.631-3.366,5.357c-0.411,0.654-0.786,1.257-1.189,1.901c-1.315,2.099-2.623,4.188-3.855,6.163l-0.522,0.837
			c-4.347,6.971-8.148,13.12-11.355,18.376c-1.069,1.752-2.072,3.405-3.009,4.956l-0.682,1.127c-0.68,1.13-1.272,2.128-1.872,3.139
			c-0.279,0.471-0.596,0.996-0.858,1.44c-0.517,0.876-0.949,1.626-1.397,2.398l-0.736,1.264l0.003-0.003
			c-1.417,2.473-2.443,4.357-2.985,5.509c0,0-81.312,3.214-172.31,76.55l-0.025-0.018c-0.369,0.297-0.742,0.626-1.111,0.926
			c-2.535,2.058-5.079,4.189-7.627,6.357c-0.879,0.748-1.755,1.468-2.635,2.229c-3.424,2.961-6.858,6.006-10.297,9.172l-1.024,0.96
			c-3.76,3.482-7.526,7.11-11.293,10.848l-0.009-0.006l-4.514-3.219c0,0-15.016-14.993-37.506,7.532
			c-22.488,22.523-64.183,117.043-92.155,129.232c-27.971,12.188-38.505,23.956-77.43,30.475
			c-38.926,6.519-106.578-58.861-167.386-33.672c-60.808,25.192-181.095,159.282-221.204,289.998
			c-33.337,108.651-13.751,172.283,31.119,221.555l-0.001-0.001l0.013,0.014c8.034,8.82,16.87,17.183,26.359,25.262l0.074,0.064
			c2.269,1.931,4.581,3.845,6.922,5.745l0.408,0.336c2.214,1.792,4.467,3.57,6.743,5.341l0.787,0.618
			c2.183,1.691,4.402,3.369,6.637,5.044l1.051,0.795c2.566,1.913,5.163,3.815,7.793,5.713c2.303,1.66,4.583,3.252,6.845,4.789
			c2.261,1.536,4.504,3.019,6.733,4.46c5.353,3.463,10.6,6.618,15.743,9.477c2.268,1.26,4.514,2.46,6.742,3.608
			c2.582,1.33,5.138,2.587,7.667,3.768c2.217,1.036,4.413,2.019,6.59,2.943c6.305,2.68,12.461,4.949,18.434,6.74
			c2.316,0.694,4.607,1.324,6.875,1.893c4.535,1.135,8.972,2.021,13.315,2.673c6.514,0.978,12.816,1.429,18.912,1.405
			c8.13-0.031,15.896-0.906,23.321-2.501c3.017-0.648,5.976-1.415,8.881-2.292c20.333-6.142,37.969-17.704,53.383-31.843
			c4.993-4.58,14.284-15.626,26.851-31.65c12.568-16.025,28.412-37.028,46.513-61.522c1.286-1.741,2.583-3.497,3.892-5.273
			c6.164-8.362,12.571-17.1,19.187-26.168c6.088-8.343,12.332-16.929,18.741-25.779c2.823-3.9,5.676-7.844,8.554-11.829
			c5.755-7.971,11.615-16.108,17.557-24.381c8.912-12.408,18.013-25.123,27.23-38.043c3.073-4.306,6.158-8.635,9.254-12.984
			c6.192-8.698,12.427-17.472,18.684-26.293c6.256-8.821,12.535-17.691,18.815-26.576c15.701-22.216,31.412-44.541,46.818-66.516
			c9.244-13.184,18.376-26.242,27.331-39.074c13.992-20.049,27.547-39.547,40.405-58.113c3.019-4.359,5.984-8.646,8.923-12.896
			c3.319-4.802,6.601-9.553,9.809-14.204c5.796-8.403,11.402-16.549,16.788-24.396c21.544-31.378,39.589-57.965,52.297-77.085
			c0.002-0.004,0.005-0.007,0.007-0.01c9.532-14.34,16.061-24.479,18.811-29.284l-9.199-6.56l0.66-0.578l0.102-0.086
			c1.858-1.568,3.75-3.106,5.671-4.614l0.515-0.405c4.013-3.132,8.159-6.125,12.443-8.939l0.085-0.055
			c2.035-1.335,4.106-2.623,6.202-3.874l0.769-0.457c4.396-2.592,8.92-4.998,13.579-7.166c21.393-9.953,45.541-15.052,72.326-11.809
			c21.837,35.268,33.165,65.167,37.696,90.256h0c0.451,2.496,0.831,4.94,1.151,7.34l0.03,0.211
			c0.637,4.822,1.018,9.455,1.174,13.903l0.005,0.175c0.409,12.146-0.889,22.878-3.233,32.352l-15.862-11.33
			c-1-0.712-5.126,3.27-11.743,11.021c-4.563,5.345-10.353,12.546-17.149,21.282c-4.576,5.882-9.597,12.442-15.054,19.672
			c-2.742,3.633-5.587,7.423-8.53,11.366c-8.119,10.875-16.977,22.89-26.428,35.835c-4.02,5.506-8.182,11.235-12.406,17.062
			c-38.811,53.539-85.73,119.893-132.234,186.769c-4.486,6.452-8.966,12.904-13.435,19.353
			c-18.102,26.115-35.992,52.097-53.182,77.237c-13.325,19.488-26.214,38.448-38.443,56.558
			c-20.33,30.108-38.816,57.837-54.357,81.598c-5.18,7.92-10.034,15.399-14.518,22.379c-17.94,27.917-29.988,47.834-33.533,55.979
			c-7.703,17.703-12.714,36.482-12.796,55.96c-0.027,6.493,0.492,13.063,1.643,19.698c0.395,2.282,0.892,4.572,1.44,6.868
			c0.818,3.427,1.784,6.868,2.96,10.325c0.654,1.924,1.367,3.853,2.137,5.785c3.085,7.729,7.116,15.521,12.219,23.355
			c2.551,3.917,5.37,7.844,8.471,11.779c4.652,5.903,9.941,11.826,15.919,17.756c9.963,9.883,21.841,19.794,35.872,29.689
			l0.177,0.124c2.235,1.575,4.466,3.122,6.698,4.651c0.758,0.519,1.516,1.029,2.275,1.544c1.562,1.06,3.124,2.108,4.685,3.143
			c0.862,0.572,1.724,1.141,2.587,1.705c1.562,1.022,3.125,2.026,4.688,3.022c0.775,0.492,1.549,0.994,2.323,1.479
			c2.226,1.397,4.453,2.771,6.682,4.109c0.712,0.428,1.425,0.837,2.138,1.258c1.568,0.928,3.137,1.847,4.707,2.744
			c0.996,0.568,1.993,1.124,2.991,1.679c1.313,0.732,2.628,1.453,3.945,2.162c1.047,0.564,2.095,1.127,3.144,1.676
			c1.346,0.704,2.694,1.385,4.044,2.064c0.991,0.499,1.98,1.011,2.973,1.495c2.118,1.033,4.241,2.031,6.37,2.997
			c1.14,0.518,2.285,1.006,3.428,1.504c1.166,0.508,2.333,1.014,3.503,1.501c1.238,0.515,2.479,1.015,3.721,1.505
			c1.083,0.429,2.169,0.844,3.256,1.253c1.287,0.485,2.574,0.97,3.868,1.429c1.015,0.359,2.035,0.692,3.054,1.035
			c2.543,0.856,5.098,1.658,7.665,2.405c0.872,0.253,1.74,0.521,2.614,0.761c1.438,0.396,2.885,0.756,4.332,1.117
			c0.934,0.233,1.869,0.464,2.808,0.681c1.469,0.341,2.941,0.665,4.419,0.968c0.882,0.181,1.768,0.345,2.654,0.513
			c1.559,0.294,3.117,0.59,4.687,0.841l0.782,0.111c3.557,0.55,7.148,0.978,10.769,1.299c0.694,0.063,1.385,0.136,2.081,0.189
			c1.655,0.125,3.322,0.212,4.992,0.289c0.811,0.036,1.623,0.069,2.437,0.094c1.693,0.05,3.391,0.086,5.1,0.085
			c0.689-0.001,1.383-0.02,2.075-0.028c5.839-0.078,11.773-0.466,17.814-1.186c0.705-0.084,1.409-0.16,2.117-0.253
			c1.82-0.239,3.653-0.517,5.493-0.818c0.789-0.129,1.582-0.267,2.375-0.408c1.883-0.333,3.771-0.681,5.676-1.079
			c0.485-0.102,0.976-0.223,1.462-0.328c4.391-0.955,8.836-2.067,13.349-3.378l0.301-0.083c1.987-0.581,3.996-1.224,6.008-1.876
			c0.827-0.268,1.654-0.532,2.485-0.813c1.95-0.657,3.911-1.348,5.885-2.074c0.843-0.31,1.691-0.637,2.537-0.959
			c2.052-0.781,4.108-1.569,6.187-2.424l0.007-0.003h-0.001c22.869-9.409,47.364-23.335,74.003-42.74
			c110.514-80.509,198.097-237.921,202.101-303.619c4.003-65.698-79.852-108.357-86.371-147.281
			c-6.519-38.926,1.175-52.72,3.584-83.136c2.409-30.417,78.187-100.631,92.155-129.231c9.312-19.068,3.945-29.529-0.67-34.407
			l-0.009-0.011l0.407-0.756c0.342-0.655,0.681-1.309,1.017-1.964c1.021-1.992,2.015-3.988,2.986-5.99
			c0.265-0.546,0.533-1.092,0.794-1.638c1.071-2.243,2.11-4.492,3.119-6.745l0.408-0.899c1.695-3.814,3.292-7.642,4.818-11.476
			c0.548-1.377,1.041-2.758,1.569-4.137c0.938-2.456,1.879-4.912,2.751-7.372c0.126-0.356,0.273-0.711,0.398-1.068l-0.029-0.02
			c38.277-109.076,13.438-219.953,13.438-219.953c-4.502-35.043-15.761-52.832-4.026-87.14
			c43.16-49.819,158.431-183.044,265.889-308.692c3.873-4.529,7.734-9.045,11.582-13.55c7.696-9.007,15.336-17.957,22.891-26.817
			c18.886-22.149,37.236-43.731,54.582-64.213c72.851-86.021,127.987-152.631,130.728-160.353
			C1743.293,387.446,1736.548,326.597,1730.026,277.858z M478.537,1281.724c75.987-61.496,218.606,35.919,224.333,99.988
			c3.561,39.825-65.145,141.508-134.542,221.305c-0.96,1.105-1.921,2.198-2.882,3.294c-2.446,2.79-4.89,5.554-7.331,8.283
			c-0.969,1.082-1.935,2.156-2.903,3.228c-2.37,2.628-4.734,5.218-7.093,7.778c-0.949,1.031-1.899,2.067-2.846,3.086
			c-2.65,2.852-5.288,5.651-7.913,8.406c-0.982,1.032-1.961,2.05-2.94,3.067c-2.65,2.753-5.289,5.473-7.901,8.112
			c-0.786,0.795-1.562,1.559-2.344,2.344c-2.158,2.161-4.298,4.276-6.422,6.351c-0.874,0.853-1.753,1.722-2.621,2.559
			c-2.493,2.407-4.953,4.732-7.389,7.007c-0.946,0.882-1.887,1.756-2.824,2.617c-2.409,2.217-4.792,4.378-7.133,6.448
			c-0.841,0.745-1.665,1.451-2.497,2.175c-1.927,1.677-3.828,3.3-5.7,4.868c-0.812,0.679-1.631,1.373-2.432,2.031
			c-2.138,1.757-4.224,3.412-6.279,5.009c-0.828,0.644-1.655,1.286-2.469,1.903c-7.886,5.978-15.121,10.741-21.435,13.931
			c-70.331,35.539-121.899-48.364-121.899-48.364C256.105,1536.569,402.549,1343.222,478.537,1281.724z M1125.229,1742.878
			c-33.383,91.877-168.467,293.327-308.198,257.953c0,0-96.125-21.417-85.441-99.489c10.685-78.071,163.578-322.52,226.016-337.979
			C1020.045,1547.904,1158.612,1651.001,1125.229,1742.878z"/>
		<path style="fill:#306D9F;" d="M1225.804,1358.294c9.312-19.069,3.945-29.53-0.67-34.408l-0.009-0.01
			c-2.304-2.431-4.42-3.496-4.42-3.496l-105.897-75.633l-5.829-4.162l-15.862-11.331c-1-0.712-5.126,3.27-11.743,11.021
			c-4.563,5.345-10.353,12.546-17.149,21.283c-4.576,5.882-9.597,12.442-15.054,19.671c-2.742,3.633-5.587,7.423-8.53,11.366
			c-8.119,10.875-16.977,22.89-26.428,35.835c-4.02,5.506-8.182,11.235-12.406,17.062c-38.811,53.539-85.73,119.893-132.234,186.769
			c-4.486,6.451-8.966,12.904-13.435,19.353c-18.102,26.115-35.992,52.097-53.182,77.237
			c-13.325,19.488-26.214,38.448-38.443,56.558c-20.33,30.108-38.816,57.838-54.357,81.599c-5.18,7.92-10.034,15.4-14.518,22.379
			c-17.94,27.917-29.988,47.834-33.533,55.979c-7.703,17.703-12.714,36.482-12.796,55.96c-0.027,6.494,0.492,13.063,1.643,19.698
			c0.395,2.281,0.892,4.572,1.44,6.868c0.818,3.427,1.784,6.869,2.96,10.325c0.654,1.925,1.367,3.853,2.137,5.786
			c3.085,7.729,7.116,15.521,12.219,23.355c2.551,3.917,5.37,7.844,8.471,11.779c4.652,5.903,9.941,11.826,15.919,17.756
			c9.963,9.884,21.841,19.793,35.872,29.689l0.177,0.124c2.235,1.575,4.466,3.122,6.698,4.651c0.758,0.519,1.516,1.029,2.275,1.544
			c1.562,1.06,3.124,2.108,4.685,3.143c0.862,0.572,1.724,1.141,2.587,1.705c1.562,1.022,3.125,2.027,4.688,3.023
			c0.775,0.491,1.549,0.993,2.323,1.478c2.226,1.398,4.453,2.771,6.682,4.11c0.712,0.428,1.425,0.837,2.138,1.258
			c1.568,0.928,3.137,1.847,4.707,2.744c0.996,0.568,1.993,1.122,2.991,1.678c1.313,0.732,2.628,1.453,3.945,2.162
			c1.047,0.564,2.095,1.127,3.144,1.676c1.346,0.704,2.694,1.385,4.044,2.064c0.991,0.498,1.98,1.011,2.973,1.496
			c2.118,1.032,4.241,2.031,6.37,2.997c1.14,0.518,2.285,1.006,3.428,1.504c1.166,0.508,2.333,1.014,3.503,1.501
			c1.238,0.515,2.479,1.015,3.721,1.505c1.083,0.429,2.169,0.844,3.256,1.253c1.287,0.485,2.574,0.97,3.868,1.429
			c1.015,0.359,2.035,0.692,3.054,1.035c2.543,0.855,5.098,1.658,7.665,2.405c0.872,0.252,1.74,0.521,2.614,0.761
			c1.438,0.397,2.885,0.756,4.332,1.116c0.934,0.233,1.869,0.465,2.808,0.682c1.469,0.34,2.941,0.665,4.419,0.968
			c0.882,0.181,1.768,0.345,2.654,0.513c1.559,0.294,3.117,0.59,4.687,0.841l0.782,0.111c3.557,0.55,7.148,0.978,10.769,1.299
			c0.694,0.063,1.385,0.136,2.081,0.189c1.655,0.125,3.322,0.212,4.992,0.289c0.811,0.036,1.623,0.069,2.437,0.094
			c1.693,0.05,3.391,0.086,5.1,0.085c0.689-0.001,1.383-0.02,2.075-0.028c5.839-0.077,11.773-0.466,17.814-1.186
			c0.705-0.085,1.409-0.16,2.117-0.253c1.82-0.24,3.653-0.517,5.493-0.818c0.789-0.129,1.582-0.267,2.375-0.407
			c1.883-0.333,3.771-0.681,5.676-1.079c0.485-0.103,0.976-0.223,1.462-0.329c4.391-0.954,8.836-2.067,13.349-3.378l0.301-0.083
			c1.987-0.581,3.996-1.224,6.008-1.876c0.827-0.268,1.654-0.532,2.485-0.813c1.95-0.657,3.911-1.348,5.885-2.074
			c0.843-0.31,1.691-0.637,2.537-0.959c2.052-0.78,4.108-1.569,6.187-2.424l0.007-0.003h-0.001
			c22.869-9.409,47.364-23.335,74.003-42.74c110.514-80.509,198.097-237.921,202.101-303.618
			c4.003-65.699-79.852-108.357-86.371-147.282c-6.519-38.926,1.175-52.719,3.584-83.135
			C1136.059,1457.109,1211.836,1386.893,1225.804,1358.294z M1125.229,1742.878c-33.383,91.877-168.467,293.327-308.198,257.953
			c0,0-96.125-21.417-85.441-99.489c10.685-78.071,163.578-322.52,226.016-337.979
			C1020.045,1547.904,1158.612,1651.001,1125.229,1742.878z"/>
		<path style="fill:#306D9F;" d="M282.31,1698.921h-0.001l0.013,0.014c8.034,8.82,16.87,17.183,26.359,25.261l0.074,0.064
			c2.269,1.931,4.581,3.845,6.922,5.745l0.408,0.336c2.214,1.792,4.467,3.57,6.743,5.341l0.787,0.618
			c2.183,1.69,4.402,3.369,6.637,5.044l1.051,0.794c2.566,1.914,5.163,3.816,7.793,5.714c2.303,1.661,4.583,3.251,6.845,4.789
			c2.261,1.536,4.504,3.018,6.733,4.46c5.353,3.463,10.6,6.618,15.743,9.477c2.268,1.26,4.514,2.46,6.742,3.608
			c2.582,1.33,5.138,2.587,7.667,3.769c2.217,1.036,4.413,2.019,6.59,2.943c6.305,2.68,12.461,4.949,18.434,6.74
			c2.316,0.694,4.607,1.324,6.875,1.892c4.535,1.136,8.972,2.022,13.315,2.673c6.514,0.978,12.816,1.429,18.912,1.405
			c8.13-0.031,15.896-0.906,23.321-2.501c3.017-0.648,5.976-1.415,8.881-2.292c20.333-6.142,37.969-17.704,53.383-31.843
			c4.993-4.58,14.284-15.626,26.851-31.65c12.568-16.025,28.412-37.027,46.513-61.522c1.286-1.741,2.583-3.497,3.892-5.273
			c6.164-8.362,12.571-17.1,19.187-26.169c6.088-8.343,12.332-16.928,18.741-25.779c2.823-3.899,5.676-7.843,8.554-11.828
			c5.755-7.972,11.615-16.109,17.557-24.382c8.912-12.408,18.013-25.123,27.23-38.042c3.073-4.307,6.158-8.636,9.254-12.984
			c6.192-8.698,12.427-17.473,18.684-26.293c6.256-8.822,12.535-17.691,18.815-26.577c15.701-22.216,31.412-44.541,46.818-66.515
			c9.244-13.184,18.376-26.242,27.331-39.074c13.992-20.049,27.547-39.547,40.405-58.113c3.019-4.358,5.984-8.645,8.923-12.896
			c3.319-4.802,6.601-9.552,9.809-14.204c46.366-67.228,80.569-117.959,87.903-130.774l-44.059-31.418l0,0l-73.549-52.449
			l-0.009-0.006l-4.514-3.218c0,0-15.016-14.993-37.506,7.531c-22.488,22.524-64.183,117.044-92.155,129.232
			c-27.971,12.188-38.505,23.956-77.43,30.475c-38.926,6.519-106.578-58.86-167.386-33.672
			c-60.808,25.192-181.095,159.282-221.204,289.998C217.855,1586.018,237.441,1649.649,282.31,1698.921 M478.537,1281.724
			c75.987-61.496,218.606,35.919,224.333,99.988c3.561,39.825-65.145,141.508-134.542,221.305c-0.96,1.106-1.921,2.198-2.882,3.295
			c-2.446,2.79-4.89,5.553-7.331,8.283c-0.969,1.081-1.935,2.156-2.903,3.229c-2.37,2.628-4.734,5.218-7.093,7.777
			c-0.949,1.032-1.899,2.067-2.846,3.086c-2.65,2.852-5.288,5.651-7.913,8.406c-0.982,1.032-1.961,2.05-2.94,3.068
			c-2.65,2.753-5.289,5.472-7.901,8.111c-0.786,0.795-1.562,1.559-2.344,2.344c-2.158,2.161-4.298,4.276-6.422,6.351
			c-0.874,0.852-1.753,1.72-2.621,2.559c-2.493,2.407-4.953,4.732-7.389,7.007c-0.946,0.882-1.887,1.756-2.824,2.617
			c-2.409,2.217-4.792,4.378-7.133,6.448c-0.841,0.745-1.665,1.451-2.497,2.174c-1.927,1.678-3.828,3.301-5.7,4.868
			c-0.812,0.68-1.631,1.374-2.432,2.031c-2.138,1.757-4.224,3.411-6.279,5.009c-0.828,0.644-1.655,1.286-2.469,1.903
			c-7.886,5.978-15.121,10.741-21.435,13.931c-70.331,35.539-121.899-48.364-121.899-48.364
			C256.105,1536.569,402.549,1343.222,478.537,1281.724z"/>
		<path style="fill:#9299AD;" d="M1155.683,959.825c-17.739-12.649-42.373-8.524-55.023,9.215c-1.102,1.544-2.03,3.156-2.879,4.793
			c-1.271,1.336-2.492,2.74-3.594,4.284c-12.649,17.739-8.523,42.373,9.215,55.023l0.108,0.069c0.936,0.662,1.893,1.273,2.868,1.835
			c0.974,0.572,1.97,1.081,2.974,1.561l0.012,0.006v-0.001c16.958,8.095,37.775,3.143,49.062-12.684
			c1.101-1.545,2.03-3.156,2.879-4.793c1.271-1.336,2.492-2.738,3.594-4.284C1177.547,997.109,1173.421,972.474,1155.683,959.825z"
			/>
		<path style="fill:#D0D4E2;" d="M1149.214,968.904l-0.004-0.003l-0.007-0.004c-1.415-1.009-2.885-1.873-4.379-2.668
			c-0.004-0.003-0.009-0.005-0.013-0.008l-0.001,0.001c-15.587-8.306-34.876-5.167-47.029,7.61c-1.271,1.336-2.492,2.74-3.594,4.284
			c-12.649,17.739-8.523,42.373,9.215,55.023l0.108,0.069c0.936,0.662,1.893,1.273,2.868,1.835c0.974,0.572,1.97,1.081,2.974,1.561
			l0.012,0.006v-0.001c16.958,8.095,37.775,3.143,49.062-12.684c1.101-1.545,2.03-3.156,2.879-4.793
			C1170.206,1001.974,1165.405,980.453,1149.214,968.904z"/>
		<path style="fill:#9299AD;" d="M1730.026,277.858L1730.026,277.858c-0.411-3.073-0.821-6.096-1.227-9.058
			c-0.417-3.04-0.828-5.991-1.234-8.885c-1.039-7.405-2.033-14.296-2.923-20.341c-0.956-6.493-1.785-11.979-2.441-16.269
			L1285.621,907.42l-138.97,217.766c-26.71-17.186-51.565-26.062-74.494-28.837c21.837,35.268,33.165,65.167,37.696,90.256h0
			c0.451,2.496,0.831,4.94,1.151,7.34l0.03,0.211c0.637,4.822,1.018,9.455,1.174,13.903l0.005,0.175
			c0.409,12.146-0.889,22.878-3.233,32.352l5.829,4.163l105.897,75.632c0,0,2.116,1.064,4.42,3.496l0.407-0.756
			c0.342-0.655,0.681-1.309,1.017-1.964c1.021-1.992,2.015-3.988,2.986-5.99c0.265-0.546,0.533-1.092,0.794-1.638
			c1.071-2.243,2.11-4.492,3.119-6.745l0.408-0.899c1.695-3.814,3.292-7.642,4.818-11.476c0.548-1.377,1.041-2.758,1.569-4.137
			c0.938-2.456,1.879-4.912,2.751-7.372c0.126-0.356,0.273-0.711,0.398-1.068l-0.029-0.02
			c38.277-109.076,13.438-219.953,13.438-219.953c-4.502-35.043-15.761-52.832-4.026-87.14
			c43.16-49.819,158.431-183.044,265.889-308.692c3.873-4.529,7.734-9.045,11.582-13.55c7.696-9.007,15.336-17.957,22.891-26.817
			c18.886-22.149,37.236-43.731,54.582-64.213c72.851-86.021,127.987-152.631,130.728-160.353
			C1743.293,387.446,1736.548,326.597,1730.026,277.858z"/>
		<path style="fill:#6E7687;" d="M1285.621,907.42c1.88-0.433,3.754-0.832,5.611-1.151
			c117.296-167.467,386.468-551.965,438.793-628.411v-0.001c-0.411-3.072-0.821-6.096-1.227-9.057
			c-0.417-3.04-0.828-5.991-1.234-8.885c-1.039-7.405-2.033-14.296-2.923-20.341c-0.956-6.493-1.785-11.979-2.441-16.269
			L1285.621,907.42z"/>
		<path style="fill:#71798E;" d="M1109.853,1186.605c0.451,2.496,0.831,4.94,1.151,7.34l0.03,0.211
			c0.637,4.822,1.018,9.455,1.174,13.903l0.005,0.175c0.409,12.146-0.889,22.878-3.233,32.352l5.829,4.163l105.897,75.632
			c0,0,2.116,1.064,4.42,3.496l0.407-0.756c0.342-0.655,0.681-1.309,1.017-1.964c1.021-1.992,2.015-3.988,2.986-5.99
			c0.265-0.546,0.533-1.092,0.794-1.638c1.071-2.243,2.11-4.492,3.119-6.745l0.408-0.899c1.695-3.814,3.292-7.642,4.818-11.476
			c0.548-1.377,1.041-2.758,1.569-4.137c0.938-2.456,1.879-4.912,2.751-7.372c0.126-0.356,0.273-0.711,0.398-1.068l-0.029-0.02
			L1109.853,1186.605L1109.853,1186.605z"/>
		<path style="fill:#9299AD;" d="M885.407,1026.553l-0.025-0.018c-0.369,0.297-0.742,0.626-1.111,0.926
			c-2.535,2.058-5.079,4.189-7.627,6.357c-0.879,0.748-1.755,1.468-2.635,2.229c-3.424,2.961-6.858,6.006-10.297,9.172l-1.024,0.96
			c-3.76,3.482-7.526,7.11-11.293,10.848l108.41,77.306l0.66-0.578l0.102-0.086c1.858-1.568,3.75-3.106,5.671-4.614l0.515-0.405
			c4.013-3.132,8.159-6.125,12.443-8.939l0.085-0.055c2.035-1.335,4.106-2.623,6.202-3.874l0.769-0.457
			c4.396-2.592,8.92-4.998,13.579-7.166l0.008-0.004L885.407,1026.553z"/>
		<path style="fill:#CCD0DD;" d="M1206.335,798.113c103.005-138.629,187.037-289.426,284.454-431.84
			c33.741-49.327,72.1-104.713,118.037-149.996l0,0l-0.024,0.006c-8.599,2.304-17.409,4.925-26.32,7.884l-1.179,0.396
			c-4.289,1.438-8.599,2.947-12.923,4.551l-0.206,0.075c-4.336,1.611-8.684,3.323-13.032,5.112
			c-0.673,0.277-1.343,0.567-2.016,0.849c-3.622,1.514-7.241,3.097-10.855,4.741c-0.833,0.379-1.665,0.748-2.497,1.135
			c-4.136,1.919-8.262,3.919-12.364,6.018c-0.637,0.326-1.268,0.675-1.904,1.006c-3.457,1.796-6.893,3.667-10.31,5.599
			c-1.077,0.609-2.152,1.218-3.225,1.84c-3.985,2.312-7.947,4.687-11.855,7.195l-0.043,0.026l-0.294,0.45l-0.036,0.054
			c-0.469,0.72-1.508,2.312-2.977,4.563c-0.996,1.525-2.154,3.301-3.58,5.485c-3.779,5.791-9.056,13.881-15.559,23.855l-0.708,1.087
			c-2.465,3.78-5.073,7.779-7.876,12.079c-1.794,2.752-3.652,5.604-5.578,8.556l-0.856,1.315c-1.186,1.818-2.42,3.713-3.652,5.603
			c-1.222,1.876-2.464,3.783-3.732,5.727c-0.46,0.706-0.93,1.426-1.396,2.142c-3.449,5.292-7.032,10.793-10.782,16.549
			c-1.816,2.789-3.65,5.605-5.532,8.494l-0.525,0.806c-4.259,6.54-8.698,13.355-13.267,20.375c-1.264,1.94-2.547,3.912-3.833,5.887
			c-4.042,6.21-8.177,12.561-12.424,19.087c-1.108,1.704-2.234,3.433-3.356,5.157c-1.784,2.742-3.569,5.485-5.385,8.277
			c-0.691,1.061-1.393,2.14-2.088,3.21c-1.985,3.051-3.983,6.122-6.003,9.228c-1.133,1.742-2.281,3.507-3.425,5.265
			c-1.908,2.933-3.816,5.867-5.752,8.844c-1.273,1.958-2.568,3.949-3.854,5.926c-1.494,2.298-2.984,4.591-4.493,6.911
			c-1.634,2.514-3.287,5.055-4.937,7.594c-1.617,2.488-3.227,4.964-4.859,7.475c-0.616,0.948-1.239,1.906-1.858,2.858
			c-36.013,55.413-75.43,116.154-113.611,175.174c-0.497,0.768-0.994,1.536-1.491,2.304c-2.292,3.542-4.574,7.071-6.855,10.599
			c-1.108,1.715-2.218,3.431-3.324,5.141c-2.317,3.585-4.625,7.156-6.929,10.719c-0.79,1.223-1.583,2.45-2.372,3.671
			c-2.875,4.449-5.737,8.881-8.586,13.292l-0.615,0.953c-2.711,4.199-5.404,8.37-8.087,12.527c-0.612,0.949-1.225,1.897-1.835,2.843
			c-2.487,3.855-4.957,7.683-7.415,11.495c-0.691,1.072-1.383,2.145-2.071,3.213c-2.353,3.649-4.688,7.272-7.011,10.877
			c-0.773,1.2-1.546,2.4-2.317,3.595c-2.129,3.306-4.241,6.585-6.344,9.85c-1.039,1.615-2.075,3.224-3.108,4.828
			c-2.082,3.235-4.151,6.451-6.203,9.64c-0.79,1.229-1.578,2.453-2.364,3.675c-2.108,3.278-4.196,6.528-6.269,9.753
			c-0.886,1.379-1.767,2.75-2.646,4.119c-1.924,2.996-3.832,5.967-5.722,8.912c-1.008,1.569-2.005,3.124-3.002,4.679
			c-1.845,2.877-3.68,5.738-5.491,8.563c-0.803,1.253-1.598,2.493-2.394,3.736c-1.902,2.968-3.788,5.913-5.647,8.817
			c-0.859,1.342-1.704,2.664-2.554,3.992c-1.784,2.788-3.556,5.559-5.297,8.283c-0.787,1.233-1.56,2.442-2.339,3.661
			c-1.731,2.71-3.45,5.402-5.135,8.043c-0.823,1.289-1.625,2.548-2.436,3.819c-1.596,2.504-3.184,4.995-4.735,7.431
			c-0.896,1.408-1.765,2.773-2.646,4.158c-1.405,2.209-2.81,4.416-4.174,6.562c-0.948,1.493-1.863,2.935-2.791,4.397
			c-1.287,2.029-2.58,4.065-3.828,6.034c-0.902,1.423-1.765,2.787-2.645,4.176c-1.197,1.892-2.403,3.796-3.559,5.625
			c-0.918,1.452-1.789,2.835-2.681,4.247c-1.065,1.688-2.146,3.401-3.173,5.032c-0.763,1.211-1.48,2.354-2.221,3.532
			c-1.135,1.804-2.284,3.631-3.366,5.357c-0.411,0.654-0.786,1.257-1.189,1.901c-1.315,2.099-2.623,4.188-3.855,6.163l-0.522,0.837
			c-4.347,6.971-8.148,13.12-11.355,18.376c-1.069,1.752-2.072,3.405-3.009,4.956l-0.682,1.127c-0.68,1.13-1.272,2.128-1.872,3.139
			c-0.279,0.471-0.596,0.996-0.858,1.44c-0.517,0.876-0.949,1.626-1.397,2.398l-0.736,1.264l0.003-0.003
			C1125.001,921.631,1167.958,849.765,1206.335,798.113z"/>
		<path style="fill:#8795B2;" d="M1149.214,968.904l-0.004-0.003l-0.007-0.004c-1.415-1.009-2.885-1.873-4.379-2.668
			c-0.004-0.003-0.009-0.005-0.013-0.008l-0.001,0.001l-45.374,63.631c1.245,1.159,2.545,2.273,3.966,3.286l0.108,0.069
			c0.936,0.662,1.893,1.273,2.868,1.835c0.974,0.572,1.97,1.081,2.974,1.561l0.012,0.006v-0.001l45.069-63.201
			C1152.843,971.791,1151.123,970.267,1149.214,968.904z"/>
	</g>
	<path style="fill:#488DBC;" d="M924.944,1109.475c-48.153,82.109-97.583,163.435-148.04,244.17
		c-55.777,89.247-115.176,176.335-173.761,263.756c-38.885,58.022-91.692,122.29-167.261,126.072
		c-52.818,2.643-107.522-18.584-153.571-44.552l-0.001-0.001l0.013,0.014c8.034,8.82,16.87,17.183,26.359,25.262l0.074,0.064
		c2.269,1.931,4.581,3.845,6.922,5.745l0.408,0.336c2.214,1.792,4.467,3.57,6.743,5.341l0.787,0.618
		c2.183,1.691,4.402,3.369,6.637,5.044l1.051,0.795c2.566,1.913,5.163,3.815,7.793,5.713c2.303,1.66,4.583,3.252,6.845,4.789
		c2.261,1.536,4.504,3.019,6.733,4.46c5.353,3.463,10.6,6.618,15.743,9.477c2.268,1.26,4.514,2.46,6.742,3.608
		c2.582,1.33,5.138,2.587,7.667,3.768c2.217,1.036,4.413,2.019,6.59,2.943c6.305,2.68,12.461,4.949,18.434,6.74
		c2.316,0.694,4.607,1.324,6.875,1.893c4.535,1.135,8.972,2.021,13.315,2.673c6.514,0.978,12.816,1.429,18.912,1.405
		c8.13-0.031,15.896-0.906,23.321-2.501c3.017-0.648,5.976-1.415,8.881-2.292c20.333-6.142,37.969-17.704,53.383-31.843
		c4.993-4.58,14.284-15.626,26.851-31.65c12.568-16.025,28.412-37.028,46.513-61.522c1.286-1.741,2.583-3.497,3.892-5.273
		c6.164-8.362,12.571-17.1,19.187-26.168c6.088-8.343,12.332-16.929,18.741-25.779c2.823-3.9,5.676-7.844,8.554-11.829
		c5.755-7.971,11.615-16.108,17.557-24.381c8.912-12.408,18.013-25.123,27.23-38.043c3.073-4.306,6.158-8.635,9.254-12.984
		c6.192-8.698,12.427-17.472,18.684-26.293c6.256-8.821,12.535-17.691,18.815-26.576c15.701-22.216,31.412-44.541,46.818-66.516
		c9.244-13.184,18.376-26.242,27.331-39.074c13.992-20.049,27.547-39.547,40.405-58.113c3.019-4.359,5.984-8.646,8.923-12.896
		c3.319-4.802,6.601-9.553,9.809-14.204c46.366-67.228,80.569-117.959,87.903-130.774L924.944,1109.475z"/>
	<path style="fill:#488DBC;" d="M698.356,1885.232c-0.337-76.938,45.218-150.434,87.667-211.395
		c51.242-73.585,109.79-142.853,166.457-212.24c57.435-70.326,116.685-139.308,180.421-203.927l-18.093-12.923l-5.829-4.163
		l-15.862-11.33c-1-0.712-5.126,3.27-11.743,11.021c-4.563,5.345-10.353,12.546-17.149,21.282
		c-4.576,5.882-9.597,12.442-15.054,19.672c-2.742,3.633-5.587,7.423-8.53,11.366c-8.119,10.875-16.977,22.89-26.428,35.835
		c-4.02,5.506-8.182,11.235-12.406,17.062c-38.811,53.539-85.73,119.893-132.234,186.769c-4.486,6.452-8.966,12.904-13.435,19.353
		c-18.102,26.115-35.992,52.097-53.182,77.237c-13.325,19.488-26.214,38.448-38.443,56.558
		c-20.33,30.108-38.816,57.837-54.357,81.598c-5.18,7.92-10.034,15.399-14.518,22.379c-17.94,27.917-29.988,47.834-33.533,55.979
		c-7.703,17.703-12.714,36.482-12.796,55.96c-0.027,6.493,0.492,13.063,1.643,19.698c0.395,2.282,0.892,4.572,1.44,6.868
		c0.818,3.427,1.784,6.868,2.96,10.325c0.654,1.924,1.367,3.853,2.137,5.785c3.085,7.729,7.116,15.521,12.219,23.355
		c2.551,3.917,5.37,7.844,8.471,11.779c4.652,5.903,9.941,11.826,15.919,17.756c9.963,9.883,21.841,19.794,35.872,29.689
		l0.177,0.124c2.235,1.575,4.466,3.122,6.698,4.651c0.758,0.519,1.516,1.029,2.275,1.544c1.562,1.06,3.124,2.108,4.685,3.143
		c0.862,0.572,1.724,1.141,2.587,1.705c1.562,1.022,3.125,2.026,4.688,3.022c0.775,0.492,1.549,0.994,2.323,1.479
		c2.226,1.397,4.453,2.771,6.682,4.109c0.712,0.428,1.425,0.837,2.138,1.258c1.568,0.928,3.137,1.847,4.707,2.744
		c0.996,0.568,1.993,1.124,2.991,1.679c1.313,0.732,2.628,1.453,3.945,2.162c1.047,0.564,2.095,1.127,3.144,1.676
		c1.346,0.704,2.694,1.385,4.044,2.064c0.991,0.499,1.98,1.011,2.973,1.495c2.118,1.033,4.241,2.031,6.37,2.997
		c1.14,0.518,2.285,1.006,3.428,1.504c1.166,0.508,2.333,1.014,3.503,1.501c1.238,0.515,2.479,1.015,3.721,1.505
		c1.083,0.429,2.169,0.844,3.256,1.253c1.287,0.485,2.574,0.97,3.868,1.429c1.015,0.359,2.035,0.692,3.054,1.035
		c2.543,0.856,5.098,1.658,7.665,2.405c0.872,0.253,1.74,0.521,2.614,0.761c1.438,0.396,2.885,0.756,4.332,1.117
		c0.934,0.233,1.869,0.464,2.808,0.681c1.469,0.341,2.941,0.665,4.419,0.968c0.882,0.181,1.768,0.345,2.654,0.513
		c1.559,0.294,3.117,0.59,4.687,0.841l0.782,0.111c3.557,0.55,7.148,0.978,10.769,1.299c0.694,0.063,1.385,0.136,2.081,0.189
		c1.655,0.125,3.322,0.212,4.992,0.289c0.811,0.036,1.623,0.069,2.437,0.094c1.693,0.05,3.391,0.086,5.1,0.085
		c0.689-0.001,1.383-0.02,2.075-0.028c5.839-0.078,11.773-0.466,17.814-1.186c0.705-0.084,1.409-0.16,2.117-0.253
		c1.82-0.239,3.653-0.517,5.493-0.818c0.789-0.129,1.582-0.267,2.375-0.408c1.883-0.333,3.771-0.681,5.676-1.079
		c0.485-0.102,0.976-0.223,1.462-0.328c4.391-0.955,8.836-2.067,13.349-3.378l0.301-0.083c1.987-0.581,3.996-1.224,6.008-1.876
		c0.827-0.268,1.654-0.532,2.485-0.813c1.95-0.657,3.911-1.348,5.885-2.074c0.843-0.31,1.691-0.637,2.537-0.959
		c2.052-0.781,4.108-1.569,6.187-2.424l0.007-0.003h-0.001c-35.35-0.026-70.518-5.258-103.068-15.374
		C763.07,2025.866,698.715,1967.197,698.356,1885.232z"/>
</g>
</svg>
