<?xml version="1.0" encoding="utf-8"?>
<!-- Generator: Adobe Illustrator 27.5.0, SVG Export Plug-In . SVG Version: 6.00 Build 0)  -->
<svg version="1.1" xmlns="http://www.w3.org/2000/svg" xmlns:xlink="http://www.w3.org/1999/xlink" x="0px" y="0px"
	 viewBox="0 0 500 500" style="enable-background:new 0 0 500 500;" xml:space="preserve">
<g id="BACKGROUND">
	<!-- <rect style="fill:#031547;" width="500" height="500"/> -->
</g>
<g id="OBJECTS">
	<g>
		<g>
			<path style="fill:#FDCB6A;" d="M291.576,232.835c13.551-2.947,34.695,1.599,47.028,8.063
				c8.411,4.408,18.637,19.372,23.893,27.415c16.228,24.832,22.296,37.78,28.601,66.957c1.219,5.642-1.111,9.038-3.601,14.222
				c-2.214,4.609-6.824,7.624-11.649,9.019c-4.825,1.395-9.917,1.382-14.93,1.358c-36.578-0.171-73.156-0.341-109.734-0.512
				c-4.083-0.019-8.473-0.137-11.758-2.622c-2.966-2.244-4.422-5.969-5.737-9.498c-4.751-12.752-9.501-25.504-13.109-38.716
				c-6.514,11.881-13.028,23.762-19.542,35.644c-1.577,2.877-13.453,15.764-15.841,17.978c-3.814,3.538-9.098,3.156-14.177,4.001
				c-8.633,1.436-10.928-0.222-19.667-0.559c-2.516-0.097-1.63-6.565-2.998-8.731c-1.608-2.546,5.799-10.865,7.305-13.475
				c18.038-31.255,35.418-53.949,59.168-80.9c8.675-9.844,24.35-16.48,37.129-18.594c7.968-1.318,10.147-2.916,18.218-2.837
				C278.246,241.125,286.995,241.189,291.576,232.835z"/>
			<path style="fill:#F5B793;" d="M220.496,162.478c-1.549,18.218,1.814,36.848,9.619,53.294
				c2.718,5.726,6.224,11.453,11.709,14.445c7.819,4.265,17.601,1.84,25.348-2.561c15.536-8.828,26.716-25.939,27.173-44.135
				s-10.654-36.54-27.343-42.779S222.391,140.192,220.496,162.478z"/>
			<path style="fill:#F5B793;" d="M251.957,219.196c1.788,9.861,3.576,19.723,5.363,29.584c0.351,1.939,0.746,3.974,1.994,5.475
				c1.863,2.242,5.06,2.655,7.934,2.63c5.534-0.05,11.056-1.149,16.205-3.227c4.579-1.847,9.312-5.106,10.076-10.087
				c0.385-2.508-0.321-5.041-1.019-7.477c-3.087-10.769-6.174-21.538-9.262-32.308C274.462,208.966,265.216,213.325,251.957,219.196
				z"/>
			<g>
				<path style="fill:#FFFFFF;" d="M267.506,138.372c12.323,1.669,24.273,14.618,28.104,27.674
					c4.26,12.179-3.445,35.202-9.921,44.178c0.649-11.477,1.25-20.438-5.829-39.226c0.295,8.48-2.247,15.15-2.65,15.885
					c-0.377,0.688-3.278,2.816-3.921,2.381c-0.444-0.301-3.463-14.141-11.16-32.492c-6.458-6.629-14.969-11.127-23.985-12.674
					c-0.625-0.107-1.276-0.21-1.799-0.576c-0.523-0.366-0.872-1.086-0.615-1.679c0.182-0.422,0.607-0.668,1.007-0.879
					C246.428,135.879,255.805,136.788,267.506,138.372z"/>
				<path style="fill:#FFFFFF;" d="M247.137,142.844c-7.344-4.932-17.994-3.84-24.238,2.485s-7.43,17.224-2.699,24.803
					c7.002-12.739,20.67-21.351,34.925-22.006C252.499,145.046,249.217,142.556,247.137,142.844z"/>
				<path style="fill:#FFFFFF;" d="M257.344,169.529c-3.779-1.283-7.974-1.239-11.727,0.123c-0.074,0.986-0.45,1.946-1.063,2.71
					c4.85-1.147,9.962-1.117,14.8,0.087C259.445,171.026,258.567,169.945,257.344,169.529z"/>
				<path style="fill:#FFFFFF;" d="M220.849,182.261c2.386-3.265,5.854-5.685,9.693-6.764c0.61,0.766,1.455,1.334,2.384,1.602
					c-4.621,1.898-8.799,4.915-12.097,8.735C219.959,184.719,220.077,183.317,220.849,182.261z"/>
				<path style="fill:#FFFFFF;" d="M269.298,174.2c2.436,6.057,4.853,13.804,3.829,20.27c-0.929,5.867-5.514,8.895-10.1,12.536
					s-9.162,8.088-13.449,10.145c-4.869,2.109-12.768,1.843-18.025,1.277c0.274,5.487,6.949,11.348,11.98,13.25
					c5.031,1.903,10.707,1.286,15.745-0.599c5.037-1.884,9.558-4.953,14.01-8.016c4.964-3.416,10.424-7.757,10.681-13.878
					C284.092,206.231,278.133,179.638,269.298,174.2z"/>
				<path style="fill:#FFFFFF;" d="M256.209,214.786c-0.732,0.44-1.689,0.191-2.396-0.29s-1.261-1.163-1.94-1.684
					c-0.679-0.521-1.579-0.879-2.373-0.574c-1.056,0.406-1.41,1.71-1.802,2.793c-0.693,1.916-1.935,3.621-3.53,4.848
					c2.385,0.084,4.782-0.186,7.093-0.798c0.726-0.192,1.457-0.425,2.074-0.862S254.446,217.107,256.209,214.786z"/>
				<path style="fill:#FFFFFF;" d="M239.727,197.325c1.9-3.091,6.525-2.627,9.313-2.501c10.878,0.491,17.661,8.473,20.326,9.321
					c2.538,0.808-1.649,1.118-3.649,1.968c-4.918-1.476-8.795-5.86-17.895-5.239c-1.806,0.123-5.137,0.467-5.97,0.207
					C240.434,200.638,239.898,199.775,239.727,197.325z"/>
				<path style="fill:#FFFFFF;" d="M240.284,202.536c0.915-1.026,1.33-2.478,0.886-3.792c-0.394-1.164-1.211-1.952-2.371-1.484
					c-1.827,0.738-5.404,4.399-6.289,6.526c-2.194,5.272-2.216,9.9-2.216,17.78c1.178,0.339,4.865-10.209,5.351-11.343
					C237.382,206.178,239.185,203.768,240.284,202.536z"/>
				<g>
					<g>
						<path style="fill:#E3E3E3;" d="M270.398,139.056c-1.755,2.457-3.303,4.966-4.525,7.653c-1.245,2.676-2.144,5.484-2.888,8.411
							c-0.044-3.029,0.718-6.059,1.98-8.829C266.25,143.532,268.058,140.982,270.398,139.056z"/>
					</g>
					<g>
						<path style="fill:#E3E3E3;" d="M270.886,140.882c2.211,0.834,4.29,2.013,6.229,3.385c1.922,1.398,3.682,3.021,5.269,4.799
							c3.167,3.569,5.555,7.799,7.189,12.279c1.559,4.509,2.393,9.253,2.533,13.998c0.139,4.748-0.338,9.495-1.374,14.1
							c0.305-2.34,0.557-4.682,0.644-7.032c0.121-2.346,0.117-4.696-0.038-7.033c-0.296-4.669-1.11-9.316-2.706-13.7
							c-1.519-4.404-3.856-8.52-6.828-12.114C278.83,145.975,275.134,142.945,270.886,140.882z"/>
					</g>
					<g>
						<path style="fill:#E3E3E3;" d="M270.386,143.775c3.226,2.099,6.092,4.762,8.531,7.772c2.443,3.011,4.402,6.409,5.902,9.99
							c1.426,3.613,2.388,7.413,2.754,11.272c0.176,1.929,0.227,3.867,0.142,5.797c-0.118,1.928-0.332,3.849-0.74,5.729
							c0.183-1.914,0.298-3.827,0.25-5.738c-0.015-1.909-0.151-3.815-0.416-5.7c-0.516-3.769-1.451-7.482-2.916-10.984
							c-1.391-3.533-3.314-6.844-5.582-9.897C276.04,148.964,273.364,146.204,270.386,143.775z"/>
					</g>
					<g>
						<path style="fill:#E3E3E3;" d="M267.212,148.241c2.769,1.557,5.072,3.921,6.799,6.609c1.708,2.701,2.876,5.783,3.14,8.948
							c-1.04-2.988-2.313-5.81-3.983-8.411C271.518,152.774,269.5,150.426,267.212,148.241z"/>
					</g>
					<g>
						<path style="fill:#E3E3E3;" d="M264.51,153.702c2.157,1.013,3.963,2.719,5.326,4.685c1.344,1.981,2.282,4.277,2.466,6.652
							c-0.954-2.17-1.987-4.204-3.29-6.087C267.729,157.056,266.204,155.359,264.51,153.702z"/>
					</g>
					<g>
						<path style="fill:#E3E3E3;" d="M260.519,151.282c-2.027-2.589-4.548-4.636-7.43-5.988c-2.875-1.365-6.058-2.014-9.344-1.882
							c3.183-0.931,6.742-0.451,9.771,0.978C256.544,145.827,259.164,148.26,260.519,151.282z"/>
					</g>
					<g>
						<path style="fill:#E3E3E3;" d="M260.603,145.656c-2.495-1.996-5.267-3.474-8.253-4.304c-2.981-0.847-6.117-1.033-9.283-0.604
							c2.982-1.21,6.425-1.234,9.554-0.358C255.748,141.278,258.665,143.09,260.603,145.656z"/>
					</g>
					<g>
						<path style="fill:#E3E3E3;" d="M264.775,142.253c-1.716-0.97-3.346-1.902-5.076-2.668c-1.719-0.791-3.493-1.4-5.357-2.042
							c1.976-0.147,3.962,0.327,5.769,1.131C261.907,139.503,263.572,140.68,264.775,142.253z"/>
					</g>
					<g>
						<path style="fill:#E3E3E3;" d="M246.755,148.688c-2.048-2.23-4.402-4.034-7.054-5.285c-2.644-1.267-5.528-1.957-8.553-2.101
							c2.979-0.656,6.199-0.121,8.982,1.198C242.909,143.832,245.347,145.985,246.755,148.688z"/>
					</g>
					<g>
						<path style="fill:#E3E3E3;" d="M240.833,150.958c-1.921-2.399-4.242-4.33-6.902-5.656c-2.652-1.341-5.585-2.054-8.659-2.118
							c3.01-0.738,6.309-0.179,9.108,1.225C237.176,145.822,239.582,148.126,240.833,150.958z"/>
					</g>
					<g>
						<path style="fill:#E3E3E3;" d="M236.25,153.747c-2.41-1.45-4.629-3.116-7.067-4.308c-1.204-0.605-2.488-1.093-3.779-1.38
							c-1.272-0.233-2.724-0.259-3.769,0.739c0.339-0.628,0.995-1.064,1.69-1.307c0.707-0.219,1.458-0.275,2.186-0.205
							c1.462,0.154,2.824,0.632,4.114,1.257C232.189,149.836,234.344,151.696,236.25,153.747z"/>
					</g>
					<g>
						<path style="fill:#E3E3E3;" d="M231.424,156.735c-1.753-1.311-3.602-2.285-5.605-2.844c-1.999-0.576-4.082-0.721-6.26-0.507
							c1.977-0.993,4.381-1.061,6.533-0.454C228.242,153.548,230.244,154.866,231.424,156.735z"/>
					</g>
					<g>
						<path style="fill:#E3E3E3;" d="M225.606,161.523c-1.363-0.571-2.644-0.938-3.988-1.051c-1.343-0.128-2.668,0.002-4.111,0.322
							c1.083-1.041,2.694-1.45,4.201-1.317C223.215,159.619,224.723,160.31,225.606,161.523z"/>
					</g>
				</g>
			</g>
			<path style="fill:#F5B793;" d="M272.426,169.215c1.299-2.362,4.156-3.617,6.774-3.218s4.904,2.303,6.08,4.732
				c1.176,2.429,1.3,5.313,0.621,7.933c-1.173,4.526-2.83,8.511-7.225,9.795C274.689,180.709,274.048,176.687,272.426,169.215z"/>
			<g>
				<ellipse transform="matrix(0.9861 -0.1664 0.1664 0.9861 -26.5222 44.0392)" cx="249.519" cy="180.277" rx="1.233" ry="1.58"/>
				<ellipse transform="matrix(0.9861 -0.1664 0.1664 0.9861 -27.6225 40.765)" cx="229.432" cy="185.205" rx="1.233" ry="1.58"/>
				<g>
					<path style="fill:#D47A59;" d="M237.839,177.086c0.898,1.989,1.693,4.013,2.472,6.042c0.405,1.013,0.76,2.029,1.14,3.061
						c0.188,0.537,0.328,1.104,0.366,1.714c0.039,0.594-0.06,1.321-0.545,1.88c-0.47,0.559-1.248,0.758-1.849,0.726
						c-0.614-0.015-1.153-0.137-1.654-0.185c-0.503-0.059-0.953-0.03-1.313,0.175c-0.365,0.204-0.652,0.577-0.831,1.015
						c-0.364,0.904-0.208,1.956,0.376,2.819c0.534,0.9,1.382,1.609,2.181,2.346c-0.933-0.559-1.85-1.181-2.581-2.063
						c-0.345-0.451-0.636-0.968-0.768-1.562c-0.126-0.585-0.107-1.199,0.065-1.788c0.174-0.583,0.531-1.165,1.109-1.518
						c0.579-0.366,1.274-0.41,1.841-0.367c1.139,0.109,2.2,0.369,2.673-0.257c0.509-0.551,0.335-1.689,0.032-2.642
						c-0.317-1.026-0.67-2.063-0.967-3.106C238.959,181.294,238.347,179.208,237.839,177.086z"/>
				</g>
				<g>
					<path style="fill:#D47A59;" d="M253.353,203.798c0.013,1.341-0.467,2.668-1.187,3.81c-0.716,1.154-1.686,2.189-3.027,2.874
						c-1.402,0.612-2.854,0.723-4.251,0.33c-0.685-0.206-1.34-0.516-1.896-0.951c-0.524-0.476-0.979-1.023-1.182-1.668l-0.004-0.014
						c-0.008-0.026,0.006-0.053,0.032-0.061c0.021-0.007,0.043,0.002,0.055,0.019c0.711,1.052,1.899,1.702,3.133,1.912
						c1.235,0.211,2.552,0.057,3.679-0.467c1.126-0.549,2.063-1.454,2.832-2.45c0.762-1.004,1.406-2.128,1.717-3.356
						c0.007-0.026,0.034-0.042,0.06-0.036c0.022,0.006,0.037,0.025,0.037,0.047L253.353,203.798z"/>
				</g>
			</g>
			<g>
				<g>
					<path style="fill:#D47A59;" d="M276.26,171.05c1.413-0.516,3.06-0.206,4.367,0.557c1.304,0.772,2.37,2.052,2.632,3.531
						c-0.978-1.108-1.975-1.992-3.138-2.67C278.964,171.78,277.71,171.336,276.26,171.05z"/>
				</g>
				<g>
					<path style="fill:#D47A59;" d="M279.685,171.781c0.64,1.368,0.69,2.956,0.375,4.428c-0.337,1.467-1.056,2.887-2.222,3.849
						c0.505-1.409,0.954-2.704,1.247-4.066C279.4,174.635,279.541,173.271,279.685,171.781z"/>
				</g>
			</g>
			<g>
				<path style="fill:#D47A59;" d="M284.002,183.965c-0.303,1.112-1.031,2.079-1.884,2.854c-0.425,0.393-0.87,0.775-1.381,1.049
					c-0.516,0.262-1.043,0.501-1.619,0.613c-0.014,0.003-0.028-0.006-0.03-0.02c-0.002-0.01,0.002-0.019,0.009-0.025
					c0.451-0.37,0.927-0.664,1.379-0.994c0.457-0.318,0.941-0.591,1.384-0.928c0.872-0.679,1.658-1.516,2.095-2.565
					c0.005-0.013,0.02-0.019,0.033-0.014C283.999,183.94,284.005,183.953,284.002,183.965z"/>
			</g>
			<path style="fill:#82010E;" d="M308.573,232.324c0.934,34.248,8.845,66.35,22.866,97.454c0,0-15.361,3.327-15.409,3.631
				c-11.034-30.797-19.357-68.597-18.339-101.387C297.771,229.474,305.942,230.525,308.573,232.324z"/>
			<path style="fill:#82010E;" d="M245.369,245.318c2.84,36.396,7.044,70.431,18.404,105.039c-2.716-0.252-9.73,0.651-11.815,2.451
				c-11.674-34.949-18.185-67.688-15.525-104.526C238.405,247.757,242.271,245.836,245.369,245.318z"/>
			<path style="fill:#F5B793;" d="M269.653,347.414c-6.03,1.188-12.061,2.375-18.091,3.563c-1.939,0.382-4.041,0.859-5.295,2.422
				c-1.254,1.563-1.382,6.399,0.836,6.189c-2.195,1.897,27.494,8.152,25.695,0.948C271.271,354.426,271.052,354.629,269.653,347.414
				z"/>
			<g>
				<g>
					<path style="fill:#E8C6A6;" d="M327.39,271.709c2.59,9.422,5.686,18.694,9.252,27.776c3.594,9.071,7.647,17.958,12.193,26.586
						c0.119,0.225,0.032,0.505-0.193,0.623c-0.037,0.019-0.08,0.034-0.119,0.043l-16.658,3.644l-16.674,3.569l-16.678,3.551
						l-16.693,3.486l0.193-0.349l6.852,19.899l-7.352-19.719c-0.051-0.136,0.018-0.288,0.155-0.339
						c0.011-0.004,0.027-0.009,0.038-0.011l16.639-3.735l16.654-3.671l16.658-3.652l16.674-3.577l-0.312,0.666
						c-4.536-8.674-8.549-17.62-11.983-26.781C332.573,290.57,329.679,281.208,327.39,271.709z"/>
				</g>
				<g>
					<path style="fill:#E8C6A6;" d="M281.949,340.833c-2.114,0.887-4.341,1.494-6.574,2c-2.231,0.531-4.485,0.914-6.723,1.331
						l0.391-0.598c0.651,2.645,1.253,5.305,1.796,7.977c0.52,2.674,1.062,5.344,1.477,8.046c-0.853-2.596-1.573-5.227-2.274-7.862
						c-0.678-2.638-1.338-5.279-1.955-7.932l-0.001-0.006c-0.061-0.263,0.102-0.526,0.365-0.587l0.027-0.005
						c2.255-0.392,4.509-0.733,6.761-1.068C277.486,341.766,279.723,341.368,281.949,340.833z"/>
				</g>
			</g>
		</g>
		<rect x="95.946" y="355.667" style="fill:rgba(200, 95, 75, 0.75);" width="350.871" height="119.459"/>
		<g>
			<path style="fill:#01081E;" d="M47.769,355.569c16.62,0.071,33.259-0.032,49.889-0.084l49.891,0.137
				c8.315,0.008,16.63,0.039,24.945,0.13l24.944,0.205l49.888,0.396l49.885,0.666c16.628,0.244,33.257,0.361,49.884,0.716
				l49.882,0.873l24.94,0.552l12.47,0.229l6.236,0.098c2.075,0.023,4.139-0.017,6.219-0.022l0.033,0.197
				c-2.083,0.042-4.171,0.119-6.251,0.131l-6.237,0.009l-12.473-0.017l-24.945-0.126l-49.889-0.373l-99.776-0.936l-99.774-1.171
				c-33.26-0.44-66.51-0.777-99.776-1.411L47.769,355.569z"/>
		</g>
		<g>
			<path style="fill:#020E28;" d="M200.904,365.847c21.07,4.416,42.54,6.347,64.256,6.698
				c-14.758,9.124-20.312,11.878-36.087,18.437c-7.559,3.143-16.894,10.273-21.744,15.3c-4.849,5.027-14.356,10.399-20.443,13.202
				c-5.337-4.948-10.212-6.328-16.093-10.399c-7.509-5.198-35.989-9.597-38.653-17.317c5.886-5.6,14.135-6.18,21.742-7.307
				C170.572,381.989,186.811,375.643,200.904,365.847z"/>
			<path style="fill:#FFFFFF;" d="M195.924,360.695c21.07,4.416,42.54,6.347,64.256,6.698
				c-14.758,9.124-20.312,11.878-36.087,18.437c-7.559,3.143-16.894,10.273-21.744,15.3c-4.849,5.027-14.356,10.399-20.443,13.202
				c-5.337-4.948-10.212-6.328-16.093-10.399c-7.509-5.198-35.989-9.597-38.653-17.317c5.886-5.6,14.135-6.18,21.742-7.307
				C165.592,376.837,181.831,370.491,195.924,360.695z"/>
			<g>
				<g>
					<path style="fill:#010B33;" d="M186.658,406.624c-1.213-1.224-2.572-2.505-4.319-2.769c-0.845-0.131-1.763-0.049-2.476,0.419
						c-0.737,0.432-1.016,1.412-0.696,2.179c0.289,0.804,1.218,1.153,2.03,0.961c0.829-0.164,1.566-0.659,2.287-1.137
						c1.463-0.968,2.676-2.181,3.87-3.498c0.618-0.624,1.497-1.178,2.464-1.118c0.468,0.019,0.955,0.137,1.351,0.458
						c0.394,0.303,0.643,0.896,0.447,1.415c-0.184,0.504-0.593,0.832-1.022,1.044c-0.438,0.199-0.933,0.3-1.426,0.21
						c-0.964-0.178-1.731-0.851-2.234-1.609c-1.029-1.548-1.089-3.456-2.379-4.578c-1.247-1.101-3.161-1.483-4.752-0.886
						l-0.15,0.056l-0.029-0.153c-0.239-1.252-1.138-2.363-2.312-2.948l0.021-0.045c1.207,0.521,2.264,1.584,2.55,2.942l-0.179-0.097
						c1.684-0.684,3.709-0.362,5.134,0.808c0.723,0.598,1.162,1.452,1.475,2.275c0.316,0.831,0.562,1.658,1.035,2.348
						c0.455,0.69,1.125,1.255,1.908,1.398c0.729,0.14,1.665-0.247,1.932-0.918c0.127-0.322-0.011-0.693-0.295-0.931
						c-0.285-0.242-0.692-0.36-1.093-0.38c-0.824-0.065-1.577,0.388-2.187,0.978c-1.172,1.264-2.473,2.533-3.959,3.482
						c-0.736,0.472-1.498,0.979-2.408,1.15c-0.449,0.081-0.935,0.06-1.365-0.137c-0.434-0.188-0.772-0.572-0.932-1.007
						c-0.348-0.867-0.003-1.961,0.811-2.42c0.778-0.489,1.733-0.549,2.6-0.401c1.799,0.308,3.139,1.631,4.332,2.874L186.658,406.624
						z"/>
				</g>
				<g>
					<path style="fill:#010B33;" d="M175.37,393.769c0.205-0.21,0.418-0.407,0.638-0.593c0.107-0.097,0.2-0.219,0.338-0.265
						c0.145-0.035,0.285-0.078,0.481-0.03l0.026,0.043c-0.047,0.196-0.15,0.301-0.247,0.414c-0.104,0.102-0.255,0.128-0.39,0.179
						c-0.266,0.11-0.539,0.208-0.82,0.294L175.37,393.769z"/>
				</g>
				<g>
					<path style="fill:#010B33;" d="M193.691,396.969c-0.792,0.149-1.618,0.306-2.439,0.113c-0.403-0.099-0.798-0.278-1.109-0.578
						c-0.339-0.289-0.436-0.772-0.55-1.118c-0.236-0.777-1.3-0.502-2.036-0.957c-0.765-0.395-1.321-1.02-1.969-1.472
						c-1.271-0.995-2.772-1.511-4.332-1.955c-1.563-0.454-3.12-1.174-4.316-2.294l0.03-0.04c1.373,0.887,2.848,1.484,4.425,1.854
						c0.78,0.214,1.58,0.44,2.336,0.794c0.756,0.35,1.46,0.806,2.101,1.325c0.664,0.5,1.197,1.129,1.878,1.502
						c0.337,0.199,0.701,0.275,1.113,0.364c0.202,0.05,0.416,0.113,0.609,0.244c0.196,0.13,0.331,0.346,0.397,0.551
						c0.121,0.419,0.169,0.788,0.457,1.062c0.264,0.278,0.627,0.465,1.005,0.573c0.769,0.217,1.596,0.1,2.393-0.018L193.691,396.969
						z"/>
				</g>
				<g>
					<path style="fill:#010B33;" d="M201.119,394.88c-0.729,0.335-1.588,0.731-2.458,0.371c-0.387-0.181-0.806-0.528-0.799-1.073
						c0.012-0.274,0.169-0.472,0.173-0.602c0.012-0.103-0.062-0.158-0.227-0.186c-0.289-0.067-0.66,0.276-1.212,0.23
						c-0.532-0.051-0.91-0.407-1.184-0.736c-0.273-0.36-0.454-0.701-0.731-0.974c-0.266-0.274-0.605-0.501-1.019-0.454l-0.015-0.048
						c0.406-0.206,0.916-0.025,1.26,0.236c0.371,0.256,0.617,0.645,0.883,0.912c0.26,0.286,0.553,0.524,0.863,0.571
						c0.296,0.095,0.666-0.22,1.223-0.133c0.127,0.026,0.261,0.074,0.377,0.185c0.12,0.109,0.172,0.302,0.142,0.447
						c-0.062,0.282-0.206,0.424-0.207,0.575c-0.04,0.318,0.252,0.652,0.584,0.824c0.697,0.374,1.578,0.094,2.329-0.192
						L201.119,394.88z"/>
				</g>
				<g>
					<path style="fill:#010B33;" d="M192.508,390.304l-3.101,0.268l-0.546,0.047l0.501-0.231c0.234-0.108,0.315-0.395,0.235-0.644
						c-0.067-0.256-0.275-0.436-0.525-0.557c-0.507-0.244-1.109-0.238-1.716-0.359c-0.303-0.061-0.618-0.159-0.895-0.355
						c-0.275-0.199-0.463-0.463-0.645-0.692c-0.349-0.499-0.772-0.701-1.346-0.575c-0.281,0.041-0.582,0.12-0.922,0.121
						c-0.347,0.008-0.699-0.114-0.973-0.27c-0.542-0.321-1.018-0.643-1.52-0.981c-0.997-0.661-1.977-1.349-2.933-2.075l0.027-0.042
						c1.07,0.544,2.117,1.126,3.146,1.735l1.528,0.908c0.247,0.131,0.475,0.223,0.731,0.223c0.26,0.005,0.546-0.048,0.858-0.083
						c0.306-0.034,0.674-0.041,1,0.124c0.327,0.161,0.539,0.436,0.717,0.677c0.179,0.245,0.341,0.479,0.548,0.639
						c0.208,0.159,0.472,0.257,0.751,0.322c0.555,0.136,1.189,0.144,1.766,0.442c0.279,0.14,0.561,0.398,0.63,0.738
						c0.094,0.318-0.041,0.743-0.383,0.878l-0.046-0.184l3.11-0.125L192.508,390.304z"/>
				</g>
				<g>
					<path style="fill:#010B33;" d="M175.059,388.053c0.152-0.199,0.312-0.387,0.481-0.564c0.081-0.092,0.146-0.208,0.262-0.252
						c0.124-0.033,0.242-0.075,0.424-0.029l0.029,0.04c-0.013,0.186-0.089,0.286-0.16,0.393c-0.078,0.097-0.208,0.122-0.321,0.171
						c-0.22,0.105-0.449,0.198-0.686,0.28L175.059,388.053z"/>
				</g>
				<g>
					<path style="fill:#010B33;" d="M176.983,382.197c0.285-0.307,0.636-0.56,1.023-0.747c0.191-0.098,0.387-0.211,0.606-0.224
						c0.219,0,0.44,0.007,0.657,0.135l0.003,0.05c-0.192,0.157-0.377,0.22-0.557,0.304c-0.181,0.072-0.379,0.07-0.573,0.111
						c-0.381,0.091-0.762,0.223-1.129,0.411L176.983,382.197z"/>
				</g>
				<g>
					<path style="fill:#010B33;" d="M185.309,374.018c0.514-0.347,1.035-0.682,1.562-1.004c0.261-0.165,0.509-0.356,0.798-0.469
						c0.295-0.101,0.585-0.21,0.924-0.224l0.023,0.044c-0.208,0.269-0.465,0.442-0.718,0.624c-0.259,0.17-0.558,0.262-0.844,0.38
						c-0.568,0.243-1.142,0.474-1.722,0.693L185.309,374.018z"/>
				</g>
				<g>
					<path style="fill:#010B33;" d="M193.035,373.574c0.283-0.296,0.627-0.541,1.005-0.723c0.186-0.095,0.377-0.207,0.591-0.219
						c0.214,0.001,0.43,0.007,0.643,0.134l0.004,0.05c-0.186,0.158-0.366,0.221-0.543,0.305c-0.177,0.071-0.371,0.068-0.561,0.107
						c-0.374,0.086-0.747,0.211-1.11,0.387L193.035,373.574z"/>
				</g>
				<g>
					<path style="fill:#010B33;" d="M194.15,368.546c0.281-0.251,0.568-0.49,0.863-0.717c0.145-0.118,0.275-0.26,0.451-0.326
						c0.182-0.055,0.359-0.119,0.591-0.09l0.026,0.043c-0.085,0.218-0.226,0.343-0.361,0.477c-0.142,0.123-0.329,0.169-0.502,0.24
						c-0.34,0.151-0.687,0.289-1.042,0.416L194.15,368.546z"/>
				</g>
				<g>
					<path style="fill:#010B33;" d="M222.242,375.37l-2.759,0.061l-0.126,0.003l0.039-0.125l0.334-1.065l0.02,0.114
						c-0.131-0.147-0.376-0.156-0.625-0.121c-0.25,0.031-0.508,0.093-0.792,0.105c-0.267,0.026-0.656-0.077-0.821-0.365
						c-0.161-0.264-0.24-0.451-0.427-0.547c-0.38-0.191-0.921-0.077-1.432-0.007c-0.516,0.096-1.13,0.083-1.651-0.087
						c-1.039-0.348-1.955-0.792-2.917-1.233c-0.955-0.433-1.892-0.908-2.819-1.405l0.02-0.046c1.002,0.321,1.995,0.665,2.97,1.051
						c0.977,0.353,1.959,0.809,2.893,1.167c0.476,0.172,0.935,0.207,1.455,0.141c0.508-0.029,1.076-0.187,1.659,0.112
						c0.292,0.163,0.419,0.496,0.524,0.675c0.105,0.189,0.296,0.245,0.542,0.247c0.242-0.001,0.498-0.051,0.769-0.075
						c0.254-0.023,0.611-0.033,0.837,0.239l0.043,0.052l-0.023,0.062l-0.385,1.047l-0.087-0.122l2.758,0.073L222.242,375.37z"/>
				</g>
				<g>
					<path style="fill:#010B33;" d="M207.302,389.49c-0.647,0.159-1.345,0.322-2.023,0.098c-0.334-0.113-0.619-0.367-0.799-0.663
						c-0.188-0.292-0.321-0.604-0.523-0.854c-0.402-0.501-1.089-0.688-1.726-0.695c-0.652-0.002-1.295,0.185-1.939,0.378
						l-0.226,0.068l0.02-0.241c0.061-0.741-0.445-1.469-1.123-1.762c-0.691-0.302-1.511-0.269-2.297-0.188l-0.095,0.01l-0.08-0.064
						c-2.213-1.77-4.601-3.304-7.146-4.613l0.02-0.046c2.702,0.952,5.252,2.407,7.432,4.291l-0.175-0.054
						c0.82-0.052,1.698-0.071,2.508,0.308c0.798,0.376,1.376,1.243,1.28,2.15l-0.206-0.173c0.65-0.174,1.328-0.355,2.033-0.334
						c0.689,0.024,1.437,0.253,1.879,0.841c0.4,0.572,0.549,1.295,1.207,1.522c0.618,0.232,1.318,0.107,1.968-0.03L207.302,389.49z"
						/>
				</g>
				<g>
					<path style="fill:#010B33;" d="M188.53,379.845l-2.681,0.04l-1.136,0.017l1.106-0.314c0.14-0.04,0.211-0.187,0.19-0.347
						c-0.017-0.155-0.13-0.274-0.295-0.378c-0.324-0.19-0.782-0.276-1.195-0.426c-0.834-0.289-1.641-0.655-2.417-1.107l0.017-0.047
						c0.887,0.14,1.744,0.366,2.573,0.67c0.407,0.17,0.825,0.289,1.249,0.579c0.197,0.136,0.409,0.383,0.419,0.681
						c0.028,0.276-0.16,0.613-0.471,0.669l-0.03-0.297l2.673,0.211L188.53,379.845z"/>
				</g>
				<g>
					<path style="fill:#010B33;" d="M210.99,386.464c-0.85-0.007-1.671-0.312-2.406-0.72c-0.741-0.408-1.419-0.913-2.11-1.381
						c-0.688-0.464-1.429-0.857-2.215-1.091c-0.779-0.232-1.634-0.277-2.354,0.063l-0.21,0.099l-0.022-0.239
						c-0.054-0.588-0.689-0.983-1.259-1.277l-1.843-0.878c-1.235-0.581-2.468-1.163-3.69-1.769c-2.453-1.194-4.871-2.46-7.251-3.802
						l0.022-0.045c2.519,1.058,5.001,2.194,7.448,3.401c1.228,0.595,2.444,1.212,3.659,1.832l1.829,0.929
						c0.306,0.167,0.611,0.35,0.882,0.598c0.266,0.24,0.513,0.583,0.531,0.991l-0.232-0.14c0.827-0.366,1.76-0.284,2.568-0.023
						c0.82,0.262,1.565,0.692,2.251,1.185c0.682,0.493,1.338,1.013,2.057,1.437c0.713,0.423,1.507,0.747,2.345,0.779L210.99,386.464
						z"/>
				</g>
				<g>
					<path style="fill:#010B33;" d="M213.787,384.171c-1.752,0.158-3.318-0.85-4.706-1.765c-1.401-0.951-2.866-1.795-4.369-2.568
						c-1.507-0.766-3.058-1.438-4.594-2.148c-1.53-0.725-3.083-1.404-4.597-2.184l0.019-0.046c1.622,0.515,3.206,1.127,4.78,1.773
						c1.57,0.654,3.088,1.433,4.58,2.253c1.49,0.823,2.944,1.72,4.323,2.715c1.351,0.967,2.829,2.006,4.56,1.921L213.787,384.171z"
						/>
				</g>
				<g>
					<path style="fill:#010B33;" d="M216.776,381.822c-0.519-0.305-1.125-0.338-1.721-0.402c-0.596-0.073-1.244-0.172-1.775-0.623
						c-0.276-0.216-0.419-0.612-0.49-0.874c-0.08-0.268-0.194-0.424-0.4-0.575c-0.41-0.306-1.023-0.395-1.61-0.547l0.001-0.05
						c0.6-0.123,1.245-0.147,1.88,0.176c0.309,0.168,0.558,0.542,0.607,0.864c0.061,0.319,0.108,0.525,0.291,0.718
						c0.365,0.379,0.961,0.552,1.536,0.663c0.579,0.127,1.214,0.235,1.71,0.607L216.776,381.822z"/>
				</g>
				<g>
					<path style="fill:#010B33;" d="M207.569,376.034c-1.166,0.072-2.259-0.524-3.155-1.217c-0.899-0.714-1.736-1.468-2.764-1.901
						c-1.021-0.45-2.124-0.703-3.198-1.106c-1.058-0.412-2.166-0.909-2.937-1.784l0.033-0.037c0.943,0.641,1.988,1.022,3.066,1.349
						c1.074,0.334,2.167,0.699,3.207,1.217c1.063,0.505,1.906,1.336,2.75,2.068c0.837,0.727,1.849,1.362,2.996,1.361
						L207.569,376.034z"/>
				</g>
			</g>
		</g>
		<g>
			<path style="fill:#F5B793;" d="M171.458,327.169c3.107,0.342,16.094,6.165,18.475,8.237c1.179,1.026,2.246,2.304,2.577,3.852
				c0.33,1.549-0.28,3.388-1.691,4.038c-1.102,0.508-2.387,0.21-3.539-0.166c-2.073-0.677-4.175-1.662-5.447-3.471
				C180.562,337.851,170.461,330.529,171.458,327.169z"/>
			<g>
				<path style="fill:#FFFFFF;" d="M151.329,243.883c3.666,1.559,7.232,3.363,11.129,5.536c1.856,1.035,3.338,2.66,4.225,4.625
					c7.001,15.509,12.194,31.866,15.328,48.544c0.255,1.615-0.351,3.256-1.196,4.644c-0.845,1.388-1.932,2.609-2.795,3.985
					c-1.939,3.093-2.666,6.959-2.419,10.697c-1.027-2.708-4.039-4.017-6.836-4.499c-2.797-0.481-5.752-0.451-8.918-1.871
					c-8.233-16.819-13.854-34.977-16.674-54.023c-0.349-2.356,0.081-4.767,1.205-6.853
					C146.513,250.703,148.428,246.914,151.329,243.883z"/>
				<path style="fill:#FFFFFF;" d="M177.074,324.613c-0.703-1.943-2.572-3.227-4.511-3.815c-1.939-0.587-3.992-0.602-6.006-0.781
					c-2.015-0.179-4.092-0.558-5.746-1.75c-0.068,2.01,0.824,4.032,2.341,5.309c1.506,1.268,3.486,1.766,5.416,2.05
					c1.929,0.284,3.903,0.396,5.747,1.043c1.844,0.647,3.596,1.951,4.211,3.846C178.371,327.944,177.372,325.438,177.074,324.613z"
					/>
				<path style="fill:#F5B793;" d="M138.688,316.239"/>
				<path style="fill:#FFFFFF;" d="M177.208,322.991c-0.549-2.597,0.807-5.198,2.313-7.362c1.506-2.163,3.267-4.305,3.698-6.925
					c0.85,3.331,0.534,6.962-0.878,10.086c-0.764,1.692-1.83,3.222-2.674,4.873c-0.845,1.651-1.477,3.501-1.267,5.353
					C177.616,326.818,177.508,324.408,177.208,322.991z"/>
				<path style="fill:#FFFFFF;" d="M179.455,330.508c-0.023-1.826,0.865-3.538,1.923-5.008c1.059-1.47,2.314-2.796,3.215-4.373
					c0.901-1.576,1.42-3.512,0.841-5.239C181.707,319.758,179.285,324.922,179.455,330.508z"/>
				<path style="fill:#FFFFFF;" d="M176.734,323.877c-0.776-3.283,1.037-6.581,2.93-9.347s4.033-5.694,4.008-9.071
					c-2.444,2.715-4.915,5.468-6.626,8.72C175.336,317.43,174.441,321.289,176.734,323.877z"/>
				<path style="fill:#D19374;" d="M161.337,272.438c9.589,31.068,19.43,58.527,29.02,89.595c0.964,3.123,1.938,6.315,1.872,9.59
					c-5.949-17.327-11.898-34.653-17.848-51.98c-5.596-16.298-15.058-47.001-14.951-48.062c0.062-0.622-4.555-16.188-4.264-16.737
					C155.456,254.294,160.897,271.014,161.337,272.438z"/>
				<g>
					<g>
						<path style="fill:#F5B793;" d="M153.583,301.068c1.316,0.61,2.707,0.828,4.097,0.911c1.395,0.068,2.804,0,4.234-0.059
							c1.437-0.04,2.909-0.039,4.361,0.247c1.444,0.265,2.883,0.872,3.921,1.894c-1.271-0.701-2.65-0.99-4.031-1.121
							c-1.388-0.117-2.793-0.078-4.216-0.021c-1.43,0.039-2.894,0.068-4.351-0.167C156.149,302.537,154.691,302.013,153.583,301.068
							z"/>
					</g>
					<g>
						<path style="fill:#F5B793;" d="M156.32,307.352c1.236,0.446,2.503,0.531,3.763,0.526c1.262-0.02,2.535-0.156,3.847-0.218
							c1.305-0.043,2.676-0.012,3.98,0.404c1.291,0.387,2.519,1.185,3.193,2.327c-0.978-0.881-2.177-1.328-3.385-1.57
							c-1.217-0.23-2.47-0.22-3.748-0.162c-1.277,0.039-2.593,0.138-3.923-0.004C158.728,308.532,157.375,308.147,156.32,307.352z"
							/>
					</g>
					<g>
						<path style="fill:#F5B793;" d="M158.593,312.552c2.654,0.18,5.144-0.506,7.859-0.582c1.343-0.021,2.755,0.113,4.034,0.677
							c1.27,0.532,2.404,1.511,2.914,2.756c-0.85-1.032-1.998-1.651-3.186-2.025c-1.197-0.363-2.461-0.445-3.741-0.409
							c-1.282,0.017-2.589,0.159-3.924,0.166C161.221,313.156,159.842,313.03,158.593,312.552z"/>
					</g>
					<g>
						<path style="fill:#F5B793;" d="M152.063,296.916c2.709-0.095,5.212-0.911,7.941-1.251c1.366-0.153,2.775-0.164,4.142,0.154
							c1.36,0.295,2.681,0.985,3.545,2.045c-1.129-0.764-2.403-1.12-3.68-1.277c-1.284-0.142-2.591-0.092-3.889,0.07
							c-1.309,0.146-2.632,0.386-3.989,0.497C154.784,297.279,153.381,297.262,152.063,296.916z"/>
					</g>
					<g>
						<path style="fill:#F5B793;" d="M150.687,292.508c1.421,0.296,2.826,0.178,4.209-0.037c1.383-0.23,2.76-0.587,4.195-0.843
							c1.428-0.236,2.95-0.376,4.428-0.038c1.459,0.306,2.882,1.114,3.654,2.362c-1.075-0.983-2.436-1.425-3.786-1.593
							c-1.36-0.156-2.739,0.009-4.127,0.254c-1.391,0.227-2.808,0.551-4.279,0.631C153.525,293.341,151.984,293.178,150.687,292.508
							z"/>
					</g>
					<g>
						<path style="fill:#F5B793;" d="M148.646,286.985c1.415,0.236,2.803,0.117,4.179-0.074c1.376-0.205,2.754-0.507,4.184-0.701
							c1.424-0.174,2.929-0.243,4.376,0.137c1.431,0.35,2.808,1.17,3.581,2.395c-1.073-0.959-2.404-1.423-3.737-1.631
							c-1.342-0.196-2.712-0.096-4.092,0.089c-1.383,0.167-2.79,0.431-4.24,0.484C151.458,287.755,149.951,287.597,148.646,286.985z
							"/>
					</g>
					<g>
						<path style="fill:#F5B793;" d="M147.345,283.607c1.49,0.366,2.947,0.01,4.338-0.437c1.393-0.464,2.834-1.066,4.422-1.231
							c1.565-0.161,3.162-0.001,4.637,0.509c1.478,0.494,2.829,1.332,3.893,2.418c-2.607-1.541-5.547-2.255-8.42-1.933
							c-1.429,0.123-2.82,0.653-4.326,0.987C150.41,284.27,148.705,284.355,147.345,283.607z"/>
					</g>
					<g>
						<path style="fill:#F5B793;" d="M147.054,280.253c2.721-0.121,5.083-1.293,7.762-1.944c1.331-0.307,2.767-0.491,4.166-0.202
							c1.381,0.257,2.728,1.007,3.463,2.171c-1.033-0.893-2.314-1.277-3.576-1.398c-1.271-0.108-2.55,0.093-3.823,0.403
							c-1.279,0.292-2.562,0.705-3.909,0.955C149.803,280.501,148.378,280.593,147.054,280.253z"/>
					</g>
					<g>
						<path style="fill:#F5B793;" d="M145.88,276.443c2.861-0.074,5.386-1.246,8.226-1.837c1.41-0.277,2.925-0.413,4.382-0.053
							c1.438,0.328,2.818,1.171,3.541,2.423c-1.034-0.996-2.363-1.47-3.686-1.656c-1.333-0.175-2.689-0.015-4.039,0.266
							c-1.355,0.263-2.715,0.659-4.133,0.894C148.764,276.728,147.27,276.805,145.88,276.443z"/>
					</g>
					<g>
						<path style="fill:#F5B793;" d="M145.15,273.557c2.689-0.358,5.104-1.431,7.821-1.961c1.362-0.247,2.783-0.32,4.165-0.034
							c1.374,0.262,2.716,0.969,3.534,2.071c-1.097-0.815-2.376-1.173-3.651-1.299c-1.283-0.111-2.585-0.004-3.863,0.244
							c-1.292,0.234-2.588,0.586-3.928,0.822C147.897,273.648,146.498,273.773,145.15,273.557z"/>
					</g>
					<g>
						<path style="fill:#F5B793;" d="M144.885,270.547c2.742-0.135,5.217-1.128,7.961-1.612c1.376-0.225,2.808-0.291,4.203,0.001
							c1.386,0.268,2.742,0.979,3.568,2.093c-1.106-0.827-2.398-1.19-3.687-1.322c-1.297-0.117-2.616-0.017-3.915,0.212
							c-1.313,0.215-2.636,0.536-4.004,0.718C147.652,270.833,146.224,270.876,144.885,270.547z"/>
					</g>
					<g>
						<path style="fill:#F5B793;" d="M159.37,268.225c-1.052-0.864-2.307-1.269-3.57-1.464c-1.273-0.18-2.577-0.166-3.883-0.063
							c-1.319,0.086-2.668,0.225-4.04,0.151c-1.362-0.056-2.773-0.36-3.924-1.088c1.307,0.364,2.617,0.377,3.922,0.308
							c1.307-0.084,2.621-0.26,3.97-0.367c1.359-0.086,2.759-0.061,4.113,0.299C157.303,266.335,158.61,267.089,159.37,268.225z"/>
					</g>
					<g>
						<path style="fill:#F5B793;" d="M143.328,262.74c2.499,0.22,4.86-0.267,7.373-0.44c1.256-0.071,2.545-0.056,3.804,0.225
							c1.25,0.268,2.488,0.822,3.367,1.735c-1.123-0.569-2.299-0.847-3.491-0.965c-1.193-0.11-2.401-0.084-3.617,0.001
							c-1.222,0.068-2.466,0.184-3.729,0.148C145.779,263.418,144.485,263.25,143.328,262.74z"/>
					</g>
					<g>
						<path style="fill:#F5B793;" d="M157.332,262.022c-0.867-0.906-1.896-1.531-2.993-1.986c-1.101-0.448-2.262-0.754-3.447-0.983
							c-1.188-0.248-2.415-0.44-3.626-0.777c-1.206-0.328-2.42-0.794-3.418-1.562c2.367,0.798,4.768,0.873,7.241,1.359
							c1.232,0.259,2.469,0.629,3.592,1.265C155.798,259.957,156.809,260.872,157.332,262.022z"/>
					</g>
					<g>
						<path style="fill:#F5B793;" d="M156.257,259.59c-0.569-0.957-1.364-1.651-2.25-2.188c-0.892-0.53-1.865-0.928-2.873-1.24
							c-1.012-0.332-2.074-0.606-3.109-1.021c-1.031-0.404-2.061-0.948-2.829-1.761c2.003,0.941,4.1,1.16,6.242,1.83
							c1.067,0.352,2.121,0.83,3.018,1.557C155.349,257.474,156.084,258.479,156.257,259.59z"/>
					</g>
					<g>
						<path style="fill:#F5B793;" d="M151.109,244.839l1.376,3.343c0.438,1.119,0.889,2.233,1.352,3.342l2.709,6.677l-0.927,0.346
							c-0.302-0.932-0.897-1.755-1.591-2.503c-0.703-0.746-1.524-1.403-2.349-2.075c-0.832-0.671-1.689-1.342-2.437-2.138
							c-0.731-0.803-1.388-1.715-1.696-2.751c0.505,0.949,1.207,1.748,2.017,2.417c0.797,0.684,1.666,1.283,2.553,1.879
							c0.893,0.595,1.776,1.241,2.571,2.023c0.799,0.771,1.485,1.727,1.869,2.829l-0.927,0.346c-0.914-2.23-1.776-4.483-2.541-6.772
							c-0.374-1.147-0.736-2.298-1.084-3.453C151.689,247.182,151.361,246.021,151.109,244.839z"/>
					</g>
					<g>
						<path style="fill:#F5B793;" d="M173.754,313.936c-0.347-1.29-0.132-2.725,0.382-3.974c0.501-1.268,1.259-2.396,2.055-3.453
							c0.808-1.04,1.631-2.036,2.366-3.082c0.72-1.052,1.365-2.161,1.717-3.441c0.04,1.333-0.405,2.677-1.052,3.849
							c-0.636,1.189-1.454,2.244-2.237,3.283c-0.793,1.021-1.539,2.06-2.143,3.172C174.254,311.403,173.801,312.607,173.754,313.936
							z"/>
					</g>
					<g>
						<path style="fill:#F5B793;" d="M171.607,309.36c-0.267-1.506,0.112-3.109,0.785-4.492c0.66-1.404,1.576-2.645,2.487-3.841
							c0.919-1.176,1.809-2.354,2.535-3.62c0.709-1.267,1.261-2.645,1.316-4.168c0.343,1.491,0.022,3.117-0.619,4.518
							c-0.627,1.423-1.527,2.682-2.442,3.881c-0.924,1.179-1.833,2.345-2.591,3.596C172.336,306.486,171.736,307.843,171.607,309.36
							z"/>
					</g>
					<g>
						<path style="fill:#F5B793;" d="M169.874,303.347c-0.006-1.466,0.424-2.936,1.052-4.266c0.617-1.345,1.416-2.577,2.191-3.79
							c0.788-1.201,1.545-2.404,2.176-3.666c0.615-1.266,1.113-2.6,1.274-4.054c0.233,1.449-0.028,2.98-0.557,4.363
							c-0.516,1.398-1.27,2.677-2.054,3.902C172.373,298.264,170.657,300.523,169.874,303.347z"/>
					</g>
					<g>
						<path style="fill:#F5B793;" d="M167.711,297.492c0.203-1.613,0.991-3.135,1.902-4.461c0.899-1.346,1.864-2.593,2.532-3.983
							c0.699-1.375,1.128-2.875,1.437-4.42c0.299-1.547,0.507-3.144,0.819-4.728c0.076,1.61,0.13,3.22-0.047,4.844
							c-0.159,1.621-0.574,3.255-1.313,4.749c-0.746,1.498-1.796,2.774-2.801,3.999
							C169.242,294.723,168.296,295.977,167.711,297.492z"/>
					</g>
					<g>
						<path style="fill:#F5B793;" d="M172.26,273.734c0.283,1.528,0.242,3.129-0.056,4.673c-0.284,1.55-0.813,3.046-1.471,4.469
							c-1.352,2.839-3.213,5.351-5.292,7.645c1.437-2.755,3.112-5.325,4.387-8.07C171.122,279.718,172.037,276.83,172.26,273.734z"
							/>
					</g>
					<g>
						<path style="fill:#F5B793;" d="M170.565,269.902c0.271,1.491,0.059,3.072-0.419,4.523c-0.465,1.464-1.17,2.823-1.9,4.135
							c-1.477,2.605-3.084,5.063-3.706,8.026c-0.091-1.512,0.257-3.052,0.818-4.466c0.549-1.427,1.292-2.751,2.018-4.052
							c0.741-1.29,1.454-2.577,2.042-3.916C169.99,272.81,170.445,271.408,170.565,269.902z"/>
					</g>
					<g>
						<path style="fill:#F5B793;" d="M169.272,264.66c0.446,2.92-0.36,6.038-2.057,8.53c-0.863,1.241-1.871,2.286-2.686,3.436
							c-0.788,1.146-1.453,2.446-1.437,3.929c-0.418-1.442,0.032-3.05,0.777-4.344c0.74-1.323,1.737-2.42,2.522-3.585
							C167.988,270.305,168.92,267.571,169.272,264.66z"/>
					</g>
					<g>
						<path style="fill:#F5B793;" d="M168.119,259.265c-0.079,2.847-1.017,5.663-2.485,8.13c-0.73,1.229-1.66,2.383-2.609,3.393
							c-0.89,1.029-1.848,2.097-1.827,3.555c-0.226-0.682-0.121-1.464,0.135-2.152c0.267-0.692,0.666-1.312,1.084-1.891
							c0.855-1.147,1.665-2.219,2.361-3.42C166.209,264.523,167.262,261.969,168.119,259.265z"/>
					</g>
					<g>
						<path style="fill:#F5B793;" d="M165.615,254.627c0.478,1.227,0.39,2.661-0.015,3.927c-0.389,1.285-1.044,2.45-1.736,3.551
							c-0.704,1.083-1.415,2.132-2.02,3.229c-0.589,1.101-1.085,2.26-1.23,3.56c-0.252-1.29,0.015-2.674,0.524-3.892
							c0.495-1.236,1.201-2.35,1.885-3.435c0.693-1.067,1.344-2.144,1.848-3.28C165.357,257.149,165.704,255.933,165.615,254.627z"
							/>
					</g>
					<g>
						<path style="fill:#F5B793;" d="M163.15,251.144c0.528,1.209,0.441,2.661,0.011,3.925c-0.416,1.291-1.167,2.418-1.914,3.47
							c-0.766,1.046-1.548,2.036-2.182,3.107c-0.619,1.075-1.135,2.229-1.25,3.531c-0.283-1.286,0.006-2.681,0.555-3.886
							c0.538-1.229,1.328-2.297,2.067-3.337c0.756-1.032,1.481-2.049,2-3.167C162.94,253.667,163.291,252.446,163.15,251.144z"/>
					</g>
					<g>
						<path style="fill:#F5B793;" d="M159.662,248.492c0.517,1.148,0.533,2.499,0.31,3.74c-0.215,1.256-0.661,2.438-1.111,3.583
							c-0.465,1.13-0.914,2.246-1.242,3.39c-0.319,1.145-0.498,2.327-0.343,3.567c-0.564-1.127-0.62-2.483-0.42-3.73
							c0.191-1.263,0.625-2.454,1.078-3.601c0.468-1.133,0.931-2.247,1.281-3.386C159.558,250.913,159.768,249.736,159.662,248.492z
							"/>
					</g>
					<g>
						<path style="fill:#F5B793;" d="M156.324,246.192c0.714,0.723,1.04,1.797,1.096,2.817c0.069,1.034-0.103,2.049-0.332,3.021
							c-0.477,1.926-1.164,3.67-1.042,5.667c-0.471-0.896-0.56-1.973-0.476-2.977c0.075-1.015,0.324-1.986,0.548-2.93
							c0.24-0.93,0.436-1.857,0.525-2.787C156.722,248.072,156.674,247.133,156.324,246.192z"/>
					</g>
				</g>
			</g>
			<g>
				<path style="fill:#F5B793;" d="M171.34,327.075c7.628,5.977,14.39,13.114,19.983,21.112c0.484,0.692,0.835,1.493,0.903,2.341
					c0.209,2.579-2.005,3.262-3.655,2.731c-1.097-0.353-2.005-1.134-2.882-1.897c-4.702-4.093-9.405-8.186-13.91-12.237
					c4.152,3.612,8.202,7.346,12.234,11.098c0.884,0.822,1.791,1.679,2.277,2.797s0.439,2.574-0.433,3.409
					c-0.725,0.694-1.847,0.797-2.801,0.518c-0.954-0.279-1.783-0.88-2.59-1.471c-4.372-3.202-8.744-6.403-12.669-8.803
					c2.677,2.163,5.166,4.569,7.43,7.181c0.481,0.555,0.964,1.142,1.167,1.854c0.202,0.712,0.048,1.584-0.549,2.004
					c-0.795,0.558-1.867,0.087-2.711-0.389c-2.245-1.266-4.49-2.531-7.36-4.34c0.111,1.234,1.109,2.152,1.765,3.194
					c0.656,1.041,0.816,2.735-0.279,3.262c-0.433,0.208-0.938,0.157-1.411,0.085c-3.591-0.546-7.038-2.061-9.899-4.35
					c-1.891-1.513-3.589-3.479-4.091-5.882c-0.502-2.403,0.536-5.258,3.516-6.12c-0.766-2.02,0.686-4.578,2.816-5.596
					c0.171-2.167,1.174-4.249,6.659-10.002C166.58,325.761,169.375,325.535,171.34,327.075z"/>
				<g>
					<g>
						<path style="fill:#D47A59;" d="M180.269,346.414c-2.678-1.717-5.112-3.757-7.421-5.922c-2.289-2.186-4.459-4.505-6.317-7.087
							c2.437,2.042,4.711,4.208,7.005,6.362C175.809,341.941,178.096,344.094,180.269,346.414z"/>
					</g>
					<g>
						<path style="fill:#D47A59;" d="M160.359,339.729c1.687,1.014,3.091,2.357,4.464,3.681c1.361,1.351,2.662,2.702,4.006,4.121
							c-0.91-0.376-1.739-0.912-2.514-1.499c-0.781-0.584-1.498-1.239-2.193-1.909C162.753,342.756,161.503,341.315,160.359,339.729
							z"/>
					</g>
					<g>
						<path style="fill:#D47A59;" d="M158.023,346.241c1.715,0.938,3.251,2.066,4.773,3.218c1.503,1.177,2.984,2.375,4.326,3.798
							c-1.798-0.773-3.405-1.844-4.936-3.006C160.673,349.063,159.229,347.781,158.023,346.241z"/>
					</g>
					<g>
						<path style="fill:#D47A59;" d="M179.007,333.766c-1.426-0.726-2.666-1.638-3.892-2.575c-1.207-0.962-2.39-1.946-3.437-3.157
							c1.501,0.561,2.815,1.42,4.053,2.37C176.949,331.378,178.099,332.446,179.007,333.766z"/>
					</g>
				</g>
			</g>
		</g>
		<g>
			<ellipse style="fill:#020E28;" cx="261.177" cy="408.838" rx="19.9" ry="4.355"/>
			<g>
				<ellipse style="opacity:0.5608;fill:#FFFFFF;" cx="255.432" cy="386.736" rx="8.986" ry="2.248"/>
				<path style="opacity:0.5882;fill:#FFFFFF;" d="M270.27,399.57c-0.763-1.534-2.238-2.827-3.661-4.1
					c-1.423-1.273-2.852-2.602-3.494-4.164c-0.476-1.158-0.429-2.482,0.308-3.542c-1.492,0.724-4.509,1.22-7.991,1.22
					c-3.712,0-6.898-0.563-8.269-1.367c1.051,2.002,1.768,3.659,0.757,4.689c-1.179,1.2-3.577,3.267-4.867,4.441
					c-1.261,1.147-2.145,3.928-2.324,6.45c-0.244,3.44,0.277,6.892,5.717,7.76c6.622,1.057,11.491,1.137,17.973-0.295
					c3.861-0.853,5.681-3.301,6.229-5.857C271.022,403.061,271.098,401.235,270.27,399.57z"/>
				<g>
					<defs>
						<path id="SVGID_1_" d="M270.27,399.57c-0.763-1.534-2.238-2.827-3.661-4.1c-1.423-1.273-2.852-2.602-3.494-4.164
							c-0.476-1.158-0.429-2.482,0.308-3.542c-1.492,0.724-4.509,1.22-7.991,1.22c-3.712,0-6.898-0.563-8.269-1.367
							c1.051,2.002,1.768,3.659,0.757,4.689c-1.179,1.2-3.577,3.267-4.867,4.441c-1.261,1.147-2.145,3.928-2.324,6.45
							c-0.244,3.44,0.277,6.892,5.717,7.76c6.622,1.057,11.491,1.137,17.973-0.295c3.861-0.853,5.681-3.301,6.229-5.857
							C271.022,403.061,271.098,401.235,270.27,399.57z"/>
					</defs>
					<clipPath id="SVGID_00000018934865709147410410000011736975773429181102_">
						<use xlink:href="#SVGID_1_"  style="overflow:visible;"/>
					</clipPath>
					<path style="opacity:0.8314;clip-path:url(#SVGID_00000018934865709147410410000011736975773429181102_);fill:#021563;" d="
						M270.27,399.57c-0.763-1.534,0.056-2.037-1.245-3.376c-2.38-2.448-4.456,1.061-14.693,1.061
						c-3.712,0-10.994-2.447-12.006-1.417c-1.179,1.2,2.017-0.265,0.726,0.909c-1.261,1.147-2.145,3.928-2.324,6.45
						c-0.244,3.44,0.277,6.892,5.717,7.76c6.622,1.057,11.491,1.137,17.973-0.295c3.861-0.853,5.681-3.301,6.229-5.857
						C271.022,403.061,271.098,401.235,270.27,399.57z"/>
				</g>
				<g>
					<path style="fill:#010B33;" d="M247.219,387.749c2.648,0.665,5.292,0.832,7.952,0.747c2.662-0.069,5.321-0.447,8.054-0.61
						c-2.566,0.936-5.264,1.508-8.023,1.609C252.468,389.562,249.596,389.162,247.219,387.749z"/>
				</g>
			</g>
		</g>
		<ellipse style="fill:#020E28;" cx="122.569" cy="419.484" rx="37.11" ry="9.955"/>
		<ellipse style="fill:#020E28;" cx="347.127" cy="401.56" rx="27" ry="7.969"/>
		<g>
			<g>
				<path style="fill:#1C6C91;" d="M114.594,406.293c10.629-1.532,18.646-2.194,29.353-1.415c2.631,0.191,7.378,6.963,8.363,9.558
					c0.366,0.965-20.565,18.882-46.873,3.823c-0.648-0.371-1.057-1.045-0.803-1.759C105.58,413.839,108.819,408.252,114.594,406.293
					z"/>
				<path style="fill:#1C6C91;" d="M115.547,392.564c3.699,3.909,3.571,11.505-1.986,14.607c10.664,0.399,19.859-0.774,30.523-0.376
					c-4.381-4.13-4.655-10.253-0.667-14.912C134.589,392.427,125.746,392.629,115.547,392.564z"/>
				<g>
					<path style="fill:#185673;" d="M114.883,406.661c2.299,0.758,4.632,1.341,6.996,1.676c2.364,0.324,4.749,0.46,7.125,0.339
						c2.377-0.098,4.739-0.452,7.064-0.991l1.734-0.453l1.71-0.549l1.697-0.609c0.551-0.24,1.109-0.469,1.674-0.692
						c-0.514,0.318-1.035,0.63-1.562,0.932l-1.628,0.825l-1.692,0.693l-1.732,0.596c-2.335,0.73-4.773,1.124-7.22,1.247
						c-2.448,0.1-4.912-0.069-7.304-0.583C119.355,408.589,117.024,407.801,114.883,406.661z"/>
				</g>
				<path style="fill:#2789B6;" d="M149.944,377.444c-9.864-2.527-19.404-2.541-29.555-1.553c-4.989,0.486-10.374,0.226-14.4,3.283
					c-2.405,1.826-4.457,4.91-3.486,7.811c0.937,2.797,4.129,3.962,6.954,4.569c11.207,2.409,22.795,1.808,34.23,1.196
					c2.697-0.144,5.569-0.351,7.733-2.006c1.678-1.283,2.728-3.387,2.762-5.532S153.7,378.407,149.944,377.444z"/>
				<path style="fill:#1C6C91;" d="M150.172,382.302c-0.858-1.97-3.028-3.307-5.514-3.669c-8.921-1.299-18.096-1.536-27.17-0.699
					c-3.578,0.33-7.413,0.931-9.745,3.479c-1.357,1.482-1.755,3.475-0.656,5.038c1.321,1.878,3.864,1.951,6.166,1.956
					c9.081,0.021,18.163,0.042,27.244,0.063c1.896,0.004,3.83,0.004,5.651-0.489c1.821-0.493,3.544-1.571,4.173-3.095
					C150.637,384.126,150.59,383.262,150.172,382.302z"/>
				<g>
					<path style="fill:#FFFFFF;" d="M120.493,373.065c-0.13,3.781-0.499,4.82-1.502,6.671c-0.353,0.652-0.919,0.989-1.272,1.641
						c-0.353,0.652-0.543,1.61-0.265,2.391c6.155,1.228,12.337,1.464,18.505,1.666c0.912,0.03,1.947-0.045,2.695-0.65
						c0.525-0.425,0.618-1.477,0.214-2.201c-1.172-2.095-1.137-4.245-1.644-9.226C131.819,373.032,126.614,374.528,120.493,373.065z
						"/>
					<path style="fill:#FFFFFF;" d="M120.078,336.447c5.195-0.436,10.429-0.353,15.651,0.248l1.893,46.441l-17.121,0.101
						L120.078,336.447z"/>
					<path style="fill:#FFFFFF;" d="M135.427,336.412c-5.082-1.982-10.395-2.254-15.503-0.564
						c-0.347,5.039-0.278,10.178,0.201,15.266c0.133,1.412,1.421,1.753,1.758,0.461l0,0c0.073-0.28,0.152-0.573,0.31-0.755
						c0.417-0.482,1.089,0.149,1.277,0.926c0.188,0.777,0.082,1.61,0.104,2.422s0.26,1.761,0.786,2.005
						c0.575,0.267,1.119-0.516,1.253-1.368c0.134-0.852,0.004-1.764,0.015-2.65c0.01-0.886,0.23-1.866,0.779-2.153
						c0.723-0.378,1.508,0.712,1.758,1.841c0.25,1.129,0.187,2.344,0.428,3.477c0.241,1.133,1.002,2.245,1.736,1.908
						c0.419-0.193,0.684-0.811,0.777-1.455c0.093-0.644,0.044-1.324,0.017-1.992c-0.095-2.394,0.104-4.788,0.584-7.026
						c0.161-0.748,0.47-1.602,1.004-1.573c0.343,0.019,0.647,0.432,0.801,0.904s0.192,0.999,0.236,1.512
						c0.16,1.871,0.444,3.729,0.846,5.537c0.189,0.848,0.594,1.873,1.17,1.746c0.547-0.12,0.685-1.166,0.697-2
						C136.537,347.467,136.235,342.009,135.427,336.412z"/>
					<g>
						<path style="fill:#CFC6C6;" d="M120.292,351.43c0.065,0.484,0.572,0.989,1.018,0.748c0.411-0.268,0.332-0.903,0.64-1.387
							c0.085-0.12,0.21-0.237,0.376-0.271c0.164-0.035,0.326,0.012,0.456,0.082c0.26,0.149,0.441,0.376,0.58,0.619
							c0.28,0.5,0.325,1.065,0.351,1.597c0.028,1.067-0.096,2.145,0.357,3.041c0.216,0.459,0.613,0.672,0.889,0.314
							c0.284-0.336,0.427-0.852,0.468-1.332c0.086-1.006-0.163-2.057-0.001-3.194c0.121-0.556,0.259-1.149,0.881-1.569
							c0.164-0.094,0.391-0.141,0.597-0.094c0.205,0.045,0.367,0.156,0.49,0.275c0.245,0.242,0.378,0.514,0.489,0.781
							c0.405,1.082,0.435,2.165,0.587,3.192c0.074,0.507,0.16,1.026,0.325,1.466c0.165,0.444,0.424,0.88,0.743,1.144
							c0.355,0.257,0.496,0.217,0.728-0.11c0.199-0.339,0.288-0.843,0.334-1.337c0.072-1.004,0.087-2.099,0.133-3.144l0.139-3.17
							l0.094-1.591c0.049-0.547,0.084-1.125,0.401-1.745c0.179-0.295,0.414-0.612,0.896-0.746c0.239-0.065,0.54-0.015,0.74,0.118
							c0.206,0.127,0.328,0.287,0.423,0.436c0.346,0.607,0.393,1.135,0.523,1.653c0.22,1.048,0.413,2.101,0.519,3.165
							c0.13,1.052,0.147,2.152,0.244,3.162c0.058,0.493,0.193,1.012,0.531,1.325c0.333,0.366,0.854-0.165,0.805-0.665l0.099-0.01
							c0.046,0.273-0.015,0.576-0.207,0.81c-0.097,0.112-0.236,0.212-0.409,0.231c-0.18,0.02-0.333-0.051-0.462-0.135
							c-0.493-0.373-0.68-0.949-0.807-1.477c-0.191-1.085-0.275-2.103-0.484-3.14c-0.198-1.029-0.401-2.056-0.669-3.066
							c-0.135-0.498-0.258-1.042-0.466-1.346c-0.124-0.161-0.149-0.133-0.147-0.123c-0.038,0.005-0.178,0.128-0.251,0.286
							c-0.335,0.701-0.258,1.882-0.336,2.912l-0.188,3.167c-0.08,1.066-0.12,2.087-0.232,3.19c-0.077,0.548-0.159,1.12-0.508,1.695
							c-0.184,0.274-0.477,0.577-0.922,0.633c-0.441,0.049-0.8-0.157-1.036-0.365c-0.949-0.87-1.151-2.084-1.274-3.132
							c-0.124-1.061-0.149-2.13-0.473-3.047c-0.157-0.459-0.481-0.821-0.679-0.66c-0.291,0.16-0.523,0.677-0.606,1.131
							c-0.17,0.965,0.044,2.037-0.067,3.141c-0.075,0.56-0.223,1.119-0.636,1.59c-0.194,0.23-0.627,0.415-0.96,0.238
							c-0.325-0.151-0.494-0.428-0.617-0.683c-0.483-1.059-0.294-2.187-0.297-3.21c-0.008-0.515-0.04-1.045-0.27-1.483
							c-0.191-0.422-0.737-0.877-1.029-0.436c-0.29,0.379-0.198,1.046-0.732,1.404c-0.275,0.154-0.608,0.046-0.81-0.14
							c-0.215-0.186-0.333-0.455-0.379-0.723L120.292,351.43z"/>
					</g>
					<path style="fill:#82010E;" d="M127.16,328.614c0.141,2.853,0.282,5.706,0.423,8.559c0.38,0.08,0.761,0.16,1.141,0.24
						c-0.205-2.512-0.41-5.023-0.614-7.535c-0.028-0.346-0.062-0.714-0.211-0.992S127.444,328.484,127.16,328.614z"/>
					<path style="fill:#FF8900;" d="M126.429,299.87c1.82,6.447,3.641,12.894,5.461,19.341c0.607,2.15,1.22,4.357,1.059,6.589
						s-1.262,4.532-3.245,5.459c-2.396,1.121-5.396-0.173-6.882-2.407s-1.699-5.137-1.304-7.811
						c0.395-2.674,1.338-5.226,1.996-7.846c1.293-5.148,1.472-10.588,0.521-15.815C124.339,297.648,125.702,297.295,126.429,299.87z
						"/>
					<path style="fill:#FEAF37;" d="M127.507,311.97c0.14,4.384,2.396,8.36,3.665,12.549c0.405,1.338,0.714,2.751,0.499,4.134
						c-0.215,1.384-1.052,2.738-2.34,3.199c-1.463,0.524-3.162-0.261-4.059-1.56c-0.898-1.299-1.106-2.987-0.949-4.572
						c0.157-1.584,0.646-3.11,1.032-4.652c1.194-4.775,1.401-9.808,0.604-14.67C126.49,308.318,127.45,310.168,127.507,311.97z"/>
				</g>
			</g>
			<g>
				<ellipse style="opacity:0.25;fill:#FEAF37;" cx="127.16" cy="314.961" rx="36.808" ry="37.711"/>
				<ellipse style="opacity:0.26;fill:#FEAF37;" cx="127.16" cy="316.871" rx="26.778" ry="27.435"/>
			</g>
		</g>
		<g>
			<path style="opacity:0.7804;fill:#FFFFFF;" d="M355.206,399.104c-1.708-1.994-4.679-2.702-7.034-3.053
				c-2.103-0.314-4.229-0.446-6.354-0.426c-5.733,0.052-11.691-0.159-17.154,1.764c-0.716,0.252-1.443,0.555-1.974,1.109
				c-0.531,0.554-0.818,1.419-0.509,2.128c0.315,0.722,1.112,1.062,1.85,1.305c0.775,0.256,1.557,0.491,2.348,0.692
				c7.749,1.961,15.958,1.954,23.708,0.009c1.801-0.452,3.647-1.049,5.061-2.418C355.451,399.919,355.481,399.425,355.206,399.104z"
				/>
			<path style="opacity:0.7804;fill:#FFFFFF;" d="M351.41,299.992c1.508,9.726,4.08,19.378,4.021,29.226
				c-0.031,5.103-1.802,10.575-4.676,14.743c-3.32,4.815-7.192,6.11-8.7,8.297c-2.458,3.565-2.532,8.247-2.514,12.611
				c0.031,7.353,0.062,14.705,0.093,22.058c0.016,3.855,0.314,8.305,3.176,10.26c-2.33,1.873-5.747,1.345-8.014-0.092
				c3.888-3.485,2.947-22.79,2.947-36.2c0-1.924-0.149-4.61-0.94-6.356c-1.259-2.779-4.447-4.562-6.728-6.543
				c-6.485-5.631-8.756-14.863-8.203-23.554c0.354-5.565,2.898-15.401,4.636-24.451C335.173,299.721,342.658,298.755,351.41,299.992
				z"/>
			<ellipse style="opacity:0.7804;fill:#FFFFFF;" cx="338.958" cy="299.992" rx="12.452" ry="0.97"/>
			<path style="opacity:0.7098;fill:#82010E;" d="M322.691,322.017c2.411-1.063,5.17-0.947,7.741-0.403
				c2.571,0.544,5.046,1.492,7.613,2.056c5.377,1.181,11.107,0.611,15.913-1.913c0.949,9.026-0.189,16.753-6.2,23.422
				c-1.507,1.672-4.9,3.782-7.056,4.329c-3.069,0.778-6.576,0.447-9.023-1.606c-3.548-2.977-5.936-7.225-7.302-11.71
				C323.009,331.708,322.607,326.972,322.691,322.017z"/>
		</g>
		<g>
			<path style="fill:#FFE2C0;" d="M99.681,212.017c-0.063,4.879-1.272,7.461-4.378,8.442c4.008,0.434,3.894,7.179,4.012,7.491
				c0.002,0.004,0.881-6.815,5.078-8.188c-3.99-0.432-4.183-3.403-4.637-7.755C99.75,211.945,99.682,211.953,99.681,212.017z"/>
			<path style="fill:#FFE2C0;" d="M156.298,137.614c-0.011,6.19-1.681,9.446-6.06,10.641c5.68,0.615,5.626,9.172,5.799,9.569
				c0.002,0.006,1.137-8.633,7.056-10.307c-5.655-0.613-5.974-4.385-6.687-9.914C156.394,137.524,156.298,137.532,156.298,137.614z"
				/>
			<path style="fill:#FFE2C0;" d="M401.657,78.47c-0.007,3.738-1.015,5.704-3.659,6.426c3.43,0.372,3.397,5.538,3.502,5.778
				c0.001,0.003,0.687-5.213,4.261-6.224c-3.415-0.37-3.608-2.648-4.038-5.986C401.715,78.415,401.657,78.421,401.657,78.47z"/>
			<path style="fill:#FFE2C0;" d="M230.537,42.007c-0.004,3.987-1.085,6.083-3.925,6.851c3.683,0.399,3.652,5.911,3.765,6.167
				c0.002,0.004,0.733-5.56,4.57-6.636c-3.667-0.397-3.876-2.827-4.341-6.389C230.6,41.949,230.537,41.955,230.537,42.007z"/>
			<path style="fill:#FFE2C0;" d="M447.828,162.587c-0.004,3.987-1.085,6.083-3.925,6.851c3.683,0.399,3.652,5.91,3.765,6.167
				c0.002,0.004,0.733-5.56,4.57-6.636c-3.667-0.397-3.876-2.827-4.341-6.389C447.891,162.529,447.828,162.535,447.828,162.587z"/>
			<circle style="fill:#FFE2C0;" cx="175.913" cy="84.552" r="1.307"/>
			<circle style="fill:#FFE2C0;" cx="99.849" cy="84.552" r="1.307"/>
			<circle style="fill:#FFE2C0;" cx="281.31" cy="126.477" r="1.307"/>
			<circle style="fill:#FFE2C0;" cx="122.396" cy="263.739" r="1.307"/>
			<circle style="fill:#FFE2C0;" cx="66.779" cy="146.379" r="1.307"/>
			<circle style="fill:#FFE2C0;" cx="322.03" cy="62.658" r="1.307"/>
			<circle style="fill:#FFE2C0;" cx="355.446" cy="192.083" r="1.307"/>
			<circle style="fill:#FFE2C0;" cx="442.597" cy="260.077" r="1.307"/>
		</g>
	</g>
</g>
</svg>
