<?xml version="1.0" encoding="utf-8"?>
<!-- Generator: Adobe Illustrator 27.5.0, SVG Export Plug-In . SVG Version: 6.00 Build 0)  -->
<svg version="1.1" id="Layer_1" xmlns="http://www.w3.org/2000/svg" xmlns:xlink="http://www.w3.org/1999/xlink" x="0px" y="0px"
	 viewBox="0 0 386.273 297.49" style="enable-background:new 0 0 386.273 297.49;" xml:space="preserve">
<g>
	<g>
		<g>
			<path style="fill:#AD5FDF;" d="M317.159,272.719c0.05-1.341-0.289-2.841-0.856-4.572c-4.53,4.331-15.194,7.397-21.3,7.24
				c-3.631-0.092-4.317-1.325-4.117-2.513c-4.822,2.158-4.889,3.372-5.561,6.896c-0.038,0.2-0.057,0.395-0.063,0.586
				C290.543,281.9,301.508,282.832,317.159,272.719z"/>
			<path style="fill:#F4D9BF;" d="M295.003,275.387c6.105,0.157,16.77-2.909,21.3-7.24c-0.198-0.602-0.42-1.229-0.667-1.89
				c-2.921-7.852-5.477-48.753-3.47-61.354l-7.667-1.277c0,0-3.836,36.702,4.563,61.535c-6.025,3.103-10.591,4.564-16.8,7.121
				c-0.502,0.208-0.951,0.402-1.377,0.592C290.685,274.061,291.372,275.295,295.003,275.387z"/>
			<path style="fill:#E3BB94;" d="M311.613,210.974c0.117-2.396,0.298-4.465,0.553-6.07l-7.667-1.277c0,0-0.268,2.551-0.507,6.762
				C306.538,210.534,309.076,210.738,311.613,210.974z"/>
			<path style="fill:#D283FD;" d="M285.262,280.355c-0.105,3.477,5.197,5.403,18.87,1.421c9.719-2.827,12.884-5.328,13.026-9.058
				C301.508,282.832,290.543,281.9,285.262,280.355z"/>
		</g>
		<g>
			<path style="fill:#AD5FDF;" d="M361.975,267.512c-0.335-0.943-0.863-1.951-1.603-3.08c-0.131-0.2-0.277-0.451-0.432-0.728
				c-4.032,5.953-12.677,12.255-17.098,12.413c-1.87,0.066-2.541-0.673-2.642-1.638c-3.26,3.847-5.082,7.038-4.545,9.428
				C339.772,284.936,348.4,283.935,361.975,267.512z"/>
			<path style="fill:#F4D9BF;" d="M342.843,276.117c4.421-0.158,13.065-6.46,17.098-12.413
				c-3.972-7.101-15.685-39.198-16.916-60.991l-7.12,0.183c0,0,4.381,41.266,14.973,60.622c-4.205,4.054-7.944,7.736-10.676,10.962
				C340.302,275.444,340.973,276.184,342.843,276.117z"/>
			<path style="fill:#E3BB94;" d="M343.532,208.232c-0.228-1.893-0.405-3.744-0.507-5.519l-7.12,0.183c0,0,0.278,2.629,0.865,6.866
				C339.001,209.143,341.258,208.653,343.532,208.232z"/>
			<path style="fill:#D283FD;" d="M335.657,283.907c0.107,0.478,0.308,0.927,0.612,1.339c3.104,4.2,14.974-2.921,20.817-7.852
				c4.597-3.879,6.129-6.405,4.889-9.883C348.4,283.935,339.772,284.936,335.657,283.907z"/>
		</g>
		<path style="fill:#78D7E6;" d="M302.301,166.003l-15.105,22.902l6.497,4.711l-1.785,5.035l10.881,4.223l-0.811,1.949l15.756,1.3
			l-0.162,1.786l13.48,0.162l0.162-3.248l13.808-0.975l-0.325-3.248l11.858-0.65l-0.975-2.762l9.908-6.173l-19.492-29.561
			C345.996,161.455,329.915,173.799,302.301,166.003z"/>
		<g>
			<path style="fill:#78D7E6;" d="M293.693,193.616c0,0,0.116-0.385,0.319-1.057c0.222-0.665,0.505-1.629,0.903-2.762
				c0.398-1.133,0.839-2.465,1.356-3.874c0.508-1.412,1.081-2.906,1.65-4.401c0.588-1.49,1.171-2.98,1.748-4.366
				c0.566-1.39,1.141-2.669,1.61-3.774c0.469-1.105,0.91-2.007,1.196-2.648c0.303-0.634,0.475-0.995,0.475-0.995
				s-0.116,0.384-0.32,1.056c-0.222,0.665-0.503,1.629-0.901,2.762c-0.398,1.132-0.837,2.466-1.355,3.874
				c-0.508,1.412-1.083,2.905-1.652,4.401c-0.588,1.489-1.171,2.979-1.748,4.365c-0.568,1.389-1.141,2.669-1.61,3.774
				c-0.47,1.104-0.91,2.007-1.196,2.647C293.866,193.253,293.693,193.616,293.693,193.616z"/>
			<path style="fill:#78D7E6;" d="M302.789,202.874c0,0,0.075-0.486,0.206-1.337c0.148-0.847,0.325-2.063,0.601-3.512
				c0.274-1.446,0.569-3.141,0.934-4.944c0.354-1.807,0.764-3.727,1.171-5.647c0.426-1.917,0.848-3.834,1.271-5.625
				c0.416-1.794,0.854-3.458,1.201-4.888c0.35-1.432,0.692-2.613,0.908-3.444c0.235-0.828,0.368-1.301,0.368-1.301
				s-0.074,0.486-0.205,1.336c-0.148,0.847-0.323,2.064-0.599,3.512c-0.275,1.446-0.567,3.141-0.935,4.944
				c-0.355,1.807-0.765,3.727-1.172,5.647c-0.427,1.918-0.848,3.836-1.273,5.626c-0.417,1.794-0.852,3.457-1.2,4.889
				c-0.35,1.43-0.691,2.611-0.908,3.443C302.922,202.4,302.789,202.874,302.789,202.874z"/>
			<path style="fill:#78D7E6;" d="M317.733,206.123c0,0,0.008-0.495,0.022-1.36c0.032-0.865,0.042-2.102,0.118-3.582
				c0.076-1.48,0.139-3.209,0.255-5.058c0.106-1.849,0.252-3.818,0.395-5.789c0.16-1.969,0.318-3.938,0.498-5.782
				c0.168-1.844,0.374-3.561,0.526-5.036c0.152-1.474,0.332-2.698,0.433-3.557c0.119-0.858,0.189-1.348,0.189-1.348
				s-0.008,0.494-0.021,1.36c-0.032,0.864-0.043,2.102-0.118,3.582c-0.077,1.48-0.138,3.209-0.256,5.058
				c-0.105,1.849-0.253,3.818-0.395,5.789c-0.161,1.969-0.319,3.936-0.499,5.781c-0.17,1.843-0.375,3.562-0.525,5.036
				c-0.153,1.475-0.333,2.698-0.435,3.558C317.8,205.633,317.733,206.123,317.733,206.123z"/>
			<path style="fill:#78D7E6;" d="M331.213,204.823c0,0-0.06-0.479-0.166-1.314c-0.088-0.838-0.248-2.032-0.378-3.469
				c-0.129-1.437-0.306-3.11-0.448-4.906c-0.149-1.797-0.278-3.716-0.409-5.634c-0.112-1.92-0.229-3.839-0.308-5.64
				c-0.089-1.801-0.123-3.483-0.176-4.924c-0.054-1.442-0.045-2.648-0.063-3.489c0-0.842,0-1.325,0-1.325s0.061,0.479,0.167,1.314
				c0.089,0.838,0.249,2.031,0.379,3.468c0.129,1.437,0.309,3.11,0.448,4.908c0.15,1.797,0.277,3.715,0.409,5.633
				c0.112,1.919,0.228,3.837,0.306,5.64c0.086,1.801,0.121,3.483,0.175,4.925c0.054,1.441,0.047,2.646,0.064,3.487
				C331.213,204.341,331.213,204.823,331.213,204.823z"/>
			<path style="fill:#78D7E6;" d="M344.696,200.601c0,0-0.12-0.418-0.333-1.148c-0.194-0.734-0.504-1.776-0.816-3.039
				c-0.31-1.264-0.7-2.732-1.069-4.316c-0.378-1.581-0.749-3.275-1.125-4.97c-0.357-1.696-0.715-3.393-1.024-4.99
				c-0.316-1.596-0.565-3.094-0.802-4.374c-0.236-1.279-0.382-2.356-0.509-3.105c-0.106-0.753-0.169-1.183-0.169-1.183
				s0.122,0.417,0.332,1.147c0.194,0.733,0.506,1.777,0.817,3.039c0.312,1.265,0.702,2.732,1.069,4.316
				c0.379,1.582,0.749,3.274,1.124,4.969c0.356,1.698,0.716,3.395,1.022,4.991c0.316,1.597,0.566,3.095,0.804,4.373
				c0.236,1.28,0.383,2.357,0.509,3.106C344.633,200.169,344.696,200.601,344.696,200.601z"/>
			<path style="fill:#78D7E6;" d="M355.58,197.188c0,0-0.175-0.383-0.483-1.053c-0.289-0.677-0.736-1.63-1.216-2.796
				c-0.476-1.168-1.058-2.52-1.636-3.985c-0.586-1.462-1.181-3.033-1.777-4.604c-0.581-1.577-1.165-3.153-1.683-4.641
				c-0.528-1.484-0.975-2.887-1.381-4.08c-0.406-1.193-0.694-2.207-0.92-2.907c-0.207-0.708-0.326-1.11-0.326-1.11
				s0.176,0.383,0.482,1.053c0.29,0.676,0.737,1.629,1.216,2.797c0.476,1.166,1.06,2.518,1.637,3.983
				c0.586,1.462,1.179,3.033,1.777,4.605c0.58,1.577,1.163,3.152,1.681,4.641c0.527,1.485,0.975,2.886,1.381,4.08
				c0.405,1.194,0.695,2.206,0.921,2.907C355.46,196.785,355.58,197.188,355.58,197.188z"/>
		</g>
		<g>
			<path style="fill:#78D7E6;" d="M355.58,197.188l9.908-6.173l-19.492-29.561c0,0-16.081,12.344-43.694,4.548l-1.641,2.488
				c3.86,2.815,16.141,9.792,42.24,4.777c3.148,9.998,6.283,20.456,8.196,26.98l5.457-0.299L355.58,197.188z"/>
		</g>
		<g>
			<path style="fill:#F4D9BF;" d="M255.41,121.123c0,0-3.774,1.528-6.201-3.146c-2.429-4.674-5.125-9.078-6.382-8.808
				c-1.259,0.269,0.898,5.212,2.786,9.347c-11.863-1.888-19.413-1.798-19.592-0.271c-0.181,1.529,8.718,2.968,11.234,3.596
				c-12.763-0.179-11.954,0.54-11.954,1.617c0,1.079,8.18,2.877,12.224,2.518c-9.348,0.449-10.967,0.359-10.696,1.707
				c0.27,1.349,8.269,1.259,11.595,1.438c-9.077,1.348-9.348,2.066-9.258,2.876c0.09,0.809,5.303,1.168,10.245,0.09
				c5.124,1.617,13.751-0.27,12.942-5.932c3.235-0.36,3.235-0.36,3.235-0.36L255.41,121.123z"/>
			<path style="fill:#E3BB94;" d="M253.645,126.014c1.936-0.217,1.943-0.218,1.943-0.218l-0.179-4.673c0,0-1.319,0.524-2.897-0.003
				C252.899,122.75,253.278,124.381,253.645,126.014z"/>
			<path style="fill:#C39368;" d="M245.613,118.517c0,0-0.135,0.541-0.298,1.324c-0.084,0.392-0.162,0.849-0.242,1.332
				c-0.064,0.487-0.144,1.002-0.16,1.519c-0.046,0.516-0.042,1.033-0.018,1.518c0.021,0.484,0.064,0.942,0.127,1.332
				c0.053,0.396,0.116,0.725,0.168,0.958c0.04,0.239,0.064,0.376,0.064,0.376s-0.085-0.108-0.222-0.311
				c-0.143-0.198-0.328-0.497-0.484-0.889c-0.094-0.192-0.17-0.406-0.229-0.642c-0.071-0.233-0.144-0.48-0.174-0.742
				c-0.102-0.521-0.117-1.092-0.086-1.655c0.037-0.563,0.136-1.119,0.278-1.625c0.147-0.504,0.322-0.962,0.516-1.332
				C245.22,118.927,245.613,118.517,245.613,118.517z"/>
		</g>
		<g>
			<path style="fill:none;" d="M320.586,109.103c-0.024,0.045-0.05,0.093-0.077,0.142c0.04,0.009,0.076,0.023,0.118,0.031
				C320.611,109.215,320.599,109.161,320.586,109.103z"/>
			<path style="fill:#78D7E6;" d="M323.707,115.268c2.069,0.427,8.65-4.369,6.799-18.231l-5.033,1.007
				c0.507,4.487,0.593,10.877-2.935,11.293c-0.728,0.085-1.357,0.052-1.911-0.061C321.153,111.462,322.221,114.962,323.707,115.268z
				"/>
				<!-- girl body -->
			<path style="fill:#F68AC6;" d="M347.689,133.448c0,0,6.588-11.039-0.178-22.791c-4.275-7.3-15.669-13.888-15.669-13.888
				l-1.337,0.267c1.852,13.862-4.729,18.658-6.799,18.231c-1.485-0.306-2.554-3.806-3.08-5.992
				c-0.042-0.008-0.078-0.022-0.118-0.031c-1.203,2.216-3.941,7.082-4.732,6.983c-2.373-0.809-3.471-8.112-3.826-11.15
				c-3.211,0.746-8.19,2.166-15.54,4.868c-15.49,5.698-34.365,9.971-42.376,9.438c1.425,8.902,1.425,8.902,1.425,8.902
				s25.282,5.162,49.854-7.123c-2.493,11.04-4.096,45.405-4.096,45.405s14.778,9.793,42.732,4.271
				c1.603-6.231,1.603-6.231,1.603-6.231l3.027,5.342l3.738-0.534C352.317,169.415,350.36,141.995,347.689,133.448z"/>
			<path style="fill:#78D7E6;" d="M315.776,116.228c0.791,0.099,3.529-4.768,4.732-6.983c-3.478-0.801-3.622-4.996-3.622-4.996
				s-1.381,0.001-4.937,0.829C312.305,108.115,313.403,115.419,315.776,116.228z"/>
			<g style="opacity:0.5;">
				<path style="fill:#F68AC6;" d="M254.878,124.662c0.578,3.619,0.58,3.623,0.58,3.623s25.181,5.14,49.706-7.053
					c0.717-2.014,1.593-4.507,2.665-7.592C290.629,126.795,262.289,125.312,254.878,124.662z"/>
				<path style="fill:#F68AC6;" d="M347.689,133.448c0,0,6.588-11.039-0.178-22.791c-4.275-7.3-15.669-13.888-15.669-13.888
					l-1.337,0.267c1.852,13.862-4.729,18.658-6.799,18.231c-1.485-0.306-2.554-3.806-3.08-5.992
					c-0.042-0.008-0.078-0.022-0.118-0.031c-1.203,2.216-3.941,7.082-4.732,6.983c-2.373-0.809-3.471-8.112-3.826-11.15
					c-0.634,0.147-1.339,0.322-2.114,0.526c0.393,3.098,1.713,10.787,5.231,12.294c2.211,1.265,5.69-3.319,5.69-3.319
					s-1.007,4.087,1.853,5.231c2.994,11.481,9.256,32.11,9.47,52.573c3.647-0.218,7.604-0.701,11.869-1.544
					c1.603-6.231,1.603-6.231,1.603-6.231l3.027,5.342l3.738-0.534C352.317,169.415,350.36,141.995,347.689,133.448z"/>
			</g>
		</g>
		<path style="fill:#E3BB94;" d="M322.538,109.336c3.527-0.416,3.441-6.806,2.935-11.293l-8.765,1.754l0.179,4.451
			C316.886,104.248,317.068,109.979,322.538,109.336z"/>
		<g>
			<g>
				<g>
				<!-- girl hair -->
					<path style="fill:#D3601F;" d="M358.831,116.021c-0.034-0.604-0.021-1.249-0.076-1.889c-0.005-0.143-0.015-0.283-0.02-0.427
						c-0.137,0.535-0.298,1.063-0.497,1.536c-0.245,0.602-0.521,1.136-0.792,1.575c-0.528,0.887-1.017,1.378-1.017,1.378
						s0.283-0.624,0.64-1.563c0.18-0.47,0.377-1.018,0.564-1.613c0.183-0.592,0.367-1.224,0.49-1.869
						c0.066-0.323,0.144-0.644,0.177-0.965c0.043-0.321,0.099-0.634,0.109-0.941c0.029-0.305,0.056-0.604,0.044-0.887
						c0.006-0.031,0.006-0.062,0.009-0.094c0.014-0.004,0.028-0.009,0.045-0.013l0,0c0.015-0.004,0.027-0.012,0.042-0.013
						c0.082-0.021,0.167-0.048,0.247-0.073c0.006-0.004,0.011-0.002,0.018-0.007l0,0c0.034-0.007,0.067-0.018,0.104-0.028l0,0
						c0.021-0.008,0.04-0.012,0.063-0.019c0.005,0.039,0.009,0.08,0.014,0.12c0.011,0.011,0.022,0.022,0.03,0.037
						c0.228,0.119,0.556,0.3,0.954,0.539c0.198,0.106,0.392,0.25,0.578,0.427c0.194,0.167,0.402,0.34,0.608,0.53
						c0.209,0.188,0.427,0.375,0.603,0.614c0.188,0.227,0.38,0.454,0.57,0.686c0.371,0.465,0.661,0.989,0.953,1.462
						c0.241,0.506,0.484,0.963,0.622,1.388c0.159,0.416,0.263,0.772,0.315,1.03c0.063,0.247,0.077,0.398,0.077,0.398
						s-0.079-0.128-0.216-0.349c-0.126-0.219-0.322-0.528-0.553-0.897c-0.22-0.372-0.522-0.777-0.797-1.235
						c-0.157-0.219-0.328-0.435-0.486-0.669c-0.158-0.23-0.311-0.473-0.505-0.686c-0.358-0.437-0.672-0.918-1.053-1.292
						c-0.369-0.38-0.658-0.806-0.988-1.084c-0.101-0.093-0.194-0.181-0.281-0.264c0.037,0.061,0.07,0.122,0.105,0.184
						c0.155,0.272,0.316,0.559,0.473,0.862c0.168,0.296,0.322,0.614,0.435,0.949c0.128,0.335,0.259,0.678,0.388,1.012
						c0.132,0.341,0.2,0.697,0.298,1.042c0.093,0.341,0.171,0.683,0.246,1.015c0.101,0.673,0.222,1.291,0.242,1.833
						c0.046,0.538,0.036,0.993,0.031,1.308c-0.003,0.315-0.029,0.495-0.029,0.495s-0.041-0.175-0.111-0.482
						c-0.056-0.307-0.181-0.738-0.306-1.254c-0.109-0.52-0.308-1.11-0.459-1.75c-0.093-0.316-0.196-0.644-0.296-0.974
						c-0.107-0.329-0.177-0.677-0.316-0.997c-0.114-0.332-0.231-0.66-0.347-0.985c-0.061-0.164-0.114-0.325-0.166-0.489
						c-0.068-0.154-0.136-0.306-0.2-0.457c-0.071-0.151-0.135-0.301-0.197-0.454c0.026,0.149,0.048,0.3,0.076,0.451
						c0.038,0.305,0.112,0.62,0.129,0.94c0.021,0.323,0.045,0.655,0.066,0.981c0.041,0.66,0.019,1.319-0.008,1.937
						c-0.003,0.308-0.055,0.604-0.08,0.887c-0.033,0.279-0.06,0.545-0.107,0.788c-0.163,0.977-0.391,1.602-0.391,1.602
						s-0.013-0.653-0.029-1.635C358.859,117.191,358.847,116.629,358.831,116.021z"/>
					<path style="fill:#D3601F;" d="M357.979,111.893c-0.196,0.55-0.482,1.257-0.789,1.962c-0.161,0.353-0.32,0.703-0.486,1.025
						c-0.16,0.326-0.32,0.625-0.468,0.879c-0.292,0.508-0.537,0.836-0.537,0.836s0.014-0.408,0.143-0.987
						c0.125-0.579,0.359-1.326,0.675-2.046c0.161-0.361,0.342-0.711,0.525-1.032c0.179-0.323,0.394-0.607,0.571-0.842
						c0.176-0.24,0.372-0.414,0.497-0.533c0.127-0.121,0.207-0.184,0.207-0.184s-0.029,0.098-0.086,0.266
						C358.178,111.403,358.079,111.621,357.979,111.893z"/>
				</g>
				<path style="fill:#D3601F;" d="M359.194,102.379c0,0,3.371,2.455,2.322,4.159c-1.05,1.699-3.198,4.433-3.198,4.433
					s-3.064-1.494-3.864-4.671c-0.806-3.178,1.563-3.203,2.177-3.592C357.241,102.32,359.194,102.379,359.194,102.379z"/>
				<path style="fill:#EC7B23;" d="M357.833,96.118c0,0,4.41,4.323,3.318,5.886c-1.093,1.564-3.238,3.58-3.238,3.58
					s-3.965-1.335-5.01-3.464c-1.052-2.133,1.372-4.972,1.64-5.075C354.818,96.941,356.914,95.151,357.833,96.118z"/>
				<path style="fill:#D3601F;" d="M359.136,91.934c0,0,1.077,4.471-2.093,7.993c0,0-4.775-0.878-7.753-6.642
					C349.291,93.285,359.106,88.372,359.136,91.934z"/>
			</g>
			<polygon style="fill:#E30613;" points="358.733,109.747 364.613,106.081 364.461,111.888 			"/>
			<polygon style="fill:#E30613;" points="358.733,109.747 353.328,108.172 354.395,113.774 			"/>
		</g>
		<path style="fill:#F4D9BF;" d="M351.278,79.415c3.004,3.218,8.151,1.287,9.653-4.504c1.5-5.79-3.004-8.15-5.148-8.15
			c-2.145,0-5.791,6.863-5.791,6.863c3.002-9.437-1.501-27.025-1.501-27.025l-2.683,5.148l-15.871-1.287l0.751-6.864l-3.646,6.971
			l-21.495-6.189c0,0,1.058-4.834,2.416-7.704c-3.096,0.981-5.891,6.495-5.891,6.495l-6.27-1.511c0,0,0.453-3.701,2.267-5.816
			c-3.851,1.209-5.648,4.749-5.648,4.749s-3.383,5.063-2.358,15.691c-0.128,6.274-2.177,10.243-4.865,15.622
			c-2.69,5.378-2.562,17.03,12.933,25.097c13.316,6.019,29.707,5.378,43.28-3.842C345.269,91.035,348.919,84.563,351.278,79.415z"/>
		<g>
			<path style="fill:#E3BB94;" d="M338.203,84.087c-2.566-0.587-4.253,4.033-4.253,4.033s-0.368-5.647-1.834-5.721
				c-1.466-0.073-3.301,1.174-3.888,7.92c-1.027-2.933-3.227-6.38-5.501-5.72c-2.567,0.954-1.319,6.015-1.319,6.015
				s-1.467-2.274-3.153-1.174c-1.685,1.1-0.512,5.428,1.98,9.241c-0.252,0.541-0.363,1.384-0.409,2.101
				c6.103-0.48,12.224-2.237,17.96-5.401C339.064,91.154,340.526,84.618,338.203,84.087z"/>
		</g>
		<path style="fill:#EC7B23;" d="M376.659,42.738c3.146,0.143,4.291,0.143,4.291,0.143s-3.718-2.859-4.862-3.717
			c1.717-4.719,0.571-7.292,0.571-7.292s-1,3.288-1.716,4.718c-3.717-10.295-19.803-24.308-47.043-23.879
			c-11.368,0-22.521,5.148-27.239,9.008c-4.718,3.861-9.223,6.649-13.513,1.716c-2.145,3.432-2.145,3.432-2.145,3.432
			s1.93,4.504,9.438,4.29c-6.006,2.788-6.864,8.15-6.864,8.15l4.845,1.285c0,0,1.797-3.541,5.648-4.749
			c-1.814,2.115-2.267,5.816-2.267,5.816l6.27,1.511c0,0,2.795-5.514,5.891-6.495c-1.358,2.87-2.416,7.704-2.416,7.704l21.495,6.189
			l3.646-6.971l-0.751,6.864l15.871,1.287l2.683-5.148c0,0,4.503,17.588,1.501,27.025c0,0,3.647-6.863,5.791-6.863
			c2.145,0,6.648,2.359,5.148,8.15c-1.502,5.791-6.649,7.722-9.653,4.504c-2.358,5.148-6.009,11.621-9.867,13.746
			c11.908,1.537,29.958-3.665,38.537-24.397C384.81,55.322,379.663,46.17,376.659,42.738z"/>
		<g>
			<path style="fill:#673121;" d="M293.07,68.777c-0.297,1.457-0.998,2.465-1.567,2.249c-0.571-0.212-0.792-1.563-0.495-3.021
				c0.296-1.457,1.001-2.463,1.569-2.248C293.147,65.97,293.368,67.323,293.07,68.777z"/>
			<path style="fill:#FFFFFF;" d="M292.115,67.232c-0.121,0.427-0.355,0.71-0.524,0.63c-0.169-0.081-0.208-0.495-0.086-0.92
				c0.122-0.43,0.358-0.71,0.526-0.629C292.202,66.394,292.239,66.806,292.115,67.232z"/>
		</g>
		<g>
			<path style="fill:#673121;" d="M319.708,72.4c-0.298,1.457-0.999,2.465-1.568,2.25c-0.571-0.212-0.792-1.563-0.494-3.021
				c0.295-1.457,1.001-2.462,1.568-2.249C319.785,69.594,320.005,70.946,319.708,72.4z"/>
			<path style="fill:#FFFFFF;" d="M318.754,70.855c-0.121,0.427-0.357,0.71-0.525,0.63c-0.169-0.081-0.209-0.495-0.087-0.92
				c0.123-0.43,0.359-0.71,0.528-0.628C318.839,70.018,318.878,70.43,318.754,70.855z"/>
		</g>
		<path style="fill:#EC7B23;" d="M291.072,59.99c0,0,0.03-0.783,0.379-1.909c0.089-0.28,0.196-0.584,0.343-0.896
			c0.155-0.309,0.312-0.645,0.582-0.952c0.264-0.292,0.602-0.66,1.172-0.718c0.131-0.008,0.269,0.012,0.402,0.026L294,55.547
			l0.025,0.004l0.073,0.027l0.066,0.028l0.132,0.057c0.156,0.051,0.43,0.268,0.592,0.411c0.304,0.315,0.551,0.652,0.748,0.994
			c0.215,0.336,0.368,0.689,0.518,1.026c0.293,0.677,0.503,1.327,0.649,1.891c0.3,1.125,0.361,1.905,0.361,1.905
			s-0.33-0.695-0.825-1.736c-0.245-0.516-0.534-1.115-0.864-1.731c-0.161-0.31-0.35-0.619-0.54-0.917
			c-0.186-0.306-0.41-0.581-0.641-0.814c-0.156-0.168-0.5-0.387-0.677-0.352c-0.208,0.004-0.467,0.178-0.681,0.397
			c-0.222,0.219-0.41,0.494-0.582,0.753c-0.167,0.268-0.317,0.531-0.451,0.78C291.384,59.273,291.072,59.99,291.072,59.99z"/>
		<path style="fill:#EC7B23;" d="M316.63,63.234c0,0,0.022-0.247,0.125-0.67c0.11-0.418,0.268-1.027,0.611-1.709
			c0.178-0.337,0.382-0.703,0.679-1.045c0.277-0.355,0.664-0.677,1.128-0.92c0.475-0.234,1.047-0.325,1.603-0.259
			c0.346,0.09,0.48,0.1,0.77,0.237c0.265,0.131,0.544,0.27,0.735,0.438c0.22,0.16,0.418,0.334,0.594,0.523
			c0.191,0.18,0.357,0.373,0.515,0.569c0.33,0.384,0.593,0.8,0.838,1.2c0.491,0.806,0.864,1.596,1.14,2.288
			c0.551,1.385,0.757,2.356,0.757,2.356s-0.117-0.217-0.325-0.596c-0.197-0.381-0.512-0.911-0.873-1.544
			c-0.368-0.631-0.815-1.355-1.329-2.089c-0.252-0.37-0.54-0.733-0.841-1.08c-0.147-0.179-0.302-0.35-0.473-0.502
			c-0.158-0.168-0.333-0.311-0.514-0.438c-0.177-0.159-0.346-0.229-0.509-0.333c-0.137-0.098-0.498-0.17-0.609-0.211
			c-0.402-0.044-0.802-0.029-1.167,0.127c-0.352,0.169-0.699,0.379-0.97,0.667c-0.282,0.271-0.518,0.575-0.728,0.862
			c-0.401,0.589-0.698,1.126-0.877,1.515C316.726,63.006,316.63,63.234,316.63,63.234z"/>
		<g>
			<path style="fill:#C39368;" d="M300.195,75.064c0,0,0.117,0.149,0.184,0.353c0.072,0.205,0.098,0.464,0.056,0.711
				c-0.048,0.246-0.162,0.479-0.305,0.645c-0.135,0.166-0.3,0.263-0.3,0.263s-0.118-0.149-0.185-0.353
				c-0.071-0.205-0.097-0.464-0.054-0.71c0.049-0.246,0.166-0.479,0.306-0.645C300.03,75.161,300.195,75.064,300.195,75.064z"/>
			<path style="fill:#C39368;" d="M301.654,77.108c0,0-0.795,0.016-1.943,0.109c-0.57,0.057-1.243,0.126-1.881,0.331
				c-0.321,0.091-0.623,0.248-0.829,0.434l-0.04,0.034l-0.02,0.017l-0.011,0.008l-0.005,0.004l-0.003,0.001
				c0.015-0.017-0.035,0.042,0.031-0.038l-0.083,0.119l-0.084,0.118c-0.02,0.035-0.009,0.05-0.018,0.073
				c-0.012,0.036-0.032,0.079-0.03,0.152c-0.01,0.063-0.018,0.127-0.002,0.2c0.042,0.584,0.5,1.233,0.923,1.762
				c0.446,0.536,0.922,1.006,1.348,1.393c0.427,0.388,0.798,0.701,1.063,0.92c0.265,0.22,0.416,0.346,0.416,0.346
				s-0.184-0.073-0.506-0.201c-0.316-0.139-0.766-0.353-1.271-0.673c-0.511-0.313-1.074-0.735-1.611-1.281
				c-0.261-0.281-0.536-0.575-0.751-0.94c-0.222-0.352-0.418-0.767-0.465-1.262c-0.019-0.121-0.007-0.25,0.014-0.38
				c0.008-0.124,0.051-0.265,0.117-0.407c0.028-0.066,0.063-0.147,0.095-0.195l0.086-0.116l0.087-0.115
				c0.069-0.083,0.023-0.025,0.038-0.045l0.004-0.003l0.01-0.008l0.017-0.015l0.035-0.03l0.069-0.059
				c0.372-0.321,0.796-0.453,1.178-0.541c0.778-0.175,1.485-0.145,2.08-0.094C300.904,76.838,301.654,77.108,301.654,77.108z"/>
		</g>
		<path style="fill:#C39368;" d="M355.144,78.205c0,0-1.556-3.232,0.746-4.87c2.303-1.635,3.277,0.78,3.277,0.78
			s-1.562-1.4-3.019,0.576C354.688,76.668,355.144,78.205,355.144,78.205z"/>
		<path style="fill:#ED6C73;" d="M300.26,90.409c0,0,7.769,2.719,15.538-1.069C313.759,95.943,305.893,100.217,300.26,90.409z"/>
		<path style="fill:#C39368;" d="M293.754,85.358c0,0,0.391,0.357,0.977,0.892c0.275,0.275,0.636,0.554,0.978,0.89
			c0.178,0.16,0.382,0.304,0.566,0.472c0.192,0.161,0.368,0.348,0.582,0.484c0.201,0.156,0.4,0.311,0.599,0.463
			c0.1,0.075,0.196,0.154,0.289,0.234c0.102,0.066,0.202,0.131,0.302,0.196c0.405,0.244,0.748,0.553,1.089,0.727
			c0.674,0.364,1.126,0.692,1.126,0.692s-0.527-0.047-1.325-0.242c-0.205-0.036-0.407-0.122-0.617-0.221
			c-0.212-0.096-0.439-0.194-0.666-0.311c-0.232-0.107-0.466-0.23-0.674-0.397c-0.218-0.156-0.438-0.314-0.658-0.472
			c-0.224-0.157-0.404-0.36-0.601-0.539c-0.194-0.182-0.375-0.372-0.547-0.556c-0.314-0.397-0.622-0.753-0.821-1.108
			c-0.218-0.338-0.371-0.641-0.462-0.86C293.791,85.49,293.754,85.358,293.754,85.358z"/>
		<path style="fill:#F4D9BF;" d="M326.137,111.489l-1.193-4.974c0,0-3.913,0.597-3.315-8.092c-1.858-3.315-3.45-6.963-2.322-7.626
			c1.128-0.663,5.24,6.366,5.24,6.366s-3.516-10.08-1.593-11.207c1.924-1.128,4.709,5.438,5.837,10.146
			c1.259-10.744,1.99-12.269,3.05-12.203c1.061,0.066,1.193,11.54,1.193,11.54s2.389-10.412,4.444-9.948
			c2.055,0.464-0.797,10.279-2.587,15.054c5.903-4.576,6.234-4.51,6.897-3.78c0.663,0.729-3.713,6.102-8.621,9.418
			c-0.267,3.515-0.134,4.376-0.134,4.376L326.137,111.489z"/>
		<path style="fill:#F9CBC0;" d="M290.937,73.728c-0.069,0.829-1.747,1.367-3.739,1.202c-1.999-0.167-3.562-0.974-3.491-1.804
			c0.069-0.831,1.744-1.368,3.742-1.203C289.44,72.088,291.006,72.896,290.937,73.728z"/>
		<path style="fill:#F9CBC0;" d="M330.672,78.372c-0.097,1.151-2.425,1.897-5.192,1.668c-2.774-0.231-4.942-1.352-4.845-2.504
			c0.097-1.153,2.42-1.9,5.193-1.67C328.594,76.096,330.767,77.217,330.672,78.372z"/>
		<path style="fill:#E3BB94;" d="M353.48,69.454l-17.236-0.487c-0.357-7.457-6.567-13.419-14.174-13.419
			c-6.723,0-12.357,4.658-13.824,10.887c-1.295-1.387-2.675-2.102-4.121-2.117c-0.015,0-0.03,0-0.045,0
			c-1.113,0-2.061,0.42-2.795,0.913c0.039-0.451,0.063-0.908,0.063-1.369c0-7.739-5.649-14.035-12.594-14.035
			c-6.942,0-12.591,6.296-12.591,14.035c0,7.739,5.648,14.035,12.591,14.035c5.757,0,10.61-4.332,12.107-10.219
			c0.244-0.238,1.667-1.546,3.221-1.546c0.007,0,0.016,0,0.025,0c1.258,0.013,2.533,0.945,3.793,2.769
			c-0.014,0.245-0.039,0.486-0.039,0.733c0,7.768,6.374,14.087,14.209,14.087c7.479,0,13.612-5.763,14.153-13.043l16.325,0.314
			L353.48,69.454z M288.754,76.285c-6.054,0-10.98-5.574-10.98-12.423c0-6.85,4.926-12.424,10.98-12.424
			c6.056,0,10.98,5.574,10.98,12.424C299.734,70.711,294.809,76.285,288.754,76.285z M322.07,82.005
			c-6.888,0-12.492-5.549-12.492-12.371c0-6.821,5.604-12.372,12.492-12.372c6.888,0,12.492,5.55,12.492,12.372
			C334.562,76.456,328.958,82.005,322.07,82.005z"/>
		<g style="opacity:0.5;">
		<!-- girl hair line -->
			<path style="fill:#C65A10;" d="M379.468,47.244c6.415,14.805-3.126,29.28-12.174,36.518c-9.047,7.238-18.094,5.1-13.488-1.151
				c1.81,0.987,8.061-0.658,9.54-7.896c1.316-8.883-5.098-12.173-9.868-10.199c0.658-6.415-2.303-23.852-2.303-23.852l-6.087,7.403
				L332.75,47.08c0,0-0.164-6.58,1.15-10.035c-3.454,1.809-7.236,8.225-7.236,8.225l-17.273-4.442c0,0,0.329-3.783,2.467-8.389
				c-6.25,1.48-9.375,6.58-9.375,6.58l-3.948-0.822c0,0,0.821-3.455,4.441-6.251c-4.276,0.494-10.363,4.277-10.363,4.277
				l-1.646-0.822c0,0,0.658-1.81,9.212-6.416c-6.244,1.799-11.667-0.759-14.744-2.813c-0.43,0.688-0.433,0.694-0.433,0.694
				s1.93,4.504,9.438,4.29c-6.006,2.788-6.864,8.15-6.864,8.15l4.845,1.285c0,0,1.797-3.541,5.648-4.749
				c-1.814,2.115-2.267,5.816-2.267,5.816l6.27,1.511c0,0,2.795-5.514,5.891-6.495c-1.358,2.87-2.416,7.704-2.416,7.704
				l21.495,6.189l3.646-6.971l-0.751,6.864l15.871,1.287l2.683-5.148c0,0,4.503,17.588,1.501,27.025c0,0,3.647-6.863,5.791-6.863
				c2.145,0,6.648,2.359,5.148,8.15c-1.502,5.791-6.649,7.722-9.653,4.504c-2.358,5.148-6.009,11.621-9.867,13.746
				c11.908,1.537,29.958-3.665,38.537-24.397c3.413-9.437,1.893-16.754-0.356-21.467C379.549,47.278,379.511,47.262,379.468,47.244z
				"/>
		</g>
		<!-- hand -->
		<path style="fill:#F68AC6;" d="M324.039,112.873l10.724-1.717l1.969,17.96c0,0,4.326-4.78,6.47-14.932
			c1.431-6.577,8.508-1.31,7.147,11.128c-1.121,10.27-11.58,20.018-17.015,19.731C327.9,144.759,322.097,125.731,324.039,112.873z"
			/>
		<path style="fill:#F68AC6;" d="M324.039,111.659l10.724-1.716l1.288,20.59c0,0,5.147-4.576,7.292-14.728
			c1.431-6.577,7.865-2.001,7.006,8.293c-0.857,10.296-11.58,20.02-17.015,19.732C327.9,143.545,323.896,122.955,324.039,111.659z"
			/>
		<path style="fill:#F68AC6;" d="M336.05,130.533c0,0,0.202,0.264,0.397,0.684c0.199,0.42,0.394,0.994,0.522,1.583
			c0.123,0.59,0.18,1.195,0.166,1.661c-0.005,0.464-0.084,0.79-0.084,0.79s-0.204-0.264-0.397-0.685
			c-0.2-0.418-0.393-0.993-0.521-1.582c-0.122-0.591-0.178-1.196-0.165-1.661C335.971,130.859,336.05,130.533,336.05,130.533z"/>
		<path style="fill:#F68AC6;" d="M306.748,115.592c0,0,0.051,0.384,0.014,0.932c-0.029,0.549-0.139,1.264-0.316,1.961
			c-0.182,0.695-0.429,1.374-0.669,1.869c-0.234,0.497-0.464,0.809-0.464,0.809s-0.05-0.384-0.015-0.932
			c0.029-0.55,0.141-1.263,0.318-1.96c0.183-0.697,0.431-1.375,0.672-1.87C306.52,115.903,306.748,115.592,306.748,115.592z"/>
		<g>
			<path style="fill:#B0B6BA;" d="M234.257,93.453c0,0,0.34-0.441,1.005-1.155c0.666-0.711,1.63-1.724,2.888-2.83
				c0.63-0.551,1.313-1.149,2.071-1.739c0.739-0.615,1.56-1.21,2.417-1.816c0.855-0.607,1.781-1.176,2.713-1.765
				c0.973-0.521,1.926-1.117,2.941-1.593c1.02-0.469,2.02-0.982,3.064-1.35c0.516-0.196,1.027-0.392,1.534-0.585
				c0.509-0.185,1.031-0.31,1.534-0.463c0.507-0.145,1.003-0.287,1.489-0.426c0.492-0.117,0.985-0.189,1.458-0.282
				c0.949-0.17,1.838-0.369,2.681-0.405c0.838-0.078,1.605-0.131,2.283-0.176c0.68,0.023,1.273,0.043,1.764,0.061
				c0.972,0.045,1.527,0.07,1.527,0.07s-0.556,0.035-1.527,0.096c-0.482,0.026-1.07,0.056-1.744,0.091
				c-0.668,0.107-1.419,0.226-2.237,0.336c-0.824,0.079-1.691,0.322-2.613,0.538c-0.458,0.116-0.934,0.211-1.411,0.352
				c-0.473,0.153-0.956,0.309-1.446,0.467c-0.489,0.165-0.996,0.298-1.49,0.494c-0.491,0.198-0.989,0.399-1.492,0.601
				c-1.021,0.368-1.997,0.882-2.993,1.349c-1,0.458-1.942,1.036-2.901,1.539c-0.919,0.577-1.854,1.095-2.712,1.675
				c-0.854,0.583-1.7,1.118-2.461,1.688c-0.779,0.544-1.486,1.1-2.139,1.611c-1.297,1.038-2.367,1.92-3.08,2.581
				C234.653,93.062,234.257,93.453,234.257,93.453z"/>
			<path style="fill:#B0B6BA;" d="M230.315,90.989c0,0,0.276-0.49,0.843-1.298c0.564-0.806,1.386-1.953,2.487-3.238
				c0.557-0.637,1.152-1.335,1.832-2.028c0.656-0.716,1.392-1.429,2.173-2.146c0.767-0.733,1.632-1.411,2.481-2.131
				c0.904-0.653,1.789-1.362,2.741-1.977c0.97-0.59,1.9-1.244,2.908-1.731c0.982-0.531,1.96-1.033,2.957-1.41
				c0.493-0.201,0.977-0.4,1.451-0.594c0.478-0.181,0.969-0.295,1.434-0.441c0.936-0.266,1.808-0.568,2.654-0.682
				c0.834-0.159,1.601-0.286,2.278-0.397c0.688-0.037,1.286-0.068,1.779-0.096c0.983-0.04,1.545-0.063,1.545-0.063
				s-0.556,0.083-1.529,0.229c-0.484,0.068-1.07,0.151-1.745,0.246c-0.662,0.171-1.405,0.362-2.218,0.55
				c-0.822,0.154-1.665,0.497-2.568,0.807c-0.447,0.166-0.919,0.302-1.379,0.504c-0.457,0.206-0.924,0.415-1.399,0.629
				c-0.469,0.222-0.969,0.402-1.436,0.667c-0.472,0.256-0.947,0.516-1.427,0.777c-0.982,0.483-1.887,1.136-2.83,1.719
				c-0.939,0.593-1.816,1.283-2.709,1.915c-0.838,0.706-1.717,1.334-2.487,2.041c-0.78,0.694-1.552,1.35-2.232,2.023
				c-0.708,0.649-1.333,1.308-1.917,1.91c-1.148,1.22-2.097,2.254-2.713,3.017C230.655,90.541,230.315,90.989,230.315,90.989z"/>
			<path style="fill:#B0B6BA;" d="M245.096,145.355c0,0,0.343,0.102,0.943,0.283c0.299,0.087,0.655,0.209,1.076,0.316
				c0.422,0.106,0.896,0.227,1.405,0.377c0.509,0.156,1.076,0.269,1.669,0.412c0.596,0.131,1.215,0.296,1.866,0.43
				c0.649,0.129,1.322,0.262,2.006,0.395c0.341,0.07,0.687,0.142,1.03,0.212l1.05,0.148c0.698,0.109,1.398,0.217,2.085,0.324
				c0.685,0.129,1.372,0.153,2.03,0.226c0.661,0.056,1.299,0.132,1.905,0.201c0.604,0.088,1.179,0.107,1.712,0.111
				c1.062,0.018,1.953,0.087,2.576,0.111c0.626,0.042,0.983,0.066,0.983,0.066s-0.354,0.044-0.976,0.101
				c-0.622,0.045-1.514,0.146-2.589,0.204c-0.537,0.041-1.121,0.069-1.735,0.031c-0.617-0.019-1.267-0.034-1.939-0.074
				c-0.671-0.05-1.373-0.025-2.069-0.155c-0.7-0.1-1.412-0.199-2.122-0.301l-1.063-0.165c-0.349-0.077-0.698-0.152-1.043-0.229
				c-0.686-0.162-1.364-0.321-2.02-0.476c-0.654-0.151-1.268-0.381-1.857-0.562c-0.584-0.193-1.145-0.352-1.645-0.554
				C246.354,146.049,245.096,145.355,245.096,145.355z"/>
			<path style="fill:#B0B6BA;" d="M243.455,148.311c0,0,0.211,0.109,0.579,0.298c0.362,0.195,0.897,0.445,1.528,0.753
				c0.631,0.31,1.372,0.654,2.166,1.014c0.799,0.351,1.649,0.723,2.52,1.046c0.433,0.163,0.861,0.342,1.298,0.476
				c0.433,0.143,0.852,0.305,1.271,0.417c0.416,0.126,0.816,0.257,1.203,0.35c0.388,0.093,0.749,0.213,1.092,0.276
				c0.343,0.069,0.654,0.145,0.934,0.215c0.281,0.048,0.527,0.089,0.729,0.124c0.407,0.071,0.641,0.124,0.641,0.124
				s-0.235,0.023-0.649,0.043c-0.416,0.024-1.013,0.042-1.728-0.02c-0.361-0.01-0.741-0.076-1.148-0.136
				c-0.409-0.053-0.834-0.138-1.27-0.246c-0.877-0.189-1.786-0.492-2.681-0.824c-0.887-0.35-1.758-0.744-2.543-1.168
				c-0.786-0.424-1.498-0.857-2.082-1.266C244.139,148.976,243.455,148.311,243.455,148.311z"/>
		</g>
		<g>
			<g>
				<path d="M307.91,68.008c-1.263-1.834-2.543-2.771-3.803-2.784c-0.01,0-0.019,0-0.025,0c-1.697,0-3.259,1.579-3.272,1.595
					l-1.176-0.944c0.071-0.1,1.802-2.467,4.445-2.467c0.015,0,0.03,0,0.045,0c1.888,0.02,3.664,1.221,5.281,3.571L307.91,68.008z"/>
				<polygon points="352.548,70.085 335.818,69.763 335.852,68.048 353.48,68.545 				"/>
			</g>
			<g>
				<path d="M322.07,54.639c-7.835,0-14.209,6.319-14.209,14.087c0,7.768,6.374,14.087,14.209,14.087
					c7.833,0,14.207-6.319,14.207-14.087C336.277,60.959,329.903,54.639,322.07,54.639z M322.07,81.098
					c-6.888,0-12.492-5.55-12.492-12.371c0-6.822,5.604-12.371,12.492-12.371c6.888,0,12.492,5.55,12.492,12.371
					C334.562,75.548,328.958,81.098,322.07,81.098z"/>
				<path style="opacity:0.5;fill:#FFFFFF;" d="M322.07,56.355c-6.888,0-12.492,5.55-12.492,12.371
					c0,6.821,5.604,12.371,12.492,12.371c6.888,0,12.492-5.55,12.492-12.371C334.562,61.905,328.958,56.355,322.07,56.355z"/>
			</g>
			<g>
				<path d="M288.754,48.918c-6.942,0-12.591,6.296-12.591,14.036c0,7.738,5.648,14.035,12.591,14.035
					c6.944,0,12.594-6.297,12.594-14.035C301.347,55.215,295.698,48.918,288.754,48.918z M288.754,75.377
					c-6.054,0-10.98-5.573-10.98-12.423s4.926-12.423,10.98-12.423c6.056,0,10.98,5.573,10.98,12.423S294.809,75.377,288.754,75.377
					z"/>
				<path style="opacity:0.5;fill:#FFFFFF;" d="M288.754,50.531c-6.054,0-10.98,5.573-10.98,12.423s4.926,12.423,10.98,12.423
					c6.056,0,10.98-5.573,10.98-12.423S294.809,50.531,288.754,50.531z"/>
			</g>
			<g>
				<path style="opacity:0.5;fill:#FFFFFF;" d="M290.754,50.747l-12.817,10.16c-0.1,0.668-0.163,1.348-0.163,2.047
					c0,0.306,0.022,0.606,0.04,0.907l15.433-12.231C292.46,51.229,291.625,50.93,290.754,50.747z"/>
				<path style="opacity:0.5;fill:#FFFFFF;" d="M296.822,54.557l-17.805,14.115c0.611,1.332,1.436,2.518,2.413,3.513l17.502-13.871
					C298.432,56.916,297.711,55.65,296.822,54.557z"/>
				<path style="opacity:0.5;fill:#FFFFFF;" d="M299.733,62.954c0-0.221-0.018-0.437-0.029-0.654l-15.245,12.085
					c0.766,0.37,1.578,0.632,2.421,0.797l12.673-10.045C299.666,64.427,299.733,63.7,299.733,62.954z"/>
			</g>
			<g>
				<path style="opacity:0.5;fill:#FFFFFF;" d="M324.438,56.44L309.745,66.6c-0.114,0.668-0.187,1.349-0.187,2.047
					c0,0.306,0.023,0.606,0.046,0.907l17.689-12.231C326.391,56.922,325.436,56.623,324.438,56.44z"/>
				<path style="opacity:0.5;fill:#FFFFFF;" d="M331.393,60.251l-20.41,14.114c0.702,1.332,1.646,2.518,2.768,3.513l20.06-13.871
					C333.238,62.609,332.412,61.342,331.393,60.251z"/>
				<path style="opacity:0.5;fill:#FFFFFF;" d="M334.729,68.647c0-0.221-0.021-0.437-0.033-0.654l-17.477,12.085
					c0.878,0.37,1.81,0.632,2.777,0.797l14.526-10.045C334.651,70.12,334.729,69.393,334.729,68.647z"/>
			</g>
		</g>
	</g>
	<g>
		<path style="fill:#F4D9BF;" d="M25.552,160.543l-1.526,4.408c0,0,3.378,1.441,5.589,4.761c2.212,3.317,4.7,5.667,4.354,6.842
			c-0.346,1.174-3.318,0.69-6.774-2.972c-1.037-0.83-2.558,2.281-4.078,7.879c-1.52,5.598-3.801,5.114-3.525,0.621
			c0.277-4.49,1.244-8.294,1.244-8.294c0-0.898-1.037,0.484-1.659,1.522c-0.622,1.036-3.94,9.261-5.46,8.847
			c-1.521-0.416,1.106-7.328,2.143-10.507c0.553-1.382-1.452,1.52-2.696,2.973c-1.244,1.45-3.11,5.184-4.354,4.63
			c-1.245-0.554,0.898-4.354,3.87-9.191c1.174-1.52-0.761-0.691-4.355,1.798c-3.594,2.487-3.525,2.419-3.939,1.657
			c-0.415-0.76,1.244-2.902,4.216-5.46c2.972-2.556,4.7-3.248,5.736-5.183c1.037-1.936,3.871-4.148,3.871-4.148l1.244-2.97
			L25.552,160.543z"/>
		<path style="fill:#E3BB94;" d="M24.554,163.425l0.998-2.882l-6.098-2.787l-1.244,2.97c0,0-0.198,0.156-0.505,0.416
			C19.968,161.961,22.256,162.704,24.554,163.425z"/>
		<g>
			<path style="fill:#FFFACE;" d="M58.619,281.79c-0.041,0.228-0.076,0.438-0.096,0.608c-0.25,2.173,8.112,5.853,16.058,8.027
				c7.143,1.955,16.176,2.624,18.291,0.551C74.015,290.489,62.832,284.608,58.619,281.79z"/>
			<g>
				<path style="fill:#5BB354;" d="M88.462,282.313c-0.974-0.791-2.218-1.734-3.544-2.711c-7.283-1.23-9.32,6.097-9.839,9.048
					c4.909,1.225,10.823,2.146,17.793,2.326c0.237-0.233,0.391-0.499,0.441-0.802C93.815,287.164,92.478,285.575,88.462,282.313z"/>
				<path style="fill:#5BB354;" d="M84.918,279.603c-4.142-3.046-9.083-6.404-9.083-6.404l-14.886-0.334c0,0-1.844,6.245-2.33,8.926
					c2.655,1.775,8.088,4.769,16.46,6.86C75.598,285.699,77.635,278.373,84.918,279.603z"/>
			</g>
			<g>
				<path style="fill:#DEDBC3;" d="M88.462,282.313c-0.974-0.791-2.218-1.734-3.544-2.711c-7.283-1.23-9.32,6.097-9.839,9.048
					c4.909,1.225,10.823,2.146,17.793,2.326c0.237-0.233,0.391-0.499,0.441-0.802C93.815,287.164,92.478,285.575,88.462,282.313z"/>
				<path style="fill:#FDCB6A;" d="M74.413,280.977c2.896-2.375,5.708-3.385,7.166-3.782c-0.672-0.477-1.325-0.936-1.936-1.364
					C72.752,276.954,70.426,284.244,74.413,280.977z"/>
				<path style="fill:#FDCB6A;" d="M71.235,278.801c2.789-2.263,5.444-3.399,7.03-3.931c-0.886-0.614-1.59-1.1-2.008-1.385
					C69.505,276.584,68.316,281.182,71.235,278.801z"/>
			</g>
		</g>
		<path style="fill:#FFFACE;" d="M121.629,278.733c0.003,0.051,0.006,0.104,0.01,0.151c0.214,2.682,4.183,2.788,11.903,3.539
			c16.515,0.107,32.173-4.29,31.744-6.005c-0.136-0.544-0.273-1.195-0.723-1.91C146.993,282.975,127.427,279.927,121.629,278.733z"
			/>
		<path style="fill:#5BB354;" d="M148.352,268.182c-8.623-1.737-16.847-2.81-16.847-2.81l-9.115,2.251c0,0-0.932,8.277-0.761,11.11
			c3.73,0.767,13.163,2.299,24.094,1.042C144.977,273.638,146.941,269.954,148.352,268.182z"/>
		<path style="fill:#DEDBC3;" d="M154.133,269.446c-1.888-0.452-3.845-0.874-5.781-1.265c-1.412,1.772-3.376,5.456-2.628,11.594
			c6.059-0.697,12.575-2.248,18.84-5.267C163.595,272.967,161.167,271.132,154.133,269.446z"/>
		<g>
			<path style="fill:#FDCB6A;" d="M135.724,271.163c0.789-1.93,1.9-3.695,2.642-4.773c-0.756-0.121-1.466-0.233-2.126-0.334
				C132.35,273.021,134.511,274.129,135.724,271.163z"/>
			<path style="fill:#FDCB6A;" d="M140.585,272.379c0.768-2.564,1.765-4.252,2.444-5.201c-0.789-0.14-1.563-0.275-2.306-0.4
				C136.816,273.194,139.367,276.438,140.585,272.379z"/>
		</g>
		<path style="fill:#0093B0;" d="M49.085,164.682c0,0-5.722,11.443,13.644,58.757c-2.861,2.641-0.22,5.062-0.22,5.062
			s-5.063,25.087-1.541,40.712c13.644,1.099,13.644,1.099,13.644,1.099s6.601-40.27,4.841-79.001
			c9.243,1.101,30.589,25.308,41.812,73.061c8.362-1.54,12.543-4.401,12.543-4.401s-5.501-62.276-30.809-87.804
			c-0.66-4.843-0.881-5.722-0.881-5.722S75.052,177.665,49.085,164.682z"/>
		<g style="opacity:0.5;">
			<path style="fill:#0093B0;" d="M93.256,187.871c0,0-6.512,3.088-12.548,3.722c9.798,2.942,29.812,27.063,40.557,72.777
				c1.962-0.361,3.685-0.796,5.186-1.249c-2.549-12.314-11.66-47.137-36.913-72.39L93.256,187.871z"/>
			<path style="fill:#0093B0;" d="M69.52,222.762c-11.44-26.883-10.582-48.616-10.582-48.616
				c23.508,6.432,38.409,0.139,43.919-3.014c-0.549-3.931-0.738-4.689-0.738-4.689s-27.067,11.222-53.034-1.762
				c0,0-5.722,11.443,13.644,58.757c-2.861,2.641-0.22,5.062-0.22,5.062s-5.063,25.087-1.541,40.712
				c2.452,0.197,4.456,0.359,6.106,0.491C66.266,259.975,65.547,241.236,69.52,222.762z"/>
		</g>
		<g>
			<path style="fill:#5BB354;" d="M57.714,168.139c-2.865-0.892-5.753-2.018-8.629-3.457c0,0-1.841,3.69,0.105,15.532
				C55.572,178.123,57.266,171.386,57.714,168.139z"/>
		</g>
		<g>
			<path style="fill:#E3BB94;" d="M76.334,107.901c3.475,0,4.192-5.713,4.33-8.739c-2.454,0.01-4.867,0.142-7.224,0.447
				c0,0-0.471,0.028-1.333,0.17C72.208,102.592,72.858,107.901,76.334,107.901z"/>
			<path style="fill:#FDCB6A;" d="M121.853,107.083c-14.396-4.318-28.403-7.973-41.19-7.921c-0.137,3.026-0.854,8.739-4.33,8.739
				c-3.476,0-4.126-5.309-4.227-8.122c-6.356,1.044-34.247,8.31-55.779,56.85l10.51,5.576c0,0,12.226-27.024,30.457-37.749
				c-7.936,19.946-15.228,39.467-15.228,39.467s33.03,18.016,61.127,3.645c1.502-19.303-2.145-46.972-2.145-46.972
				s29.599,8.794,56.195,0.429c0.429-8.579,1.073-12.226,1.073-12.226S139.012,112.231,121.853,107.083z"/>
		</g>
		<g>
			<path style="fill:#FE9C27;" d="M97.479,111.882c0,0,0.41,0.449,0.895,1.201c0.252,0.371,0.511,0.822,0.778,1.313
				c0.27,0.488,0.508,1.034,0.759,1.573c0.212,0.558,0.438,1.109,0.599,1.646c0.156,0.54,0.29,1.045,0.377,1.487
				c0.144,0.894,0.163,1.493,0.163,1.493s-0.3-0.536-0.632-1.346c-0.19-0.4-0.408-0.865-0.615-1.37
				c-0.226-0.5-0.456-1.036-0.68-1.575c-0.463-1.074-0.886-2.168-1.187-3.002C97.636,112.467,97.479,111.882,97.479,111.882z"/>
			<path style="fill:#FE9C27;" d="M57.294,124.456c0,0,0.284-0.341,0.768-0.755c0.48-0.421,1.159-0.918,1.875-1.358
				c0.717-0.434,1.47-0.81,2.064-1.045c0.591-0.242,1.023-0.337,1.023-0.337s-0.283,0.343-0.767,0.757
				c-0.48,0.421-1.16,0.918-1.875,1.357c-0.718,0.435-1.471,0.81-2.066,1.046C57.727,124.36,57.294,124.456,57.294,124.456z"/>
		</g>
		<g>
			<path style="fill:#F4D9BF;" d="M158.179,110.513h4.851c0,0,1.617-4.851,4.478-4.851c2.861,0,5.97,1.368,5.97,1.368
				s16.667-5.349,18.906-2.363c2.239,2.985-15.672,6.717-15.672,6.717s15.05,2.487,15.921,6.095s-16.543-0.373-16.543-0.373
				s0.124,3.606-1.243,3.98c0.374,1.492-1.866,2.612-3.359,2.612c-1.493,1.119-11.568,2.736-10.945-6.096
				c-3.11-0.497-3.11-0.497-3.11-0.497L158.179,110.513z"/>
			<path style="fill:#E3BB94;" d="M161.528,110.513h-3.349l-0.747,6.593c0,0,0.005,0.001,2.171,0.348
				C160.045,115.085,160.652,112.757,161.528,110.513z"/>
			<g>
				<path style="fill:#C39368;" d="M171.382,106.263c0,0,0.235,0.295,0.604,0.841c0.359,0.552,0.889,1.335,1.417,2.338
					c0.267,0.5,0.546,1.049,0.812,1.643c0.275,0.592,0.544,1.229,0.766,1.909c0.231,0.678,0.428,1.398,0.568,2.147
					c0.11,0.755,0.205,1.539,0.119,2.336c-0.083,0.765-0.314,1.666-0.958,2.289c-0.142,0.173-0.364,0.271-0.551,0.395
					c-0.219,0.066-0.433,0.17-0.66,0.165c-0.457,0.059-0.874-0.093-1.246-0.254c-0.723-0.384-1.193-1-1.512-1.604
					c-0.309-0.617-0.466-1.24-0.602-1.775c-0.288-1.089-0.477-2.011-0.633-2.649c-0.068-0.325-0.145-0.561-0.196-0.731
					c-0.052-0.17-0.079-0.261-0.079-0.261s0.042,0.083,0.12,0.239c0.075,0.157,0.211,0.393,0.314,0.703
					c0.222,0.617,0.573,1.489,0.934,2.556c0.184,0.541,0.376,1.095,0.685,1.61c0.319,0.507,0.767,0.97,1.301,1.234
					c0.54,0.236,1.156,0.21,1.551-0.225l0.152-0.157l0.12-0.196c0.092-0.123,0.142-0.281,0.201-0.433
					c0.071-0.147,0.092-0.309,0.129-0.466c0.043-0.147,0.066-0.324,0.077-0.52c0.087-0.695,0.01-1.417-0.082-2.12
					c-0.128-0.702-0.268-1.396-0.47-2.058c-0.197-0.66-0.399-1.301-0.622-1.896c-0.215-0.601-0.446-1.16-0.67-1.672
					c-0.45-1.022-0.83-1.88-1.127-2.464C171.55,106.599,171.382,106.263,171.382,106.263z"/>
				<path style="fill:#C39368;" d="M170.173,115.603c0,0-0.279-0.003-0.766-0.01c-0.484-0.006-1.181,0.016-1.985,0.122
					c-0.402,0.052-0.827,0.15-1.245,0.286c-0.406,0.155-0.787,0.398-0.947,0.73c-0.061,0.073-0.064,0.175-0.083,0.268
					c-0.006,0.023-0.03,0.141-0.023,0.091l0.018,0.199l0.019,0.199l0.063,0.11c0.028,0.071,0.054,0.154,0.134,0.246
					c0.234,0.367,0.653,0.68,1.105,0.929c0.44,0.271,0.939,0.476,1.431,0.666c0.498,0.178,0.996,0.352,1.488,0.488
					c0.984,0.28,1.924,0.487,2.734,0.66c0.813,0.154,1.494,0.297,1.975,0.367c0.48,0.075,0.757,0.131,0.757,0.131
					s-1.117,0.1-2.798-0.01c-0.839-0.065-1.817-0.185-2.854-0.416c-0.516-0.12-1.052-0.252-1.583-0.441
					c-0.53-0.195-1.069-0.402-1.581-0.704c-0.507-0.298-1.016-0.663-1.371-1.224c-0.097-0.121-0.173-0.29-0.227-0.479l-0.078-0.271
					l-0.008-0.202l-0.008-0.201c-0.001-0.183,0.032-0.192,0.048-0.297c0.042-0.165,0.076-0.329,0.178-0.468
					c0.343-0.599,0.938-0.84,1.42-0.982c0.501-0.122,0.973-0.165,1.401-0.165c0.859-0.013,1.553,0.121,2.036,0.2
					C169.905,115.52,170.173,115.603,170.173,115.603z"/>
				<path style="fill:#C39368;" d="M166.275,119.099c0,0-0.083,0.12-0.197,0.34c-0.11,0.218-0.26,0.538-0.321,0.91
					c-0.005,0.09-0.01,0.185-0.015,0.282c0.013,0.091,0.028,0.186,0.043,0.282c0.032,0.09,0.08,0.177,0.114,0.268
					c0.046,0.086,0.124,0.164,0.181,0.251c0.137,0.162,0.325,0.308,0.527,0.445c0.218,0.125,0.419,0.273,0.677,0.363
					c0.244,0.105,0.473,0.236,0.735,0.309c0.256,0.079,0.501,0.185,0.744,0.27c0.251,0.066,0.491,0.146,0.72,0.219
					c0.231,0.064,0.442,0.156,0.647,0.207c0.814,0.226,1.358,0.454,1.358,0.454s-0.577,0.059-1.444,0.031
					c-0.433-0.017-0.935-0.096-1.474-0.18c-0.265-0.068-0.544-0.131-0.821-0.218c-0.28-0.067-0.555-0.203-0.833-0.317
					c-0.277-0.108-0.535-0.3-0.792-0.466c-0.133-0.071-0.242-0.2-0.352-0.312c-0.107-0.12-0.228-0.212-0.301-0.362
					c-0.078-0.143-0.175-0.268-0.221-0.418c-0.037-0.155-0.079-0.305-0.097-0.45c0.003-0.148,0.005-0.293,0.02-0.429
					c0.04-0.127,0.077-0.249,0.114-0.367c0.191-0.444,0.469-0.71,0.66-0.881C166.144,119.164,166.275,119.099,166.275,119.099z"/>
			</g>
		</g>
		<g>
			<path style="fill:#B0B6BA;" d="M131.346,47.234c0,0,0.236,0.034,0.676,0.134c0.434,0.115,1.078,0.273,1.86,0.58
				c0.399,0.137,0.831,0.308,1.29,0.523c0.46,0.212,0.977,0.404,1.488,0.688c0.521,0.271,1.075,0.558,1.659,0.861
				c0.561,0.342,1.151,0.702,1.767,1.077c0.626,0.36,1.227,0.813,1.869,1.252c0.63,0.454,1.316,0.88,1.953,1.408
				c1.301,1.02,2.691,2.076,4.003,3.313c0.664,0.609,1.371,1.196,2.027,1.85c0.658,0.653,1.323,1.315,1.994,1.982
				c1.374,1.304,2.611,2.776,3.92,4.182l0.96,1.073l0.908,1.114c0.603,0.742,1.204,1.481,1.799,2.215
				c1.22,1.444,2.297,2.961,3.374,4.401c1.078,1.439,2.112,2.837,3.001,4.226c0.913,1.371,1.776,2.668,2.572,3.864
				c0.822,1.18,1.454,2.34,2.065,3.334c0.6,1.002,1.121,1.875,1.551,2.595c0.85,1.443,1.337,2.268,1.337,2.268
				s-0.537-0.792-1.478-2.18c-0.465-0.696-1.03-1.54-1.679-2.51c-0.662-0.959-1.35-2.081-2.197-3.238
				c-0.831-1.169-1.73-2.435-2.683-3.774c-0.928-1.355-2.008-2.709-3.084-4.14c-1.087-1.422-2.174-2.921-3.401-4.345
				c-0.6-0.722-1.205-1.451-1.812-2.182l-0.913-1.099l-0.962-1.058c-1.286-1.407-2.5-2.884-3.849-4.189
				c-0.659-0.669-1.312-1.332-1.958-1.987c-0.645-0.656-1.338-1.242-1.99-1.853c-1.298-1.229-2.63-2.326-3.889-3.374
				c-0.615-0.543-1.28-0.983-1.89-1.453c-0.622-0.454-1.205-0.922-1.812-1.296c-0.597-0.393-1.169-0.769-1.713-1.127
				c-0.563-0.329-1.096-0.64-1.597-0.933c-0.495-0.308-0.995-0.522-1.44-0.756c-0.446-0.236-0.865-0.427-1.253-0.581
				C132.29,47.433,131.346,47.234,131.346,47.234z"/>
			<path style="fill:#B0B6BA;" d="M141.322,44.849c0,0,0.79,0.445,2.11,1.327c0.654,0.449,1.454,0.989,2.343,1.644
				c0.895,0.65,1.896,1.396,2.947,2.264c1.076,0.835,2.17,1.824,3.364,2.831c1.145,1.06,2.396,2.135,3.583,3.357
				c1.203,1.208,2.449,2.451,3.636,3.79c0.598,0.665,1.225,1.314,1.811,2.004c0.582,0.694,1.167,1.39,1.751,2.086
				c1.187,1.379,2.223,2.877,3.308,4.298c0.548,0.707,1.051,1.439,1.534,2.171c0.49,0.727,0.974,1.446,1.45,2.152
				c0.486,0.7,0.939,1.405,1.339,2.122c0.415,0.707,0.819,1.399,1.214,2.073c0.818,1.33,1.477,2.653,2.095,3.866
				c0.612,1.216,1.214,2.311,1.644,3.33c0.435,1.016,0.814,1.902,1.127,2.632c0.613,1.461,0.964,2.296,0.964,2.296
				s-0.406-0.81-1.116-2.228c-0.35-0.71-0.774-1.572-1.261-2.561c-0.484-0.989-1.143-2.047-1.783-3.241
				c-0.654-1.186-1.351-2.478-2.208-3.774c-0.414-0.656-0.838-1.33-1.272-2.019c-0.215-0.345-0.432-0.695-0.651-1.047
				c-0.235-0.342-0.473-0.688-0.712-1.037c-0.48-0.696-0.968-1.404-1.462-2.121c-0.487-0.722-0.993-1.442-1.545-2.138
				c-1.092-1.401-2.137-2.873-3.326-4.231c-0.573-0.697-1.145-1.394-1.715-2.088c-0.574-0.691-1.189-1.342-1.776-2.008
				c-1.164-1.342-2.388-2.59-3.568-3.802c-1.178-1.214-2.373-2.332-3.478-3.421c-1.152-1.038-2.21-2.058-3.254-2.923
				C144.329,46.886,141.322,44.849,141.322,44.849z"/>
			<path style="fill:#B0B6BA;" d="M137.202,140.924c0,0,0.465,0.243,1.301,0.611c0.424,0.171,0.927,0.403,1.529,0.611
				c0.593,0.225,1.275,0.445,2.016,0.688c0.741,0.241,1.558,0.46,2.421,0.68c0.873,0.191,1.785,0.414,2.746,0.567
				c0.479,0.08,0.962,0.186,1.458,0.248c0.497,0.061,0.999,0.122,1.505,0.184c1.008,0.157,2.048,0.159,3.08,0.247
				c1.034,0.048,2.071,0.03,3.091,0.049c1.02-0.05,2.023-0.1,2.995-0.148c0.968-0.104,1.904-0.204,2.792-0.299
				c0.892-0.08,1.715-0.283,2.487-0.403c0.767-0.148,1.483-0.23,2.097-0.396c0.62-0.145,1.16-0.271,1.605-0.375
				c0.896-0.2,1.408-0.313,1.408-0.313s-0.495,0.172-1.361,0.471c-0.435,0.146-0.964,0.323-1.572,0.525
				c-0.602,0.227-1.309,0.377-2.077,0.56c-0.771,0.164-1.594,0.416-2.49,0.548c-0.893,0.142-1.836,0.309-2.817,0.434
				c-0.986,0.07-2.006,0.166-3.044,0.224c-1.039-0.009-2.097,0.021-3.153-0.02c-1.052-0.101-2.113-0.111-3.141-0.282
				c-1.033-0.13-2.043-0.293-3.01-0.515c-0.975-0.173-1.891-0.464-2.764-0.706c-0.865-0.272-1.679-0.541-2.417-0.826
				c-0.74-0.279-1.404-0.566-1.98-0.85c-0.584-0.263-1.071-0.545-1.479-0.755C137.628,141.23,137.202,140.924,137.202,140.924z"/>
			<path style="fill:#B0B6BA;" d="M139.588,149.165c0,0,0.499,0.239,1.4,0.577c0.458,0.152,1.002,0.362,1.651,0.531
				c0.64,0.198,1.378,0.352,2.176,0.545c0.807,0.15,1.678,0.335,2.613,0.432c0.467,0.05,0.946,0.101,1.436,0.155
				c0.492,0.024,0.995,0.05,1.506,0.077c1.021,0.09,2.08-0.002,3.152,0.003c1.072-0.054,2.16-0.163,3.244-0.276
				c1.075-0.189,2.163-0.308,3.212-0.544c1.041-0.268,2.087-0.454,3.071-0.743c0.982-0.3,1.932-0.59,2.833-0.864
				c0.888-0.313,1.712-0.657,2.484-0.948c0.77-0.294,1.479-0.559,2.081-0.856c0.611-0.279,1.143-0.523,1.581-0.724
				c0.885-0.393,1.39-0.617,1.39-0.617s-0.477,0.277-1.313,0.765c-0.421,0.24-0.934,0.53-1.52,0.863
				c-0.296,0.162-0.601,0.357-0.943,0.521c-0.345,0.157-0.708,0.322-1.087,0.493c-0.761,0.335-1.576,0.727-2.459,1.091
				c-0.901,0.318-1.852,0.654-2.835,1.002c-0.994,0.314-2.049,0.557-3.112,0.828c-1.067,0.251-2.179,0.386-3.277,0.584
				c-1.11,0.107-2.224,0.21-3.321,0.255c-1.1-0.009-2.183,0.035-3.225-0.079c-0.522-0.046-1.037-0.069-1.535-0.133
				c-0.497-0.081-0.984-0.159-1.456-0.236c-0.947-0.148-1.825-0.382-2.635-0.58c-0.804-0.229-1.535-0.454-2.163-0.711
				c-0.638-0.226-1.17-0.487-1.615-0.678C140.049,149.471,139.588,149.165,139.588,149.165z"/>
		</g>
		<polygon style="fill:#006AB0;" points="59.025,269.017 78.093,270.604 77.423,274.368 59.944,273.364 		"/>
		<polygon style="fill:#006AB0;" points="119.626,264.504 135.403,259.623 136.542,265.398 120.845,268.407 		"/>
		<path style="fill:#0093B0;" d="M73.188,189.665c0-0.001,0.197,0.091,0.541,0.205c0.166,0.07,0.379,0.127,0.626,0.189
			c0.247,0.055,0.51,0.152,0.819,0.198c0.305,0.056,0.633,0.114,0.976,0.189c0.345,0.064,0.722,0.077,1.1,0.136
			c0.381,0.043,0.77,0.113,1.176,0.115c0.403,0.019,0.814,0.039,1.223,0.058l0.614,0.044l0.612-0.016
			c0.405-0.016,0.805-0.005,1.192-0.01c0.387-0.013,0.764,0.023,1.119-0.004c0.354-0.028,0.692-0.045,1.003-0.058
			c0.623-0.034,1.15-0.025,1.519-0.037c0.369-0.002,0.583,0.008,0.583,0.008s-0.201,0.064-0.557,0.158
			c-0.358,0.084-0.867,0.23-1.487,0.359c-0.31,0.068-0.646,0.142-1.004,0.208c-0.357,0.071-0.742,0.085-1.137,0.118
			c-0.396,0.027-0.806,0.069-1.224,0.086l-0.63,0.029l-0.637-0.029c-0.424-0.03-0.85-0.062-1.268-0.091
			c-0.419-0.007-0.824-0.128-1.218-0.195c-0.393-0.082-0.772-0.15-1.124-0.257c-0.351-0.115-0.678-0.234-0.978-0.345
			c-0.306-0.091-0.561-0.258-0.793-0.371c-0.231-0.118-0.43-0.226-0.584-0.337C73.336,189.814,73.188,189.665,73.188,189.665z"/>
		<g style="opacity:0.5;">
			<path style="fill:#FECB27;" d="M75.166,110.143c4.309,1.588,7.031-1.588,7.485-7.711c7.031,0.144,11.242-0.983,13.39-1.831
				c-5.276-0.916-10.42-1.458-15.378-1.438c-0.137,3.026-0.854,8.739-4.33,8.739c-3.476,0-4.126-5.309-4.227-8.122
				c-0.655,0.107-1.54,0.283-2.622,0.56C70.255,103.393,72.064,109,75.166,110.143z"/>
			<path style="fill:#FECB27;" d="M64.961,118.761c-24.459,6.509-39.309,33.943-42.764,40.982l4.641,2.463
				c0,0,12.226-27.024,30.457-37.749c-7.936,19.946-15.228,39.467-15.228,39.467s8.737,4.753,21.035,7.428
				C57.311,150.368,60.618,126.063,64.961,118.761z"/>
			<path style="fill:#FECB27;" d="M97.479,111.882c1.532,3.318,2.997,6.31,4.324,8.924c4.771,1.288,31.339,7.8,55.44,0.219
				c0.087-1.741,0.183-3.269,0.281-4.615C150.503,118.604,123.678,125.464,97.479,111.882z"/>
		</g>
		<g>
			<g>
				<path style="fill:#925F2D;" d="M118.795,21.856c3.561,0.418,9.846,2.305,9.846,2.305s-5.027-10.055-15.502-9.008
					C69.986-7.68,43.802,14.315,37.936,27.513C36.051,24.58,36.26,20.6,36.26,20.6s-2.933,2.723-2.095,8.588
					c-4.091,0.194-6.006,2.741-6.255,3.098c0.141-0.155,0.963-0.613,5.626,0.463c-15.083,7.542-15.292,20.529-15.292,20.529
					s2.514-4.189,5.656-5.238c-6.913,8.17,11.103,32.47,11.103,32.47s-1.047-2.933,1.047-6.913
					c-0.838,12.359,13.407,21.158,22.624,20.738c-3.683-2.785-6.387-9.352-6.772-15.338c-2.705,1.932-9.077-0.965-7.533-7.146
					c1.545-6.18,6.76-8.691,9.657-0.966c2.317-10.622,7.338-19.699,7.338-19.699l-0.193,8.884c0,0,10.042-6.565,14.292-19.119
					c-1.352,7.146-1.352,7.146-1.352,7.146s4.442-2.318,10.043-9.85c0,5.987,0,7.339,0,7.339S98.445,39.6,103.08,32.068
					c-3.862,6.953-3.862,7.726-3.862,8.304c0,0.58,12.167-3.282,16.415-10.042c0.401,0.721,0.936,1.685,1.53,2.758l10.012,5.108
					C126.337,25.627,118.795,21.856,118.795,21.856z"/>
				<path style="fill:#F4D9BF;" d="M99.218,40.372c0-0.579,0-1.351,3.862-8.304C98.445,39.6,84.154,45.587,84.154,45.587
					s0-1.352,0-7.339c-5.601,7.532-10.043,9.85-10.043,9.85s0,0,1.352-7.146c-4.249,12.554-14.292,19.119-14.292,19.119l0.193-8.884
					c0,0-5.021,9.077-7.338,19.699c-2.897-7.725-8.111-5.214-9.657,0.966c-1.545,6.18,4.828,9.077,7.533,7.146
					c0.385,5.987,3.089,12.553,6.772,15.338c15.503,9.008,32.47,8.799,45.039,0.42c12.568-8.38,15.71-16.549,14.455-23.043
					c-1.257-6.495-2.095-9.008-0.21-17.387c2.933-14.664-1.048-21.367-1.048-21.367l0.252,0.129
					c-0.594-1.073-1.128-2.037-1.53-2.758C111.384,37.09,99.218,40.952,99.218,40.372z"/>
			</g>
			<g>
				<path style="fill:#461A00;" d="M89.546,68.213c0.016,1.725,0.637,3.118,1.394,3.112c0.756-0.003,1.359-1.406,1.346-3.132
					c-0.014-1.725-0.637-3.12-1.391-3.114C90.135,65.086,89.533,66.487,89.546,68.213z"/>
				<path style="fill:#FFFFFF;" d="M91.105,66.896c0.045,0.516,0.267,0.923,0.497,0.904c0.228-0.022,0.376-0.46,0.329-0.981
					c-0.047-0.52-0.271-0.925-0.501-0.904C91.207,65.935,91.058,66.373,91.105,66.896z"/>
			</g>
			<g>
				<path style="fill:#461A00;" d="M112.56,67.646c0.015,1.725,0.637,3.118,1.394,3.112c0.757-0.004,1.359-1.407,1.346-3.132
					c-0.013-1.725-0.636-3.12-1.391-3.114C113.148,64.519,112.546,65.92,112.56,67.646z"/>
				<path style="fill:#FFFFFF;" d="M114.119,66.329c0.046,0.517,0.267,0.923,0.498,0.904c0.228-0.021,0.376-0.46,0.329-0.981
					c-0.047-0.52-0.271-0.925-0.501-0.904C114.22,65.367,114.072,65.807,114.119,66.329z"/>
			</g>
			<g>
				<g>
					<path style="fill:#925F2D;" d="M83.437,60.053c0,0,0.038-0.282,0.144-0.769c0.114-0.484,0.271-1.181,0.549-1.992
						c0.275-0.812,0.646-1.749,1.198-2.694c0.285-0.466,0.587-0.955,1.008-1.383c0.392-0.443,0.915-0.832,1.534-1.066l0.494-0.115
						l0.061-0.013l0.008-0.002l0.058-0.002l0.013,0l0.026,0.001l0.105,0.003l0.211,0.007l0.21,0.006l0.253,0.057
						c0.165,0.043,0.343,0.078,0.492,0.136c0.577,0.24,1.071,0.583,1.477,0.962c0.829,0.751,1.405,1.593,1.848,2.33
						c0.87,1.489,1.213,2.58,1.213,2.58s-0.155-0.237-0.428-0.651c-0.266-0.415-0.681-0.988-1.192-1.65
						c-0.517-0.654-1.148-1.403-1.931-2.034c-0.382-0.33-0.829-0.57-1.277-0.761c-0.377-0.126-0.975-0.212-1.37-0.041
						c-0.433,0.16-0.86,0.44-1.209,0.826c-0.363,0.361-0.681,0.786-0.966,1.21c-0.568,0.853-1.013,1.725-1.382,2.479
						c-0.361,0.758-0.663,1.398-0.845,1.857C83.547,59.792,83.437,60.053,83.437,60.053z"/>
					<path style="fill:#925F2D;" d="M108.637,56.762c0,0,0.109-0.802,0.571-1.923c0.116-0.28,0.247-0.583,0.421-0.889
						c0.167-0.309,0.359-0.631,0.606-0.939c0.24-0.312,0.533-0.618,0.894-0.878c0.38-0.233,0.837-0.449,1.355-0.423l0.094-0.002
						h0.006l0.056,0.009l0.009,0.002l0.018,0.004l0.036,0.009l0.145,0.034c0.1,0.026,0.18,0.028,0.312,0.094
						c0.249,0.102,0.473,0.229,0.635,0.37c0.367,0.269,0.609,0.618,0.838,0.942c0.425,0.668,0.676,1.342,0.847,1.924
						c0.341,1.167,0.357,1.976,0.357,1.976s-0.3-0.748-0.816-1.796c-0.265-0.519-0.586-1.116-1.006-1.669
						c-0.214-0.268-0.454-0.527-0.719-0.716c-0.136-0.114-0.262-0.166-0.374-0.222c-0.04-0.038-0.163-0.05-0.253-0.072l-0.145-0.029
						l-0.036-0.008l-0.018-0.003l-0.01-0.001c0.022,0.002-0.054-0.009,0.048,0.006l-0.003,0l-0.054,0.005
						c-0.287-0.028-0.581,0.099-0.864,0.257c-0.271,0.195-0.546,0.41-0.774,0.674c-0.469,0.514-0.85,1.077-1.167,1.567
						C109.02,56.054,108.637,56.762,108.637,56.762z"/>
				</g>
				<g>
					<path style="fill:#C39368;" d="M106.041,73.616c0,0,0.092,0.211,0.12,0.501c0.036,0.29,0.011,0.659-0.079,1.009
						c-0.096,0.35-0.258,0.681-0.433,0.916c-0.169,0.236-0.355,0.374-0.355,0.374s-0.093-0.212-0.122-0.501
						c-0.035-0.291-0.01-0.659,0.08-1.009c0.096-0.349,0.259-0.681,0.434-0.915C105.856,73.753,106.041,73.616,106.041,73.616z"/>
					<path style="fill:#C39368;" d="M104.27,75.948c0,0,0.906-0.166,2.295-0.03c0.345,0.04,0.722,0.098,1.113,0.202
						c0.391,0.108,0.809,0.233,1.211,0.459c0.412,0.199,0.806,0.514,1.143,0.899c0.293,0.418,0.555,0.928,0.58,1.443
						c0.047,0.188-0.003,0.557-0.044,0.82c-0.085,0.261-0.168,0.522-0.325,0.737c-0.278,0.455-0.687,0.769-1.088,0.996
						c-0.398,0.247-0.823,0.373-1.218,0.484c-0.398,0.103-0.783,0.145-1.136,0.166c-0.354,0.014-0.677-0.007-0.961-0.05
						c-0.283-0.051-0.525-0.095-0.718-0.169c-0.39-0.123-0.569-0.285-0.574-0.268c0,0,0.056,0.012,0.16,0.035
						c0.103,0.028,0.255,0.054,0.449,0.071c0.191,0.03,0.43,0.021,0.697,0.012c0.269-0.019,0.566-0.065,0.888-0.12
						c0.32-0.072,0.66-0.164,1.006-0.29c0.339-0.137,0.694-0.294,1.007-0.513c0.324-0.206,0.599-0.484,0.784-0.792
						c0.108-0.148,0.148-0.323,0.206-0.49c0.016-0.083,0.011-0.158,0.023-0.236c0.021-0.065,0.014-0.171-0.008-0.29
						c-0.008-0.403-0.19-0.723-0.384-1.04c-0.25-0.28-0.516-0.564-0.863-0.753c-0.664-0.412-1.403-0.655-2.042-0.833
						c-0.644-0.17-1.196-0.293-1.586-0.352C104.494,75.985,104.27,75.948,104.27,75.948z"/>
				</g>
			</g>
			<path style="fill:#C39368;" d="M92.554,92.672c0,0.001,0.509-0.013,1.244,0.021c0.367,0.023,0.794,0.036,1.246,0.081
				c0.226,0.026,0.461,0.022,0.697,0.051c0.236,0.021,0.476,0.052,0.716,0.066c0.239,0.02,0.479,0.041,0.714,0.061
				c0.236,0.014,0.468,0.064,0.692,0.068c0.225,0.009,0.442,0.034,0.649,0.055c0.207,0.014,0.404,0.059,0.585,0.062
				c0.722,0.035,1.233,0.133,1.233,0.133s-0.465,0.188-1.207,0.359c-0.37,0.078-0.806,0.109-1.276,0.146
				c-0.47,0.036-0.967-0.014-1.467-0.031c-0.993-0.102-1.969-0.316-2.675-0.57C92.993,92.938,92.554,92.672,92.554,92.672z"/>
			<g>
				<path style="fill:#ED6C73;" d="M79.995,91.144c0.122,2.685,1.489,4.453,3.736,5.342c0.665,0.264,1.343,0.371,2.017,0.361
					C85.216,92.598,81.903,91.452,79.995,91.144z"/>
				<path style="fill:#F6B9C6;" d="M92.854,92.747c0,0-7.328-1.72-11.664-7.402c-0.895,2.265-1.266,4.195-1.194,5.799
					c1.908,0.308,5.221,1.455,5.753,5.703C88.707,96.802,91.575,94.452,92.854,92.747z"/>
			</g>
			<path style="fill:#F9CBC0;" d="M86.854,74.03c-0.125,1.082-2.343,1.718-4.948,1.418c-2.609-0.301-4.621-1.423-4.495-2.506
				c0.126-1.085,2.339-1.72,4.95-1.42C84.963,71.822,86.978,72.944,86.854,74.03z"/>
			<path style="fill:#F9CBC0;" d="M119.279,72.388c0.098,0.625-1.044,1.325-2.547,1.561c-1.505,0.235-2.804-0.079-2.902-0.705
				c-0.098-0.626,1.041-1.324,2.547-1.562C117.88,71.447,119.18,71.762,119.279,72.388z"/>
			<path style="fill:#C39368;" d="M51.611,76.424c0,0,0.764-3.887-2.151-4.998c-2.919-1.106-3.287,1.745-3.287,1.745
				s1.28-1.931,3.388-0.223C51.673,74.657,51.611,76.424,51.611,76.424z"/>
			<g style="opacity:0.5;">
				<path style="fill:#925F2D;" d="M118.795,21.856c3.4,0.399,9.269,2.133,9.795,2.29c-2.157-1.667-7.068-4.843-13.385-5
					c0,0,8.15,9.223,9.651,14.584c-5.577-6.435-10.51-8.794-10.51-8.794s-3.646,6.649-9.008,10.51
					c2.574-5.576,1.716-10.724,1.716-10.724S96.759,36.518,89.466,39.735c3.217-9.223,1.501-12.869,1.501-12.869
					s-6.863,10.081-12.011,13.727c0.858-7.936-0.643-10.938-0.643-10.938s-6.435,18.874-12.869,22.521
					c1.501-9.223,0-12.441,0-12.441s-9.866,13.298-12.226,22.307c-2.574-6.22-2.574-10.724-2.574-10.724s-1.287,7.292-1.072,10.295
					c-5.791,1.287-8.15,7.507-7.936,13.512c-3.861-4.933-3.861-13.083-3.861-13.083l-3.217,10.081c0,0-7.397-3.912-10.707-11.618
					c3.372,9.513,11.151,20.006,11.151,20.006s-1.047-2.933,1.047-6.913c-0.838,12.359,13.407,21.158,22.624,20.738
					c-3.683-2.785-6.387-9.352-6.772-15.338c-2.705,1.932-9.077-0.965-7.533-7.146c1.545-6.18,6.76-8.691,9.657-0.966
					c2.317-10.622,7.338-19.699,7.338-19.699l-0.193,8.884c0,0,10.042-6.565,14.292-19.119c-1.352,7.146-1.352,7.146-1.352,7.146
					s4.442-2.318,10.043-9.85c0,5.987,0,7.339,0,7.339S98.445,39.6,103.08,32.068c-3.862,6.953-3.862,7.726-3.862,8.304
					c0,0.58,12.167-3.282,16.415-10.042c0.401,0.721,0.936,1.685,1.53,2.758l10.012,5.108
					C126.337,25.627,118.795,21.856,118.795,21.856z"/>
			</g>
		</g>
		<path style="fill:#0093B0;" d="M103.092,136.556c-0.516-6.579-1.114-11.887-1.425-14.465l-0.054-0.445l-0.442,0.073
			c-2.2,0.365-7.743,1.235-11.673,1.427l-0.46,0.022l0.056,0.457c1.209,9.917,0.757,12.4,0.753,12.421l-0.07,0.334l9.148,4.244
			l0.211-0.189c0,0,1.625-1.462,3.824-3.534l0.15-0.141L103.092,136.556z"/>
	</g>
</g>
</svg>
