<?xml version="1.0" encoding="utf-8"?>
<!-- Generator: Adobe Illustrator 27.5.0, SVG Export Plug-In . SVG Version: 6.00 Build 0)  -->
<svg version="1.1" id="Layer_1" xmlns="http://www.w3.org/2000/svg" xmlns:xlink="http://www.w3.org/1999/xlink" x="0px" y="0px"
	 viewBox="0 0 400 400" style="enable-background:new 0 0 400 400;" xml:space="preserve">
<rect x="0" y="0" style="fill:transparent;" width="400" height="400"/>
<g>
	<path style="fill:#559331;" d="M31.027,367.601c-1.183,2.748-4.018,7.047-6.981,8.08c-5.636,1.966-5.189-3.97-5.404-8.118
		c-0.688-13.24-0.503-26.308-2.321-39.497c0.643,1.063,1.236,2.149,1.785,3.256c3.837,7.733,5.32,16.183,7.108,24.542
		c3.43-13.36,3.201-26.476,3.444-40.236c0.044-2.5,0.093-5.035,0.79-7.436c-0.101,0.35,2.678,6.357,2.886,7.562
		c0.672,3.887,0.971,7.886,1.193,11.821c0.412,7.302-0.213,14.408-0.542,21.681C32.704,355.474,33.61,361.603,31.027,367.601z"/>
	<g>
		<path style="fill:#757487;" d="M66.509,207.2c3.89-4.836,2.429-5.786,1.634-11.498c-0.291-2.086-0.04-4.3,0.073-6.435
			c0.059-1.105,0.225-2.303,1.016-3.077c1.042-1.02,3.111-1.347,3.099-2.806c-0.004-0.457-0.247-0.872-0.411-1.299
			c-0.658-1.714,0.002-3.713,1.201-5.103c1.822-2.112,3.85-2.306,6.218-3.248c3.048-1.213,5.949-3.162,8.863-4.675
			c4.257-2.211,4.167-4.099,3.16-8.898c-1.944-9.266-5.999-17.851-10.79-25.962c-0.963-1.63-1.996-3.422-1.705-5.292
			c0.196-1.258,0.972-2.342,1.776-3.331c7.225-8.879,20.649-11.547,30.88-15.917c1.527-0.652,3.074-1.31,4.715-1.565
			c2.078-0.323,4.195,0.017,6.279,0.296c17.903,2.396,43.875,1.784,59.15-8.959c6.913-4.862,14.867-11.124,17.766-19.405
			c2.753-7.864,1.053-12.4,7.849-18.553c5.96-5.396,13.338-7.846,20.14-11.725c20.264-11.556,43.352-21.322,65.722-28.106
			c15.261-4.628,31.128-4.304,46.603-0.958c13.136,2.84,32.521,6.477,44.041,13.439c3.479,2.102,6.289,5.79,6.189,9.853
			c-0.125,5.062-4.49,9.013-5.762,13.914c-0.752,2.895-0.379,5.944-0.387,8.935c-0.025,9.473-3.892,18.492-8.212,26.923
			c-16.126,31.476-37.652,59.319-51.74,92.132c-16.272,37.903-34.956,74.698-52.179,112.166c-4.39,9.549-8.694,19.139-12.833,28.8
			c-2.66,6.209-3.47,15.819-6.676,21.337c-6.829,11.755-36.017,9.522-48.316,13.999c-11.583,4.217-21.79,11.83-33.58,15.98
			c-12.689,4.466-26.707,3.991-40.128,3.776c-30.801-0.493-61.679-4.709-92.435-1.038c-8.397,1.002-19.177,2.923-26.16-3.025
			c3.735-5.497,7.268-10.71,11.79-15.791c13.333-14.98,27.625-29.195,40.121-44.941c4.959-6.249,10.339-12.183,14.844-18.782
			c3.822-5.598,0.472-9.449-4.22-13.318c-6.081-5.015-12.163-10.029-18.244-15.044c-4.991-4.116-10.384-7.877-14.481-12.943
			c-5.317-6.575,0.363-14.225,4.288-19.655c4.674-6.465,9.558-13.127,13.292-20.005C60.781,214.04,64.045,210.264,66.509,207.2z"/>
		<path style="fill:#62627C;" d="M223.441,248.071c15.018-7.851,22.893-24.472,29.749-39.97
			c-4.674,25.309-11.305,53.591-33.26,67.02c-7.47,4.569-16.056,6.905-24.511,9.185c-33.139,8.937-66.748,17.94-101.071,17.949
			c7.973-0.002,25.254-14.565,32.687-18.481c11.658-6.142,23.51-11.918,35.529-17.32c9.759-4.386,19.633-9.448,30.244-11.246
			C203.303,253.429,213.731,253.148,223.441,248.071z"/>
		<path style="fill:#494968;" d="M271.698,298.044c17.223-37.468,35.907-74.263,52.179-112.166
			c14.087-32.814,35.613-60.656,51.74-92.132c4.319-8.431,8.187-17.45,8.212-26.923c0.008-2.991-0.364-6.04,0.387-8.935
			c1.273-4.901,5.638-8.852,5.762-13.914c0.1-4.063-2.71-7.751-6.189-9.853c-0.823-0.498-1.697-0.974-2.596-1.438
			c0.396,2.538,0.825,5.074,0.87,7.637c0.249,14.162-10.807,25.543-17.93,37.786c-5.064,8.703-8.273,18.333-11.632,27.825
			c-24.222,68.459-54.97,141.335-106.569,193.005c-3.743,3.748-7.53,7.531-12.033,10.318c-5.919,3.663-12.79,5.433-19.109,8.353
			c-15.833,7.318-26.985,21.16-37.637,34.458c-9.096,11.356-19.909,20.677-30.863,29.921c8.203-0.239,16.346-1.13,24.004-3.825
			c11.79-4.15,21.997-11.764,33.58-15.98c12.299-4.477,41.487-2.243,48.316-13.999c3.206-5.518,4.015-15.128,6.676-21.337
			C263.004,317.183,267.308,307.594,271.698,298.044z"/>
		<path style="fill:#494968;" d="M204.692,254.357c-7.713,5.085-28.909,3.878-38.369,5.528c-10.496,1.831-20.948,3.918-31.342,6.259
			c-3.541,0.797-7.075,1.624-10.601,2.48c-18.154,4.406-35.822,8.188-53.168,14.031c0.965,0.795,1.929,1.591,2.894,2.386
			c4.692,3.869,8.042,7.72,4.22,13.318c-4.506,6.598-9.885,12.533-14.844,18.782c-11.99,15.11-25.627,28.815-38.491,43.134
			c17.176-8.484,42.739-30.892,48.174-34.875c11.359-8.326,22.782-16.69,35.34-23.064c14.982-7.604,31.29-12.226,46.638-19.063
			C172.632,275.482,188.707,264.895,204.692,254.357z"/>
		<path style="fill:#494968;" d="M264.134,231.684c4.698,6.253,11.938,8.395,21.547,0.38c20.027-16.704,31.499-40.968,42.974-63.717
			c6.592-13.069,12.782-26.34,18.556-39.79c4.99-11.623,8.122-28.842,15.391-38.981c-15.888,22.16-21.473,50.153-35.663,73.436
			c-9.467,15.534-22.496,28.536-35.576,41.197c-4.854,4.698-11.922,10.308-19.223,8.802c-2.725-0.562-14.229-8.294-13.709-10.792
			C256.576,211.121,258.574,224.283,264.134,231.684z"/>
		<path style="fill:#8B8BA3;" d="M113.376,249.626c32.182-9.351,66.127-10.156,99.62-11.315c3.905-0.135,7.923-0.301,11.488-1.899
			c3.535-1.585,6.318-4.441,8.95-7.284c9.084-9.813,17.476-20.267,25.091-31.258c-3.929,7.474-7.858,14.948-11.787,22.422
			c-7.307,13.9-15.966,28.993-30.855,33.983c-6.901,2.313-14.346,2.115-21.622,2.306c-32.611,0.854-64.356,9.937-96.42,15.941
			c-10.008,1.874-22.796,4.887-32.268-0.231c-5.49-2.966-14.142-15.52-20.281-15.37c12.241-0.299,25.644,3.89,37.632,1.44
			C93.277,256.245,103.247,252.569,113.376,249.626z"/>
		<path style="fill:#62627C;" d="M188.244,142.296c11.44-5.594,21.553-8.671,28.949-19.037c1.065-1.493,2.054-3.156,2.126-4.988
			c0.201-5.104-6.526-8.596-6.074-13.683c-7.09,5.667-14.498,10.936-22.179,15.772c-6.186,3.895-12.592,7.53-19.487,9.961
			c-9.178,3.235-18.964,4.253-28.644,5.247c-12.298,1.263-25.221,2.438-36.585-2.431c-6.004-2.573-11.198-6.695-16.896-9.888
			c-1.337-0.75-2.73-1.446-4.159-2.059c-1.727,1.279-3.298,2.724-4.651,4.388c-0.805,0.989-1.58,2.073-1.776,3.331
			c-0.291,1.87,0.742,3.662,1.705,5.292c0.919,1.557,1.8,3.137,2.656,4.731c12.83,5.734,26.757,9.33,39.778,14.81
			c6.091,2.564,7.157,5.673,10.826,10.469c3.484,4.556,7.429,2.971,12.052,0.835C159.533,158.739,174.738,148.901,188.244,142.296z"
			/>
		<path style="fill:#494968;" d="M163.479,150.168c-1.856-0.361-3.995-0.316-5.865-0.394c-3.139-0.13-6.284-0.132-9.425-0.115
			c-6.636,0.035-13.26-0.024-19.895-0.065c-5.528-0.034-11.001,0.145-16.403-0.101c3.746,1.328,7.468,2.71,11.116,4.245
			c6.091,2.564,7.157,5.673,10.826,10.469c3.484,4.556,7.429,2.971,12.052,0.835c7.037-3.25,14.486-7.439,21.904-11.641
			C167.796,150.987,166.664,150.787,163.479,150.168z"/>
		<path style="fill:#07073D;" d="M125.231,258.613c-26.982,4.59-60.632,7.697-85.766-5.348c0.308,1.286,0.918,2.557,1.915,3.789
			c4.097,5.066,9.49,8.828,14.481,12.943c6.081,5.015,12.163,10.029,18.244,15.044c3.462,2.855,6.184,5.703,5.842,9.248
			c5.833-2.147,11.581-4.751,17.138-7.206c38.967-17.214,80.742-28.052,123.162-31.952
			C189.567,246.038,156.778,253.247,125.231,258.613z"/>
		<path style="fill:#3D3D59;" d="M246.269,85.113c-5.197-3.482-11.029-5.882-16.816-8.257c-3.61-1.482-15.512-7.807-25.651-11.344
			c-2.757,4.369-2.249,8.454-4.37,14.513c-1.714,4.897-5.2,9.084-9.189,12.697c5.063-1.097,9.977-2.886,14.54-5.339
			c3.214,15.34,3,31.389-0.622,46.638c20.498-4.428,41.593-6.084,62.531-4.909C268.58,112.215,260.392,94.577,246.269,85.113z"/>
		<path style="fill:#07073D;" d="M227.083,108.67c3.43,3.026,7.436,5.472,11.371,7.854c6.277,3.8,12.554,7.599,18.831,11.399
			c-8.958,1.73-17.961,0.807-26.818,2.403c-8.638,1.556-17.467,1.853-26.122,3.666c0.236-0.049,2.031-2.969,2.44-3.464
			c1.135-1.371,2.392-2.642,3.522-4.021c2.377-2.902,4.549-5.97,6.496-9.176c2.559-4.214,4.747-8.72,5.761-13.545
			C223.884,105.59,225.415,107.198,227.083,108.67z"/>
		<path style="fill:#07073D;" d="M126.393,153.931c-13.246-12.87-28.163-25.457-47.19-26.118c-0.151,0.352-0.276,0.713-0.335,1.094
			c-0.291,1.87,0.742,3.662,1.705,5.292c4.79,8.111,8.845,16.696,10.79,25.962c0.647,3.082,0.908,4.962-0.109,6.499
			c5.522-0.712,11.327-2.217,15.121-2.248c9.845-0.081,20.594,0.738,30.267,2.919c1.126-1.54-0.319-3.608-1.679-4.946
			C132.17,159.637,129.322,156.777,126.393,153.931z"/>
		<g>
			<path style="fill:#07073D;" d="M73.86,209.657c8.396-2.46,16.74-5.041,24.985-7.977c4.119-1.466,8.213-3.001,12.282-4.602
				c2.246-0.884,7.997-4.569,10.269-4.209c-16.515-2.619-33.085-3.257-49.804-4.503c-1.084-0.08-2.209-0.172-3.153-0.71
				c-0.138,0.52-0.195,1.076-0.223,1.611c-0.113,2.134-0.364,4.348-0.073,6.435c0.796,5.712,2.256,6.662-1.633,11.498
				c-2.026,2.519-4.58,5.516-6.441,8.368C66.471,212.663,72.385,210.089,73.86,209.657z"/>
			<path style="fill:#07073D;" d="M115.471,185.343c-3.134-0.451-7.382-4.422-10.694-5.53c-3.405-1.139-7.084-1.812-10.552-2.612
				c-6.136-1.415-12.689-2.166-19.116-1.832c-0.691,0.383-1.353,0.878-1.988,1.614c-1.199,1.39-1.859,3.389-1.201,5.103
				c0.163,0.425,0.404,0.838,0.41,1.292c1.517-0.125,2.926-0.162,3.527-0.205C89.29,182.207,102.203,183.434,115.471,185.343z"/>
		</g>
		<path style="fill:#8B8BA3;" d="M258.764,131.486c10.716-1.296,21.604-2.002,32.864-2.213c-4.667,4.062-10.719,6.084-16.606,7.984
			c-17.472,5.639-35.113,12.035-52.967,16.342c-16.158,3.898-30.922,10.266-46.807,15.718c-11.838,4.063-24.064,5.634-36.269,8.792
			c7.236-7.923,17.417-12.476,26.683-17.482c13.561-7.332,27.809-13.394,42.491-18.094
			C225.123,137.1,241.726,133.547,258.764,131.486z"/>
		<path style="fill:#A6A6BC;" d="M117.294,112.101c2.199-0.115,4.51,0.098,6.986,0.714c13.576,3.377,29.773,1.196,43.435-1.465
			c-1.889,0.356-3.528,1.475-5.198,2.428c-6.866,3.922-16.04,5.595-23.876,5.606c-6.01,0.009-11.956-1.001-17.95-1.107
			c-5.448-0.097-10.324,4.31-15.574,4.31c-2.348,0.792-4.952,1.58-7.237,0.62c-0.261-0.11-0.524-0.249-0.689-0.479
			c-0.492-0.682,0.118-1.601,0.721-2.187C102.605,115.984,110.735,112.445,117.294,112.101z"/>
		<path style="fill:#8B8BA3;" d="M276.362,33.452c3.849-1.223,7.674-2.392,11.425-3.548c8.793-2.708,17.684-5.435,26.865-6.032
			c10.994-0.715,22.122,1.581,32.572,4.848c8.143,2.545,14.075,7.997,22.01,10.956c-28.276-6.018-57.386-5.665-85.366,1.847
			c-17.728,4.759-32.714,9.438-44.538,24.328c-1.019,1.283-2.01,2.64-3.388,3.528c-4.491,2.893-15.163-6.124-17.77-2.94
			C232.577,48.846,254.85,40.29,276.362,33.452z"/>
		<path style="fill:#A6A6BC;" d="M112.349,187.856c0.322-0.487-0.409-0.978-0.978-1.108c-2.408-0.551-18.476-5.546-18.073-0.292
			C93.491,188.97,110.845,190.13,112.349,187.856z"/>
		<path style="fill:#8B8BA3;" d="M121.611,182.456c0.487-1.021,0.119-2.285-0.606-3.153c-0.724-0.869-1.745-1.427-2.741-1.965
			c-5.727-3.091-14.247-5.226-20.73-4.937c-1.063,0.048-2.433,0.499-2.398,1.562c0.023,0.685,0.661,1.167,1.246,1.524
			c6.199,3.794,13.541,3.822,20.063,7.633C118.134,184.107,120.768,184.221,121.611,182.456z"/>
		<path style="fill:#07073D;" d="M289.618,217.052c2.473-1.817,4.723-4.003,6.922-6.156c18.081-17.701,30.848-43.76,41.658-66.565
			c11.627-24.527,23.722-49.738,33.949-74.742c-17.731,24.273-30.482,51.623-45.757,77.406
			c-8.24,13.909-15.063,29.502-24.976,42.272c-6.223,8.017-15.004,14.018-24.734,16.904c-3.234,0.959-6.732,1.576-9.955,0.577
			c-3.994-1.238-7.035-5.089-7.313-9.26c-2.335,2.59-1.703,6.604-0.872,9.993c2.727,11.107,14.066,17.063,25.44,12.728
			C286.013,219.435,287.871,218.336,289.618,217.052z"/>
		<g>
			<path style="fill:#494968;" d="M323.108,102.965c-0.122,0.122-1.553-0.103-1.805-0.095c-0.663,0.021-1.325,0.102-1.973,0.243
				c-1.183,0.258-2.364,0.425-3.554,0.689c-2.729,0.605-5.424,1.363-8.059,2.296c-5.356,1.896-10.421,4.531-15.111,7.733
				c-0.301,0.302,0.399,0.577,0.802,0.441c5.533-1.933,11.109-3.751,16.663-5.623c3.674-1.238,7.255-2.699,10.8-4.317
				C321.671,103.968,322.485,103.585,323.108,102.965z"/>
			<path style="fill:#A6A6BC;" d="M308.913,111.387c4.994-2.091,9.602-5.013,13.961-8.225c-4.947,1.897-9.894,3.794-14.84,5.691
				c-2.425,0.93-4.85,1.86-7.275,2.789c-2.357,0.904-5.149,1.604-7.306,2.862C298.691,114.814,304.118,113.395,308.913,111.387z"/>
		</g>
		<g>
			<path style="fill:#494968;" d="M210.233,219.34c-0.172-0.007-0.983-1.207-1.161-1.386c-0.467-0.471-0.978-0.9-1.523-1.278
				c-0.995-0.69-1.922-1.44-2.927-2.132c-2.302-1.585-4.693-3.041-7.172-4.334c-5.038-2.628-10.417-4.539-15.957-5.789
				c-0.426-0.015-0.151,0.685,0.224,0.888c5.185,2.732,10.315,5.574,15.47,8.363c3.41,1.845,6.919,3.47,10.519,4.962
				C208.52,218.972,209.355,219.307,210.233,219.34z"/>
			<path style="fill:#A6A6BC;" d="M194.396,214.69c4.934,2.23,10.212,3.611,15.533,4.613c-4.759-2.328-9.518-4.656-14.278-6.983
				c-2.333-1.141-4.666-2.282-6.999-3.423c-2.268-1.109-4.682-2.676-7.073-3.396C184.922,209.545,189.659,212.549,194.396,214.69z"
				/>
		</g>
		<g>
			<path style="fill:#494968;" d="M132.707,340.805c-0.113,0.131-1.556,0.016-1.807,0.043c-0.66,0.071-1.313,0.203-1.949,0.394
				c-1.16,0.347-2.325,0.605-3.491,0.959c-2.674,0.812-5.304,1.774-7.86,2.905c-5.196,2.3-10.044,5.314-14.475,8.866
				c-0.277,0.324,0.442,0.545,0.834,0.378c5.369-2.35,10.789-4.59,16.184-6.88c3.569-1.516,7.027-3.246,10.438-5.13
				C131.35,341.915,132.133,341.471,132.707,340.805z"/>
			<path style="fill:#A6A6BC;" d="M119.197,350.287c4.819-2.467,9.191-5.733,13.291-9.268c-4.787,2.27-9.575,4.539-14.362,6.809
				c-2.347,1.112-4.693,2.225-7.04,3.338c-2.281,1.081-5.011,1.992-7.065,3.412C109.267,354.486,114.57,352.656,119.197,350.287z"/>
		</g>
		<g>
			<path style="fill:#494968;" d="M298.797,41.459c-2.164,1.809-3.051,3.594-6.037,3.831c-2.379,0.189-5.206,0.006-7.453-0.87
				c1.581,0.617,3.374,2.274,4.876,3.188c1.612,0.98-2.026,4.414-2.707,5.36c-1.323,1.837-3.253,4.15-3.933,6.331
				c-0.103,0.332,0.506,0.266,0.746,0.015c3.266-3.487,6.607-6.907,9.911-10.357c2.186-2.283,4.221-4.69,6.17-7.199
				c0.44-0.566,0.883-1.15,1.099-1.833c-0.042,0.134-1.161,0.513-1.34,0.614C299.659,40.804,299.212,41.112,298.797,41.459z"/>
			<path style="fill:#A6A6BC;" d="M294.398,51.371c2.817-3.397,5.042-7.249,6.977-11.216c-2.857,3.239-5.713,6.478-8.57,9.717
				c-1.4,1.588-2.801,3.176-4.201,4.764c-1.361,1.543-3.113,3.104-4.196,4.828C288.309,57.709,291.693,54.633,294.398,51.371z"/>
		</g>
		<path style="fill:#62627C;" d="M130.766,219.105c2.51-2.71,7.188-3.989,8.026,0.721c0.846,4.754-4.68,8.44-8.403,5.232
			C128.391,223.331,129.101,220.903,130.766,219.105z"/>
		<path style="fill:#62627C;" d="M217.367,299.769c-2.126-2.386-2.699-6.313,1.636-6.334c4.375-0.022,7.007,4.916,3.667,7.457
			C220.871,302.256,218.777,301.352,217.367,299.769z"/>
		<path style="fill:#62627C;" d="M258.714,76.15c-2.126-2.386-2.699-6.313,1.636-6.334c4.375-0.022,7.008,4.916,3.667,7.457
			C262.218,78.637,260.124,77.733,258.714,76.15z"/>
		<path style="fill:#62627C;" d="M62.141,363.262c-3.578-1.816-5.003-4.395,1.61-3.802c6.674,0.598,11.383,4.109,6.64,5.259
			C67.839,365.336,64.516,364.467,62.141,363.262z"/>
		<path style="fill:#8B8BA3;" d="M69.192,241.475c-3.738,1.458-6.61,0.802-1.762-3.734c4.894-4.578,10.649-5.749,8.346-1.447
			C74.534,238.609,71.673,240.507,69.192,241.475z"/>
		<path style="fill:#8B8BA3;" d="M346.158,79.19c-3.738,1.458-6.61,0.802-1.762-3.734c4.893-4.578,10.649-5.749,8.346-1.447
			C351.5,76.324,348.639,78.223,346.158,79.19z"/>
		<path style="fill:#8B8BA3;" d="M249.524,277.399c-2.95,0.809-5.449-0.155-1.972-3.561c3.51-3.438,8.192-3.725,6.823-0.192
			C253.636,275.546,251.481,276.862,249.524,277.399z"/>
		<g>
			<path style="fill:#A6A6BC;" d="M250.676,175.829c0.381,0.482,0.857,0.992,1.472,1.003c0.431,0.008,0.821-0.238,1.172-0.489
				c4.401-3.156,6.775-8.352,8.959-13.308c-3.036,3.633-5.917,7.902-10.441,9.298c-1.63-1.435-3.265-3.225-5.098-4.356
				C245.885,169.867,249.456,174.286,250.676,175.829z"/>
			<path style="fill:#494968;" d="M250.901,172.907c1.178,1.007,2.726,0.451,3.899-0.255c1.367-0.823,1.967-1.902,3.014-3.024
				c1.209-1.295,2.095-2.819,3.232-4.161c1.62-1.911,3.04-4,4.521-6.024c-2.242,1.318-4.348,2.868-6.275,4.614
				c-1.845,1.671-3.297,4.352-5.216,5.8c-1.549,1.169-3.135,0.364-4.542-0.589c-0.592-0.401-1.213-0.777-1.785-1.223
				c-0.24-0.187-1.683-1.032-1.734-1.225c0.346,1.32,1.136,2.6,2.219,3.444C249.245,171.052,249.92,172.068,250.901,172.907z"/>
		</g>
		<g>
			<path style="fill:#A6A6BC;" d="M133.967,137.836c0.078,0.607,0.223,1.325,0.751,1.967c0.37,0.45,0.837,0.748,1.273,1.001
				c5.474,3.182,10.26,3.366,14.754,3.458c-4.54-1.556-9.279-2.673-13.936-6.755c-0.661-2.32-1.141-4.802-2.137-7.2
				C132.938,130.249,133.718,135.893,133.967,137.836z"/>
			<path style="fill:#494968;" d="M135.695,136.787c0.494,1.665,2.128,3.026,3.516,3.934c1.618,1.058,2.704,1.206,4.201,1.801
				c1.728,0.686,3.296,0.937,4.987,1.529c2.408,0.843,4.736,1.4,7.082,2.049c-2.637-1.749-5.277-3.253-7.865-4.487
				c-2.477-1.181-5.143-1.512-7.569-2.868c-1.957-1.095-2.911-3.094-3.631-4.971c-0.303-0.791-0.645-1.599-0.907-2.389
				c-0.11-0.331-0.919-2.2-0.861-2.336c-0.392,0.938-0.379,2.319,0.118,3.813C135.232,134.256,135.284,135.401,135.695,136.787z"/>
		</g>
		<path style="fill:#A6A6BC;" d="M275.161,42.423c6.482-2.36,12.99-4.71,19.782-6.142c3.112-0.656,6.63-1.423,8.277-4.144
			c-13.686,0.481-27.286,3.224-40.098,8.059c-5.825,2.198-11.503,4.823-17.166,7.384c-5.439,2.46-10.521,5.671-14.742,9.921
			c-5.841,5.88-3.247,11.403,3.824,5.891c4.638-3.615,9.625-6.753,14.752-9.623c4.844-2.711,10.105-6.107,15.394-7.834
			C268.526,44.844,271.84,43.632,275.161,42.423z"/>
		<path style="fill:#A6A6BC;" d="M241.663,140.691c0.371-0.106,0.741-0.213,1.111-0.322c2.211-0.653,4.35-1.397,6.617-2.007
			c2.197-0.592,5.225-3.039,7.165-3.276c-10.543,1.29-20.87,3.658-31.02,6.515c-10.087,2.84-20.208,5.622-30.226,8.919
			c-5.475,1.802-10.433,4.256-15.694,6.49c-3.796,1.612-8.284,1.965-9.314,6.813c3.664-1.109,6.71-3.232,10.159-4.594
			c4.552-1.798,9.914-2.417,14.656-3.682C211.071,151.291,225.887,145.188,241.663,140.691z"/>
		<path style="fill:#8B8BA3;" d="M310.466,165.939c4.53-8.972,9.18-17.695,15.018-25.9c5.555-7.807,10.312-16.792,16.115-24.284
			c-8.909,11.503-17.818,23.005-26.728,34.508c-3.91,5.048-6.039,10.895-9.724,15.977c-4.152,5.726-8.566,11.268-13.185,16.624
			c-4.305,4.992-9.788,10.661-16.722,11.416c-3.778,0.411-5.446-1.308-8.758-2.318c-4.225-1.288,0.146,7.78,2.134,9.1
			c3.642,2.418,7.402,2.133,11.296,0.587c7.097-2.817,14.143-8.974,18.698-15.057C303.398,180.197,306.882,173.036,310.466,165.939z
			"/>
	</g>
	<path style="fill:#559331;" d="M243.276,312.205c-12.684,12.442-22.563,27.727-28.697,44.402
		c9.382-14.048,21.47-26.281,35.405-35.83c-7.212,4.942-13.197,17.283-17.932,24.507c-4.442,6.778-8.932,13.54-13.915,19.936
		c-2.372,3.044-3.856,5.489-7.417,6.564c-3.913,1.182-9.217,0.518-13.226,0.156c-0.191-9.394,8.648-19.43,13.96-26.484
		C220.77,333.08,232.277,322.993,243.276,312.205z"/>
	<path style="fill:#559331;" d="M183.942,335.317c0.756,10.786,1.131,21.599,1.124,32.411c-3.796-6.098-7.619-12.18-11.469-18.244
		c-0.04,2.933,0.817,5.795,1.666,8.602c1.462,4.835,2.924,9.67,4.386,14.505c-1.987-1.851-4.259-3.396-6.71-4.563
		c0.834,2.356,1.805,4.664,2.907,6.908c0.271,0.552,0.565,1.119,1.048,1.499c0.646,0.508,1.516,0.599,2.335,0.658
		c3.699,0.268,9.483,0.449,12.083-2.872c2.163-2.762,0.59-5.783,0.029-8.987C189.547,355.002,187.587,345.095,183.942,335.317z"/>
</g>
</svg>
