<?xml version="1.0" encoding="utf-8"?>
<!-- Generator: Adobe Illustrator 27.5.0, SVG Export Plug-In . SVG Version: 6.00 Build 0)  -->
<svg version="1.1" xmlns="http://www.w3.org/2000/svg" xmlns:xlink="http://www.w3.org/1999/xlink" x="0px" y="0px"
	 viewBox="0 0 500 500" style="enable-background:new 0 0 500 500;" xml:space="preserve">
<g id="BACKGROUND">
	<!-- <rect style="fill:#FFFFFF;" width="500" height="500"/> -->
</g>
<g id="OBJECTS">
	<path style="fill:#72D2E8;" d="M142.023,62.988c-50.889,50.181-15.4,78.718-53.06,143.31c-22.086,37.88,7.99,151.398,70.768,158.38
		c0,0,93.679,2.253,173.71-37.536c0,0,62.312-4.309,67.191-56.08c6.941-73.659,19.824-85.466,16.537-154.572
		c0,0-4.987-102.997-117.061-80.364C220.62,52.178,180.48,25.066,142.023,62.988z"/>
	<g>
		<g>
			<path style="fill:#4A2337;" d="M146.958,305.177l-1.335,1.009c-0.256-0.338-25.587-34.351-21.676-74.1
				c3.837-38.979-27.09-66.594-27.403-66.868l1.105-1.261c0.319,0.281,31.887,28.443,27.966,68.293
				C121.765,271.355,146.705,304.842,146.958,305.177z"/>
			<g>
				<path style="fill:#4A2337;" d="M143.607,300.317c4.075-3.249,11.068-9.922,12.467-18.344c0,0-7.53,0.264-14.166,17.064
					C141.494,300.087,142.724,301.021,143.607,300.317z"/>
				<path style="fill:#4A2337;" d="M142.434,299.047c-4.821-1.98-14.053-4.844-22.092-1.97c0,0,3.894,6.45,21.8,4.076
					C143.261,301.005,143.479,299.476,142.434,299.047z"/>
			</g>
			<g>
				<path style="fill:#4A2337;" d="M136.373,286.725c4.075-3.249,11.068-9.922,12.467-18.344c0,0-7.53,0.264-14.166,17.064
					C134.26,286.496,135.49,287.43,136.373,286.725z"/>
				<path style="fill:#4A2337;" d="M135.2,285.456c-4.821-1.98-14.053-4.844-22.092-1.969c0,0,3.893,6.45,21.799,4.076
					C136.027,287.414,136.244,285.885,135.2,285.456z"/>
			</g>
			<g>
				<path style="fill:#4A2337;" d="M130.13,271.023c4.316-2.921,11.809-9.027,13.862-17.314c0,0-7.527-0.325-15.455,15.905
					C128.041,270.629,129.195,271.656,130.13,271.023z"/>
				<path style="fill:#4A2337;" d="M129.059,269.665c-4.651-2.35-13.632-5.926-21.871-3.689c0,0,3.378,6.735,21.415,5.766
					C129.731,271.682,130.068,270.174,129.059,269.665z"/>
			</g>
			<g>
				<path style="fill:#4A2337;" d="M126.474,255.015c4.785-2.065,13.285-6.668,16.847-14.427c0,0-7.335-1.722-18.149,12.746
					C124.495,254.238,125.437,255.462,126.474,255.015z"/>
				<path style="fill:#4A2337;" d="M125.675,253.482c-4.132-3.176-12.288-8.364-20.8-7.701c0,0,2.063,7.246,19.965,9.657
					C125.959,255.588,126.571,254.17,125.675,253.482z"/>
			</g>
			<g>
				<path style="fill:#4A2337;" d="M125.244,238.693c4.992-1.495,13.97-5.078,18.409-12.371c0,0-7.085-2.563-19.507,10.549
					C123.369,237.692,124.162,239.017,125.244,238.693z"/>
				<path style="fill:#4A2337;" d="M124.629,237.077c-3.735-3.635-11.233-9.735-19.764-10.067c0,0,1.207,7.437,18.707,11.912
					C124.666,239.202,125.438,237.865,124.629,237.077z"/>
			</g>
			<g>
				<path style="fill:#4A2337;" d="M125.728,221.418c4.842-1.927,13.471-6.284,17.253-13.938c0,0-7.283-1.932-18.507,12.22
					C123.772,220.585,124.678,221.836,125.728,221.418z"/>
				<path style="fill:#4A2337;" d="M124.974,219.863c-4.039-3.293-12.043-8.712-20.571-8.294c0,0,1.855,7.302,19.679,10.225
					C125.197,221.977,125.849,220.577,124.974,219.863z"/>
			</g>
			<g>
				<path style="fill:#4A2337;" d="M123.418,206.427c4.638-2.378,12.813-7.534,15.853-15.512c0,0-7.433-1.232-17.264,13.921
					C121.392,205.783,122.413,206.943,123.418,206.427z"/>
				<path style="fill:#4A2337;" d="M122.519,204.95c-4.333-2.895-12.815-7.53-21.265-6.305c0,0,2.539,7.094,20.561,8.312
					C122.942,207.033,123.458,205.578,122.519,204.95z"/>
			</g>
			<g>
				<path style="fill:#4A2337;" d="M116.966,189.927c4.181-3.112,11.391-9.55,13.068-17.921c0,0-7.534,0.014-14.723,16.585
					C114.862,189.628,116.061,190.602,116.966,189.927z"/>
				<path style="fill:#4A2337;" d="M115.836,188.619c-4.753-2.138-13.885-5.306-22.015-2.7c0,0,3.678,6.576,21.653,4.796
					C116.598,190.604,116.866,189.083,115.836,188.619z"/>
			</g>
			<g>
				<path style="fill:#4A2337;" d="M107.261,174.704c3.742-3.627,10.059-10.943,10.64-19.461c0,0-7.469,0.989-12.453,18.351
					C105.136,174.679,106.45,175.49,107.261,174.704z"/>
				<path style="fill:#4A2337;" d="M99.49,165.271c-2.46-4.594-7.762-12.677-15.793-15.573c0,0-1.099,7.454,14.228,17.012
					C98.882,167.308,100.023,166.267,99.49,165.271z"/>
				<path style="fill:#4A2337;" d="M105.971,173.553c-4.989-1.505-14.455-3.465-22.179,0.171c0,0,4.498,6.045,22.091,1.954
					C106.983,175.422,107.052,173.879,105.971,173.553z"/>
			</g>
		</g>
		<g>
			<path style="fill:#4A2337;" d="M318.052,324.693l0.687,1.526c0.387-0.173,38.937-17.849,54.589-54.595
				c15.348-36.035,55.735-45.411,56.141-45.502l-0.364-1.636c-0.414,0.094-41.627,9.641-57.319,46.481
				C356.389,307.118,318.434,324.521,318.052,324.693z"/>
			<g>
				<path style="fill:#4A2337;" d="M323.325,322.038c-2.015-4.806-4.946-14.017-2.13-22.077c0,0,6.479,3.847,4.234,21.77
					C325.288,322.851,323.761,323.08,323.325,322.038z"/>
				<path style="fill:#4A2337;" d="M324.963,321.487c5.179,0.578,14.653,2.498,20.325,8.879c0,0-6.512,3.789-21.08-6.89
					C323.298,322.808,323.841,321.362,324.963,321.487z"/>
			</g>
			<g>
				<path style="fill:#4A2337;" d="M336.196,313.589c-2.015-4.806-4.946-14.017-2.13-22.077c0,0,6.478,3.847,4.234,21.77
					C338.16,314.402,336.632,314.63,336.196,313.589z"/>
				<path style="fill:#4A2337;" d="M337.835,313.038c5.179,0.578,14.653,2.498,20.325,8.879c0,0-6.512,3.789-21.08-6.89
					C336.169,314.359,336.712,312.913,337.835,313.038z"/>
			</g>
			<g>
				<path style="fill:#4A2337;" d="M349.211,302.811c-2.384-4.634-6.025-13.588-3.848-21.843c0,0,6.759,3.329,5.921,21.372
					C351.233,303.468,349.728,303.815,349.211,302.811z"/>
				<path style="fill:#4A2337;" d="M350.802,302.134c5.209,0.171,14.803,1.346,20.956,7.264c0,0-6.197,4.286-21.554-5.223
					C349.244,303.581,349.673,302.097,350.802,302.134z"/>
			</g>
			<g>
				<path style="fill:#4A2337;" d="M360.104,290.524c-3.206-4.109-8.453-12.227-7.852-20.744c0,0,7.261,2.011,9.801,19.894
					C362.212,290.793,360.798,291.414,360.104,290.524z"/>
				<path style="fill:#4A2337;" d="M361.54,289.562c5.149-0.803,14.795-1.437,21.943,3.231c0,0-5.289,5.366-22.149-1.114
					C360.28,291.274,360.424,289.736,361.54,289.562z"/>
			</g>
			<g>
				<path style="fill:#4A2337;" d="M369.019,276.797c-3.662-3.708-9.817-11.161-10.21-19.69c0,0,7.445,1.153,12.047,18.619
					C371.144,276.819,369.813,277.6,369.019,276.797z"/>
				<path style="fill:#4A2337;" d="M370.334,275.675c5.021-1.396,14.527-3.147,22.17,0.658c0,0-4.629,5.945-22.129,1.469
					C369.281,277.521,369.246,275.977,370.334,275.675z"/>
			</g>
			<g>
				<path style="fill:#4A2337;" d="M376.888,261.411c-3.323-4.015-8.8-11.979-8.444-20.51c0,0,7.316,1.802,10.368,19.605
					C379.003,261.619,377.608,262.281,376.888,261.411z"/>
				<path style="fill:#4A2337;" d="M378.296,260.408c5.124-0.95,14.747-1.861,22.027,2.6c0,0-5.133,5.515-22.172-0.478
					C377.085,262.155,377.186,260.614,378.296,260.408z"/>
			</g>
			<g>
				<path style="fill:#4A2337;" d="M386.111,249.369c-2.927-4.312-7.623-12.76-6.459-21.219c0,0,7.112,2.488,8.461,20.5
					C388.197,249.777,386.745,250.304,386.111,249.369z"/>
				<path style="fill:#4A2337;" d="M387.608,248.505c5.191-0.459,14.857-0.453,21.681,4.678c0,0-5.633,5.003-22.027-2.58
					C386.237,250.129,386.483,248.605,387.608,248.505z"/>
			</g>
			<g>
				<path style="fill:#4A2337;" d="M399.692,237.993c-2.173-4.737-5.407-13.846-2.86-21.995c0,0,6.602,3.63,4.953,21.617
					C401.682,238.74,400.163,239.019,399.692,237.993z"/>
				<path style="fill:#4A2337;" d="M401.312,237.388c5.196,0.406,14.728,2.011,20.608,8.201c0,0-6.383,4.003-21.297-6.189
					C399.691,238.763,400.186,237.3,401.312,237.388z"/>
			</g>
			<g>
				<path style="fill:#4A2337;" d="M415.515,229.298c-1.542-4.978-3.57-14.429,0.01-22.18c0,0,6.077,4.454,2.114,22.076
					C417.391,230.296,415.849,230.377,415.515,229.298z"/>
				<path style="fill:#4A2337;" d="M426.86,224.754c4.364-2.849,12.895-7.394,21.331-6.079c0,0-2.614,7.066-20.648,8.093
					C426.415,226.833,425.914,225.372,426.86,224.754z"/>
				<path style="fill:#4A2337;" d="M417.199,228.908c5.099,1.075,14.344,3.9,19.374,10.798c0,0-6.847,3.143-20.317-8.892
					C415.414,230.061,416.094,228.675,417.199,228.908z"/>
			</g>
		</g>
		<path style="fill:#FFCF77;" d="M225.823,116.146H90.774c0,0,12.108-29.088,39.097-15.788c0,0,19.675-39.068,58.015,3.741
			C187.887,104.098,213.563,98.685,225.823,116.146z"/>
	</g>
	<g>
		<g>
			<g>
				<path style="fill:#FF6564;" d="M84.92,379.565l211.086,56.845c0,0,59.119-202.587,91.538-257.091l-0.217-6.53l13.305,3.177
					c0,0-55.046,146.438-93.618,284.992c0,0-160.447-41.692-234.633-65.667c0,0-8.139-43.1-7.742-82.578l12.699,4.161L84.92,379.565
					z"/>
				<path style="fill:#FFCF77;" d="M378.44,114.522l17.375,14.096l-9.357,18.08l1.086,32.62c0,0-78.335,212.33-87.623,261.208
					c0,0-125.949-33.809-215-60.961c0,0-12.872-25.557-12.534-69.344l0,0c0,0,132.513,29.906,211.112,64.837l0,0L378.44,114.522z"/>
				<path style="fill:#4A2337;" d="M325.438,289.934c-0.062,0-0.124-0.01-0.185-0.031c-0.289-0.103-0.439-0.419-0.337-0.707
					c23.003-64.82,69.933-159.87,70.404-160.822c0.136-0.274,0.47-0.384,0.741-0.251c0.275,0.136,0.386,0.467,0.251,0.741
					c-0.471,0.952-47.372,95.944-70.352,160.701C325.879,289.792,325.666,289.934,325.438,289.934z"/>
				<path style="fill:#4A2337;" d="M348.701,268.477c-0.062,0-0.124-0.01-0.185-0.031c-0.289-0.103-0.439-0.419-0.337-0.707
					c23.024-64.876,30.018-74.318,30.304-74.688c0.188-0.242,0.533-0.284,0.774-0.1c0.242,0.186,0.288,0.533,0.103,0.775
					c-0.07,0.092-7.26,9.916-30.137,74.382C349.142,268.335,348.929,268.477,348.701,268.477z"/>
				<path style="fill:#4A2337;" d="M263.817,385.213c-0.058,0-0.117-0.009-0.175-0.028c-30.483-10.173-74.653-22.277-75.096-22.398
					c-0.295-0.081-0.469-0.385-0.388-0.68c0.081-0.296,0.388-0.467,0.68-0.388c0.443,0.121,44.642,12.234,75.154,22.415
					c0.29,0.097,0.446,0.411,0.35,0.7C264.264,385.067,264.048,385.213,263.817,385.213z"/>
				<path style="fill:#72D2E8;" d="M147.06,372.356c0,0-6.7,3.19-5.037,13.902c1.663,10.712-35.664,48.117-35.664,48.117
					s13.189,4.796,34.47,0c0,0,8.992,16.594,23.38,26.582c0,0,16.486-39.47,20.083-62.251c0,0-0.349-10.583,7.169-16.082
					L147.06,372.356z"/>
				<path style="fill:#4A2337;" d="M217.76,389.452c-0.043,0-0.087-0.005-0.131-0.015c-41.9-10.176-98.733-22.883-99.302-23.01
					c-0.298-0.067-0.486-0.363-0.419-0.661c0.067-0.297,0.363-0.481,0.66-0.419c0.57,0.128,57.413,12.836,99.323,23.014
					c0.297,0.072,0.479,0.372,0.407,0.669C218.235,389.282,218.009,389.452,217.76,389.452z"/>
				<path style="fill:#4A2337;" d="M295.282,430.208c-0.071,0-0.144-0.014-0.211-0.042l-11.098-4.584
					c-0.283-0.117-0.417-0.44-0.3-0.722c0.117-0.283,0.443-0.419,0.722-0.301l10.537,4.351l4.648-15.101
					c0.089-0.292,0.393-0.46,0.692-0.365c0.292,0.09,0.456,0.399,0.365,0.692l-4.826,15.682c-0.045,0.148-0.151,0.271-0.293,0.337
					C295.443,430.191,295.363,430.208,295.282,430.208z"/>
				<path style="fill:#4A2337;" d="M290.457,408.013c-0.055,0-0.11-0.008-0.165-0.025l-7.72-2.412
					c-0.292-0.092-0.454-0.402-0.363-0.694c0.092-0.291,0.398-0.456,0.694-0.363l7.218,2.256l1.507-4.09
					c0.106-0.286,0.428-0.433,0.71-0.328c0.286,0.105,0.433,0.424,0.327,0.71l-1.688,4.584
					C290.895,407.873,290.683,408.013,290.457,408.013z"/>
				<path style="fill:#4A2337;" d="M72.38,315.249c0,0-0.312,16.477,2.883,31.143c0,0,24.282-15.242,49.156-19.98
					C124.42,326.411,90.225,318.893,72.38,315.249z"/>
				<path style="fill:#FFEADA;" d="M163.294,448.292c-0.076,0-0.154-0.016-0.229-0.05c-0.278-0.126-0.401-0.454-0.274-0.733
					c0.08-0.177,8.122-17.939,12.309-33.293c0.081-0.294,0.389-0.467,0.679-0.388c0.295,0.08,0.469,0.385,0.389,0.68
					c-4.211,15.44-12.288,33.281-12.37,33.459C163.706,448.172,163.505,448.292,163.294,448.292z"/>
				<polygon style="fill:#4A2337;" points="177.143,426.026 198.134,412.49 182.367,408.04 				"/>
				<path style="fill:#4A2337;" d="M153.531,383.445c-0.321-0.56-0.128-1.274,0.432-1.596s1.274-0.128,1.596,0.432
					c0.321,0.56,0.128,1.275-0.432,1.596C154.566,384.199,153.852,384.005,153.531,383.445z"/>
				<path style="fill:#4A2337;" d="M146.007,379.974c-0.518-0.904-0.349-1.974,0.378-2.391c0.727-0.417,1.737-0.023,2.255,0.881
					c0.518,0.904,0.349,1.974-0.378,2.391S146.525,380.878,146.007,379.974z"/>
			</g>
			<g>
				<path style="fill:#FF6564;" d="M183.5,66.812c0,0-85.448,192.851-118.861,245.9c0,0,85.401,19.544,129.897,31.95
					c53.425,14.896,88.964,30.395,88.964,30.395L387.654,93.927c0,0-87.451-18.961-153.563-21.302
					C234.09,72.625,211.117,73.824,183.5,66.812z"/>
				<path style="fill:#4064DB;" d="M234.09,72.625c0,0-7.925-6.287-51.441-9.546c0,0-17.292,24.022-22.99,55.393
					c0,0,29.539,25.445,36.762-21.136C196.422,97.336,229.935,118.908,234.09,72.625z"/>
				<path style="fill:#4064DB;" d="M387.654,93.927c0,0-31.483-12.647-58.796-10.891c-27.313,1.756-1.012,34.753,23.29,27.128
					c0,0-26.941,20.458,11.535,48.466C363.682,158.63,381.855,122.664,387.654,93.927z"/>
				<path style="fill:#4064DB;" d="M307.013,311.589c0,0-12.216-13.076-25.987-10.066c-13.771,3.009-12.517,30.128-12.517,30.128
					s-33.674-40.965-47.889,20.731c0,0,17.703,6.297,62.879,22.676C283.499,375.058,305.405,339.388,307.013,311.589z"/>
				<path style="fill:#4064DB;" d="M93.074,260.236c0,0-25.043,40.428-28.45,52.376c0,0,33.623,14.174,61.797,16.507
					c28.174,2.333,17.338-49.235-25.882-34.34C100.539,294.78,133.612,263.458,93.074,260.236z"/>
				<path style="fill:#FFEADA;" d="M83.842,302.985c-0.272-0.52-0.296-1.162-0.033-1.799l0,0c1.076-2.608,3.377-7.225,6.695-8.843
					c1.281-0.625,2.581-0.753,3.86-0.377c2.12,0.622,3.262,1.606,3.408,2.92c0.115,1.073-0.484,2.111-1.072,2.848
					c0.873,0.183,1.922,0.594,2.429,1.518c0.591,1.071,0.263,2.688-1.065,4.62c-0.802,1.166-1.896,1.949-3.255,2.328
					c-3.515,0.979-7.896-1.098-10.194-2.423C84.27,303.579,84.009,303.305,83.842,302.985z M96.005,294.821
					c-0.385-0.737-1.468-1.199-2.386-1.469c-0.862-0.252-1.69-0.175-2.53,0.236c-2.827,1.378-4.965,5.967-5.752,7.876
					c0,0,0,0,0,0.001c-0.17,0.41-0.036,0.846,0.327,1.057c1.683,0.97,5.92,3.136,8.915,2.302c0.892-0.248,1.588-0.752,2.127-1.536
					c0.678-0.987,1.389-2.343,0.936-3.208c-0.003-0.005-0.005-0.01-0.008-0.016c-0.566-1.044-2.567-1.023-2.588-1.022
					c-0.323,0.006-0.588-0.167-0.664-0.425c-0.081-0.263,0.031-0.572,0.288-0.787c0.016-0.013,1.605-1.357,1.472-2.566
					C96.125,295.107,96.077,294.958,96.005,294.821z"/>
				<path style="fill:#FFEADA;" d="M278.392,354.654c-0.651,0.435-1.448,0.636-2.233,0.525l0,0
					c-3.213-0.452-8.893-1.681-10.83-4.825c-0.749-1.214-0.879-2.583-0.385-4.067c0.817-2.46,2.064-3.961,3.696-4.477
					c1.334-0.416,2.609-0.051,3.512,0.382c0.246-0.993,0.778-2.238,1.936-3.037c1.342-0.93,3.341-1.016,5.71-0.108
					c1.43,0.549,2.378,1.517,2.819,2.882c1.14,3.531-1.532,8.829-3.226,11.673C279.138,354.03,278.792,354.387,278.392,354.654z
					 M268.521,343.738c-0.923,0.617-1.52,1.912-1.874,2.978c-0.331,1-0.253,1.873,0.238,2.669c1.65,2.679,7.299,3.738,9.65,4.069
					c0,0,0,0,0.001,0c0.505,0.072,1.049-0.192,1.319-0.642c1.239-2.082,4.018-7.249,3.048-10.258
					c-0.289-0.895-0.899-1.511-1.86-1.879c-1.21-0.464-2.877-0.862-3.961-0.138c-0.007,0.004-0.013,0.008-0.019,0.013
					c-1.308,0.896-1.324,3.052-1.324,3.074c0,0.348-0.22,0.681-0.541,0.833c-0.328,0.159-0.709,0.122-0.97-0.097
					c-0.016-0.013-1.65-1.364-3.152-0.892C268.879,343.53,268.694,343.622,268.521,343.738z"/>
				<path style="fill:#FFEADA;" d="M370.033,99.671c0.362,0.569,0.487,1.279,0.314,1.992l0,0c-0.705,2.918-2.364,8.094-5.542,9.975
					c-1.227,0.727-2.55,0.903-3.93,0.52c-2.288-0.632-3.621-1.693-3.977-3.144c-0.286-1.186,0.172-2.351,0.664-3.184
					c-0.931-0.179-2.078-0.607-2.746-1.617c-0.778-1.171-0.69-2.971,0.381-5.146c0.647-1.313,1.655-2.21,3.001-2.666
					c3.48-1.178,8.331,1.006,10.913,2.413C369.498,99.025,369.811,99.321,370.033,99.671z M358.736,109.04
					c0.513,0.806,1.704,1.29,2.694,1.563c0.93,0.256,1.773,0.149,2.578-0.328c2.707-1.602,4.201-6.744,4.717-8.879c0,0,0,0,0-0.001
					c0.112-0.459-0.095-0.938-0.503-1.163c-1.89-1.029-6.606-3.316-9.571-2.313c-0.882,0.299-1.524,0.875-1.958,1.758
					c-0.547,1.112-1.07,2.632-0.468,3.579c0.004,0.006,0.007,0.011,0.011,0.017c0.747,1.142,2.813,1.065,2.833,1.063
					c0.333-0.015,0.634,0.17,0.753,0.453c0.125,0.289,0.057,0.635-0.175,0.879c-0.014,0.015-1.447,1.546-1.122,2.882
					C358.567,108.727,358.64,108.89,358.736,109.04z"/>
				<path style="fill:#FFEADA;" d="M188.063,73.266c0.56-0.375,1.25-0.542,1.935-0.434l0,0c2.802,0.439,7.761,1.593,9.492,4.388
					c0.669,1.079,0.802,2.287,0.394,3.589c-0.675,2.157-1.737,3.464-3.15,3.898c-1.155,0.35-2.269,0.012-3.06-0.381
					c-0.199,0.872-0.644,1.962-1.64,2.652c-1.154,0.803-2.892,0.853-4.966,0.023c-1.252-0.501-2.091-1.367-2.494-2.575
					c-1.043-3.126,1.204-7.761,2.636-10.245C187.423,73.807,187.718,73.497,188.063,73.266z M196.809,83.01
					c0.794-0.532,1.294-1.666,1.587-2.6c0.273-0.877,0.193-1.647-0.246-2.355c-1.474-2.381-6.404-3.386-8.454-3.707
					c0,0,0,0-0.001,0.001c-0.441-0.07-0.91,0.156-1.138,0.549c-1.048,1.819-3.39,6.337-2.502,9c0.265,0.793,0.804,1.343,1.646,1.679
					c1.06,0.424,2.516,0.796,3.448,0.172c0.006-0.004,0.011-0.007,0.017-0.011c1.125-0.773,1.108-2.673,1.107-2.692
					c-0.005-0.306,0.182-0.597,0.459-0.727c0.283-0.136,0.615-0.099,0.845,0.098c0.014,0.012,1.455,1.223,2.755,0.826
					C196.501,83.188,196.66,83.109,196.809,83.01z"/>
				<path style="fill:#4A2337;" d="M141.143,185.749c-0.368,0-0.741-0.068-1.104-0.21l-3.726-1.461
					c-0.284-0.111-0.425-0.432-0.313-0.717c0.111-0.285,0.433-0.423,0.717-0.313l3.726,1.461c0.917,0.359,1.948-0.029,2.4-0.902
					l23.424-50.555c0.267-0.516,0.296-1.095,0.091-1.612c-0.205-0.516-0.624-0.918-1.149-1.101l-3.851-1.344
					c-0.288-0.101-0.441-0.416-0.34-0.705c0.101-0.289,0.419-0.441,0.705-0.34l3.851,1.344c0.828,0.289,1.489,0.923,1.813,1.737
					c0.324,0.815,0.278,1.729-0.126,2.508l-23.424,50.556C143.294,185.143,142.244,185.749,141.143,185.749z"/>
				<path style="fill:#4A2337;" d="M109.239,249.85c-0.368,0-0.742-0.068-1.105-0.21l-3.726-1.46
					c-0.284-0.111-0.425-0.433-0.313-0.718c0.112-0.285,0.433-0.424,0.717-0.313l3.726,1.46c0.916,0.361,1.948-0.028,2.4-0.9
					l23.424-50.556c0.267-0.516,0.296-1.095,0.091-1.611c-0.205-0.517-0.624-0.918-1.149-1.101l-3.851-1.344
					c-0.289-0.101-0.441-0.417-0.34-0.705c0.102-0.289,0.419-0.44,0.705-0.34l3.85,1.344c0.828,0.289,1.489,0.922,1.813,1.738
					c0.324,0.815,0.278,1.729-0.126,2.508l-23.424,50.555C111.388,249.245,110.339,249.85,109.239,249.85z"/>
				<path style="fill:#4A2337;" d="M241.169,79.11c-0.015,0.646-0.55,1.157-1.195,1.142c-0.645-0.015-1.157-0.55-1.142-1.195
					c0.015-0.645,0.55-1.157,1.195-1.142C240.673,77.929,241.184,78.465,241.169,79.11z"/>
				<path style="fill:#4A2337;" d="M245.814,85.972c-0.024,1.042-0.722,1.87-1.56,1.851c-0.838-0.019-1.498-0.879-1.474-1.92
					c0.024-1.042,0.722-1.87,1.56-1.851C245.178,84.071,245.838,84.931,245.814,85.972z"/>
				<path style="fill:#4A2337;" d="M345.885,173.342c-0.049,0-0.097-0.007-0.147-0.02l-24.309-6.684
					c-0.294-0.081-0.468-0.385-0.387-0.68c0.081-0.295,0.384-0.469,0.681-0.387l24.309,6.684c0.294,0.081,0.468,0.385,0.387,0.68
					C346.351,173.181,346.128,173.342,345.885,173.342z"/>
				<path style="fill:#4A2337;" d="M215.489,343.424c-0.045,0-0.09-0.006-0.136-0.017l-70.018-17.668
					c-0.296-0.075-0.475-0.375-0.401-0.671c0.075-0.296,0.37-0.479,0.672-0.401l70.018,17.668c0.296,0.075,0.475,0.375,0.401,0.671
					C215.962,343.256,215.736,343.424,215.489,343.424z"/>
				<path style="fill:#4A2337;" d="M314.077,268.477c-0.067,0-0.134-0.012-0.2-0.038c-0.285-0.11-0.427-0.43-0.316-0.716
					l17.157-44.251c0.11-0.285,0.431-0.427,0.715-0.316c0.285,0.111,0.427,0.431,0.316,0.716l-17.157,44.251
					C314.509,268.343,314.299,268.477,314.077,268.477z"/>
			</g>
			<g>
				<g>
					<path style="fill:#FFCF77;" d="M221.508,257.506c-3.73-0.54-7.41-1.349-11.061-2.288c-13.756-3.537-45.456-10.652-53.171-3.357
						c-9.93,9.39-27.904,28.093,63.766,44.213C272.817,305.18,269.299,264.43,221.508,257.506z"/>
					<path style="fill:#F78DE8;" d="M205.658,260.111c0,0-24.17-8.937-33.086-3.877c-8.916,5.06-15.531,16.774,22.355,23.207
						C194.927,279.441,191.151,271.172,205.658,260.111z"/>
					<path style="fill:#4A2337;" d="M198.752,285.594c-0.109,0-0.219-0.032-0.315-0.098c-0.18-0.125-4.409-3.124-4.441-8.724
						c-0.034-6.06,4.805-12.585,14.385-19.394c0.249-0.177,0.594-0.119,0.772,0.13c0.177,0.25,0.118,0.595-0.131,0.772
						c-9.137,6.496-13.951,12.888-13.919,18.487c0.029,5.031,3.926,7.794,3.966,7.821c0.251,0.175,0.313,0.52,0.139,0.771
						C199.099,285.511,198.927,285.594,198.752,285.594z"/>
					<path style="fill:#F78DE8;" d="M205.872,281.024c0,0,52.343,10.398,103.336,23.63c0,0,12.286,6.33,18.19,85.993
						c0,0,9.662-2.481,15.926-25.449c6.264-22.967-8.974-77.495-12.11-80.158c-3.136-2.663-66.726-17.506-116.729-21.65
						C214.484,263.391,205.049,270.783,205.872,281.024z"/>
					<path style="fill:#4A2337;" d="M210.594,288.761c-0.107,0-0.216-0.031-0.312-0.096c-0.208-0.143-5.089-3.552-5.232-9.78
						c-0.14-6.091,4.27-12.555,13.107-19.215c0.245-0.182,0.591-0.135,0.775,0.109c0.184,0.244,0.135,0.591-0.109,0.775
						c-8.528,6.428-12.789,12.581-12.666,18.29c0.122,5.659,4.705,8.876,4.751,8.908c0.252,0.173,0.316,0.517,0.143,0.768
						C210.943,288.677,210.771,288.761,210.594,288.761z"/>
					<path style="fill:#FFCF77;" d="M226.051,285.041c0,0,17.542,5.411,23.334,3.166c5.792-2.245,11.067-18.94,8.411-19.362
						c-2.656-0.422-9.579-1.654-19.874-2.908c0,0,26.443-7.431,28.041,5.498C267.561,284.364,260.04,303.693,226.051,285.041z"/>
					<path style="fill:#4A2337;" d="M253.929,277.069c0,1.55-1.541,2.806-3.441,2.806c-1.901,0-3.441-1.256-3.441-2.806
						c0-1.55,1.541-2.806,3.441-2.806C252.388,274.263,253.929,275.52,253.929,277.069z"/>
					<path style="fill:#FFCF77;" d="M260.577,280.834l-8.254-1.601c-0.869-0.169-1.438-1.01-1.269-1.88l0.065-0.336
						c0.169-0.87,1.01-1.438,1.88-1.269l8.254,1.601c0.869,0.169,1.438,1.01,1.269,1.88l-0.065,0.336
						C262.288,280.435,261.446,281.003,260.577,280.834z"/>
					<path style="fill:#4A2337;" d="M260.752,281.388c-0.149,0-0.299-0.015-0.45-0.043l-4.6-0.893
						c-0.299-0.058-0.495-0.349-0.438-0.65c0.059-0.301,0.352-0.491,0.65-0.438l4.6,0.893c0.315,0.061,0.645-0.004,0.917-0.186
						c0.27-0.183,0.453-0.459,0.515-0.779c0.129-0.661-0.305-1.303-0.966-1.432l-3.867-0.75c-0.3-0.058-0.496-0.349-0.439-0.648
						c0.059-0.301,0.361-0.494,0.648-0.439l3.868,0.75c1.261,0.245,2.087,1.47,1.843,2.73c-0.118,0.61-0.467,1.138-0.982,1.486
						C261.66,281.252,261.211,281.388,260.752,281.388z"/>
					<path style="fill:#FFEADA;" d="M319.403,307.615c-0.113,0-0.227-0.034-0.325-0.106c-0.246-0.178-0.302-0.525-0.122-0.773
						c6.403-8.83,8.963-17.517,8.988-17.603c0.084-0.293,0.393-0.465,0.685-0.378c0.294,0.085,0.463,0.392,0.378,0.685
						c-0.026,0.089-2.634,8.951-9.157,17.947C319.742,307.536,319.573,307.615,319.403,307.615z"/>
					<path style="fill:#FFEADA;" d="M331.233,378.897c-0.284,0-0.526-0.218-0.55-0.508c-1.417-17.177-5.479-37.31-5.52-37.511
						c-0.06-0.299,0.133-0.592,0.432-0.653c0.304-0.061,0.592,0.132,0.653,0.432c0.041,0.202,4.115,20.397,5.537,37.641
						c0.026,0.305-0.201,0.572-0.506,0.597C331.265,378.896,331.25,378.897,331.233,378.897z"/>
				</g>
				<g>
					<path style="fill:#FFCF77;" d="M281.657,128.15c-3.73-0.541-7.41-1.349-11.061-2.288c-13.756-3.537-45.456-10.652-53.172-3.357
						c-9.93,9.39-27.904,28.092,63.767,44.213C332.965,175.824,329.447,135.074,281.657,128.15z"/>
					<path style="fill:#F78DE8;" d="M265.806,130.755c0,0-24.17-8.937-33.085-3.877c-8.916,5.06-15.531,16.774,22.355,23.207
						C255.076,150.085,251.299,141.816,265.806,130.755z"/>
					<path style="fill:#4A2337;" d="M258.9,156.238c-0.109,0-0.219-0.032-0.316-0.099c-0.179-0.125-4.409-3.123-4.44-8.723
						c-0.035-6.06,4.804-12.585,14.384-19.395c0.247-0.177,0.594-0.119,0.772,0.131c0.177,0.249,0.119,0.594-0.13,0.772
						c-9.138,6.495-13.951,12.888-13.919,18.486c0.028,5.031,3.925,7.793,3.964,7.82c0.251,0.174,0.313,0.519,0.139,0.77
						C259.247,156.155,259.075,156.238,258.9,156.238z"/>
					<path style="fill:#F78DE8;" d="M266.02,151.668c0,0,38.758,6.93,89.75,20.162c0,0,9.527,6.33,15.431,85.993
						c0,0,9.662-2.481,15.926-25.449c6.264-22.967-8.974-77.495-12.11-80.158c-3.136-2.662-50.382-14.038-100.385-18.182
						C274.633,134.035,265.197,141.427,266.02,151.668z"/>
					<path style="fill:#4A2337;" d="M270.743,159.404c-0.108,0-0.217-0.031-0.312-0.097c-0.207-0.142-5.088-3.551-5.231-9.78
						c-0.139-6.089,4.27-12.554,13.107-19.214c0.241-0.182,0.589-0.135,0.775,0.109c0.184,0.244,0.135,0.591-0.109,0.775
						c-8.536,6.433-12.798,12.592-12.666,18.305c0.13,5.668,4.703,8.86,4.749,8.892c0.252,0.172,0.317,0.517,0.145,0.769
						C271.092,159.32,270.919,159.404,270.743,159.404z"/>
					<path style="fill:#FFCF77;" d="M286.2,155.685c0,0,17.542,5.411,23.334,3.166c5.792-2.245,11.067-18.94,8.411-19.362
						c-2.656-0.422-9.579-1.654-19.874-2.908c0,0,26.443-7.431,28.041,5.498C327.709,155.008,320.188,174.337,286.2,155.685z"/>
					<path style="fill:#4A2337;" d="M314.077,147.714c0,1.55-1.541,2.806-3.441,2.806s-3.441-1.256-3.441-2.806
						c0-1.55,1.541-2.806,3.441-2.806S314.077,146.164,314.077,147.714z"/>
					<path style="fill:#FFCF77;" d="M320.725,151.478l-8.254-1.601c-0.87-0.169-1.438-1.01-1.269-1.88l0.065-0.336
						c0.169-0.869,1.01-1.438,1.88-1.269l8.254,1.601c0.869,0.169,1.438,1.01,1.269,1.88l-0.065,0.336
						C322.436,151.079,321.595,151.647,320.725,151.478z"/>
					<path style="fill:#4A2337;" d="M320.895,152.032c-0.146,0-0.295-0.014-0.443-0.043l-4.601-0.892
						c-0.301-0.058-0.496-0.348-0.439-0.648c0.058-0.301,0.362-0.495,0.648-0.438l4.601,0.892c0.668,0.13,1.305-0.305,1.432-0.967
						c0.129-0.661-0.306-1.303-0.966-1.432l-3.868-0.751c-0.299-0.058-0.496-0.348-0.438-0.648c0.059-0.301,0.351-0.497,0.65-0.438
						l3.867,0.751c1.259,0.244,2.086,1.468,1.843,2.728C322.965,151.258,321.987,152.032,320.895,152.032z"/>
					<path style="fill:#FFEADA;" d="M361.954,171.962c-0.114,0-0.227-0.034-0.325-0.105c-0.246-0.179-0.302-0.525-0.122-0.773
						c6.45-8.896,11.169-16.761,11.217-16.839c0.157-0.263,0.497-0.347,0.759-0.191c0.263,0.157,0.348,0.497,0.19,0.759
						c-0.047,0.079-4.79,7.984-11.271,16.92C362.293,171.883,362.124,171.962,361.954,171.962z"/>
					<path style="fill:#FFEADA;" d="M383.888,202.852c-0.269,0-0.505-0.197-0.546-0.471c-2.454-16.292-4.94-29.359-4.965-29.489
						c-0.057-0.301,0.139-0.59,0.44-0.647c0.291-0.056,0.589,0.139,0.647,0.44c0.025,0.13,2.515,13.219,4.972,29.531
						c0.045,0.303-0.162,0.584-0.465,0.63C383.943,202.849,383.916,202.852,383.888,202.852z"/>
				</g>
			</g>
			<g>
				<path style="fill:#4064DB;" d="M237.632,181.74c0,0,5.917-21.048-27.161-17.132c-33.079,3.917-33.783,46.997-3.213,83.381
					c0,0,59.305-1.651,79.052-50.48c2.985-7.381,1.411-15.983-4.358-21.47c-3.36-3.195-8.366-5.626-15.817-5.543
					C244.844,170.732,237.632,181.74,237.632,181.74z"/>
				<path style="fill:#FFCF77;" d="M232.9,192.075c0,0,2.52-20.801-22.395-17.851c-24.915,2.95-19.049,35.643,3.976,63.047
					c0,0,37.907,0,61.696-38.276c3.166-5.093,1.063-12.039-3.282-16.172c-2.53-2.407-6.301-4.237-11.914-4.175
					C244.945,178.827,232.9,192.075,232.9,192.075z"/>
				<path style="fill:#F78DE8;" d="M227.583,200.855c0,0,1.965-21.197-15.62-19.115c-17.586,2.082-12.297,25.872,3.954,45.214
					c0,0,28.649,0.001,50.863-26.37c2.727-3.237,0.75-8.497-2.317-11.414c-1.786-1.699-4.447-2.991-8.409-2.947
					C244.736,186.349,227.583,200.855,227.583,200.855z"/>
				<path style="fill:#FFEADA;" d="M230.389,220.526c-0.252,0-0.48-0.173-0.539-0.429c-0.069-0.298,0.117-0.595,0.415-0.664
					c0.188-0.043,18.891-4.486,30.058-18.297c0.192-0.238,0.54-0.276,0.778-0.082c0.238,0.192,0.275,0.54,0.082,0.778
					c-11.412,14.115-30.479,18.636-30.67,18.68C230.472,220.521,230.43,220.526,230.389,220.526z"/>
				<path style="fill:#FFEADA;" d="M225.314,198.919c-0.288,0-0.531-0.224-0.552-0.516c-0.007-0.108-0.821-10.846-7.269-13.514
					c-0.282-0.117-0.416-0.44-0.299-0.723c0.117-0.283,0.439-0.415,0.723-0.299c7.083,2.931,7.917,13.992,7.949,14.461
					c0.021,0.305-0.21,0.569-0.514,0.59C225.339,198.919,225.327,198.919,225.314,198.919z"/>
				<path style="fill:#FFEADA;" d="M215.16,184.18c0,0.309-0.25,0.559-0.559,0.559c-0.308,0-0.559-0.25-0.559-0.559
					s0.25-0.559,0.559-0.559C214.91,183.621,215.16,183.871,215.16,184.18z"/>
				<path style="fill:#FFEADA;" d="M228.196,221.13c0,0.639-0.518,1.157-1.157,1.157c-0.639,0-1.157-0.518-1.157-1.157
					c0-0.639,0.518-1.157,1.157-1.157C227.678,219.972,228.196,220.491,228.196,221.13z"/>
			</g>
		</g>
	</g>
	<g>
		<path style="fill:#FFFFFF;" d="M347.946,71.368c1.517,0.039,2.917-0.908,3.445-2.33c2.144-5.773,6.55-20.429-2.928-22.84
			c-11.852-3.014-9.764,7.785-9.764,7.785s-9.246-5.958-10.861,6.164C326.546,69.841,341.789,71.209,347.946,71.368z"/>
		<path style="fill:#4064DB;" d="M295.002,65.63c0.345,0.722,1.125,1.154,1.92,1.061c3.227-0.374,11.17-1.812,10.034-6.844
			c-1.42-6.292-5.996-2.725-5.996-2.725s0.587-5.772-5.497-3.629C290.597,55.207,293.603,62.698,295.002,65.63z"/>
		<g>
			<path style="fill:#FFFFFF;" d="M369.902,299.154c-0.107-0.22,0.11-0.455,0.321-0.346c2.913,1.498,14.39,6.702,12.736-5.256
				c-1.411-10.202-9.094-7.988-12.909-6.203c-0.254,0.119-0.473-0.236-0.265-0.429c3.436-3.18,9.163-8.843,0.563-13.689
				c-9.325-5.255-9.408,6.947-9.327,10.668c0.004,0.19-0.246,0.236-0.311,0.057c-0.942-2.59-4.345-10.083-11.252-6.376
				c-9.155,4.913,2.003,12.075,5.021,13.913c0.207,0.126,0.144,0.452-0.092,0.477c-3.003,0.312-13.272,2.047-8.257,10.967
				c4.72,8.396,11.314,0.989,13.068-1.25c0.144-0.184,0.43-0.073,0.432,0.167c0.023,2.618,0.639,11.056,7.659,9.999
				C375.308,310.645,373.171,305.902,369.902,299.154z"/>
			<path style="fill:#4064DB;" d="M357.029,294.002c-0.562-3.355,1.565-6.507,4.751-7.041c3.186-0.533,6.223,1.754,6.785,5.109
				c0.562,3.355-1.565,6.507-4.751,7.041C360.628,299.645,357.59,297.357,357.029,294.002z"/>
		</g>
		<g>
			<path style="fill:#FFFFFF;" d="M125.148,196.965c-0.095,0.195-0.361,0.198-0.393,0.004c-0.441-2.683-2.651-12.847-9.875-4.82
				c-6.163,6.848-0.85,10.316,2.25,11.637c0.207,0.088,0.077,0.431-0.157,0.415c-3.85-0.268-10.511-0.504-9.492,7.666
				c1.104,8.859,9.357,1.766,11.82-0.463c0.126-0.114,0.281,0.014,0.193,0.16c-1.274,2.101-4.623,8.598,1.309,10.71
				c7.862,2.8,7.129-8.312,6.864-11.259c-0.018-0.202,0.233-0.354,0.367-0.222c1.704,1.679,7.982,7.031,11.49-1.302
				c3.301-7.842-4.965-7.594-7.344-7.371c-0.196,0.018-0.263-0.223-0.102-0.366c1.75-1.548,7.122-6.869,2.917-10.604
				C130.191,186.884,128.062,190.986,125.148,196.965z"/>
			<path style="fill:#4064DB;" d="M128.088,207.964c-1.978,2.313-5.158,2.84-7.102,1.177c-1.944-1.663-1.916-4.886,0.062-7.199
				c1.978-2.313,5.158-2.84,7.102-1.177C130.094,202.428,130.066,205.651,128.088,207.964z"/>
		</g>
	</g>
</g>
</svg>
