<?xml version="1.0" encoding="utf-8"?>
<!-- Generator: Adobe Illustrator 27.5.0, SVG Export Plug-In . SVG Version: 6.00 Build 0)  -->
<svg version="1.1" id="Layer_1" xmlns="http://www.w3.org/2000/svg" xmlns:xlink="http://www.w3.org/1999/xlink" x="0px" y="0px"
	 viewBox="0 0 417.827 220.082" style="enable-background:new 0 0 417.827 220.082;" xml:space="preserve">
<g>
	<g>
		<path style="fill:#FFFFFF;" d="M395.799,68.545c-0.7-0.019-61.554-2.147-138.45-45.812c-4.95-2.81-11.219-1.702-14.911,2.635
			c-0.227,0.267-22.984,26.81-44.981,37.282c-5.867,2.794-14.373,6.007-24.229,9.73c-23.272,8.791-54.994,20.773-79.178,38.072
			c-2.829-1.769-6.02-3.716-9.211-5.483l-0.186-0.104c-0.542-0.299-1.075-0.583-1.612-0.867l-0.493-0.264
			c-0.497-0.259-0.984-0.505-1.473-0.749l-0.635-0.317c-0.474-0.231-0.939-0.451-1.396-0.662l-0.712-0.329
			c-0.466-0.21-0.925-0.406-1.389-0.603l-0.751-0.314c-0.458-0.186-0.909-0.359-1.39-0.539c-0.268-0.1-0.534-0.198-0.772-0.283
			c-0.467-0.165-0.928-0.318-1.396-0.468c-0.28-0.089-0.559-0.174-0.84-0.257c-0.481-0.141-0.954-0.271-1.407-0.385
			c-0.299-0.076-0.596-0.146-0.903-0.215c-0.493-0.112-0.983-0.212-1.436-0.292c-0.322-0.058-0.641-0.107-0.952-0.153
			c-0.513-0.075-1.021-0.139-1.536-0.186c-0.306-0.028-0.604-0.047-0.986-0.067c-0.54-0.029-1.087-0.047-1.58-0.042
			c-0.323,0.002-0.642,0.016-1.033,0.038c-0.467,0.024-0.932,0.056-1.327,0.1c-0.198,0.017-0.397,0.039-0.567,0.063
			c-0.259,0.034-0.515,0.077-0.685,0.112c-1.591,0.263-3.048,0.67-4.455,1.244c-4.326,1.766-15.179,7.096-22.512,18.423
			l-0.101,0.155c-0.254,0.397-0.502,0.799-0.722,1.172c-0.015,0.023-0.03,0.048-0.044,0.074c-0.753,1.271-1.444,2.604-2.059,3.966
			l-0.065,0.146c-0.174,0.391-0.342,0.786-0.531,1.251l-0.057,0.141c-0.179,0.449-0.352,0.902-0.486,1.28l2.239,0.794l-2.279-0.68
			c-0.352,0.985-0.658,1.983-0.945,3.067l-0.045,0.174c-0.103,0.403-0.2,0.811-0.275,1.15l-0.097,0.44
			c-0.083,0.398-0.161,0.8-0.236,1.22l-0.053,0.3c-0.118,0.697-0.216,1.403-0.297,2.139c-0.037,0.338-0.073,0.675-0.099,1.001
			c-0.012,0.128-0.021,0.256-0.026,0.351c-0.031,0.421-0.057,0.847-0.075,1.314l-0.011,0.364c-0.013,0.409-0.018,0.821-0.017,1.205
			l0.002,0.486c0.007,0.422,0.021,0.848,0.039,1.234c0.004,0.147,0.011,0.296,0.016,0.365c0.03,0.557,0.073,1.118,0.135,1.754
			c0.001,0.004,0.013,0.1,0.014,0.104c0.05,0.484,0.108,0.972,0.179,1.479l0.079,0.526l2.349-0.352l-2.329,0.486
			c0.053,0.335,0.11,0.672,0.183,1.067l0.088,0.471c0.078,0.397,0.163,0.798,0.257,1.218c0.002,0.008,0.02,0.093,0.022,0.101
			l0.085,0.374c0.06,0.252,0.124,0.508,0.187,0.748l0.093,0.357c0.045,0.178,0.09,0.354,0.149,0.564
			c0.115,0.417,0.24,0.837,0.36,1.222l0.104,0.335l0.01-0.003c0.018,0.054,0.037,0.112,0.055,0.167l-0.01,0.004l0.135,0.407
			c0.123,0.37,0.25,0.74,0.385,1.116l0.068,0.192c0.054,0.153,0.112,0.308,0.185,0.496c0.142,0.381,0.292,0.763,0.476,1.215
			l0.235,0.575c0.167,0.396,0.341,0.794,0.542,1.241l0.483,1.042c0.155,0.326,0.311,0.651,0.491,1.012l1.226,2.305
			c0.118,0.212,0.234,0.422,0.421,0.747l0.198,0.335c0.003,0.005,0.006,0.01,0.009,0.014l0.311,0.526
			c0.188,0.316,0.384,0.633,0.602,0.983l0.456,0.726c0.353,0.55,0.718,1.102,1.098,1.661c1.66,2.428,4.146,4.146,7.002,4.839
			c0.905,0.221,22.382,5.417,41.893,8.168c1.552,0.219,3.164,0.47,4.927,0.768l0.338,0.058c1.684,0.287,3.384,0.596,5.189,0.946
			c11.247,2.189,24.043,5.484,39.118,10.076c0.949,0.288,1.895,0.58,2.828,0.868l0.315,0.097c2.907,0.902,5.787,1.815,8.667,2.746
			l2.909,0.946c0.012,0.004,0.023,0.007,0.031,0.01c1.918,0.628,3.816,1.256,5.702,1.886l2.836,0.951
			c6.874,2.316,13.399,4.584,19.158,6.587l19.194,6.501c0.479,0.15,0.942,0.293,1.396,0.431l1.763,0.521
			c0.338,0.097,0.661,0.189,0.918,0.259l0.385,0.105c0.425,0.115,0.832,0.222,1.301,0.34l0.105,0.025
			c0.355,0.088,0.693,0.168,1.004,0.238l0.387,0.084c0.297,0.063,0.577,0.119,0.928,0.185l0.289,0.054
			c0.469,0.082,0.915,0.148,1.313,0.196c0.094,0.012,0.19,0.027,0.289,0.044l0.129,0.02c1.474,0.235,3.15,0.453,5.43,0.453
			c2.04,0,4.34-0.174,7.031-0.532c0.096-0.013,0.188-0.031,0.227-0.042c0.347-0.052,0.689-0.115,1.037-0.199l0.176-0.048
			c0.321-0.083,0.635-0.178,0.99-0.302c0.177-0.053,0.352-0.108,0.518-0.162l0.343-0.11c11.773-3.753,22.254-10.701,31.155-20.65
			c10.262-11.468,63.302-53.302,105.201-73.802c5.029-1.917,29.543-11.912,46.34-30.308c3.128-3.428,3.973-8.399,2.152-12.667
			S400.439,68.659,395.799,68.545z"/>
		<path style="fill:#F1F1F1;" d="M394.372,67.12c-0.7-0.02-61.554-2.147-138.45-45.812c-4.95-2.81-11.219-1.702-14.911,2.635
			c-0.227,0.267-22.984,26.81-44.981,37.282c-5.866,2.793-14.372,6.007-24.229,9.729c-23.273,8.791-54.994,20.773-79.178,38.073
			c-2.829-1.769-6.019-3.716-9.211-5.483l-0.186-0.104c-0.542-0.299-1.075-0.583-1.612-0.869l-0.493-0.262
			c-0.497-0.26-0.985-0.505-1.473-0.749l-0.635-0.317c-0.475-0.232-0.938-0.451-1.396-0.662l-0.712-0.33
			c-0.466-0.209-0.925-0.407-1.389-0.603l-0.751-0.314c-0.458-0.185-0.909-0.359-1.39-0.539c-0.267-0.099-0.534-0.198-0.773-0.283
			c-0.466-0.166-0.927-0.318-1.396-0.468c-0.28-0.089-0.559-0.174-0.84-0.257c-0.48-0.142-0.954-0.271-1.407-0.385
			c-0.299-0.076-0.596-0.146-0.903-0.215c-0.493-0.112-0.984-0.212-1.436-0.292c-0.322-0.058-0.641-0.106-0.952-0.152
			c-0.513-0.075-1.021-0.139-1.536-0.186c-0.306-0.028-0.604-0.047-0.986-0.067c-0.54-0.028-1.087-0.047-1.58-0.042
			c-0.323,0.003-0.642,0.017-1.033,0.039c-0.467,0.025-0.931,0.061-1.328,0.099c-0.196,0.019-0.396,0.039-0.566,0.062
			c-0.259,0.034-0.515,0.078-0.684,0.113c-1.591,0.262-3.048,0.669-4.455,1.244c-4.326,1.765-15.179,7.096-22.512,18.422
			l-0.101,0.155c-0.255,0.397-0.502,0.8-0.722,1.172c-0.016,0.023-0.03,0.049-0.044,0.073c-0.753,1.272-1.444,2.604-2.059,3.966
			l-0.066,0.146c-0.173,0.392-0.341,0.786-0.53,1.251l-0.057,0.142c-0.179,0.449-0.351,0.901-0.486,1.28l2.239,0.794l-2.28-0.68
			c-0.351,0.985-0.657,1.983-0.945,3.068l-0.044,0.174c-0.103,0.403-0.2,0.81-0.275,1.149l-0.097,0.441
			c-0.084,0.397-0.161,0.799-0.236,1.22l-0.053,0.3c-0.118,0.697-0.216,1.403-0.297,2.139c-0.037,0.337-0.071,0.674-0.099,1.001
			c-0.011,0.128-0.02,0.256-0.026,0.35c-0.027,0.421-0.057,0.847-0.075,1.315l-0.011,0.363c-0.013,0.41-0.018,0.821-0.017,1.206
			l0.002,0.486c0.007,0.423,0.024,0.849,0.039,1.234c0.006,0.148,0.012,0.297,0.016,0.366c0.034,0.556,0.073,1.118,0.135,1.753
			c0.001,0.005,0.013,0.101,0.014,0.105c0.05,0.484,0.108,0.972,0.179,1.479l0.079,0.526l2.349-0.352l-2.329,0.485
			c0.053,0.336,0.11,0.672,0.183,1.067l0.088,0.471c0.078,0.398,0.159,0.8,0.257,1.219c0.002,0.008,0.021,0.093,0.022,0.101
			l0.085,0.373c0.06,0.253,0.124,0.509,0.187,0.748l0.092,0.357c0.046,0.177,0.092,0.355,0.149,0.565
			c0.117,0.416,0.241,0.836,0.361,1.221l0.104,0.335l0.01-0.003c0.018,0.054,0.037,0.113,0.055,0.169l-0.011,0.003l0.136,0.407
			c0.123,0.37,0.25,0.74,0.384,1.116l0.069,0.192c0.054,0.154,0.113,0.309,0.185,0.496c0.145,0.38,0.292,0.763,0.476,1.215
			l0.235,0.575c0.167,0.396,0.341,0.794,0.542,1.241l0.483,1.042c0.155,0.326,0.311,0.651,0.491,1.011l1.226,2.306
			c0.117,0.212,0.234,0.423,0.421,0.747l0.198,0.335c0.003,0.004,0.006,0.01,0.009,0.014l0.311,0.526
			c0.188,0.316,0.384,0.632,0.602,0.983l0.456,0.725c0.353,0.55,0.717,1.103,1.098,1.661c1.66,2.428,4.146,4.146,7.002,4.84
			c0.905,0.22,22.381,5.417,41.893,8.168c1.552,0.219,3.164,0.47,4.927,0.767l0.338,0.058c1.683,0.287,3.384,0.597,5.189,0.946
			c11.247,2.189,24.043,5.484,39.118,10.075c0.949,0.289,1.895,0.581,2.828,0.869l0.315,0.097c2.907,0.901,5.787,1.815,8.667,2.746
			l2.909,0.945c0.012,0.004,0.023,0.008,0.031,0.011c1.917,0.633,3.815,1.255,5.702,1.885l2.836,0.951
			c6.874,2.316,13.4,4.585,19.158,6.587l19.194,6.501c0.479,0.15,0.942,0.293,1.396,0.431l1.763,0.521
			c0.338,0.098,0.661,0.188,0.918,0.259l0.385,0.106c0.425,0.115,0.832,0.222,1.3,0.34l0.106,0.024
			c0.355,0.088,0.693,0.168,1.004,0.237l0.387,0.084c0.297,0.063,0.577,0.12,0.928,0.185l0.289,0.053
			c0.469,0.083,0.915,0.149,1.313,0.197c0.095,0.011,0.19,0.027,0.29,0.044l0.129,0.021c1.474,0.235,3.15,0.453,5.43,0.453
			c2.04,0,4.339-0.174,7.031-0.532c0.096-0.013,0.188-0.031,0.227-0.041c0.346-0.052,0.689-0.115,1.037-0.199l0.176-0.048
			c0.32-0.083,0.635-0.178,0.99-0.303c0.177-0.053,0.352-0.107,0.517-0.161l0.344-0.11c11.772-3.753,22.254-10.701,31.155-20.651
			c10.262-11.468,63.302-53.301,105.201-73.801c5.029-1.919,29.543-11.913,46.34-30.309c3.128-3.427,3.974-8.399,2.152-12.666
			C403.188,70.063,399.012,67.232,394.372,67.12z"/>
		<path style="fill:#E2E2E2;" d="M392.946,65.694c-0.7-0.02-61.554-2.148-138.451-45.812c-4.949-2.81-11.218-1.702-14.91,2.634
			c-0.227,0.267-22.984,26.809-44.981,37.283c-5.867,2.793-14.372,6.006-24.229,9.729c-23.273,8.791-54.994,20.773-79.179,38.073
			c-2.828-1.769-6.019-3.716-9.21-5.484l-0.186-0.104c-0.542-0.298-1.075-0.583-1.612-0.868l-0.493-0.263
			c-0.497-0.26-0.985-0.505-1.473-0.749l-0.635-0.317c-0.475-0.232-0.939-0.45-1.396-0.661l-0.713-0.329
			c-0.466-0.21-0.924-0.407-1.388-0.603l-0.751-0.314c-0.459-0.185-0.909-0.359-1.39-0.539c-0.268-0.1-0.535-0.198-0.773-0.282
			c-0.467-0.166-0.927-0.319-1.396-0.468c-0.279-0.089-0.558-0.174-0.839-0.257c-0.48-0.142-0.954-0.271-1.407-0.386
			c-0.299-0.075-0.596-0.146-0.903-0.214c-0.493-0.112-0.984-0.212-1.436-0.292c-0.322-0.057-0.641-0.106-0.952-0.152
			c-0.513-0.075-1.021-0.139-1.536-0.186c-0.306-0.028-0.603-0.046-0.986-0.067c-0.54-0.028-1.087-0.047-1.58-0.042
			c-0.323,0.003-0.642,0.017-1.033,0.038c-0.467,0.026-0.931,0.061-1.328,0.1c-0.197,0.02-0.396,0.039-0.566,0.063
			c-0.259,0.034-0.515,0.078-0.685,0.112c-1.592,0.263-3.048,0.67-4.455,1.245c-4.326,1.765-15.179,7.096-22.512,18.422
			l-0.101,0.154c-0.255,0.397-0.502,0.8-0.723,1.173c-0.015,0.023-0.029,0.048-0.043,0.073c-0.754,1.272-1.444,2.604-2.059,3.966
			l-0.066,0.146c-0.173,0.392-0.341,0.787-0.53,1.25l-0.057,0.142c-0.179,0.449-0.352,0.902-0.486,1.28l2.238,0.794l-2.279-0.681
			c-0.351,0.984-0.657,1.983-0.945,3.067l-0.044,0.175c-0.103,0.402-0.2,0.81-0.275,1.15l-0.097,0.441
			c-0.084,0.397-0.162,0.799-0.236,1.219l-0.054,0.301c-0.117,0.697-0.215,1.403-0.297,2.139c-0.037,0.337-0.071,0.675-0.098,1.002
			c-0.011,0.127-0.019,0.256-0.026,0.35c-0.027,0.421-0.057,0.847-0.075,1.315l-0.011,0.363c-0.014,0.41-0.018,0.822-0.017,1.205
			l0.001,0.485c0.008,0.423,0.024,0.849,0.039,1.234c0.006,0.148,0.013,0.297,0.017,0.365c0.034,0.557,0.073,1.119,0.135,1.753
			c0.001,0.004,0.013,0.1,0.014,0.105c0.05,0.484,0.108,0.972,0.179,1.479l0.079,0.527l2.349-0.352l-2.329,0.485
			c0.053,0.335,0.11,0.672,0.183,1.067l0.088,0.471c0.078,0.396,0.158,0.8,0.257,1.218c0.002,0.008,0.021,0.093,0.022,0.101
			l0.084,0.373c0.061,0.253,0.125,0.508,0.187,0.748l0.093,0.357c0.046,0.177,0.091,0.355,0.149,0.565
			c0.117,0.416,0.24,0.837,0.361,1.221l0.103,0.335l0.01-0.003c0.018,0.054,0.037,0.113,0.055,0.168l-0.011,0.003l0.136,0.408
			c0.122,0.37,0.25,0.74,0.384,1.116l0.069,0.192c0.054,0.154,0.113,0.309,0.184,0.497c0.145,0.38,0.292,0.762,0.476,1.215
			l0.234,0.575c0.167,0.395,0.342,0.793,0.543,1.241l0.483,1.042c0.155,0.325,0.309,0.651,0.491,1.011l1.226,2.306
			c0.117,0.212,0.234,0.422,0.421,0.747l0.198,0.334c0.003,0.004,0.006,0.01,0.009,0.015l0.31,0.526
			c0.189,0.315,0.383,0.632,0.602,0.983l0.456,0.725c0.354,0.55,0.717,1.102,1.098,1.661c1.659,2.427,4.146,4.146,7.002,4.839
			c0.905,0.22,22.381,5.417,41.893,8.168c1.552,0.219,3.164,0.471,4.927,0.768l0.338,0.058c1.683,0.286,3.384,0.596,5.189,0.946
			c11.247,2.189,24.042,5.484,39.118,10.075c0.949,0.289,1.896,0.58,2.828,0.868l0.315,0.097c2.907,0.902,5.787,1.816,8.667,2.746
			l2.909,0.946c0.012,0.004,0.022,0.008,0.031,0.011c1.916,0.633,3.815,1.255,5.702,1.884l2.836,0.952
			c6.873,2.316,13.399,4.584,19.157,6.586l19.195,6.502c0.479,0.15,0.942,0.292,1.396,0.431l1.763,0.52
			c0.337,0.097,0.661,0.188,0.918,0.259l0.384,0.106c0.425,0.116,0.833,0.222,1.301,0.34l0.106,0.024
			c0.355,0.088,0.693,0.168,1.004,0.238l0.387,0.085c0.297,0.063,0.577,0.12,0.928,0.185l0.289,0.053
			c0.469,0.083,0.915,0.149,1.313,0.197c0.095,0.011,0.19,0.027,0.29,0.044l0.129,0.021c1.473,0.235,3.15,0.453,5.43,0.453
			c2.04,0,4.339-0.174,7.031-0.532c0.096-0.013,0.188-0.03,0.227-0.042c0.346-0.052,0.689-0.116,1.037-0.199l0.176-0.048
			c0.32-0.084,0.634-0.178,0.99-0.304c0.177-0.052,0.352-0.107,0.517-0.16l0.344-0.11c11.771-3.754,22.254-10.702,31.155-20.651
			c10.262-11.468,63.302-53.301,105.201-73.802c5.029-1.918,29.543-11.913,46.339-30.309c3.129-3.427,3.974-8.4,2.152-12.667
			C401.76,68.637,397.586,65.806,392.946,65.694z"/>
		<path style="fill:#D4D4D4;" d="M391.52,64.268c-0.7-0.02-61.553-2.148-138.45-45.812c-4.949-2.809-11.218-1.701-14.91,2.635
			c-0.228,0.266-22.984,26.81-44.981,37.282c-5.867,2.794-14.372,6.007-24.229,9.729c-23.273,8.791-54.994,20.774-79.179,38.072
			c-2.828-1.768-6.019-3.715-9.21-5.483l-0.186-0.104c-0.542-0.298-1.075-0.582-1.613-0.868l-0.492-0.263
			c-0.497-0.259-0.985-0.505-1.474-0.749l-0.634-0.317c-0.475-0.232-0.939-0.451-1.396-0.662l-0.713-0.329
			c-0.466-0.21-0.924-0.407-1.388-0.603l-0.751-0.314c-0.459-0.186-0.909-0.359-1.391-0.539c-0.267-0.1-0.534-0.198-0.773-0.283
			c-0.467-0.166-0.927-0.319-1.396-0.468c-0.28-0.089-0.559-0.174-0.839-0.257c-0.481-0.141-0.954-0.271-1.408-0.385
			c-0.298-0.076-0.595-0.146-0.902-0.215c-0.493-0.112-0.984-0.212-1.436-0.292c-0.321-0.058-0.64-0.106-0.951-0.152
			c-0.514-0.075-1.021-0.139-1.536-0.186c-0.306-0.027-0.604-0.046-0.986-0.066c-0.54-0.029-1.088-0.047-1.58-0.042
			c-0.324,0.002-0.642,0.017-1.033,0.038c-0.467,0.025-0.932,0.061-1.328,0.1c-0.197,0.02-0.397,0.039-0.566,0.062
			c-0.259,0.035-0.516,0.078-0.685,0.113c-1.592,0.263-3.048,0.669-4.455,1.244c-4.326,1.766-15.179,7.096-22.512,18.422
			l-0.102,0.155c-0.254,0.398-0.502,0.8-0.722,1.172c-0.015,0.023-0.029,0.048-0.043,0.074c-0.754,1.271-1.444,2.604-2.059,3.966
			l-0.066,0.146c-0.173,0.391-0.341,0.786-0.53,1.25l-0.057,0.142c-0.18,0.449-0.352,0.902-0.486,1.28l2.238,0.794l-2.279-0.681
			c-0.351,0.985-0.657,1.983-0.945,3.068l-0.044,0.174c-0.103,0.403-0.201,0.811-0.276,1.15l-0.096,0.442
			c-0.084,0.396-0.162,0.799-0.237,1.219l-0.053,0.301c-0.117,0.696-0.215,1.403-0.297,2.139c-0.037,0.337-0.071,0.675-0.099,1.001
			c-0.011,0.128-0.019,0.257-0.025,0.35c-0.029,0.421-0.057,0.847-0.075,1.314l-0.011,0.363c-0.014,0.41-0.017,0.822-0.017,1.206
			l0.002,0.485c0.008,0.423,0.023,0.848,0.039,1.234c0.006,0.147,0.012,0.297,0.016,0.365c0.035,0.557,0.073,1.118,0.136,1.753
			c0.001,0.004,0.012,0.1,0.013,0.105c0.051,0.484,0.109,0.972,0.18,1.479l0.078,0.526l2.35-0.352l-2.33,0.486
			c0.054,0.335,0.111,0.672,0.184,1.067l0.088,0.471c0.078,0.397,0.157,0.8,0.257,1.218c0.002,0.008,0.021,0.093,0.022,0.1
			l0.084,0.374c0.061,0.253,0.125,0.508,0.187,0.748l0.093,0.357c0.046,0.177,0.09,0.355,0.149,0.564
			c0.117,0.416,0.24,0.837,0.361,1.221l0.104,0.335l0.01-0.002c0.018,0.054,0.037,0.112,0.055,0.168l-0.011,0.003l0.136,0.407
			c0.122,0.37,0.249,0.74,0.384,1.116l0.068,0.192c0.055,0.154,0.113,0.308,0.185,0.496c0.145,0.38,0.292,0.763,0.476,1.215
			l0.234,0.575c0.167,0.396,0.342,0.794,0.543,1.241l0.483,1.042c0.155,0.325,0.309,0.651,0.49,1.011l1.226,2.306
			c0.118,0.212,0.235,0.422,0.422,0.747l0.198,0.335c0.003,0.004,0.006,0.01,0.009,0.014l0.31,0.527
			c0.189,0.315,0.383,0.632,0.601,0.983l0.457,0.725c0.354,0.55,0.717,1.102,1.098,1.661c1.659,2.427,4.146,4.146,7.001,4.839
			c0.906,0.22,22.382,5.417,41.894,8.168c1.552,0.219,3.164,0.47,4.927,0.767l0.338,0.058c1.683,0.287,3.383,0.596,5.189,0.946
			c11.247,2.188,24.042,5.484,39.118,10.075c0.949,0.289,1.896,0.581,2.827,0.869l0.315,0.097c2.908,0.902,5.788,1.815,8.667,2.746
			l2.91,0.946c0.012,0.004,0.023,0.008,0.031,0.011c1.916,0.632,3.815,1.255,5.702,1.884l2.836,0.952
			c6.873,2.316,13.399,4.584,19.157,6.586l19.195,6.501c0.479,0.15,0.942,0.293,1.395,0.431l1.763,0.521
			c0.338,0.097,0.662,0.188,0.919,0.259l0.384,0.106c0.425,0.115,0.832,0.222,1.301,0.34l0.105,0.024
			c0.355,0.088,0.694,0.168,1.004,0.237l0.388,0.085c0.297,0.063,0.576,0.119,0.928,0.185l0.289,0.054
			c0.469,0.082,0.915,0.149,1.313,0.196c0.095,0.012,0.19,0.027,0.29,0.044l0.129,0.02c1.473,0.235,3.15,0.454,5.43,0.454
			c2.04,0,4.339-0.174,7.031-0.532c0.096-0.013,0.188-0.031,0.227-0.042c0.346-0.052,0.689-0.115,1.037-0.199l0.175-0.048
			c0.321-0.083,0.635-0.178,0.991-0.303c0.177-0.053,0.352-0.107,0.517-0.161l0.344-0.11c11.771-3.753,22.253-10.701,31.155-20.651
			c10.262-11.467,63.302-53.301,105.201-73.802c5.029-1.918,29.543-11.913,46.339-30.309c3.129-3.427,3.974-8.4,2.152-12.667
			C400.334,67.21,396.16,64.38,391.52,64.268z"/>
		<path style="fill:#C5C5C5;" d="M390.094,62.841c-0.7-0.02-61.553-2.148-138.45-45.812c-4.949-2.809-11.218-1.702-14.91,2.635
			c-0.228,0.266-22.985,26.81-44.981,37.282c-5.867,2.794-14.372,6.007-24.229,9.729c-23.273,8.791-54.994,20.774-79.179,38.072
			c-2.829-1.768-6.02-3.716-9.211-5.482l-0.186-0.104c-0.541-0.298-1.075-0.582-1.612-0.868l-0.492-0.263
			c-0.497-0.259-0.985-0.504-1.474-0.748l-0.634-0.317c-0.475-0.232-0.939-0.451-1.396-0.663l-0.713-0.33
			c-0.466-0.209-0.924-0.406-1.388-0.602l-0.752-0.315c-0.458-0.186-0.909-0.359-1.39-0.54c-0.267-0.099-0.534-0.198-0.772-0.282
			c-0.467-0.165-0.927-0.319-1.396-0.469c-0.28-0.088-0.559-0.173-0.84-0.257c-0.48-0.141-0.953-0.271-1.407-0.386
			c-0.299-0.075-0.596-0.145-0.902-0.215c-0.493-0.111-0.984-0.212-1.437-0.291c-0.321-0.058-0.64-0.106-0.951-0.153
			c-0.514-0.074-1.021-0.138-1.537-0.186c-0.305-0.027-0.603-0.046-0.985-0.066c-0.54-0.029-1.088-0.047-1.58-0.042
			c-0.324,0.003-0.643,0.018-1.034,0.039c-0.466,0.025-0.931,0.06-1.327,0.099c-0.197,0.02-0.397,0.04-0.566,0.063
			c-0.259,0.035-0.516,0.077-0.686,0.112c-1.591,0.263-3.047,0.67-4.454,1.244c-4.326,1.766-15.179,7.097-22.512,18.423
			l-0.101,0.155c-0.254,0.396-0.502,0.8-0.722,1.172c-0.015,0.023-0.029,0.048-0.044,0.074c-0.753,1.271-1.444,2.603-2.059,3.965
			l-0.065,0.146c-0.174,0.392-0.342,0.786-0.53,1.251l-0.057,0.142c-0.18,0.448-0.352,0.902-0.486,1.279l2.238,0.794l-2.279-0.68
			c-0.351,0.985-0.658,1.983-0.945,3.068l-0.045,0.173c-0.101,0.404-0.2,0.811-0.275,1.15l-0.097,0.441
			c-0.083,0.397-0.161,0.799-0.236,1.22l-0.053,0.301c-0.118,0.696-0.215,1.402-0.297,2.138c-0.037,0.337-0.071,0.675-0.099,1.001
			c-0.011,0.128-0.02,0.256-0.025,0.35c-0.029,0.422-0.057,0.848-0.075,1.315l-0.012,0.363c-0.013,0.409-0.018,0.821-0.017,1.205
			l0.002,0.486c0.008,0.423,0.024,0.848,0.039,1.234c0.006,0.148,0.012,0.297,0.016,0.366c0.033,0.556,0.073,1.118,0.136,1.753
			c0.001,0.005,0.012,0.101,0.013,0.105c0.051,0.484,0.108,0.971,0.18,1.478l0.078,0.526l2.35-0.352l-2.33,0.486
			c0.053,0.335,0.11,0.672,0.183,1.067l0.089,0.471c0.078,0.397,0.157,0.799,0.257,1.218c0.002,0.007,0.021,0.093,0.022,0.1
			l0.084,0.374c0.06,0.253,0.124,0.508,0.186,0.748l0.093,0.357c0.046,0.178,0.09,0.355,0.149,0.564
			c0.117,0.417,0.24,0.837,0.361,1.222l0.104,0.334l0.009-0.002c0.018,0.054,0.037,0.113,0.055,0.168l-0.01,0.003l0.136,0.407
			c0.122,0.371,0.249,0.741,0.384,1.116l0.068,0.192c0.054,0.154,0.113,0.308,0.185,0.495c0.146,0.381,0.293,0.764,0.476,1.216
			l0.234,0.575c0.167,0.395,0.342,0.793,0.543,1.241l0.483,1.042c0.154,0.326,0.31,0.651,0.49,1.011l1.226,2.306
			c0.118,0.213,0.235,0.423,0.422,0.747l0.198,0.335c0.003,0.004,0.006,0.009,0.008,0.014l0.312,0.526
			c0.188,0.316,0.383,0.632,0.601,0.983l0.457,0.725c0.354,0.551,0.717,1.103,1.098,1.661c1.659,2.428,4.145,4.146,7.001,4.84
			c0.905,0.22,22.382,5.417,41.893,8.168c1.553,0.219,3.165,0.469,4.928,0.767l0.338,0.057c1.683,0.287,3.383,0.596,5.189,0.946
			c11.247,2.189,24.042,5.484,39.118,10.075c0.949,0.289,1.895,0.58,2.827,0.869l0.315,0.097c2.908,0.902,5.787,1.815,8.667,2.745
			l2.909,0.946c0.013,0.004,0.023,0.008,0.032,0.011c1.915,0.633,3.815,1.256,5.701,1.885l2.837,0.951
			c6.873,2.315,13.398,4.585,19.157,6.587l19.195,6.501c0.479,0.15,0.942,0.292,1.395,0.431l1.763,0.521
			c0.338,0.098,0.662,0.188,0.919,0.259l0.384,0.107c0.425,0.115,0.832,0.222,1.301,0.339l0.105,0.025
			c0.356,0.088,0.694,0.168,1.004,0.237l0.387,0.085c0.297,0.063,0.577,0.118,0.928,0.185l0.29,0.053
			c0.469,0.083,0.914,0.149,1.313,0.197c0.095,0.011,0.19,0.027,0.289,0.044l0.129,0.021c1.474,0.235,3.151,0.453,5.431,0.453
			c2.04,0,4.339-0.174,7.031-0.532c0.096-0.013,0.188-0.03,0.227-0.042c0.346-0.052,0.688-0.115,1.037-0.198l0.175-0.048
			c0.321-0.083,0.635-0.177,0.991-0.302c0.176-0.053,0.352-0.107,0.517-0.162l0.344-0.11c11.771-3.752,22.253-10.701,31.154-20.65
			c10.262-11.468,63.303-53.301,105.202-73.802c5.029-1.918,29.542-11.913,46.339-30.308c3.129-3.427,3.974-8.4,2.152-12.668
			C398.908,65.785,394.733,62.955,390.094,62.841z"/>
		<path style="fill:#B7B7B7;" d="M388.667,61.416c-0.7-0.02-61.553-2.148-138.45-45.812c-4.949-2.81-11.218-1.702-14.91,2.634
			c-0.227,0.267-22.985,26.809-44.981,37.282c-5.867,2.794-14.373,6.007-24.229,9.729c-23.273,8.791-54.994,20.774-79.178,38.072
			c-2.83-1.769-6.02-3.716-9.212-5.483l-0.185-0.104c-0.541-0.299-1.075-0.583-1.612-0.868l-0.492-0.263
			c-0.497-0.259-0.985-0.505-1.474-0.749l-0.635-0.317c-0.474-0.232-0.938-0.45-1.395-0.662l-0.713-0.329
			c-0.466-0.21-0.924-0.407-1.388-0.603l-0.752-0.314c-0.458-0.185-0.909-0.359-1.39-0.54c-0.267-0.099-0.534-0.198-0.772-0.282
			c-0.467-0.166-0.927-0.319-1.396-0.469c-0.28-0.089-0.559-0.174-0.84-0.257c-0.48-0.142-0.953-0.271-1.407-0.386
			c-0.299-0.075-0.596-0.146-0.902-0.215c-0.494-0.111-0.984-0.212-1.437-0.292c-0.321-0.058-0.64-0.106-0.951-0.152
			c-0.514-0.074-1.021-0.138-1.537-0.186c-0.305-0.027-0.603-0.046-0.985-0.066c-0.54-0.029-1.088-0.048-1.58-0.042
			c-0.324,0.003-0.642,0.017-1.034,0.039c-0.466,0.025-0.931,0.06-1.327,0.099c-0.197,0.02-0.397,0.04-0.567,0.063
			c-0.259,0.034-0.515,0.077-0.685,0.112c-1.591,0.263-3.047,0.669-4.455,1.244c-4.325,1.766-15.178,7.097-22.511,18.423
			l-0.102,0.154c-0.254,0.397-0.502,0.8-0.722,1.173c-0.015,0.023-0.029,0.048-0.044,0.073c-0.753,1.271-1.444,2.604-2.059,3.966
			l-0.065,0.146c-0.174,0.392-0.342,0.787-0.531,1.251l-0.056,0.142c-0.18,0.449-0.352,0.902-0.486,1.28l2.238,0.794l-2.279-0.68
			c-0.351,0.984-0.658,1.983-0.945,3.067l-0.045,0.174c-0.102,0.403-0.2,0.811-0.275,1.15l-0.097,0.441
			c-0.083,0.397-0.161,0.799-0.236,1.219l-0.053,0.301c-0.118,0.697-0.215,1.403-0.296,2.139c-0.038,0.337-0.071,0.675-0.1,1.001
			c-0.01,0.128-0.02,0.256-0.025,0.351c-0.028,0.422-0.057,0.847-0.075,1.315l-0.012,0.363c-0.013,0.41-0.018,0.822-0.017,1.206
			l0.002,0.485c0.008,0.423,0.024,0.849,0.039,1.234c0.007,0.148,0.012,0.297,0.016,0.365c0.034,0.557,0.073,1.119,0.136,1.754
			c0.001,0.004,0.012,0.1,0.013,0.105c0.05,0.484,0.108,0.971,0.179,1.478l0.079,0.527l2.35-0.352l-2.33,0.486
			c0.053,0.335,0.11,0.672,0.183,1.067l0.089,0.471c0.077,0.396,0.158,0.799,0.257,1.219c0.002,0.007,0.021,0.093,0.022,0.1
			l0.084,0.373c0.062,0.253,0.124,0.508,0.187,0.748l0.093,0.357c0.046,0.177,0.091,0.355,0.149,0.564
			c0.117,0.417,0.24,0.837,0.36,1.222l0.104,0.334l0.009-0.002c0.018,0.054,0.037,0.112,0.055,0.167l-0.01,0.004l0.136,0.407
			c0.122,0.37,0.249,0.74,0.384,1.116l0.068,0.192c0.054,0.154,0.113,0.309,0.185,0.496c0.145,0.38,0.293,0.763,0.477,1.215
			l0.234,0.575c0.167,0.396,0.342,0.793,0.543,1.241l0.483,1.042c0.154,0.326,0.31,0.651,0.49,1.011l1.226,2.306
			c0.118,0.212,0.235,0.422,0.422,0.747l0.198,0.334c0.003,0.005,0.005,0.01,0.008,0.015l0.312,0.525
			c0.188,0.316,0.383,0.633,0.601,0.983l0.457,0.726c0.354,0.55,0.717,1.103,1.097,1.661c1.66,2.428,4.146,4.145,7.002,4.839
			c0.905,0.22,22.382,5.417,41.892,8.168c1.553,0.22,3.165,0.47,4.928,0.768l0.338,0.058c1.683,0.286,3.383,0.596,5.189,0.946
			c11.247,2.188,24.042,5.484,39.118,10.075c0.948,0.289,1.894,0.58,2.827,0.868l0.316,0.097c2.907,0.902,5.787,1.816,8.667,2.746
			l2.909,0.946c0.013,0.004,0.023,0.008,0.032,0.011c1.916,0.632,3.815,1.255,5.701,1.884l2.836,0.952
			c6.874,2.315,13.399,4.584,19.158,6.586l19.194,6.501c0.479,0.15,0.944,0.293,1.396,0.43l1.763,0.521
			c0.338,0.097,0.662,0.188,0.919,0.259l0.384,0.106c0.425,0.115,0.832,0.222,1.301,0.339l0.105,0.025
			c0.355,0.087,0.694,0.167,1.004,0.237l0.387,0.084c0.297,0.063,0.577,0.119,0.928,0.185l0.29,0.053
			c0.468,0.082,0.914,0.149,1.313,0.196c0.095,0.012,0.19,0.028,0.289,0.044l0.129,0.021c1.474,0.235,3.151,0.454,5.431,0.454
			c2.04,0,4.339-0.174,7.031-0.532c0.096-0.013,0.189-0.031,0.227-0.042c0.346-0.052,0.689-0.115,1.037-0.198l0.175-0.048
			c0.321-0.084,0.635-0.178,0.991-0.303c0.176-0.052,0.352-0.107,0.517-0.161l0.343-0.111c11.773-3.753,22.254-10.701,31.155-20.65
			c10.262-11.468,63.303-53.302,105.202-73.802c5.029-1.918,29.542-11.913,46.339-30.309c3.128-3.428,3.975-8.4,2.152-12.667
			C397.481,64.358,393.307,61.528,388.667,61.416z"/>
		<path style="fill:#A8A8A8;" d="M387.241,59.989c-0.7-0.019-61.554-2.147-138.45-45.811c-4.949-2.81-11.219-1.703-14.911,2.634
			c-0.227,0.267-22.984,26.81-44.98,37.283c-5.867,2.794-14.373,6.006-24.229,9.729c-23.273,8.791-54.994,20.773-79.178,38.072
			c-2.829-1.769-6.02-3.716-9.211-5.483l-0.186-0.103c-0.542-0.299-1.075-0.583-1.612-0.868l-0.492-0.263
			c-0.498-0.26-0.985-0.506-1.474-0.749l-0.635-0.317c-0.474-0.232-0.938-0.45-1.396-0.662l-0.712-0.33
			c-0.466-0.21-0.924-0.407-1.388-0.603l-0.752-0.315c-0.458-0.185-0.909-0.358-1.39-0.539c-0.268-0.099-0.534-0.198-0.772-0.283
			c-0.467-0.166-0.927-0.318-1.396-0.468c-0.28-0.09-0.559-0.175-0.84-0.257c-0.48-0.143-0.953-0.271-1.407-0.386
			c-0.299-0.075-0.596-0.146-0.902-0.214c-0.494-0.112-0.984-0.212-1.437-0.292c-0.322-0.058-0.64-0.107-0.952-0.152
			c-0.513-0.075-1.021-0.138-1.536-0.186c-0.305-0.028-0.603-0.046-0.986-0.067c-0.54-0.029-1.087-0.047-1.579-0.041
			c-0.324,0.002-0.643,0.017-1.034,0.038c-0.467,0.026-0.931,0.06-1.327,0.099c-0.198,0.02-0.397,0.039-0.567,0.062
			c-0.259,0.034-0.515,0.078-0.685,0.113c-1.591,0.263-3.048,0.669-4.455,1.244c-4.326,1.766-15.179,7.096-22.511,18.422
			l-0.102,0.155c-0.254,0.396-0.502,0.8-0.722,1.172c-0.015,0.023-0.029,0.048-0.044,0.073c-0.753,1.272-1.444,2.604-2.059,3.966
			l-0.065,0.146c-0.174,0.392-0.342,0.787-0.531,1.251l-0.057,0.142c-0.179,0.449-0.352,0.901-0.485,1.28l2.238,0.794l-2.279-0.68
			c-0.351,0.984-0.658,1.982-0.945,3.067l-0.045,0.174c-0.102,0.403-0.2,0.81-0.275,1.15l-0.097,0.441
			c-0.083,0.398-0.161,0.799-0.236,1.22l-0.053,0.3c-0.118,0.697-0.216,1.404-0.297,2.139c-0.037,0.337-0.07,0.675-0.099,1.001
			c-0.01,0.127-0.019,0.256-0.026,0.35c-0.027,0.422-0.056,0.848-0.074,1.316l-0.012,0.363c-0.013,0.41-0.017,0.822-0.017,1.206
			l0.002,0.485c0.008,0.423,0.024,0.849,0.039,1.234c0.007,0.147,0.012,0.296,0.016,0.365c0.034,0.557,0.073,1.119,0.136,1.753
			c0.001,0.005,0.012,0.101,0.013,0.105c0.05,0.483,0.108,0.971,0.179,1.479l0.079,0.526l2.349-0.352l-2.329,0.485
			c0.053,0.336,0.11,0.672,0.183,1.068l0.088,0.47c0.078,0.398,0.158,0.8,0.258,1.219c0.002,0.007,0.02,0.093,0.022,0.1l0.085,0.373
			c0.061,0.253,0.124,0.508,0.186,0.748l0.093,0.357c0.045,0.177,0.091,0.355,0.149,0.565c0.116,0.416,0.24,0.837,0.36,1.221
			l0.104,0.335l0.009-0.003c0.017,0.054,0.037,0.113,0.055,0.168l-0.01,0.004l0.136,0.407c0.122,0.37,0.249,0.741,0.384,1.116
			l0.068,0.192c0.054,0.154,0.113,0.309,0.184,0.497c0.145,0.38,0.292,0.763,0.477,1.215l0.234,0.575
			c0.167,0.396,0.341,0.794,0.543,1.242l0.483,1.041c0.154,0.325,0.309,0.65,0.49,1.011l1.226,2.306
			c0.118,0.211,0.234,0.422,0.421,0.747l0.199,0.334c0.003,0.005,0.005,0.01,0.008,0.015l0.311,0.526
			c0.188,0.315,0.384,0.632,0.602,0.983l0.456,0.725c0.354,0.55,0.718,1.104,1.098,1.662c1.66,2.427,4.146,4.146,7.002,4.839
			c0.905,0.22,22.382,5.417,41.893,8.167c1.553,0.219,3.165,0.47,4.928,0.767l0.337,0.058c1.684,0.287,3.384,0.596,5.19,0.946
			c11.247,2.188,24.042,5.485,39.117,10.075c0.949,0.29,1.896,0.58,2.828,0.868l0.316,0.098c2.907,0.902,5.787,1.815,8.667,2.746
			l2.909,0.946c0.013,0.004,0.023,0.008,0.031,0.011c1.916,0.633,3.816,1.255,5.702,1.884l2.836,0.952
			c6.874,2.315,13.399,4.584,19.158,6.586l19.194,6.501c0.479,0.15,0.942,0.293,1.396,0.431l1.763,0.521
			c0.338,0.097,0.661,0.188,0.919,0.258l0.384,0.106c0.425,0.115,0.832,0.222,1.301,0.34l0.106,0.024
			c0.355,0.088,0.694,0.168,1.004,0.238l0.387,0.084c0.297,0.063,0.577,0.12,0.928,0.186l0.289,0.053
			c0.469,0.083,0.915,0.149,1.313,0.197c0.095,0.011,0.19,0.028,0.289,0.044l0.129,0.021c1.474,0.235,3.15,0.453,5.431,0.453
			c2.04,0,4.339-0.173,7.031-0.531c0.095-0.013,0.188-0.031,0.226-0.042c0.347-0.052,0.689-0.115,1.038-0.198l0.175-0.049
			c0.321-0.083,0.635-0.178,0.991-0.303c0.176-0.052,0.352-0.107,0.517-0.161l0.343-0.11c11.773-3.753,22.254-10.701,31.155-20.651
			c10.262-11.468,63.303-53.301,105.201-73.801c5.029-1.919,29.543-11.913,46.34-30.31c3.128-3.427,3.974-8.399,2.152-12.666
			C396.056,62.932,391.881,60.102,387.241,59.989z"/>
		<path style="fill:#9A9A9A;" d="M385.815,58.563c-0.7-0.02-61.554-2.147-138.45-45.812c-4.95-2.809-11.219-1.702-14.911,2.634
			c-0.227,0.267-22.984,26.81-44.98,37.282c-5.867,2.794-14.373,6.006-24.23,9.729c-23.272,8.792-54.994,20.774-79.178,38.072
			c-2.829-1.769-6.02-3.716-9.211-5.483l-0.186-0.103c-0.542-0.299-1.075-0.583-1.612-0.868l-0.493-0.264
			c-0.497-0.259-0.984-0.505-1.473-0.749l-0.635-0.317c-0.474-0.231-0.938-0.45-1.395-0.661l-0.712-0.33
			c-0.466-0.21-0.924-0.406-1.389-0.603l-0.751-0.314c-0.458-0.185-0.909-0.359-1.39-0.539c-0.268-0.099-0.534-0.198-0.772-0.282
			c-0.467-0.165-0.927-0.318-1.396-0.469c-0.28-0.089-0.559-0.174-0.84-0.256c-0.481-0.142-0.954-0.271-1.407-0.386
			c-0.299-0.075-0.596-0.146-0.902-0.214c-0.494-0.112-0.984-0.212-1.437-0.291c-0.322-0.058-0.641-0.107-0.952-0.152
			c-0.513-0.075-1.021-0.14-1.536-0.187c-0.306-0.027-0.602-0.046-0.986-0.066c-0.54-0.029-1.087-0.048-1.58-0.041
			c-0.323,0.002-0.642,0.017-1.033,0.038c-0.467,0.025-0.932,0.06-1.327,0.099c-0.198,0.02-0.398,0.039-0.567,0.063
			c-0.259,0.034-0.515,0.078-0.685,0.112c-1.591,0.263-3.048,0.67-4.455,1.244c-4.326,1.766-15.179,7.097-22.512,18.423
			l-0.101,0.155c-0.254,0.397-0.502,0.8-0.722,1.172c-0.015,0.023-0.03,0.048-0.044,0.074c-0.753,1.271-1.444,2.603-2.059,3.965
			l-0.065,0.146c-0.174,0.392-0.342,0.786-0.531,1.25l-0.057,0.142c-0.179,0.448-0.352,0.901-0.486,1.279l2.239,0.795l-2.279-0.68
			c-0.351,0.985-0.658,1.983-0.945,3.067l-0.045,0.174c-0.102,0.403-0.2,0.81-0.275,1.15l-0.097,0.441
			c-0.083,0.397-0.161,0.799-0.236,1.219l-0.053,0.3c-0.118,0.697-0.216,1.403-0.297,2.139c-0.037,0.338-0.072,0.675-0.099,1.002
			c-0.011,0.127-0.02,0.256-0.026,0.35c-0.027,0.421-0.057,0.847-0.075,1.315l-0.011,0.363c-0.013,0.41-0.018,0.822-0.017,1.205
			l0.002,0.486c0.007,0.422,0.023,0.848,0.039,1.234c0.005,0.148,0.011,0.297,0.016,0.366c0.034,0.557,0.073,1.119,0.136,1.753
			c0,0.005,0.012,0.1,0.013,0.104c0.05,0.484,0.108,0.972,0.179,1.479l0.079,0.527l2.349-0.352l-2.329,0.486
			c0.053,0.335,0.11,0.672,0.183,1.067l0.088,0.471c0.078,0.397,0.158,0.8,0.257,1.219c0.002,0.008,0.021,0.093,0.023,0.1
			l0.085,0.373c0.06,0.253,0.124,0.508,0.187,0.748l0.093,0.357c0.045,0.178,0.09,0.355,0.149,0.564
			c0.116,0.417,0.24,0.837,0.36,1.222l0.104,0.335l0.009-0.003c0.018,0.054,0.037,0.113,0.055,0.168l-0.01,0.004l0.135,0.407
			c0.123,0.37,0.25,0.74,0.385,1.116l0.068,0.192c0.054,0.154,0.113,0.308,0.185,0.497c0.145,0.379,0.292,0.762,0.476,1.215
			l0.235,0.575c0.167,0.396,0.341,0.794,0.542,1.241l0.483,1.041c0.155,0.326,0.31,0.651,0.491,1.012l1.226,2.306
			c0.118,0.212,0.234,0.423,0.421,0.747l0.198,0.334c0.003,0.005,0.006,0.01,0.009,0.015l0.311,0.526
			c0.188,0.316,0.384,0.632,0.602,0.983l0.456,0.725c0.353,0.55,0.718,1.103,1.098,1.662c1.66,2.427,4.146,4.145,7.002,4.839
			c0.905,0.22,22.382,5.417,41.893,8.168c1.552,0.219,3.164,0.47,4.927,0.767l0.338,0.058c1.684,0.287,3.384,0.596,5.19,0.946
			c11.246,2.188,24.042,5.484,39.117,10.075c0.949,0.289,1.896,0.58,2.828,0.868l0.315,0.098c2.907,0.901,5.787,1.815,8.667,2.746
			l2.909,0.945c0.012,0.005,0.023,0.008,0.031,0.011c1.916,0.633,3.816,1.256,5.702,1.885l2.836,0.951
			c6.874,2.315,13.399,4.584,19.158,6.586l19.194,6.502c0.479,0.15,0.942,0.292,1.396,0.43l1.763,0.521
			c0.338,0.098,0.661,0.188,0.918,0.259l0.385,0.106c0.425,0.114,0.832,0.222,1.301,0.339l0.105,0.024
			c0.355,0.088,0.693,0.168,1.004,0.238l0.387,0.084c0.297,0.064,0.577,0.119,0.928,0.186l0.289,0.053
			c0.469,0.082,0.915,0.149,1.314,0.196c0.095,0.012,0.189,0.028,0.289,0.044l0.129,0.02c1.474,0.236,3.15,0.454,5.43,0.454
			c2.04,0,4.34-0.174,7.031-0.533c0.096-0.012,0.188-0.03,0.227-0.042c0.347-0.052,0.689-0.115,1.037-0.198l0.176-0.048
			c0.321-0.083,0.635-0.178,0.991-0.303c0.176-0.052,0.352-0.107,0.517-0.162l0.343-0.11c11.772-3.753,22.254-10.701,31.155-20.651
			c10.262-11.468,63.302-53.301,105.201-73.802c5.029-1.918,29.543-11.912,46.34-30.308c3.128-3.428,3.974-8.399,2.152-12.666
			C394.63,61.506,390.455,58.675,385.815,58.563z"/>
		<path style="fill:#8B8B8B;" d="M384.39,57.136c-0.7-0.02-61.554-2.147-138.45-45.812c-4.95-2.809-11.219-1.701-14.911,2.635
			c-0.228,0.267-22.984,26.81-44.981,37.282c-5.866,2.794-14.372,6.007-24.229,9.729c-23.273,8.792-54.994,20.774-79.178,38.073
			c-2.829-1.769-6.02-3.716-9.211-5.483l-0.186-0.104c-0.542-0.299-1.075-0.583-1.612-0.868l-0.493-0.263
			c-0.497-0.259-0.985-0.505-1.473-0.749l-0.635-0.317c-0.475-0.231-0.938-0.451-1.396-0.662l-0.712-0.329
			c-0.466-0.21-0.925-0.407-1.389-0.603l-0.751-0.314c-0.458-0.185-0.909-0.359-1.39-0.539c-0.268-0.099-0.534-0.198-0.773-0.283
			c-0.466-0.165-0.927-0.318-1.396-0.468c-0.28-0.089-0.559-0.173-0.84-0.256c-0.48-0.142-0.954-0.271-1.407-0.386
			c-0.299-0.076-0.596-0.146-0.903-0.215c-0.493-0.111-0.984-0.212-1.436-0.291c-0.322-0.058-0.641-0.107-0.952-0.153
			c-0.513-0.074-1.022-0.139-1.536-0.186c-0.306-0.028-0.604-0.047-0.986-0.067c-0.54-0.028-1.087-0.047-1.58-0.041
			c-0.323,0.002-0.642,0.018-1.033,0.039c-0.467,0.025-0.932,0.06-1.328,0.099c-0.197,0.019-0.396,0.039-0.566,0.063
			c-0.259,0.034-0.515,0.077-0.685,0.112c-1.591,0.262-3.048,0.67-4.455,1.244c-4.326,1.765-15.179,7.097-22.512,18.423
			l-0.101,0.155c-0.255,0.397-0.502,0.799-0.722,1.171c-0.016,0.023-0.03,0.049-0.044,0.074c-0.753,1.271-1.444,2.604-2.059,3.965
			l-0.066,0.147c-0.173,0.391-0.341,0.785-0.53,1.25l-0.057,0.142c-0.179,0.449-0.352,0.902-0.486,1.28l2.239,0.794l-2.28-0.68
			c-0.351,0.985-0.657,1.984-0.945,3.068l-0.044,0.174c-0.102,0.403-0.2,0.811-0.275,1.15l-0.097,0.44
			c-0.084,0.398-0.161,0.8-0.236,1.22l-0.053,0.301c-0.118,0.697-0.216,1.403-0.297,2.139c-0.037,0.338-0.072,0.674-0.099,1.001
			c-0.012,0.127-0.021,0.256-0.026,0.35c-0.028,0.421-0.057,0.847-0.075,1.314l-0.011,0.364c-0.013,0.41-0.018,0.822-0.017,1.206
			l0.002,0.485c0.007,0.423,0.022,0.849,0.039,1.234c0.005,0.148,0.011,0.297,0.016,0.365c0.033,0.557,0.073,1.118,0.135,1.754
			c0.001,0.004,0.013,0.1,0.014,0.104c0.05,0.484,0.108,0.972,0.179,1.479l0.079,0.526l2.349-0.352l-2.329,0.486
			c0.053,0.335,0.11,0.671,0.183,1.066l0.088,0.472c0.078,0.397,0.158,0.8,0.257,1.218c0.002,0.008,0.021,0.093,0.023,0.101
			l0.085,0.373c0.059,0.253,0.124,0.509,0.186,0.749l0.092,0.357c0.046,0.177,0.091,0.354,0.149,0.564
			c0.117,0.416,0.241,0.837,0.361,1.221l0.104,0.335l0.01-0.003c0.018,0.054,0.037,0.112,0.055,0.168l-0.011,0.004l0.136,0.406
			c0.123,0.371,0.25,0.741,0.384,1.117l0.069,0.191c0.054,0.154,0.113,0.309,0.185,0.496c0.144,0.38,0.292,0.763,0.476,1.215
			l0.235,0.575c0.167,0.396,0.341,0.794,0.542,1.241l0.483,1.042c0.155,0.326,0.311,0.651,0.491,1.011l1.226,2.305
			c0.117,0.213,0.234,0.423,0.421,0.747l0.198,0.335c0.003,0.005,0.006,0.009,0.009,0.014l0.311,0.526
			c0.188,0.316,0.384,0.633,0.601,0.983l0.456,0.726c0.353,0.55,0.717,1.102,1.098,1.661c1.66,2.427,4.146,4.146,7.002,4.839
			c0.905,0.22,22.381,5.417,41.893,8.167c1.552,0.219,3.164,0.47,4.927,0.768l0.338,0.058c1.683,0.286,3.384,0.596,5.189,0.946
			c11.247,2.188,24.043,5.483,39.118,10.075c0.949,0.288,1.896,0.58,2.828,0.868l0.315,0.098c2.907,0.901,5.787,1.814,8.667,2.745
			l2.909,0.945c0.012,0.004,0.023,0.008,0.031,0.012c1.916,0.632,3.816,1.255,5.702,1.885l2.836,0.951
			c6.874,2.315,13.399,4.585,19.158,6.587l19.194,6.501c0.479,0.15,0.942,0.293,1.396,0.431l1.763,0.521
			c0.338,0.097,0.661,0.188,0.918,0.259l0.385,0.105c0.425,0.115,0.832,0.222,1.3,0.34l0.106,0.024
			c0.355,0.089,0.693,0.168,1.004,0.237l0.387,0.085c0.297,0.063,0.577,0.119,0.928,0.185l0.289,0.054
			c0.469,0.082,0.915,0.148,1.313,0.196c0.095,0.012,0.191,0.027,0.29,0.044l0.129,0.02c1.474,0.236,3.15,0.454,5.43,0.454
			c2.04,0,4.339-0.175,7.031-0.533c0.096-0.013,0.189-0.031,0.227-0.041c0.346-0.052,0.689-0.115,1.037-0.199l0.176-0.048
			c0.32-0.083,0.635-0.178,0.99-0.303c0.177-0.053,0.352-0.107,0.517-0.161l0.344-0.11c11.772-3.753,22.254-10.7,31.155-20.65
			c10.262-11.468,63.302-53.301,105.201-73.802c5.029-1.917,29.543-11.912,46.34-30.308c3.128-3.428,3.974-8.4,2.152-12.667
			C393.204,60.08,389.029,57.25,384.39,57.136z"/>
		<path style="fill:#7D7D7D;" d="M382.963,55.71c-0.7-0.02-61.554-2.147-138.451-45.812c-4.949-2.81-11.218-1.702-14.909,2.634
			c-0.229,0.267-22.985,26.81-44.982,37.283c-5.866,2.794-14.372,6.007-24.229,9.729c-23.273,8.792-54.994,20.773-79.179,38.072
			c-2.828-1.768-6.019-3.716-9.21-5.483l-0.186-0.103c-0.542-0.299-1.074-0.583-1.612-0.868l-0.493-0.263
			c-0.496-0.259-0.984-0.504-1.473-0.749l-0.635-0.317c-0.475-0.233-0.939-0.451-1.396-0.662l-0.713-0.33
			c-0.465-0.209-0.924-0.407-1.387-0.603l-0.752-0.314c-0.459-0.186-0.909-0.359-1.39-0.54c-0.268-0.099-0.535-0.198-0.773-0.283
			c-0.466-0.166-0.926-0.318-1.396-0.468c-0.28-0.089-0.558-0.174-0.84-0.257c-0.48-0.141-0.954-0.271-1.407-0.385
			c-0.298-0.076-0.595-0.146-0.903-0.214c-0.493-0.112-0.983-0.212-1.436-0.292c-0.322-0.058-0.641-0.107-0.952-0.153
			c-0.512-0.075-1.021-0.138-1.536-0.186c-0.305-0.028-0.604-0.046-0.985-0.067c-0.541-0.028-1.088-0.047-1.581-0.041
			c-0.322,0.002-0.641,0.017-1.033,0.038c-0.466,0.026-0.931,0.061-1.328,0.1c-0.196,0.019-0.396,0.04-0.566,0.063
			c-0.259,0.033-0.514,0.077-0.685,0.112c-1.591,0.263-3.048,0.67-4.455,1.244c-4.325,1.766-15.178,7.096-22.512,18.422
			l-0.101,0.155c-0.255,0.397-0.502,0.8-0.723,1.172c-0.015,0.023-0.029,0.048-0.043,0.074c-0.754,1.271-1.444,2.604-2.059,3.965
			l-0.065,0.146c-0.174,0.393-0.342,0.787-0.53,1.252l-0.058,0.142c-0.179,0.448-0.351,0.901-0.486,1.28l2.239,0.794l-2.28-0.68
			c-0.351,0.985-0.657,1.983-0.945,3.068l-0.044,0.174c-0.103,0.403-0.199,0.81-0.275,1.15l-0.097,0.441
			c-0.084,0.398-0.161,0.8-0.236,1.22l-0.054,0.301c-0.117,0.696-0.215,1.403-0.297,2.139c-0.037,0.337-0.07,0.674-0.098,1.001
			c-0.011,0.128-0.019,0.256-0.026,0.35c-0.027,0.421-0.057,0.847-0.074,1.315l-0.011,0.364c-0.014,0.409-0.019,0.821-0.017,1.205
			l0.001,0.486c0.007,0.422,0.023,0.848,0.038,1.233c0.007,0.148,0.013,0.298,0.017,0.366c0.034,0.557,0.073,1.119,0.135,1.754
			c0.002,0.004,0.013,0.1,0.014,0.105c0.05,0.484,0.109,0.972,0.18,1.479l0.078,0.526l2.349-0.352l-2.329,0.485
			c0.053,0.335,0.11,0.672,0.183,1.067l0.088,0.471c0.079,0.397,0.159,0.8,0.257,1.219c0.002,0.008,0.021,0.093,0.022,0.1
			l0.085,0.373c0.06,0.253,0.124,0.509,0.186,0.748l0.093,0.357c0.047,0.177,0.091,0.355,0.149,0.564
			c0.118,0.416,0.24,0.837,0.361,1.221l0.104,0.335l0.01-0.003c0.018,0.054,0.037,0.113,0.056,0.169l-0.012,0.003l0.136,0.407
			c0.123,0.37,0.251,0.74,0.384,1.116l0.069,0.192c0.054,0.153,0.113,0.308,0.184,0.496c0.145,0.38,0.292,0.763,0.476,1.215
			l0.235,0.575c0.167,0.395,0.341,0.794,0.542,1.241l0.483,1.042c0.155,0.325,0.309,0.65,0.491,1.011l1.227,2.305
			c0.116,0.213,0.233,0.423,0.42,0.747l0.198,0.334c0.003,0.005,0.007,0.01,0.009,0.015l0.312,0.526
			c0.188,0.316,0.382,0.632,0.602,0.983l0.455,0.725c0.354,0.55,0.717,1.102,1.098,1.661c1.66,2.428,4.147,4.147,7.002,4.84
			c0.906,0.22,22.381,5.417,41.893,8.167c1.551,0.219,3.163,0.47,4.926,0.767l0.338,0.059c1.683,0.286,3.384,0.595,5.189,0.945
			c11.247,2.189,24.043,5.484,39.118,10.076c0.949,0.288,1.896,0.58,2.829,0.867l0.314,0.098c2.908,0.902,5.787,1.816,8.668,2.746
			l2.909,0.945c0.011,0.004,0.023,0.008,0.031,0.011c1.916,0.633,3.814,1.256,5.701,1.884l2.836,0.952
			c6.873,2.316,13.4,4.585,19.157,6.587l19.196,6.501c0.478,0.15,0.941,0.292,1.396,0.431l1.764,0.521
			c0.336,0.097,0.66,0.188,0.918,0.259l0.384,0.105c0.425,0.115,0.832,0.222,1.3,0.34l0.106,0.024
			c0.355,0.088,0.693,0.168,1.005,0.237l0.386,0.085c0.297,0.063,0.577,0.119,0.928,0.185l0.289,0.053
			c0.47,0.083,0.915,0.149,1.313,0.196c0.094,0.012,0.189,0.028,0.29,0.044l0.128,0.021c1.473,0.235,3.15,0.453,5.43,0.453
			c2.04,0,4.339-0.174,7.031-0.532c0.097-0.013,0.188-0.03,0.227-0.042c0.346-0.052,0.69-0.115,1.037-0.199l0.176-0.048
			c0.32-0.083,0.634-0.178,0.99-0.304c0.178-0.052,0.352-0.107,0.517-0.16l0.344-0.11c11.772-3.753,22.255-10.701,31.155-20.651
			c10.263-11.467,63.302-53.3,105.201-73.802c5.029-1.918,29.543-11.913,46.34-30.309c3.129-3.427,3.973-8.399,2.152-12.667
			C391.777,58.654,387.604,55.823,382.963,55.71z"/>
		<path style="fill:#6E6E6E;" d="M381.537,54.285c-0.701-0.02-61.554-2.147-138.451-45.812c-4.949-2.81-11.218-1.702-14.91,2.634
			c-0.228,0.267-22.984,26.81-44.981,37.283c-5.867,2.793-14.372,6.006-24.229,9.729c-23.273,8.792-54.994,20.773-79.179,38.073
			c-2.828-1.769-6.019-3.716-9.21-5.484l-0.186-0.103c-0.542-0.299-1.075-0.583-1.612-0.869l-0.493-0.262
			c-0.497-0.259-0.985-0.505-1.474-0.75l-0.634-0.317c-0.475-0.232-0.939-0.451-1.396-0.662l-0.713-0.33
			c-0.466-0.209-0.924-0.407-1.388-0.602l-0.751-0.315c-0.459-0.185-0.909-0.359-1.391-0.539c-0.267-0.1-0.534-0.198-0.772-0.282
			c-0.467-0.166-0.927-0.319-1.396-0.469c-0.28-0.089-0.558-0.174-0.839-0.257c-0.48-0.142-0.954-0.271-1.408-0.386
			c-0.298-0.075-0.595-0.146-0.902-0.214c-0.493-0.112-0.984-0.212-1.435-0.293c-0.322-0.058-0.641-0.106-0.952-0.152
			c-0.513-0.075-1.021-0.138-1.536-0.186c-0.306-0.028-0.604-0.046-0.986-0.067c-0.54-0.029-1.088-0.047-1.58-0.042
			c-0.324,0.003-0.642,0.017-1.033,0.038c-0.467,0.026-0.931,0.061-1.328,0.1c-0.197,0.019-0.396,0.039-0.566,0.063
			c-0.259,0.034-0.516,0.077-0.685,0.113c-1.592,0.262-3.048,0.669-4.455,1.244c-4.326,1.765-15.179,7.096-22.512,18.422
			l-0.102,0.155c-0.254,0.397-0.501,0.8-0.722,1.172c-0.015,0.024-0.029,0.049-0.043,0.074c-0.754,1.271-1.444,2.604-2.059,3.966
			l-0.066,0.146c-0.173,0.392-0.341,0.787-0.53,1.25l-0.057,0.142c-0.179,0.449-0.352,0.902-0.486,1.28l2.238,0.794l-2.279-0.68
			c-0.351,0.985-0.657,1.983-0.945,3.068l-0.044,0.173c-0.103,0.403-0.201,0.811-0.276,1.15l-0.096,0.442
			c-0.084,0.397-0.162,0.799-0.237,1.219l-0.053,0.3c-0.117,0.696-0.215,1.403-0.297,2.139c-0.037,0.337-0.07,0.674-0.098,1.001
			c-0.011,0.127-0.02,0.256-0.026,0.35c-0.028,0.421-0.057,0.847-0.075,1.315l-0.011,0.364c-0.014,0.409-0.017,0.821-0.017,1.205
			l0.001,0.485c0.008,0.423,0.024,0.849,0.039,1.234c0.006,0.148,0.013,0.297,0.016,0.365c0.035,0.557,0.073,1.119,0.136,1.754
			c0.001,0.004,0.012,0.1,0.013,0.105c0.051,0.484,0.109,0.972,0.18,1.479l0.079,0.527l2.349-0.353l-2.329,0.486
			c0.053,0.336,0.11,0.672,0.183,1.068l0.088,0.471c0.078,0.396,0.157,0.799,0.257,1.218c0.002,0.008,0.021,0.093,0.023,0.101
			l0.084,0.373c0.061,0.253,0.125,0.508,0.187,0.748l0.093,0.357c0.046,0.177,0.091,0.355,0.149,0.565
			c0.117,0.416,0.24,0.837,0.361,1.221l0.104,0.335l0.01-0.002c0.017,0.054,0.037,0.113,0.055,0.168l-0.011,0.003l0.136,0.407
			c0.122,0.37,0.25,0.741,0.384,1.116l0.069,0.192c0.054,0.154,0.112,0.308,0.184,0.496c0.145,0.38,0.292,0.764,0.476,1.216
			l0.234,0.575c0.167,0.395,0.342,0.793,0.543,1.241l0.483,1.041c0.155,0.325,0.309,0.651,0.491,1.012l1.225,2.306
			c0.118,0.212,0.235,0.422,0.422,0.747l0.198,0.334c0.003,0.004,0.006,0.01,0.009,0.015l0.311,0.526
			c0.188,0.316,0.383,0.632,0.602,0.983l0.456,0.725c0.354,0.55,0.717,1.103,1.098,1.662c1.659,2.427,4.146,4.146,7.001,4.839
			c0.906,0.22,22.382,5.418,41.894,8.168c1.552,0.219,3.164,0.471,4.927,0.768l0.338,0.058c1.683,0.286,3.383,0.596,5.19,0.946
			c11.247,2.188,24.042,5.485,39.118,10.076c0.949,0.289,1.896,0.58,2.827,0.868l0.316,0.097c2.907,0.902,5.787,1.816,8.666,2.746
			l2.91,0.946c0.012,0.004,0.023,0.008,0.031,0.011c1.916,0.633,3.815,1.255,5.702,1.884l2.836,0.952
			c6.873,2.315,13.399,4.584,19.157,6.587l19.195,6.501c0.479,0.15,0.942,0.292,1.396,0.43l1.762,0.521
			c0.338,0.097,0.662,0.188,0.919,0.259l0.384,0.106c0.425,0.115,0.832,0.222,1.301,0.339l0.105,0.024
			c0.355,0.088,0.694,0.168,1.004,0.238l0.388,0.085c0.297,0.063,0.576,0.119,0.928,0.185l0.289,0.053
			c0.469,0.082,0.915,0.149,1.313,0.196c0.095,0.012,0.19,0.028,0.29,0.044l0.129,0.022c1.473,0.234,3.15,0.453,5.43,0.453
			c2.04,0,4.339-0.173,7.031-0.532c0.096-0.013,0.188-0.03,0.227-0.042c0.346-0.052,0.689-0.115,1.037-0.199l0.176-0.048
			c0.32-0.084,0.634-0.179,0.99-0.304c0.177-0.052,0.352-0.107,0.517-0.16l0.344-0.11c11.771-3.753,22.253-10.702,31.155-20.651
			c10.262-11.468,63.302-53.301,105.201-73.802c5.029-1.919,29.543-11.913,46.34-30.309c3.128-3.428,3.973-8.399,2.152-12.667
			C390.352,57.227,386.176,54.397,381.537,54.285z"/>
		<path style="fill:#606060;" d="M380.11,52.858c-0.7-0.02-61.553-2.147-138.45-45.811c-4.949-2.81-11.218-1.703-14.91,2.634
			c-0.228,0.267-22.984,26.81-44.981,37.283c-5.867,2.794-14.372,6.006-24.229,9.729c-23.273,8.791-54.994,20.773-79.179,38.072
			c-2.828-1.769-6.02-3.716-9.211-5.483l-0.186-0.104c-0.541-0.299-1.075-0.583-1.612-0.868l-0.492-0.264
			c-0.497-0.259-0.985-0.504-1.474-0.748l-0.634-0.317c-0.475-0.232-0.939-0.451-1.396-0.662l-0.713-0.331
			c-0.466-0.209-0.924-0.406-1.388-0.602l-0.752-0.314c-0.458-0.186-0.909-0.359-1.39-0.539c-0.267-0.1-0.534-0.198-0.772-0.282
			c-0.467-0.166-0.927-0.319-1.396-0.469c-0.28-0.09-0.559-0.174-0.839-0.257c-0.481-0.141-0.954-0.271-1.408-0.385
			c-0.299-0.076-0.596-0.146-0.902-0.215c-0.493-0.112-0.984-0.212-1.437-0.292c-0.321-0.058-0.64-0.106-0.951-0.152
			c-0.514-0.075-1.021-0.138-1.536-0.186c-0.306-0.028-0.603-0.047-0.986-0.067c-0.54-0.028-1.088-0.047-1.58-0.041
			c-0.324,0.002-0.643,0.016-1.033,0.038c-0.467,0.024-0.932,0.057-1.328,0.1c-0.197,0.018-0.397,0.039-0.566,0.062
			c-0.259,0.034-0.516,0.078-0.686,0.113c-1.591,0.263-3.047,0.669-4.454,1.244c-4.326,1.765-15.179,7.097-22.512,18.422
			l-0.102,0.155c-0.254,0.397-0.502,0.8-0.722,1.172c-0.015,0.023-0.029,0.049-0.043,0.074c-0.754,1.271-1.445,2.604-2.059,3.966
			l-0.066,0.146c-0.174,0.392-0.342,0.787-0.53,1.251l-0.057,0.142c-0.18,0.449-0.352,0.902-0.486,1.28l2.238,0.795l-2.279-0.681
			c-0.351,0.985-0.657,1.983-0.945,3.068l-0.045,0.174c-0.102,0.403-0.2,0.811-0.275,1.15l-0.097,0.441
			c-0.083,0.397-0.161,0.799-0.236,1.22l-0.053,0.301c-0.118,0.696-0.215,1.403-0.297,2.139c-0.037,0.337-0.072,0.674-0.099,1.002
			c-0.011,0.127-0.021,0.255-0.025,0.35c-0.032,0.421-0.057,0.847-0.075,1.314l-0.012,0.363c-0.013,0.41-0.018,0.822-0.017,1.206
			l0.002,0.485c0.008,0.423,0.021,0.849,0.039,1.234c0.005,0.147,0.012,0.297,0.016,0.366c0.031,0.557,0.073,1.118,0.136,1.753
			c0.001,0.005,0.012,0.101,0.013,0.105c0.051,0.484,0.108,0.972,0.18,1.478l0.078,0.527l2.35-0.352l-2.33,0.485
			c0.054,0.334,0.11,0.672,0.183,1.067l0.089,0.471c0.078,0.397,0.163,0.798,0.257,1.218c0.002,0.008,0.021,0.093,0.023,0.101
			l0.084,0.373c0.06,0.254,0.124,0.509,0.186,0.748l0.093,0.357c0.046,0.177,0.09,0.354,0.149,0.564
			c0.116,0.416,0.24,0.837,0.361,1.221l0.103,0.335l0.01-0.003c0.018,0.054,0.037,0.113,0.055,0.168l-0.011,0.003l0.136,0.408
			c0.122,0.37,0.249,0.74,0.384,1.116l0.068,0.192c0.054,0.154,0.112,0.308,0.185,0.496c0.144,0.381,0.293,0.763,0.477,1.216
			l0.234,0.574c0.167,0.395,0.342,0.794,0.543,1.241l0.483,1.042c0.155,0.325,0.31,0.651,0.49,1.011l1.226,2.307
			c0.118,0.212,0.235,0.422,0.422,0.746l0.198,0.335c0.003,0.004,0.006,0.009,0.009,0.014l0.311,0.526
			c0.188,0.316,0.383,0.632,0.601,0.983l0.457,0.725c0.354,0.55,0.717,1.103,1.098,1.662c1.659,2.427,4.146,4.146,7.001,4.839
			c0.905,0.22,22.382,5.417,41.893,8.168c1.553,0.219,3.165,0.47,4.928,0.767l0.338,0.058c1.683,0.287,3.383,0.596,5.189,0.946
			c11.247,2.188,24.042,5.484,39.118,10.075c0.949,0.288,1.896,0.58,2.827,0.868l0.315,0.097c2.908,0.902,5.787,1.816,8.667,2.746
			l2.909,0.946c0.013,0.004,0.023,0.008,0.032,0.011c1.917,0.627,3.815,1.255,5.701,1.884l2.837,0.951
			c6.873,2.316,13.398,4.585,19.157,6.587l19.195,6.501c0.479,0.15,0.942,0.293,1.395,0.431l1.763,0.52
			c0.338,0.098,0.662,0.188,0.919,0.259l0.384,0.106c0.425,0.115,0.832,0.223,1.301,0.34l0.105,0.024
			c0.355,0.088,0.694,0.168,1.004,0.237l0.387,0.085c0.297,0.063,0.577,0.119,0.928,0.186l0.29,0.053
			c0.469,0.082,0.915,0.148,1.313,0.196c0.095,0.012,0.19,0.028,0.289,0.044l0.13,0.021c1.473,0.235,3.15,0.453,5.43,0.453
			c2.04,0,4.339-0.174,7.031-0.531c0.096-0.013,0.188-0.031,0.227-0.042c0.346-0.052,0.689-0.115,1.037-0.199l0.175-0.048
			c0.321-0.083,0.635-0.178,0.991-0.303c0.176-0.053,0.352-0.107,0.517-0.161l0.344-0.11c11.771-3.753,22.253-10.701,31.155-20.651
			c10.261-11.468,63.302-53.301,105.201-73.801c5.029-1.919,29.543-11.913,46.339-30.309c3.129-3.427,3.974-8.4,2.152-12.666
			C388.925,55.801,384.75,52.971,380.11,52.858z"/>
	</g>
	<path style="fill:#FFFFFF;" d="M380.11,52.858c-0.7-0.02-61.553-2.147-138.45-45.811c-4.949-2.81-11.218-1.703-14.91,2.634
		c-0.228,0.267-22.984,26.81-44.981,37.283c-5.867,2.794-14.372,6.006-24.229,9.729c-23.273,8.791-54.994,20.773-79.179,38.072
		c-2.828-1.769-6.02-3.716-9.211-5.483l-0.186-0.104c-0.541-0.299-1.075-0.583-1.612-0.868l-0.492-0.264
		c-0.497-0.259-0.985-0.504-1.474-0.748l-0.634-0.317c-0.475-0.232-0.939-0.451-1.396-0.662l-0.713-0.331
		c-0.466-0.209-0.924-0.406-1.388-0.602l-0.752-0.314c-0.458-0.186-0.909-0.359-1.39-0.539c-0.267-0.1-0.534-0.198-0.772-0.282
		c-0.467-0.166-0.927-0.319-1.396-0.469c-0.28-0.09-0.559-0.174-0.839-0.257c-0.481-0.141-0.954-0.271-1.408-0.385
		c-0.299-0.076-0.596-0.146-0.902-0.215c-0.493-0.112-0.984-0.212-1.437-0.292c-0.321-0.058-0.64-0.106-0.951-0.152
		c-0.514-0.075-1.021-0.138-1.536-0.186c-0.306-0.028-0.603-0.047-0.986-0.067c-0.54-0.028-1.088-0.047-1.58-0.041
		c-0.324,0.002-0.643,0.016-1.033,0.038c-0.467,0.024-0.932,0.057-1.328,0.1c-0.197,0.018-0.397,0.039-0.566,0.062
		c-0.259,0.034-0.516,0.078-0.686,0.113c-1.591,0.263-3.047,0.669-4.454,1.244c-4.326,1.765-15.179,7.097-22.512,18.422
		l-0.102,0.155c-0.254,0.397-0.502,0.8-0.722,1.172c-0.015,0.023-0.029,0.049-0.043,0.074c-0.754,1.271-1.445,2.604-2.059,3.966
		l-0.066,0.146c-0.174,0.392-0.342,0.787-0.53,1.251l-0.057,0.142c-0.18,0.449-0.352,0.902-0.486,1.28l2.238,0.795l-2.279-0.681
		c-0.351,0.985-0.657,1.983-0.945,3.068l-0.045,0.174c-0.102,0.403-0.2,0.811-0.275,1.15l-0.097,0.441
		c-0.083,0.397-0.161,0.799-0.236,1.22l-0.053,0.301c-0.118,0.696-0.215,1.403-0.297,2.139c-0.037,0.337-0.072,0.674-0.099,1.002
		c-0.011,0.127-0.021,0.255-0.025,0.35c-0.032,0.421-0.057,0.847-0.075,1.314l-0.012,0.363c-0.013,0.41-0.018,0.822-0.017,1.206
		l0.002,0.485c0.008,0.423,0.021,0.849,0.039,1.234c0.005,0.147,0.012,0.297,0.016,0.366c0.031,0.557,0.073,1.118,0.136,1.753
		c0.001,0.005,0.012,0.101,0.013,0.105c0.051,0.484,0.108,0.972,0.18,1.478l0.078,0.527l2.35-0.352l-2.33,0.485
		c0.054,0.334,0.11,0.672,0.183,1.067l0.089,0.471c0.078,0.397,0.163,0.798,0.257,1.218c0.002,0.008,0.021,0.093,0.023,0.101
		l0.084,0.373c0.06,0.254,0.124,0.509,0.186,0.748l0.093,0.357c0.046,0.177,0.09,0.354,0.149,0.564
		c0.116,0.416,0.24,0.837,0.361,1.221l0.103,0.335l0.01-0.003c0.018,0.054,0.037,0.113,0.055,0.168l-0.011,0.003l0.136,0.408
		c0.122,0.37,0.249,0.74,0.384,1.116l0.068,0.192c0.054,0.154,0.112,0.308,0.185,0.496c0.144,0.381,0.293,0.763,0.477,1.216
		l0.234,0.574c0.167,0.395,0.342,0.794,0.543,1.241l0.483,1.042c0.155,0.325,0.31,0.651,0.49,1.011l1.226,2.307
		c0.118,0.212,0.235,0.422,0.422,0.746l0.198,0.335c0.003,0.004,0.006,0.009,0.009,0.014l0.311,0.526
		c0.188,0.316,0.383,0.632,0.601,0.983l0.457,0.725c0.354,0.55,0.717,1.103,1.098,1.662c1.659,2.427,4.146,4.146,7.001,4.839
		c0.905,0.22,22.382,5.417,41.893,8.168c1.553,0.219,3.165,0.47,4.928,0.767l0.338,0.058c1.683,0.287,3.383,0.596,5.189,0.946
		c11.247,2.188,24.042,5.484,39.118,10.075c0.949,0.288,1.896,0.58,2.827,0.868l0.315,0.097c2.908,0.902,5.787,1.816,8.667,2.746
		l2.909,0.946c0.013,0.004,0.023,0.008,0.032,0.011c1.917,0.627,3.815,1.255,5.701,1.884l2.837,0.951
		c6.873,2.316,13.398,4.585,19.157,6.587l19.195,6.501c0.479,0.15,0.942,0.293,1.395,0.431l1.763,0.52
		c0.338,0.098,0.662,0.188,0.919,0.259l0.384,0.106c0.425,0.115,0.832,0.223,1.301,0.34l0.105,0.024
		c0.355,0.088,0.694,0.168,1.004,0.237l0.387,0.085c0.297,0.063,0.577,0.119,0.928,0.186l0.29,0.053
		c0.469,0.082,0.915,0.148,1.313,0.196c0.095,0.012,0.19,0.028,0.289,0.044l0.13,0.021c1.473,0.235,3.15,0.453,5.43,0.453
		c2.04,0,4.339-0.174,7.031-0.531c0.096-0.013,0.188-0.031,0.227-0.042c0.346-0.052,0.689-0.115,1.037-0.199l0.175-0.048
		c0.321-0.083,0.635-0.178,0.991-0.303c0.176-0.053,0.352-0.107,0.517-0.161l0.344-0.11c11.771-3.753,22.253-10.701,31.155-20.651
		c10.261-11.468,63.302-53.301,105.201-73.801c5.029-1.919,29.543-11.913,46.339-30.309c3.129-3.427,3.974-8.4,2.152-12.666
		C388.925,55.801,384.75,52.971,380.11,52.858z"/>
	<g>
		<g>
			<g>
				<path style="fill:#FEFCFA;" d="M192.687,186.357c0,0,5.702,1.103,9.163-0.031c2.564-0.843,14.525-4.176,26.353-17.397
					c11.829-13.22,66.692-56.061,109.353-76.803c0,0,25.831-9.392,42.268-27.395c0,0-63.332-1.536-144.026-47.357
					c0,0-24.264,28.572-48.922,40.313C162.22,69.426,99.99,85.865,69.464,117.956C69.464,117.956,129.342,169.666,192.687,186.357z"
					/>
				<path style="opacity:0.8;fill:#E1DAD3;" d="M235.797,17.372c0,0-24.264,28.572-48.922,40.313
					C162.22,69.426,99.99,85.865,69.464,117.956c0,0,59.878,51.71,123.223,68.4c0,0,5.702,1.103,9.163-0.031
					c2.564-0.843,14.525-4.176,26.353-17.397c11.829-13.22,66.692-56.061,109.353-76.803c0,0,25.831-9.392,42.268-27.395
					C379.823,64.73,316.491,63.194,235.797,17.372z M369.107,68.872c-13.268,5.796-26.139,12.459-38.761,19.544
					c-2.921,1.639-5.841,3.27-8.698,5.02c-2.675,1.638-5.35,3.319-8.197,4.645c-2.582,1.2-5.387,2.264-8.272,2.29
					c-3.22,0.03-6.36-0.789-9.568-0.921c2.073,1.629,4.338,2.972,6.534,4.424c0.12,0.079,0.117,0.238,0,0.317
					c-0.847,0.586-1.705,1.156-2.581,1.694c-12.938,7.955-28.223,11.468-40.358,20.825c-11.65,8.981-20.626,21.342-33.589,28.623
					c-0.11,0.062-0.291-0.015-0.276-0.159c0.411-3.864,2.123-7.425,2.769-11.238c-2.346,5.271-5.444,11.049-10.219,14.339
					c-0.133,0.092-0.317-0.059-0.27-0.207c0.863-2.64,1.403-5.418,1.671-8.181c0.27-2.811,0.448-5.936-0.489-8.65
					c-0.727-2.107-1.77-4.326-4.15-4.795c-3.063-0.602-6.285-0.803-9.388-1.086c-8.108-0.74-16.25-1.05-24.355-1.848
					c-7.87-0.774-15.731-1.936-23.532-3.224c-8.665-1.431-17.288-3.116-25.835-5.127c-4.283-1.006-8.552-2.082-12.794-3.247
					c-2.984-0.821-5.95-1.92-9.006-2.437c-2.38-0.403-4.814-0.684-7.12-1.412c-1.687-0.534-3.614-1.3-4.386-3.024
					c-0.787-1.756,0.805-3.651,1.934-4.838c1.482-1.559,3.164-2.872,4.849-4.195c-3.466,1.173-6.745,2.807-10.015,4.441
					c-0.212,0.107-0.379-0.183-0.186-0.317c4.313-2.969,8.333-6.319,12.499-9.484c4.089-3.104,8.32-5.881,12.899-8.215
					c9.471-4.832,19.391-8.752,28.963-13.384c7.842-3.795,60.633-16.756,66.861-17.544c5.933-0.75,12.356-1.891,17.323-5.444
					c-13.538,0.835-26.969,3.953-40.585,2.905c-0.17-0.013-0.268-0.252-0.092-0.344c8.647-4.51,16.704-10.111,24.556-15.876
					c2.134-1.568,4.234-3.084,6.139-4.809c5.967-5.923,7.575-12.604,12.588-17.696c0.059-0.06-1.226-0.289-1.153-0.249
					c13.859,7.651,27.795,15.178,42.018,22.136c7.801,3.815,15.679,7.474,23.668,10.875c8.007,3.408,16.115,6.784,24.552,8.985
					c4.085,1.067,8.245,1.912,12.457,2.288c3.613,0.323,7.235,0.504,10.855,0.746c6.939,0.462,14.158,0.954,20.696,3.517
					C369.19,68.585,369.271,68.801,369.107,68.872z"/>
				<path style="opacity:0.9;fill:#CCC7C1;" d="M205.731,176.937c-0.12-0.027-0.164-0.169-0.109-0.27
					c1.306-2.488,2.745-4.939,3.76-7.568c1.028-2.671,1.515-5.423,1.73-8.272c0.435-5.752-0.575-11.616-3.939-16.381
					c-0.158,4.979,0.713,9.999,1.727,14.851c0.026,0.125-0.054,0.221-0.177,0.234c-1.182,0.115-2.322-0.063-3.544-0.13
					c-1.957-0.109-3.916-0.232-5.87-0.376c-4.02-0.295-8.036-0.661-12.039-1.119c-22.243-2.541-44.041-8.202-64.752-16.705
					c-9.91-4.069-19.354-9.076-29.077-13.552c-7.519-3.461-15.168-6.955-21.935-11.762c-0.693,0.685-1.379,1.373-2.042,2.071
					c0,0,59.878,51.71,123.223,68.4c0,0,5.702,1.103,9.163-0.031c1.657-0.545,7.245-2.135,14.182-6.761
					C212.582,178.768,209.18,177.73,205.731,176.937z"/>
				<path style="fill:#F6EEE5;" d="M196.022,137.444c0,0,8.424-2.131,12.56,4.153c4.14,6.284,5.005,30.438-9.146,33.703
					c0,0-2.608,1.109-5.153-0.131c-2.188-1.066-19.309-5.023-19.309-5.023S169.754,145.792,196.022,137.444z"/>
				<path style="opacity:0.9;fill:#E1DAD3;" d="M196.022,137.444c0,0,8.424-2.131,12.56,4.153c4.14,6.284,5.005,30.438-9.146,33.703
					c0,0-2.608,1.109-5.153-0.131c-2.188-1.066-19.309-5.023-19.309-5.023S169.754,145.792,196.022,137.444z"/>
				<path style="opacity:0.9;fill:#E1DAD3;" d="M196.022,137.444c0,0,8.424-2.131,12.56,4.153c4.14,6.284,5.005,30.438-9.146,33.703
					c0,0-2.608,1.109-5.153-0.131c-2.188-1.066-19.309-5.023-19.309-5.023S169.754,145.792,196.022,137.444z"/>
				<path style="opacity:0.9;fill:#E1DAD3;" d="M186.481,159.305c4.185,1.382,8.261,3.06,12.33,4.749
					c0.781,0.324,1.565,0.585,2.367,0.855c0.559,0.187,1.204,0.394,1.634,0.819c1.025,1.012,0.219,1.816,0.099,2.91
					c0.623-0.567,1.031-1.322,1.343-2.105c0.086-0.215,0.414-0.138,0.355,0.097c-0.238,0.962-0.644,1.866-0.795,2.84
					c2.496-2.846,4.177-6.229,4.587-10.037c0.104-0.96,0.101-1.92,0.173-2.882c0.072-0.98,0.227-1.99,0.133-2.973
					c-0.225-2.381-2.177-3.093-3.999-4.13c-0.178-0.1-0.054-0.418,0.141-0.336c1.021,0.429,2.084,0.681,3.159,0.92
					c-0.643-3.851-0.223-8.761-3.381-11.55c-0.247-0.218-0.511-0.429-0.789-0.627c-1.625-0.598-3.275-0.767-4.639-0.756
					c-0.059,0.123-0.262,0.151-0.327,0.003c-1.68,0.046-2.848,0.342-2.848,0.342c-12.908,4.102-18.21,12.07-20.268,19.112
					C179.383,157.247,182.973,158.147,186.481,159.305z"/>
				<path style="fill:#F6EEE7;" d="M179.74,161.184c2.845,0.582,5.69,1.174,8.497,1.919c2.932,0.776,5.814,1.71,8.709,2.608
					c1.355,0.421,2.716,0.811,4.083,1.186c0.858-0.55,1.432-1.542,1.832-2.444c0.518-1.167,0.896-2.44,1.035-3.712
					c0.332-3.018-0.732-6.885-4.153-7.492c-0.926-0.164-1.86-0.174-2.795-0.233c-0.946-0.059-1.89-0.18-2.83-0.302
					c-2.005-0.26-4.008-0.566-6.002-0.902c-2.005-0.338-4.006-0.732-5.981-1.22c-1.104-0.273-2.264-0.43-3.35-0.788
					c-2.204,3.486-3.315,7.109-3.832,10.315C176.528,160.556,178.147,160.859,179.74,161.184z"/>
				<path style="opacity:0.9;fill:#E1DAD3;" d="M198.12,163.281c-0.258-0.237-0.509-0.484-0.78-0.71
					c-0.125-0.104-0.021-0.317,0.13-0.314c0.776,0.022,1.542,0.126,2.316,0.096c0.061-0.682,0.1-1.314,0.384-1.94
					c-0.98-0.492-2.02-0.85-3.024-1.289l0,0l0,0c-0.015-0.006-0.029-0.012-0.043-0.019c-0.211-0.092-0.045-0.361,0.141-0.336
					c1.146,0.154,2.285,0.154,3.392,0.492c0.369-2.047-0.064-4.361-1.264-6.064c-0.803-0.11-1.612-0.131-2.423-0.182
					c-0.946-0.059-1.89-0.18-2.83-0.302c-2.005-0.26-4.008-0.566-6.002-0.902c-2.005-0.338-4.006-0.732-5.981-1.22
					c-1.104-0.273-2.264-0.43-3.35-0.788c-2.204,3.486-3.315,7.109-3.832,10.315c1.575,0.437,3.194,0.74,4.787,1.065
					c2.845,0.582,5.69,1.174,8.497,1.919c2.723,0.72,5.402,1.576,8.088,2.414C196.595,164.505,197.158,163.629,198.12,163.281z"/>
				<path style="fill:#F6EEE7;" d="M191.419,168.385c-0.371-1.372-0.466-2.813-0.154-4.317c0.273-1.316,0.693-2.782,1.304-3.981
					c1.293-2.547,3.279-5.77,8.412-6.378c-3.54-2.22-16.481-3.987-19.539-5.015c-0.514-0.173-1.028-0.342-1.541-0.511
					c-7.483,10.025-4.927,21.964-4.927,21.964s14.876,4.68,17.287,5.023c0.912,0.131,3.009,0.652,3.587,0.587
					c-0.151,0.018-0.868-1.06-0.988-1.207C193.368,172.695,192.024,170.633,191.419,168.385z"/>
				<path style="opacity:0.8;fill:#FFFFFF;" d="M198.69,153.744c-1.085,0.079-2.047,0.549-2.957,1.122
					c-1.619,1.019-3.095,2.348-4.142,3.962c-1.267,1.948-1.661,4.268-1.594,6.566c0.069,2.433,0.572,4.991,1.823,7.11
					c0.99,1.68,2.284,2.775,3.966,3.225c-0.227-0.162-0.819-1.046-0.928-1.18c-1.491-1.855-2.835-3.917-3.441-6.164
					c-0.371-1.372-0.466-2.813-0.154-4.317c0.273-1.316,0.693-2.782,1.304-3.981c1.224-2.41,3.071-5.42,7.613-6.254
					C199.684,153.758,199.184,153.708,198.69,153.744z"/>
				<path style="fill:#FFFFFF;" d="M189.848,134.66c0,0-60.538-2.087-83.759-10.698c-23.224-8.611-49.577-34.442-62.362-29.225
					c-12.785,5.218-32.096,22.701-14.091,49.055c0,0,21.614,5.251,40.747,7.948c46.061,6.496,109.798,33.533,120.753,34.843
					c1.763,0.21,3.525,0.859,9.932,0.002c0,0-11.081,1.485-15.464-6.392c-4.383-7.876-9.586-28.834,9.2-39.793
					c0,0,8.51-5.436,13.778,1.196C208.582,141.597,207.504,135.008,189.848,134.66z"/>
				<path style="opacity:0.5;fill:#E1DAD3;" d="M189.848,134.66c0,0-60.538-2.087-83.759-10.698
					c-21.949-8.138-46.691-31.653-60.135-29.806c6.117,2.045,12.021,4.6,17.617,7.812c4.933,2.83,9.667,5.987,14.285,9.303
					c4.595,3.298,9.066,6.749,13.782,9.877c9.137,6.061,18.755,11.472,28.521,16.446c9.101,4.634,19.139,8.97,29.522,9.059
					c-10.863-4.537-21.429-9.782-31.071-16.583c-0.163-0.115-0.069-0.402,0.142-0.337c3.285,1.011,6.609,1.896,9.97,2.619
					c10.961,2.357,22.115,2.992,33.301,2.739c4.798-0.108,9.604-0.376,14.399-0.111c4.446,0.247,8.978,0.882,13.016,2.867
					c0.154,0.076,0.094,0.288-0.045,0.337c-2.214,0.797-3.838,2.863-6.132,3.434c-1.88,0.467-3.965-0.204-5.813-0.546
					c-1.357-0.253-2.743-0.402-4.135-0.518c2.531,0.762,5.117,1.353,7.539,2.445c0.09,0.04,0.115,0.174,0.065,0.252
					c-2.707,4.285-6.423,8.031-6.881,13.343c-0.461,5.35,1.175,10.658,0.528,15.998c-0.015,0.122-0.105,0.205-0.232,0.178
					c-9.854-2.151-18.578-7.462-28.018-10.802c-10.072-3.565-20.837-4.553-31.341-6.123c-0.191-0.029-0.158-0.306,0-0.355
					c7.67-2.406,15.17-5.337,22.891-7.582c-21.439-2.147-43.068,1.614-64.468-1.247c-5.173-0.692-10.239-1.939-15.395-2.74
					c-4.907-0.763-9.896-1.429-14.638-2.969c-3.735-1.212-7.767-2.847-9.166-6.85c-1.234-3.538-0.718-7.372-1.212-11.036
					c-2.282,3.599-2.613,8.329-1.917,12.438c0.04,0.232-0.274,0.323-0.355,0.098c-0.028-0.08-0.058-0.16-0.085-0.24
					c-3.196-9.087-4.302-19.639-2.153-29.229c-6.897,8.706-9.87,21.518,1.158,37.66c0,0,21.614,5.251,40.747,7.948
					c46.061,6.496,109.798,33.533,120.753,34.843c1.763,0.21,3.525,0.859,9.932,0.002c0,0-11.081,1.485-15.464-6.392
					c-4.383-7.876-9.586-28.834,9.2-39.793c0,0,8.51-5.436,13.778,1.196C208.582,141.597,207.504,135.008,189.848,134.66z"/>
				<path style="opacity:0.5;fill:#E1DAD3;" d="M65.576,149.098c-5.843-1.545-11.771-2.724-17.681-3.983
					c-2.956-0.629-5.91-1.275-8.844-2.007c-2.036-0.507-4.045-1.056-5.914-2.034c-8.294-4.342-10.432-13.177-10.477-22.161
					c-1.153,7.035,0.484,15.379,6.975,24.879c0,0,21.614,5.251,40.747,7.948c3.563,0.502,7.229,1.129,10.972,1.856
					C76.122,152.004,70.864,150.497,65.576,149.098z"/>
				<path style="opacity:0.5;fill:#E1DAD3;" d="M73.398,146.66c-0.429-0.059-0.857-0.124-1.284-0.189
					c0.452,0.165,0.906,0.327,1.363,0.482c5.417,1.837,11.039,3.413,16.656,4.513c5.99,1.174,12.181,1.468,18.275,1.237
					c6.116-0.233,12.194-1.12,18.196-2.285c2.464-0.479,4.933-0.924,7.397-1.396c0.19-0.037,0.379-0.075,0.569-0.112
					c1.095-0.347,2.191-0.684,3.294-1.003C116.427,145.759,94.798,149.521,73.398,146.66z"/>
				<path style="opacity:0.9;fill:#E1DAD3;" d="M194.079,134.884c1.385,0.446,2.748,0.923,4.083,1.349
					c0.176,0.057,0.178,0.3,0,0.355c-10.587,3.324-17.622,13.169-19.217,23.917c-0.31,2.084-0.443,4.2-0.354,6.306
					c0.083,1.979,0.217,4.129,0.817,6.026c0.665,2.099,3.357,6.809,0.43,8.268c-1.4,0.697-3.278-0.162-4.558-0.744
					c-2.176-0.989-4.362-1.861-6.638-2.606c-5.497-1.801-11.131-3.122-16.706-4.65c-10.137-2.778-19.979-6.577-30.182-9.119
					c32.555,9.913,62.226,21.743,69.38,22.598c1.763,0.21,3.525,0.859,9.932,0.002c0,0-11.081,1.485-15.464-6.392
					c-4.383-7.876-9.586-28.834,9.2-39.793c0,0,8.51-5.436,13.778,1.196C208.582,141.597,207.68,136.103,194.079,134.884z"/>
			</g>
			<path style="opacity:0.6;fill:#FFFFFF;" d="M208.992,166.413c-0.691,1.406-1.193,2.861-2.259,4.047
				c-1.021,1.135-1.912,2.338-3.337,2.998c-1.27,0.587-2.553,1.255-3.925,1.627c-1.152,0.313-3.612,1.188-4.419-0.153
				c-0.01-0.018-0.046,0.024-0.04,0.039c0.689,1.54,2.462,0.899,3.739,0.6c2.211-0.521,4.643-1.45,6.363-2.981
				c0.749-0.667,1.239-1.495,1.96-2.179c0.499-0.474,0.917-1.264,1.198-1.882c0.319-0.698,0.774-1.417,0.865-2.189
				C209.15,166.243,209.004,166.388,208.992,166.413z"/>
		</g>
		<path style="opacity:0.7;fill:#F6EEE7;" d="M112.504,134.149c-5.721-1.739-11.27-4.083-16.597-6.758
			c-9.603-4.817-18.794-10.633-27.475-16.954c-4.692-3.416-9.202-7.075-13.838-10.566c-2.121-1.596-4.785-3.816-7.6-4.827
			c-9.377,3.48-16.992,12.944-15.524,22.835c0.248-0.37,0.428-0.8,0.65-1.171c0.343-0.568,0.684-1.137,1.028-1.705
			c0.439-0.729,1.141-1.767,1.867-2.249c0.253-0.168,0.465-0.415,0.678-0.629c0.16-0.163,0.876-0.974,0.979-0.017
			c0.037,0.348-0.163,0.78-0.298,1.106c-0.337,0.822-0.269,1.953-0.218,2.832c0.124,2.159,0.684,4.066,2.357,5.518
			c1.672,1.449,3.937,2.116,6,2.782c2.626,0.847,5.356,1.328,8.075,1.755c1.358,0.216,2.727,0.305,4.084,0.544
			c1.476,0.259,2.937,0.585,4.419,0.805c5.743,0.85,11.56,0.946,17.321,1.61c5.92,0.682,11.783,1.818,17.7,2.529
			c2.951,0.355,5.848,1.061,8.772,1.572c1.348,0.235,2.701,0.379,4.02,0.764c0.622,0.182,1.372,0.109,1.977,0.358
			c0.485,0.2,1.011,0.317,1.535,0.327c0.109,0.002,0.333-0.253,0.223-0.349C112.595,134.223,112.549,134.187,112.504,134.149z"/>
		<path style="opacity:0.7;fill:#F6EEE7;" d="M236.931,25.297c0,0-4.783,12.511-12.51,17.661
			C216.694,48.11,205.288,55.1,205.288,55.1s42.68-5.519,57.029-2.943c14.349,2.575,51.509,15.82,75.791,16.188
			c0,0-23.915-4.782-42.679-11.772C276.666,49.582,236.931,25.297,236.931,25.297z"/>
	</g>
</g>
</svg>
